<svg xmlns="http://www.w3.org/2000/svg" xmlns:xlink="http://www.w3.org/1999/xlink" width="150" zoomAndPan="magnify" viewBox="0 0 112.5 112.499997" height="150" preserveAspectRatio="xMidYMid meet" version="1.2"><defs><clipPath id="c95b648226"><path d="M 5 5 L 21 5 L 21 20 L 5 20 Z M 5 5 "/></clipPath><clipPath id="31e95b9cc7"><path d="M 10.773438 1.730469 L 22.792969 9.273438 L 15.644531 20.65625 L 3.628906 13.113281 Z M 10.773438 1.730469 "/></clipPath><clipPath id="63bc6665f0"><path d="M 10.773438 1.730469 L 22.792969 9.273438 L 15.644531 20.65625 L 3.628906 13.113281 Z M 10.773438 1.730469 "/></clipPath><clipPath id="1796001eb3"><path d="M 10.773438 1.730469 L 22.792969 9.273438 L 15.644531 20.65625 L 3.628906 13.113281 Z M 10.773438 1.730469 "/></clipPath><clipPath id="22712fd766"><path d="M 70 67 L 83 67 L 83 80 L 70 80 Z M 70 67 "/></clipPath><clipPath id="cdda3e9f59"><path d="M 74.515625 63.707031 L 85.269531 70.453125 L 78.917969 80.574219 L 68.164062 73.824219 Z M 74.515625 63.707031 "/></clipPath><clipPath id="192eeb113c"><path d="M 74.515625 63.707031 L 85.269531 70.453125 L 78.917969 80.574219 L 68.164062 73.824219 Z M 74.515625 63.707031 "/></clipPath><clipPath id="4609444e35"><path d="M 74.515625 63.707031 L 85.269531 70.453125 L 78.917969 80.574219 L 68.164062 73.824219 Z M 74.515625 63.707031 "/></clipPath><clipPath id="a078a783ba"><path d="M 8 66 L 41 66 L 41 98 L 8 98 Z M 8 66 "/></clipPath><clipPath id="e1bd878ef0"><path d="M 19.726562 58.09375 L 46.921875 75.164062 L 30.644531 101.09375 L 3.453125 84.023438 Z M 19.726562 58.09375 "/></clipPath><clipPath id="bbd08b6955"><path d="M 19.726562 58.09375 L 46.921875 75.164062 L 30.644531 101.09375 L 3.453125 84.023438 Z M 19.726562 58.09375 "/></clipPath><clipPath id="124b6dc2d4"><path d="M 19.726562 58.09375 L 46.921875 75.164062 L 30.644531 101.09375 L 3.453125 84.023438 Z M 19.726562 58.09375 "/></clipPath><clipPath id="c1e5207a1b"><path d="M 72 12 L 102 12 L 102 42 L 72 42 Z M 72 12 "/></clipPath><clipPath id="7c54238643"><path d="M 68.203125 19.742188 L 94.117188 6.457031 L 106.722656 31.042969 L 80.808594 44.328125 Z M 68.203125 19.742188 "/></clipPath><clipPath id="55d3b5f448"><path d="M 68.203125 19.742188 L 94.117188 6.457031 L 106.722656 31.042969 L 80.808594 44.328125 Z M 68.203125 19.742188 "/></clipPath><clipPath id="8a2e193612"><path d="M 68.203125 19.742188 L 94.117188 6.457031 L 106.722656 31.042969 L 80.808594 44.328125 Z M 68.203125 19.742188 "/></clipPath></defs><g id="093ad3d54b"><g clip-rule="nonzero" clip-path="url(#c95b648226)"><g clip-rule="nonzero" clip-path="url(#31e95b9cc7)"><g clip-rule="nonzero" clip-path="url(#63bc6665f0)"><g clip-rule="nonzero" clip-path="url(#1796001eb3)"><path style=" stroke:none;fill-rule:nonzero;fill:#000000;fill-opacity:1;" d="M 18.429688 12.464844 L 18.535156 12.296875 L 16.507812 11.023438 L 16.613281 10.855469 L 15.9375 10.429688 L 16.148438 10.089844 L 15.980469 9.984375 L 16.195312 9.640625 L 16.027344 9.535156 L 16.347656 9.027344 L 16.179688 8.921875 L 16.394531 8.578125 L 16.226562 8.472656 L 16.546875 7.960938 L 16.378906 7.855469 L 16.589844 7.515625 L 16.421875 7.410156 L 16.742188 6.902344 L 16.574219 6.796875 L 16.789062 6.457031 L 16.621094 6.351562 L 16.941406 5.835938 L 16.773438 5.730469 L 16.878906 5.5625 L 16.710938 5.457031 L 16.605469 5.625 L 16.4375 5.519531 L 16.117188 6.03125 L 15.949219 5.925781 L 15.734375 6.265625 L 15.566406 6.160156 L 15.25 6.671875 L 15.078125 6.566406 L 14.867188 6.90625 L 14.699219 6.800781 L 14.378906 7.308594 L 14.210938 7.203125 L 13.996094 7.542969 L 13.828125 7.4375 L 13.507812 7.949219 L 13.339844 7.84375 L 13.125 8.183594 L 12.957031 8.078125 L 12.742188 8.421875 L 12.214844 8.089844 L 12.109375 8.261719 L 9.742188 6.773438 L 9.636719 6.941406 L 8.113281 5.988281 L 8.007812 6.15625 L 8.175781 6.261719 L 8.070312 6.429688 L 8.238281 6.535156 L 8.132812 6.707031 L 8.300781 6.8125 L 8.191406 6.980469 L 8.363281 7.085938 L 8.253906 7.253906 L 8.421875 7.359375 L 8.316406 7.53125 L 8.65625 7.742188 L 8.550781 7.910156 L 8.71875 8.015625 L 8.613281 8.1875 L 8.78125 8.292969 L 8.671875 8.460938 L 8.84375 8.566406 L 8.734375 8.734375 L 9.074219 8.949219 L 8.96875 9.117188 L 9.136719 9.222656 L 9.03125 9.390625 L 9.199219 9.496094 L 9.09375 9.667969 L 9.261719 9.773438 L 9.152344 9.941406 L 9.324219 10.046875 L 9.214844 10.214844 L 9.554688 10.429688 L 9.449219 10.597656 L 9.617188 10.703125 L 9.082031 11.554688 L 8.914062 11.449219 L 8.488281 12.128906 L 8.320312 12.023438 L 7.890625 12.703125 L 7.722656 12.597656 L 7.296875 13.28125 L 7.128906 13.175781 L 6.699219 13.855469 L 6.53125 13.75 L 6.105469 14.433594 L 5.9375 14.328125 L 5.832031 14.496094 L 6.167969 14.707031 L 6.273438 14.539062 L 6.613281 14.75 L 6.71875 14.582031 L 7.058594 14.792969 L 7.164062 14.625 L 7.332031 14.730469 L 7.4375 14.5625 L 7.777344 14.773438 L 7.882812 14.605469 L 8.050781 14.710938 L 8.15625 14.542969 L 8.496094 14.753906 L 8.601562 14.585938 L 8.769531 14.691406 L 8.875 14.523438 L 9.214844 14.734375 L 9.320312 14.566406 L 9.488281 14.671875 L 9.597656 14.5 L 9.933594 14.714844 L 10.039062 14.546875 L 10.378906 14.757812 L 10.484375 14.589844 L 10.652344 14.695312 L 10.761719 14.523438 L 11.265625 14.84375 L 11.160156 15.011719 L 11.328125 15.117188 L 11.222656 15.285156 L 11.5625 15.5 L 11.453125 15.667969 L 11.625 15.773438 L 11.515625 15.941406 L 11.855469 16.15625 L 11.75 16.324219 L 12.089844 16.539062 L 11.980469 16.707031 L 12.148438 16.8125 L 12.042969 16.980469 L 12.390625 17.199219 L 12.285156 17.367188 L 12.453125 17.472656 L 12.347656 17.644531 L 12.6875 17.855469 L 12.582031 18.023438 L 12.75 18.128906 L 12.644531 18.300781 L 12.980469 18.511719 L 12.875 18.679688 L 13.214844 18.894531 L 13.109375 19.0625 L 13.445312 19.277344 L 13.550781 19.105469 L 13.382812 19 L 13.8125 18.320312 L 13.644531 18.214844 L 14.070312 17.53125 L 13.902344 17.425781 L 14.332031 16.746094 L 14.164062 16.640625 L 14.589844 15.960938 L 14.421875 15.855469 L 14.851562 15.171875 L 14.683594 15.066406 L 15.214844 14.214844 L 15.382812 14.320312 L 15.488281 14.152344 L 15.828125 14.367188 L 15.933594 14.195312 L 16.101562 14.300781 L 16.207031 14.132812 L 16.378906 14.238281 L 16.484375 14.070312 L 16.652344 14.175781 L 16.757812 14.003906 L 16.925781 14.109375 L 17.03125 13.941406 L 17.199219 14.046875 L 17.304688 13.878906 L 17.644531 14.089844 L 17.75 13.921875 L 17.917969 14.027344 L 18.023438 13.859375 L 18.191406 13.964844 L 18.300781 13.792969 L 18.636719 14.007812 L 18.742188 13.839844 L 18.914062 13.945312 L 19.019531 13.773438 L 19.1875 13.878906 L 19.292969 13.710938 L 19.460938 13.816406 L 19.566406 13.648438 L 19.734375 13.753906 L 19.839844 13.582031 L 20.007812 13.691406 L 20.117188 13.519531 L 18.433594 12.464844 Z M 16.945312 12.953125 L 16.777344 12.847656 L 16.671875 13.019531 L 16.503906 12.914062 L 16.394531 13.082031 L 16.058594 12.871094 L 15.953125 13.039062 L 15.785156 12.933594 L 15.675781 13.101562 L 15.507812 12.996094 L 15.402344 13.164062 L 15.234375 13.058594 L 15.128906 13.230469 L 14.785156 13.015625 L 14.679688 13.183594 L 14.511719 13.078125 L 14.40625 13.246094 L 14.238281 13.140625 L 13.808594 13.820312 L 13.976562 13.929688 L 13.546875 14.617188 L 13.714844 14.722656 L 13.285156 15.402344 L 13.453125 15.507812 L 13.132812 16.019531 L 12.964844 15.914062 L 13.070312 15.742188 L 12.734375 15.53125 L 12.839844 15.363281 L 12.5 15.148438 L 12.605469 14.980469 L 12.4375 14.875 L 12.542969 14.707031 L 12.207031 14.492188 L 12.3125 14.324219 L 12.144531 14.21875 L 12.25 14.050781 L 11.910156 13.835938 L 12.019531 13.667969 L 11.511719 13.351562 L 11.40625 13.519531 L 11.066406 13.304688 L 10.960938 13.476562 L 10.792969 13.371094 L 10.6875 13.539062 L 10.347656 13.328125 L 10.242188 13.496094 L 10.074219 13.390625 L 9.964844 13.558594 L 9.628906 13.347656 L 9.523438 13.515625 L 9.355469 13.410156 L 9.246094 13.578125 L 8.90625 13.363281 L 9.226562 12.855469 L 9.394531 12.960938 L 9.929688 12.109375 L 10.097656 12.214844 L 10.417969 11.707031 L 10.585938 11.8125 L 11.011719 11.128906 L 10.84375 11.023438 L 10.949219 10.855469 L 10.78125 10.75 L 10.886719 10.582031 L 10.550781 10.367188 L 10.65625 10.199219 L 10.488281 10.09375 L 10.59375 9.925781 L 10.425781 9.820312 L 10.53125 9.648438 L 10.363281 9.542969 L 10.46875 9.375 L 10.300781 9.269531 L 10.40625 9.101562 L 10.070312 8.886719 L 10.175781 8.71875 L 10.007812 8.613281 L 10.113281 8.445312 L 11.296875 9.1875 L 11.402344 9.019531 L 12.753906 9.867188 L 12.96875 9.527344 L 13.136719 9.632812 L 13.351562 9.292969 L 13.519531 9.398438 L 13.839844 8.886719 L 14.007812 8.992188 L 14.222656 8.652344 L 14.390625 8.757812 L 14.710938 8.25 L 14.878906 8.355469 L 15.089844 8.011719 L 15.257812 8.117188 L 15.046875 8.460938 L 15.214844 8.566406 L 14.894531 9.074219 L 15.0625 9.179688 L 14.847656 9.519531 L 15.015625 9.625 L 14.695312 10.136719 L 14.863281 10.242188 L 14.652344 10.582031 L 14.820312 10.6875 L 14.605469 11.027344 L 15.957031 11.878906 L 15.851562 12.046875 L 17.035156 12.789062 L 16.933594 12.949219 Z M 16.945312 12.953125 "/></g></g></g></g><g clip-rule="nonzero" clip-path="url(#22712fd766)"><g clip-rule="nonzero" clip-path="url(#cdda3e9f59)"><g clip-rule="nonzero" clip-path="url(#192eeb113c)"><g clip-rule="nonzero" clip-path="url(#4609444e35)"><path style=" stroke:none;fill-rule:nonzero;fill:#000000;fill-opacity:1;" d="M 81.382812 73.285156 L 81.476562 73.136719 L 79.660156 71.996094 L 79.753906 71.847656 L 79.148438 71.464844 L 79.339844 71.164062 L 79.1875 71.066406 L 79.378906 70.765625 L 79.226562 70.671875 L 79.511719 70.21875 L 79.363281 70.125 L 79.554688 69.820312 L 79.402344 69.722656 L 79.6875 69.269531 L 79.535156 69.175781 L 79.726562 68.875 L 79.574219 68.78125 L 79.859375 68.328125 L 79.710938 68.230469 L 79.898438 67.929688 L 79.75 67.835938 L 80.035156 67.378906 L 79.886719 67.285156 L 79.980469 67.132812 L 79.828125 67.039062 L 79.734375 67.191406 L 79.585938 67.097656 L 79.300781 67.550781 L 79.148438 67.453125 L 78.960938 67.757812 L 78.808594 67.664062 L 78.523438 68.117188 L 78.375 68.023438 L 78.183594 68.324219 L 78.035156 68.230469 L 77.75 68.683594 L 77.597656 68.589844 L 77.410156 68.890625 L 77.257812 68.796875 L 76.972656 69.25 L 76.824219 69.15625 L 76.632812 69.460938 L 76.484375 69.363281 L 76.292969 69.667969 L 75.820312 69.375 L 75.726562 69.523438 L 73.609375 68.195312 L 73.515625 68.34375 L 72.152344 67.488281 L 72.058594 67.640625 L 72.207031 67.734375 L 72.113281 67.886719 L 72.261719 67.980469 L 72.167969 68.128906 L 72.320312 68.222656 L 72.226562 68.375 L 72.375 68.46875 L 72.28125 68.621094 L 72.433594 68.714844 L 72.335938 68.863281 L 72.640625 69.054688 L 72.546875 69.203125 L 72.695312 69.300781 L 72.601562 69.449219 L 72.753906 69.542969 L 72.660156 69.695312 L 72.808594 69.789062 L 72.714844 69.9375 L 73.015625 70.128906 L 72.921875 70.277344 L 73.074219 70.375 L 72.980469 70.523438 L 73.128906 70.617188 L 73.035156 70.769531 L 73.183594 70.863281 L 73.089844 71.011719 L 73.242188 71.109375 L 73.148438 71.257812 L 73.449219 71.449219 L 73.355469 71.597656 L 73.507812 71.691406 L 73.03125 72.449219 L 72.882812 72.355469 L 72.5 72.960938 L 72.351562 72.867188 L 71.96875 73.472656 L 71.820312 73.375 L 71.441406 73.984375 L 71.289062 73.886719 L 70.910156 74.492188 L 70.757812 74.398438 L 70.378906 75.003906 L 70.230469 74.910156 L 70.132812 75.0625 L 70.4375 75.25 L 70.53125 75.101562 L 70.835938 75.289062 L 70.929688 75.140625 L 71.230469 75.332031 L 71.328125 75.179688 L 71.476562 75.273438 L 71.570312 75.125 L 71.875 75.316406 L 71.96875 75.164062 L 72.117188 75.257812 L 72.214844 75.109375 L 72.515625 75.296875 L 72.609375 75.148438 L 72.761719 75.242188 L 72.855469 75.09375 L 73.160156 75.28125 L 73.253906 75.132812 L 73.402344 75.226562 L 73.496094 75.074219 L 73.800781 75.265625 L 73.894531 75.117188 L 74.199219 75.304688 L 74.292969 75.15625 L 74.441406 75.25 L 74.535156 75.101562 L 74.988281 75.382812 L 74.894531 75.535156 L 75.046875 75.628906 L 74.953125 75.78125 L 75.253906 75.96875 L 75.160156 76.121094 L 75.3125 76.214844 L 75.214844 76.363281 L 75.519531 76.554688 L 75.425781 76.707031 L 75.726562 76.894531 L 75.632812 77.046875 L 75.785156 77.140625 L 75.691406 77.289062 L 76 77.484375 L 75.90625 77.636719 L 76.058594 77.730469 L 75.964844 77.882812 L 76.265625 78.070312 L 76.171875 78.222656 L 76.320312 78.316406 L 76.226562 78.464844 L 76.53125 78.65625 L 76.4375 78.808594 L 76.738281 78.996094 L 76.644531 79.148438 L 76.949219 79.335938 L 77.042969 79.1875 L 76.890625 79.09375 L 77.273438 78.488281 L 77.121094 78.390625 L 77.5 77.785156 L 77.351562 77.691406 L 77.730469 77.085938 L 77.582031 76.992188 L 77.960938 76.386719 L 77.8125 76.292969 L 78.191406 75.6875 L 78.039062 75.59375 L 78.515625 74.835938 L 78.664062 74.929688 L 78.757812 74.78125 L 79.0625 74.972656 L 79.15625 74.820312 L 79.308594 74.914062 L 79.402344 74.765625 L 79.550781 74.859375 L 79.644531 74.707031 L 79.796875 74.804688 L 79.890625 74.652344 L 80.042969 74.746094 L 80.136719 74.597656 L 80.285156 74.691406 L 80.378906 74.542969 L 80.683594 74.730469 L 80.777344 74.582031 L 80.929688 74.675781 L 81.023438 74.523438 L 81.171875 74.621094 L 81.265625 74.46875 L 81.570312 74.660156 L 81.664062 74.507812 L 81.816406 74.601562 L 81.910156 74.453125 L 82.058594 74.546875 L 82.15625 74.398438 L 82.304688 74.492188 L 82.398438 74.339844 L 82.550781 74.433594 L 82.644531 74.285156 L 82.792969 74.378906 L 82.886719 74.230469 Z M 80.054688 73.71875 L 79.90625 73.625 L 79.8125 73.773438 L 79.660156 73.679688 L 79.566406 73.828125 L 79.261719 73.640625 L 79.167969 73.789062 L 79.019531 73.695312 L 78.925781 73.84375 L 78.773438 73.75 L 78.679688 73.902344 L 78.527344 73.808594 L 78.433594 73.957031 L 78.128906 73.765625 L 78.03125 73.914062 L 77.882812 73.820312 L 77.789062 73.96875 L 77.636719 73.875 L 77.257812 74.480469 L 77.410156 74.578125 L 77.023438 75.1875 L 77.175781 75.28125 L 76.792969 75.886719 L 76.945312 75.984375 L 76.660156 76.4375 L 76.511719 76.339844 L 76.605469 76.191406 L 76.300781 76 L 76.394531 75.851562 L 76.09375 75.660156 L 76.1875 75.511719 L 76.035156 75.414062 L 76.132812 75.265625 L 75.828125 75.074219 L 75.921875 74.925781 L 75.773438 74.832031 L 75.867188 74.679688 L 75.5625 74.488281 L 75.65625 74.339844 L 75.203125 74.054688 L 75.109375 74.207031 L 74.808594 74.015625 L 74.710938 74.164062 L 74.5625 74.070312 L 74.46875 74.222656 L 74.164062 74.03125 L 74.070312 74.183594 L 73.921875 74.085938 L 73.824219 74.238281 L 73.523438 74.046875 L 73.429688 74.199219 L 73.277344 74.101562 L 73.183594 74.253906 L 72.878906 74.0625 L 73.164062 73.609375 L 73.3125 73.703125 L 73.789062 72.949219 L 73.9375 73.042969 L 74.222656 72.589844 L 74.375 72.683594 L 74.753906 72.078125 L 74.601562 71.984375 L 74.699219 71.832031 L 74.546875 71.738281 L 74.640625 71.589844 L 74.339844 71.398438 L 74.433594 71.246094 L 74.28125 71.152344 L 74.375 71.003906 L 74.226562 70.910156 L 74.320312 70.757812 L 74.171875 70.664062 L 74.265625 70.511719 L 74.113281 70.417969 L 74.207031 70.269531 L 73.90625 70.078125 L 74 69.929688 L 73.847656 69.832031 L 73.945312 69.683594 L 75.003906 70.347656 L 75.097656 70.199219 L 76.308594 70.957031 L 76.496094 70.65625 L 76.648438 70.75 L 76.835938 70.445312 L 76.988281 70.539062 L 77.273438 70.085938 L 77.421875 70.183594 L 77.613281 69.878906 L 77.761719 69.972656 L 78.046875 69.519531 L 78.199219 69.613281 L 78.386719 69.3125 L 78.539062 69.40625 L 78.347656 69.710938 L 78.5 69.804688 L 78.214844 70.257812 L 78.363281 70.351562 L 78.175781 70.652344 L 78.324219 70.75 L 78.039062 71.203125 L 78.191406 71.296875 L 78 71.597656 L 78.152344 71.691406 L 77.960938 71.996094 L 79.171875 72.753906 L 79.078125 72.90625 L 80.136719 73.570312 L 80.046875 73.710938 Z M 80.054688 73.71875 "/></g></g></g></g><g clip-rule="nonzero" clip-path="url(#a078a783ba)"><g clip-rule="nonzero" clip-path="url(#e1bd878ef0)"><g clip-rule="nonzero" clip-path="url(#bbd08b6955)"><g clip-rule="nonzero" clip-path="url(#124b6dc2d4)"><path style=" stroke:none;fill-rule:nonzero;fill:#000000;fill-opacity:1;" d="M 37.011719 82.453125 L 37.253906 82.066406 L 32.660156 79.183594 L 32.902344 78.796875 L 31.371094 77.835938 L 31.855469 77.058594 L 31.476562 76.820312 L 31.960938 76.046875 L 31.582031 75.808594 L 32.3125 74.644531 L 31.929688 74.40625 L 32.421875 73.625 L 32.039062 73.386719 L 32.769531 72.226562 L 32.386719 71.988281 L 32.875 71.210938 L 32.496094 70.972656 L 33.222656 69.8125 L 32.84375 69.570312 L 33.332031 68.796875 L 32.949219 68.558594 L 33.683594 67.390625 L 33.300781 67.152344 L 33.542969 66.765625 L 33.164062 66.527344 L 32.921875 66.914062 L 32.539062 66.675781 L 31.8125 67.835938 L 31.429688 67.597656 L 30.945312 68.371094 L 30.5625 68.132812 L 29.835938 69.292969 L 29.453125 69.054688 L 28.96875 69.832031 L 28.585938 69.59375 L 27.859375 70.753906 L 27.476562 70.515625 L 26.992188 71.292969 L 26.609375 71.050781 L 25.882812 72.214844 L 25.5 71.972656 L 25.015625 72.75 L 24.632812 72.511719 L 24.144531 73.292969 L 22.953125 72.546875 L 22.710938 72.929688 L 17.351562 69.566406 L 17.109375 69.953125 L 13.664062 67.789062 L 13.421875 68.175781 L 13.800781 68.414062 L 13.558594 68.796875 L 13.941406 69.039062 L 13.699219 69.421875 L 14.078125 69.660156 L 13.835938 70.046875 L 14.21875 70.285156 L 13.976562 70.671875 L 14.355469 70.910156 L 14.113281 71.292969 L 14.882812 71.777344 L 14.640625 72.160156 L 15.019531 72.398438 L 14.777344 72.785156 L 15.160156 73.023438 L 14.917969 73.410156 L 15.296875 73.648438 L 15.054688 74.03125 L 15.820312 74.515625 L 15.582031 74.898438 L 15.960938 75.136719 L 15.71875 75.523438 L 16.097656 75.761719 L 15.859375 76.148438 L 16.238281 76.386719 L 15.996094 76.769531 L 16.378906 77.011719 L 16.136719 77.394531 L 16.902344 77.875 L 16.660156 78.261719 L 17.039062 78.5 L 15.824219 80.4375 L 15.445312 80.199219 L 14.46875 81.75 L 14.089844 81.511719 L 13.117188 83.0625 L 12.734375 82.824219 L 11.761719 84.375 L 11.378906 84.136719 L 10.40625 85.6875 L 10.027344 85.449219 L 9.050781 87.003906 L 8.671875 86.761719 L 8.429688 87.148438 L 9.195312 87.628906 L 9.4375 87.246094 L 10.203125 87.726562 L 10.445312 87.339844 L 11.210938 87.820312 L 11.453125 87.4375 L 11.835938 87.675781 L 12.078125 87.289062 L 12.84375 87.769531 L 13.085938 87.386719 L 13.464844 87.625 L 13.707031 87.238281 L 14.472656 87.71875 L 14.714844 87.335938 L 15.097656 87.574219 L 15.335938 87.1875 L 16.105469 87.671875 L 16.347656 87.285156 L 16.726562 87.523438 L 16.96875 87.136719 L 17.734375 87.621094 L 17.976562 87.234375 L 18.742188 87.714844 L 18.984375 87.332031 L 19.367188 87.570312 L 19.605469 87.183594 L 20.753906 87.902344 L 20.511719 88.289062 L 20.894531 88.527344 L 20.652344 88.914062 L 21.417969 89.394531 L 21.175781 89.777344 L 21.554688 90.019531 L 21.316406 90.402344 L 22.082031 90.882812 L 21.839844 91.269531 L 22.605469 91.75 L 22.363281 92.136719 L 22.746094 92.375 L 22.503906 92.757812 L 23.289062 93.253906 L 23.050781 93.640625 L 23.429688 93.878906 L 23.1875 94.265625 L 23.953125 94.746094 L 23.710938 95.128906 L 24.09375 95.367188 L 23.851562 95.753906 L 24.617188 96.234375 L 24.375 96.621094 L 25.140625 97.101562 L 24.902344 97.488281 L 25.667969 97.96875 L 25.910156 97.582031 L 25.527344 97.34375 L 26.503906 95.792969 L 26.121094 95.554688 L 27.097656 94 L 26.714844 93.761719 L 27.6875 92.210938 L 27.308594 91.972656 L 28.28125 90.417969 L 27.902344 90.179688 L 28.875 88.628906 L 28.496094 88.390625 L 29.710938 86.453125 L 30.09375 86.691406 L 30.332031 86.308594 L 31.101562 86.789062 L 31.34375 86.402344 L 31.722656 86.640625 L 31.964844 86.257812 L 32.34375 86.496094 L 32.585938 86.109375 L 32.96875 86.347656 L 33.207031 85.964844 L 33.589844 86.203125 L 33.832031 85.816406 L 34.210938 86.054688 L 34.453125 85.671875 L 35.21875 86.152344 L 35.460938 85.765625 L 35.84375 86.003906 L 36.085938 85.621094 L 36.464844 85.859375 L 36.707031 85.472656 L 37.472656 85.957031 L 37.714844 85.570312 L 38.09375 85.808594 L 38.335938 85.421875 L 38.71875 85.664062 L 38.960938 85.277344 L 39.339844 85.515625 L 39.582031 85.128906 L 39.960938 85.371094 L 40.203125 84.984375 L 40.585938 85.222656 L 40.824219 84.839844 L 37.015625 82.445312 Z M 33.640625 83.574219 L 33.261719 83.335938 L 33.019531 83.71875 L 32.636719 83.480469 L 32.394531 83.867188 L 31.628906 83.386719 L 31.386719 83.769531 L 31.007812 83.53125 L 30.765625 83.917969 L 30.386719 83.675781 L 30.144531 84.0625 L 29.761719 83.824219 L 29.519531 84.210938 L 28.742188 83.722656 L 28.503906 84.105469 L 28.121094 83.867188 L 27.878906 84.253906 L 27.5 84.015625 L 26.523438 85.566406 L 26.90625 85.804688 L 25.921875 87.371094 L 26.300781 87.613281 L 25.328125 89.164062 L 25.707031 89.402344 L 24.980469 90.5625 L 24.597656 90.324219 L 24.839844 89.941406 L 24.074219 89.457031 L 24.316406 89.074219 L 23.550781 88.59375 L 23.792969 88.207031 L 23.410156 87.96875 L 23.652344 87.582031 L 22.886719 87.101562 L 23.128906 86.714844 L 22.746094 86.476562 L 22.988281 86.09375 L 22.222656 85.613281 L 22.464844 85.226562 L 21.316406 84.507812 L 21.074219 84.890625 L 20.308594 84.410156 L 20.066406 84.796875 L 19.6875 84.558594 L 19.445312 84.941406 L 18.679688 84.460938 L 18.4375 84.847656 L 18.058594 84.609375 L 17.816406 84.992188 L 17.046875 84.511719 L 16.808594 84.898438 L 16.425781 84.65625 L 16.183594 85.042969 L 15.414062 84.558594 L 16.140625 83.398438 L 16.523438 83.636719 L 17.738281 81.699219 L 18.117188 81.9375 L 18.847656 80.777344 L 19.226562 81.015625 L 20.203125 79.464844 L 19.820312 79.226562 L 20.0625 78.839844 L 19.683594 78.601562 L 19.925781 78.214844 L 19.15625 77.734375 L 19.398438 77.351562 L 19.019531 77.109375 L 19.261719 76.726562 L 18.878906 76.488281 L 19.121094 76.101562 L 18.742188 75.863281 L 18.984375 75.476562 L 18.601562 75.238281 L 18.84375 74.855469 L 18.078125 74.371094 L 18.320312 73.988281 L 17.9375 73.75 L 18.179688 73.363281 L 20.859375 75.046875 L 21.101562 74.660156 L 24.164062 76.582031 L 24.648438 75.804688 L 25.03125 76.042969 L 25.515625 75.269531 L 25.898438 75.507812 L 26.625 74.347656 L 27.007812 74.585938 L 27.496094 73.808594 L 27.875 74.046875 L 28.605469 72.886719 L 28.984375 73.125 L 29.472656 72.347656 L 29.851562 72.589844 L 29.363281 73.363281 L 29.746094 73.601562 L 29.015625 74.765625 L 29.398438 75.003906 L 28.910156 75.777344 L 29.289062 76.019531 L 28.5625 77.179688 L 28.941406 77.417969 L 28.457031 78.195312 L 28.835938 78.433594 L 28.347656 79.207031 L 31.410156 81.128906 L 31.167969 81.515625 L 33.847656 83.195312 L 33.621094 83.558594 Z M 33.640625 83.574219 "/></g></g></g></g><g clip-rule="nonzero" clip-path="url(#c1e5207a1b)"><g clip-rule="nonzero" clip-path="url(#7c54238643)"><g clip-rule="nonzero" clip-path="url(#55d3b5f448)"><g clip-rule="nonzero" clip-path="url(#8a2e193612)"><path style=" stroke:none;fill-rule:nonzero;fill:#000000;fill-opacity:1;" d="M 95.179688 17.515625 L 94.992188 17.148438 L 90.617188 19.394531 L 90.429688 19.027344 L 88.96875 19.777344 L 88.589844 19.042969 L 88.230469 19.226562 L 87.851562 18.492188 L 87.488281 18.675781 L 86.925781 17.578125 L 86.5625 17.761719 L 86.183594 17.023438 L 85.820312 17.207031 L 85.253906 16.105469 L 84.894531 16.292969 L 84.515625 15.558594 L 84.152344 15.742188 L 83.589844 14.640625 L 83.226562 14.828125 L 82.847656 14.09375 L 82.488281 14.277344 L 81.917969 13.171875 L 81.558594 13.359375 L 81.371094 12.992188 L 81.007812 13.179688 L 81.195312 13.542969 L 80.832031 13.730469 L 81.394531 14.832031 L 81.035156 15.015625 L 81.410156 15.75 L 81.046875 15.9375 L 81.613281 17.039062 L 81.25 17.222656 L 81.628906 17.960938 L 81.265625 18.144531 L 81.828125 19.246094 L 81.464844 19.433594 L 81.84375 20.167969 L 81.480469 20.355469 L 82.046875 21.453125 L 81.683594 21.640625 L 82.058594 22.375 L 81.699219 22.5625 L 82.078125 23.304688 L 80.945312 23.882812 L 81.128906 24.25 L 76.023438 26.867188 L 76.210938 27.234375 L 72.929688 28.917969 L 73.117188 29.28125 L 73.476562 29.097656 L 73.664062 29.460938 L 74.027344 29.273438 L 74.214844 29.640625 L 74.578125 29.453125 L 74.765625 29.820312 L 75.128906 29.632812 L 75.316406 30 L 75.675781 29.8125 L 75.863281 30.179688 L 76.59375 29.804688 L 76.78125 30.167969 L 77.144531 29.984375 L 77.332031 30.347656 L 77.695312 30.164062 L 77.882812 30.527344 L 78.242188 30.34375 L 78.429688 30.707031 L 79.160156 30.332031 L 79.347656 30.699219 L 79.710938 30.511719 L 79.898438 30.878906 L 80.261719 30.691406 L 80.449219 31.058594 L 80.8125 30.871094 L 80.996094 31.238281 L 81.359375 31.050781 L 81.546875 31.414062 L 82.277344 31.042969 L 82.464844 31.40625 L 82.828125 31.21875 L 83.769531 33.058594 L 83.40625 33.242188 L 84.160156 34.714844 L 83.796875 34.898438 L 84.554688 36.371094 L 84.191406 36.558594 L 84.945312 38.027344 L 84.582031 38.214844 L 85.335938 39.6875 L 84.972656 39.871094 L 85.726562 41.34375 L 85.367188 41.527344 L 85.554688 41.894531 L 86.285156 41.519531 L 86.097656 41.15625 L 86.828125 40.78125 L 86.640625 40.414062 L 87.371094 40.039062 L 87.183594 39.675781 L 87.542969 39.488281 L 87.355469 39.125 L 88.085938 38.75 L 87.898438 38.382812 L 88.261719 38.199219 L 88.074219 37.832031 L 88.804688 37.460938 L 88.617188 37.09375 L 88.980469 36.90625 L 88.792969 36.542969 L 89.523438 36.167969 L 89.335938 35.804688 L 89.699219 35.617188 L 89.511719 35.253906 L 90.242188 34.878906 L 90.054688 34.511719 L 90.785156 34.136719 L 90.597656 33.773438 L 90.960938 33.585938 L 90.773438 33.222656 L 91.867188 32.660156 L 92.054688 33.027344 L 92.414062 32.839844 L 92.601562 33.207031 L 93.332031 32.832031 L 93.519531 33.195312 L 93.882812 33.011719 L 94.070312 33.375 L 94.800781 33.003906 L 94.988281 33.367188 L 95.71875 32.992188 L 95.90625 33.359375 L 96.269531 33.171875 L 96.453125 33.539062 L 97.207031 33.152344 L 97.394531 33.519531 L 97.753906 33.332031 L 97.941406 33.695312 L 98.671875 33.324219 L 98.859375 33.6875 L 99.222656 33.503906 L 99.410156 33.867188 L 100.140625 33.492188 L 100.328125 33.859375 L 101.058594 33.484375 L 101.246094 33.847656 L 101.976562 33.472656 L 101.789062 33.109375 L 101.425781 33.296875 L 100.671875 31.824219 L 100.308594 32.007812 L 99.554688 30.539062 L 99.191406 30.722656 L 98.4375 29.253906 L 98.074219 29.4375 L 97.320312 27.96875 L 96.957031 28.152344 L 96.203125 26.683594 L 95.839844 26.867188 L 94.898438 25.03125 L 95.261719 24.84375 L 95.074219 24.480469 L 95.804688 24.105469 L 95.617188 23.742188 L 95.980469 23.554688 L 95.792969 23.191406 L 96.15625 23.003906 L 95.96875 22.636719 L 96.332031 22.453125 L 96.144531 22.085938 L 96.507812 21.902344 L 96.320312 21.535156 L 96.679688 21.351562 L 96.496094 20.984375 L 97.222656 20.609375 L 97.039062 20.246094 L 97.398438 20.058594 L 97.210938 19.695312 L 97.574219 19.507812 L 97.386719 19.144531 L 98.117188 18.769531 L 97.929688 18.402344 L 98.292969 18.21875 L 98.105469 17.851562 L 98.46875 17.667969 L 98.28125 17.300781 L 98.644531 17.117188 L 98.457031 16.75 L 98.820312 16.566406 L 98.632812 16.199219 L 98.996094 16.015625 L 98.808594 15.648438 L 95.175781 17.511719 Z M 94.484375 20.652344 L 94.121094 20.835938 L 94.308594 21.203125 L 93.949219 21.386719 L 94.136719 21.753906 L 93.40625 22.128906 L 93.59375 22.492188 L 93.230469 22.679688 L 93.417969 23.042969 L 93.054688 23.230469 L 93.242188 23.59375 L 92.878906 23.78125 L 93.066406 24.144531 L 92.324219 24.527344 L 92.511719 24.890625 L 92.148438 25.078125 L 92.335938 25.441406 L 91.976562 25.628906 L 92.730469 27.097656 L 93.089844 26.914062 L 93.855469 28.402344 L 94.214844 28.214844 L 94.972656 29.6875 L 95.332031 29.5 L 95.898438 30.601562 L 95.535156 30.785156 L 95.347656 30.421875 L 94.617188 30.796875 L 94.429688 30.429688 L 93.699219 30.804688 L 93.511719 30.441406 L 93.152344 30.625 L 92.964844 30.261719 L 92.234375 30.636719 L 92.046875 30.269531 L 91.683594 30.457031 L 91.496094 30.089844 L 90.765625 30.464844 L 90.578125 30.101562 L 89.484375 30.660156 L 89.671875 31.023438 L 88.941406 31.398438 L 89.128906 31.765625 L 88.769531 31.949219 L 88.953125 32.316406 L 88.226562 32.691406 L 88.410156 33.054688 L 88.050781 33.242188 L 88.238281 33.605469 L 87.507812 33.980469 L 87.695312 34.347656 L 87.332031 34.53125 L 87.519531 34.898438 L 86.78125 35.273438 L 86.21875 34.171875 L 86.582031 33.988281 L 85.640625 32.152344 L 86.003906 31.964844 L 85.4375 30.863281 L 85.800781 30.679688 L 85.046875 29.207031 L 84.683594 29.394531 L 84.496094 29.027344 L 84.132812 29.214844 L 83.945312 28.847656 L 83.214844 29.222656 L 83.027344 28.859375 L 82.667969 29.042969 L 82.480469 28.679688 L 82.117188 28.863281 L 81.929688 28.5 L 81.566406 28.683594 L 81.378906 28.320312 L 81.015625 28.503906 L 80.828125 28.140625 L 80.097656 28.515625 L 79.914062 28.148438 L 79.550781 28.335938 L 79.363281 27.96875 L 81.914062 26.660156 L 81.726562 26.296875 L 84.644531 24.800781 L 84.265625 24.066406 L 84.628906 23.878906 L 84.253906 23.144531 L 84.613281 22.957031 L 84.050781 21.855469 L 84.414062 21.671875 L 84.035156 20.933594 L 84.398438 20.75 L 83.832031 19.648438 L 84.195312 19.460938 L 83.820312 18.726562 L 84.183594 18.542969 L 84.558594 19.277344 L 84.921875 19.089844 L 85.484375 20.191406 L 85.847656 20.007812 L 86.226562 20.742188 L 86.589844 20.554688 L 87.152344 21.65625 L 87.515625 21.472656 L 87.890625 22.207031 L 88.253906 22.019531 L 88.632812 22.757812 L 91.546875 21.261719 L 91.734375 21.625 L 94.289062 20.316406 L 94.464844 20.660156 Z M 94.484375 20.652344 "/></g></g></g></g></g></svg>