<svg xmlns="http://www.w3.org/2000/svg" xmlns:xlink="http://www.w3.org/1999/xlink" width="150" zoomAndPan="magnify" viewBox="0 0 112.5 112.499997" height="150" preserveAspectRatio="xMidYMid meet" version="1.2"><defs><clipPath id="143cbcd09f"><path d="M 53 10 L 80 10 L 80 29 L 53 29 Z M 53 10 "/></clipPath><clipPath id="37212da19f"><path d="M 48.960938 16.261719 L 69.804688 4.578125 L 81.488281 25.421875 L 60.644531 37.105469 Z M 48.960938 16.261719 "/></clipPath><clipPath id="c420a22cd4"><path d="M 48.960938 16.261719 L 69.804688 4.578125 L 81.488281 25.421875 L 60.644531 37.105469 Z M 48.960938 16.261719 "/></clipPath><clipPath id="790d9ed7c5"><path d="M 48.960938 16.261719 L 69.804688 4.578125 L 81.488281 25.421875 L 60.644531 37.105469 Z M 48.960938 16.261719 "/></clipPath><clipPath id="9d2fcbb73d"><path d="M 13 64 L 34 64 L 34 87 L 13 87 Z M 13 64 "/></clipPath><clipPath id="906cab661c"><path d="M 14.726562 62.722656 L 35.339844 66.234375 L 31.824219 86.84375 L 11.214844 83.332031 Z M 14.726562 62.722656 "/></clipPath><clipPath id="847e676fc3"><path d="M 14.726562 62.722656 L 35.339844 66.234375 L 31.824219 86.84375 L 11.214844 83.332031 Z M 14.726562 62.722656 "/></clipPath><clipPath id="b5040b0d50"><path d="M 14.726562 62.722656 L 35.339844 66.234375 L 31.824219 86.84375 L 11.214844 83.332031 Z M 14.726562 62.722656 "/></clipPath><clipPath id="db7592d56d"><path d="M 87 85 L 101 85 L 101 105 L 87 105 Z M 87 85 "/></clipPath><clipPath id="88e5c2166f"><path d="M 91.125 107 L 83.617188 92.390625 L 98.894531 84.539062 L 106.398438 99.152344 Z M 91.125 107 "/></clipPath><clipPath id="bb2b95f6bd"><path d="M 91.125 107 L 83.617188 92.390625 L 98.894531 84.539062 L 106.398438 99.152344 Z M 91.125 107 "/></clipPath><clipPath id="ffa1512a37"><path d="M 91.125 107 L 83.617188 92.390625 L 98.894531 84.539062 L 106.398438 99.152344 Z M 91.125 107 "/></clipPath></defs><g id="76ee9bfa76"><g clip-rule="nonzero" clip-path="url(#143cbcd09f)"><g clip-rule="nonzero" clip-path="url(#37212da19f)"><g clip-rule="nonzero" clip-path="url(#c420a22cd4)"><g clip-rule="nonzero" clip-path="url(#790d9ed7c5)"><path style=" stroke:none;fill-rule:nonzero;fill:#ff1493;fill-opacity:1;" d="M 79.75 23.476562 C 79.679688 23.976562 79.550781 24.898438 79.46875 25.523438 C 79.371094 26.25 79.210938 26.65625 79.027344 26.652344 C 78.863281 26.648438 76.847656 26.054688 74.539062 25.335938 C 72.234375 24.613281 70.308594 24.046875 70.261719 24.074219 C 70.214844 24.101562 69.511719 25.125 68.703125 26.347656 L 67.234375 28.570312 L 64.726562 27.777344 L 62.214844 26.984375 L 61.402344 27.890625 C 60.957031 28.390625 60.523438 28.835938 60.441406 28.878906 C 60.359375 28.925781 59.90625 28.277344 59.433594 27.4375 L 58.578125 25.90625 L 55.96875 25.070312 C 54.539062 24.609375 53.386719 24.152344 53.414062 24.054688 C 53.441406 23.957031 54.125 23.460938 54.933594 22.953125 L 56.402344 22.027344 L 55.875 21.089844 C 55.425781 20.289062 55.398438 20.113281 55.675781 19.894531 C 55.96875 19.664062 55.902344 19.605469 55 19.316406 C 53.324219 18.773438 53.332031 18.761719 57.070312 17.160156 C 58.316406 16.625 59.507812 16.171875 59.722656 16.148438 C 60.078125 16.109375 60.011719 15.933594 58.867188 13.890625 C 58.179688 12.667969 57.671875 11.585938 57.730469 11.480469 C 57.789062 11.375 58.90625 11.082031 60.21875 10.828125 L 62.597656 10.363281 L 65.859375 12.644531 L 69.121094 14.921875 L 71.449219 14.65625 C 72.730469 14.507812 74.007812 14.335938 74.289062 14.273438 L 74.796875 14.15625 L 74.546875 14.792969 C 74.40625 15.140625 74.015625 15.894531 73.679688 16.46875 C 73.164062 17.335938 73.117188 17.566406 73.378906 17.851562 C 73.554688 18.042969 75.078125 19.160156 76.765625 20.335938 C 78.453125 21.511719 79.84375 22.496094 79.859375 22.519531 C 79.871094 22.546875 79.824219 22.976562 79.75 23.476562 Z M 69.71875 17.207031 C 68.449219 17.363281 67.074219 17.5625 66.664062 17.652344 C 65.984375 17.800781 65.753906 17.699219 63.988281 16.449219 C 62.921875 15.699219 61.390625 14.617188 60.582031 14.050781 L 59.113281 13.015625 L 60.511719 15.542969 C 61.347656 17.054688 61.839844 18.105469 61.738281 18.164062 C 61.640625 18.21875 60.359375 18.417969 58.890625 18.609375 C 57.421875 18.800781 56.210938 18.984375 56.203125 19.019531 C 56.191406 19.054688 57.894531 19.609375 59.984375 20.253906 L 63.789062 21.421875 L 65.277344 24.074219 C 66.09375 25.535156 66.804688 26.707031 66.855469 26.679688 C 66.90625 26.652344 67.375 25.8125 67.902344 24.820312 L 68.859375 23.007812 L 70.789062 23.601562 C 75.859375 25.160156 76.53125 25.332031 75.988281 24.929688 C 75.394531 24.492188 73.179688 22.914062 71.34375 21.625 L 70.160156 20.792969 L 70.429688 20.140625 C 70.578125 19.78125 71.019531 18.953125 71.414062 18.292969 C 71.808594 17.636719 72.109375 17.0625 72.082031 17.011719 C 72.054688 16.964844 70.992188 17.050781 69.71875 17.207031 Z M 63.238281 26.128906 L 61.871094 25.195312 L 62.15625 24.503906 C 62.3125 24.125 62.496094 23.78125 62.570312 23.738281 C 63.003906 23.492188 62.375 23.414062 61.21875 23.574219 C 59.898438 23.753906 59.863281 23.742188 58.421875 22.742188 L 56.960938 21.730469 L 57.488281 22.792969 C 58.078125 23.988281 58.003906 24.078125 56.386719 24.183594 C 55.632812 24.234375 55.578125 24.257812 55.867188 24.441406 C 56.046875 24.550781 56.820312 24.808594 57.589844 25.011719 L 58.984375 25.382812 L 59.660156 26.585938 L 60.335938 27.792969 L 61.328125 26.175781 L 63.011719 26.691406 C 63.933594 26.976562 64.671875 27.175781 64.648438 27.132812 C 64.628906 27.09375 63.992188 26.640625 63.238281 26.128906 Z M 63.238281 26.128906 "/></g></g></g></g><g clip-rule="nonzero" clip-path="url(#9d2fcbb73d)"><g clip-rule="nonzero" clip-path="url(#906cab661c)"><g clip-rule="nonzero" clip-path="url(#847e676fc3)"><g clip-rule="nonzero" clip-path="url(#b5040b0d50)"><path style=" stroke:none;fill-rule:nonzero;fill:#ff1493;fill-opacity:1;" d="M 31.714844 84.5625 C 31.390625 84.863281 30.796875 85.417969 30.398438 85.796875 C 29.933594 86.238281 29.601562 86.429688 29.476562 86.320312 C 29.367188 86.230469 28.320312 84.71875 27.148438 82.960938 C 25.972656 81.203125 24.976562 79.757812 24.929688 79.75 C 24.878906 79.742188 23.839844 80.054688 22.617188 80.441406 L 20.394531 81.144531 L 19.125 79.226562 L 17.851562 77.308594 L 16.800781 77.476562 C 16.222656 77.570312 15.683594 77.636719 15.601562 77.621094 C 15.519531 77.609375 15.570312 76.917969 15.710938 76.085938 L 15.96875 74.574219 L 14.652344 72.570312 C 13.933594 71.46875 13.398438 70.527344 13.472656 70.476562 C 13.546875 70.425781 14.28125 70.464844 15.113281 70.5625 L 16.621094 70.738281 L 16.777344 69.8125 C 16.914062 69.019531 16.988281 68.886719 17.300781 68.890625 C 17.625 68.894531 17.613281 68.820312 17.15625 68.125 C 16.316406 66.832031 16.328125 66.832031 19.75 67.796875 C 20.894531 68.117188 21.957031 68.464844 22.113281 68.566406 C 22.375 68.734375 22.429688 68.578125 22.773438 66.558594 C 22.976562 65.351562 23.226562 64.332031 23.324219 64.292969 C 23.421875 64.253906 24.34375 64.671875 25.378906 65.21875 L 27.253906 66.214844 L 28.21875 69.554688 L 29.183594 72.898438 L 30.917969 73.996094 C 31.867188 74.601562 32.832031 75.1875 33.058594 75.296875 L 33.46875 75.5 L 32.949219 75.792969 C 32.664062 75.953125 31.980469 76.25 31.4375 76.453125 C 30.609375 76.761719 30.449219 76.894531 30.472656 77.234375 C 30.488281 77.457031 30.910156 79.054688 31.410156 80.78125 C 31.914062 82.511719 32.320312 83.945312 32.316406 83.96875 C 32.3125 83.996094 32.039062 84.261719 31.714844 84.5625 Z M 28.335938 74.78125 C 27.386719 74.1875 26.339844 73.570312 26.011719 73.40625 C 25.464844 73.132812 25.367188 72.9375 24.851562 71.113281 C 24.539062 70.019531 24.089844 68.441406 23.855469 67.613281 L 23.421875 66.097656 L 22.984375 68.585938 C 22.722656 70.074219 22.476562 71.0625 22.375 71.046875 C 22.28125 71.027344 21.300781 70.460938 20.195312 69.78125 C 19.089844 69.105469 18.164062 68.566406 18.136719 68.582031 C 18.113281 68.601562 18.964844 69.914062 20.035156 71.503906 L 21.980469 74.386719 L 21.535156 77.011719 C 21.289062 78.453125 21.128906 79.640625 21.175781 79.652344 C 21.226562 79.660156 22.007812 79.347656 22.914062 78.960938 L 24.558594 78.253906 L 25.546875 79.722656 C 28.140625 83.570312 28.503906 84.054688 28.355469 83.480469 C 28.191406 82.859375 27.550781 80.566406 27.011719 78.679688 L 26.664062 77.464844 L 27.207031 77.167969 C 27.503906 77.003906 28.261719 76.683594 28.890625 76.453125 C 29.523438 76.222656 30.042969 75.996094 30.050781 75.949219 C 30.054688 75.902344 29.285156 75.375 28.335938 74.78125 Z M 19.019531 77.289062 L 18.601562 75.902344 L 19.171875 75.585938 C 19.488281 75.414062 19.804688 75.28125 19.878906 75.296875 C 20.308594 75.363281 19.921875 74.964844 19.046875 74.4375 C 18.050781 73.835938 18.035156 73.808594 17.601562 72.335938 L 17.167969 70.84375 L 16.9375 71.855469 C 16.683594 72.992188 16.582031 73.015625 15.425781 72.199219 C 14.882812 71.816406 14.832031 71.804688 14.929688 72.085938 C 14.992188 72.261719 15.378906 72.859375 15.789062 73.421875 L 16.535156 74.441406 L 16.128906 76.824219 L 17.691406 76.269531 L 18.554688 77.546875 C 19.027344 78.246094 19.417969 78.789062 19.425781 78.746094 C 19.433594 78.707031 19.25 78.050781 19.019531 77.289062 Z M 19.019531 77.289062 "/></g></g></g></g><g clip-rule="nonzero" clip-path="url(#db7592d56d)"><g clip-rule="nonzero" clip-path="url(#88e5c2166f)"><g clip-rule="nonzero" clip-path="url(#bb2b95f6bd)"><g clip-rule="nonzero" clip-path="url(#ffa1512a37)"><path style=" stroke:none;fill-rule:nonzero;fill:#ff1493;fill-opacity:1;" d="M 97.445312 85.71875 C 97.796875 85.777344 98.449219 85.878906 98.890625 85.941406 C 99.402344 86.019531 99.683594 86.132812 99.671875 86.261719 C 99.664062 86.375 99.164062 87.769531 98.5625 89.359375 C 97.960938 90.953125 97.484375 92.28125 97.503906 92.316406 C 97.519531 92.347656 98.21875 92.847656 99.058594 93.421875 L 100.585938 94.46875 L 99.265625 97.9375 L 99.875 98.511719 C 100.214844 98.824219 100.511719 99.132812 100.542969 99.191406 C 100.574219 99.246094 100.09375 99.554688 99.476562 99.871094 L 98.355469 100.445312 L 97.660156 102.246094 C 97.277344 103.234375 96.90625 104.027344 96.839844 104.007812 C 96.769531 103.984375 96.445312 103.503906 96.113281 102.9375 L 95.511719 101.910156 L 94.824219 102.261719 C 94.234375 102.5625 94.109375 102.582031 93.964844 102.386719 C 93.8125 102.179688 93.769531 102.222656 93.527344 102.847656 C 93.078125 104.003906 93.070312 104 92.074219 101.382812 C 91.742188 100.511719 91.464844 99.679688 91.457031 99.53125 C 91.445312 99.285156 91.316406 99.328125 89.816406 100.097656 C 88.921875 100.558594 88.132812 100.898438 88.058594 100.855469 C 87.988281 100.816406 87.820312 100.035156 87.691406 99.121094 L 87.453125 97.464844 L 89.199219 95.226562 L 90.949219 92.992188 L 90.847656 91.375 C 90.792969 90.480469 90.71875 89.59375 90.683594 89.398438 L 90.621094 89.042969 L 91.0625 89.226562 C 91.304688 89.328125 91.828125 89.605469 92.222656 89.847656 C 92.820312 90.214844 92.984375 90.253906 93.195312 90.074219 C 93.335938 89.953125 94.191406 88.910156 95.09375 87.753906 C 95.996094 86.597656 96.75 85.644531 96.765625 85.632812 C 96.785156 85.625 97.089844 85.664062 97.445312 85.71875 Z M 92.597656 92.605469 C 92.65625 93.488281 92.746094 94.445312 92.792969 94.730469 C 92.875 95.207031 92.792969 95.363281 91.835938 96.574219 C 91.261719 97.304688 90.433594 98.355469 89.996094 98.90625 L 89.203125 99.914062 L 91.054688 98.976562 C 92.164062 98.414062 92.933594 98.085938 92.96875 98.160156 C 93.003906 98.226562 93.097656 99.117188 93.175781 100.136719 C 93.253906 101.160156 93.339844 102.003906 93.363281 102.011719 C 93.390625 102.019531 93.851562 100.84375 94.386719 99.398438 L 95.363281 96.773438 L 97.3125 95.773438 C 98.382812 95.222656 99.242188 94.746094 99.222656 94.710938 C 99.207031 94.675781 98.628906 94.339844 97.941406 93.960938 L 96.691406 93.277344 L 97.1875 91.941406 C 98.492188 88.441406 98.640625 87.976562 98.332031 88.351562 C 98 88.757812 96.789062 90.277344 95.800781 91.53125 L 95.164062 92.34375 L 94.710938 92.148438 C 94.460938 92.042969 93.886719 91.722656 93.433594 91.441406 C 92.984375 91.160156 92.585938 90.945312 92.550781 90.964844 C 92.515625 90.984375 92.535156 91.722656 92.597656 92.605469 Z M 98.691406 97.214844 L 97.976562 98.152344 L 97.496094 97.945312 C 97.230469 97.832031 96.992188 97.699219 96.96875 97.648438 C 96.808594 97.34375 96.730469 97.78125 96.796875 98.585938 C 96.875 99.503906 96.867188 99.527344 96.097656 100.515625 L 95.320312 101.515625 L 96.097656 101.164062 C 96.96875 100.769531 97.035156 100.820312 97.046875 101.945312 C 97.050781 102.472656 97.066406 102.507812 97.207031 102.308594 C 97.292969 102.1875 97.503906 101.652344 97.679688 101.121094 L 97.996094 100.15625 L 98.882812 99.703125 L 99.765625 99.25 L 99.207031 98.894531 L 98.652344 98.539062 L 99.085938 97.378906 C 99.324219 96.742188 99.492188 96.230469 99.464844 96.246094 C 99.433594 96.261719 99.085938 96.695312 98.691406 97.214844 Z M 98.691406 97.214844 "/></g></g></g></g></g></svg>