<svg xmlns="http://www.w3.org/2000/svg" xmlns:xlink="http://www.w3.org/1999/xlink" width="150" zoomAndPan="magnify" viewBox="0 0 112.5 112.499997" height="150" preserveAspectRatio="xMidYMid meet" version="1.2"><defs><clipPath id="71d1653e3c"><path d="M 15 15 L 29 15 L 29 27 L 15 27 Z M 15 15 "/></clipPath><clipPath id="b6ec31d917"><path d="M 17.804688 13.746094 L 28.296875 17.660156 L 24.382812 28.15625 L 13.890625 24.242188 Z M 17.804688 13.746094 "/></clipPath><clipPath id="f4b6ef5170"><path d="M 17.804688 13.746094 L 28.296875 17.660156 L 24.382812 28.15625 L 13.890625 24.242188 Z M 17.804688 13.746094 "/></clipPath><clipPath id="394be44bc3"><path d="M 17.804688 13.746094 L 28.296875 17.660156 L 24.382812 28.15625 L 13.890625 24.242188 Z M 17.804688 13.746094 "/></clipPath><clipPath id="06af0e0eb1"><path d="M 15 16 L 26 16 L 26 22 L 15 22 Z M 15 16 "/></clipPath><clipPath id="8c68a135a6"><path d="M 17.804688 13.746094 L 28.296875 17.660156 L 24.382812 28.15625 L 13.890625 24.242188 Z M 17.804688 13.746094 "/></clipPath><clipPath id="1245f06498"><path d="M 17.804688 13.746094 L 28.296875 17.660156 L 24.382812 28.15625 L 13.890625 24.242188 Z M 17.804688 13.746094 "/></clipPath><clipPath id="dadc273bec"><path d="M 17.804688 13.746094 L 28.296875 17.660156 L 24.382812 28.15625 L 13.890625 24.242188 Z M 17.804688 13.746094 "/></clipPath><clipPath id="1f469c4d1c"><path d="M 83 15 L 96 15 L 96 29 L 83 29 Z M 83 15 "/></clipPath><clipPath id="79151ee75c"><path d="M 83.113281 16.5625 L 94.265625 15.554688 L 95.34375 27.453125 L 84.1875 28.460938 Z M 83.113281 16.5625 "/></clipPath><clipPath id="1d423f1eed"><path d="M 0 0.53125 L 12.335938 0.53125 L 12.335938 13 L 0 13 Z M 0 0.53125 "/></clipPath><clipPath id="0d8e4fb831"><path d="M 0.113281 1.5625 L 11.265625 0.554688 L 12.34375 12.453125 L 1.1875 13.460938 Z M 0.113281 1.5625 "/></clipPath><clipPath id="ea08c6b4f5"><path d="M 1.175781 13.34375 L 12.332031 12.335938 L 11.257812 0.4375 L 0.101562 1.445312 Z M 1.175781 13.34375 "/></clipPath><clipPath id="1dae667bfa"><path d="M 1.175781 13.34375 L 12.332031 12.335938 L 11.257812 0.4375 L 0.101562 1.445312 Z M 1.175781 13.34375 "/></clipPath><clipPath id="5439aff784"><path d="M 0 5 L 10 5 L 10 13 L 0 13 Z M 0 5 "/></clipPath><clipPath id="e8eddbe655"><path d="M 0.113281 1.5625 L 11.265625 0.554688 L 12.34375 12.453125 L 1.1875 13.460938 Z M 0.113281 1.5625 "/></clipPath><clipPath id="74752f8359"><path d="M 1.175781 13.34375 L 12.332031 12.335938 L 11.257812 0.4375 L 0.101562 1.445312 Z M 1.175781 13.34375 "/></clipPath><clipPath id="f7d518da3d"><path d="M 1.175781 13.34375 L 12.332031 12.335938 L 11.257812 0.4375 L 0.101562 1.445312 Z M 1.175781 13.34375 "/></clipPath><clipPath id="f110a3c65d"><rect x="0" width="13" y="0" height="14"/></clipPath><clipPath id="a0615e9d5c"><path d="M 23 69 L 42 69 L 42 89 L 23 89 Z M 23 69 "/></clipPath><clipPath id="af8c03d0f5"><path d="M 23.308594 75.402344 L 35.585938 69.925781 L 41.363281 82.882812 L 29.089844 88.359375 Z M 23.308594 75.402344 "/></clipPath><clipPath id="f53055fc41"><path d="M 0.175781 4 L 17 4 L 17 17 L 0.175781 17 Z M 0.175781 4 "/></clipPath><clipPath id="f786a7fe51"><path d="M 0.308594 6.402344 L 12.585938 0.925781 L 18.363281 13.882812 L 6.089844 19.359375 Z M 0.308594 6.402344 "/></clipPath><clipPath id="c5924fa90d"><path d="M 12.53125 0.949219 L 0.257812 6.425781 L 6.035156 19.382812 L 18.308594 13.90625 Z M 12.53125 0.949219 "/></clipPath><clipPath id="f09005029d"><path d="M 12.53125 0.949219 L 0.257812 6.425781 L 6.035156 19.382812 L 18.308594 13.90625 Z M 12.53125 0.949219 "/></clipPath><clipPath id="1b581cdba3"><path d="M 3 4 L 16 4 L 16 12 L 3 12 Z M 3 4 "/></clipPath><clipPath id="0404757617"><path d="M 0.308594 6.402344 L 12.585938 0.925781 L 18.363281 13.882812 L 6.089844 19.359375 Z M 0.308594 6.402344 "/></clipPath><clipPath id="40988d5649"><path d="M 12.53125 0.949219 L 0.257812 6.425781 L 6.035156 19.382812 L 18.308594 13.90625 Z M 12.53125 0.949219 "/></clipPath><clipPath id="6cbdd54c6c"><path d="M 12.53125 0.949219 L 0.257812 6.425781 L 6.035156 19.382812 L 18.308594 13.90625 Z M 12.53125 0.949219 "/></clipPath><clipPath id="4a7d0c3447"><rect x="0" width="19" y="0" height="20"/></clipPath><clipPath id="2bc794c4fe"><path d="M 69 55 L 84 55 L 84 70 L 69 70 Z M 69 55 "/></clipPath><clipPath id="38e4cf93ae"><path d="M 77.523438 55.78125 L 83.769531 63.214844 L 75.765625 69.941406 L 69.519531 62.507812 Z M 77.523438 55.78125 "/></clipPath><clipPath id="1ed5e8a02b"><path d="M 3 1 L 12 1 L 12 14 L 3 14 Z M 3 1 "/></clipPath><clipPath id="8e115dd67e"><path d="M 8.523438 0.78125 L 14.769531 8.214844 L 6.765625 14.941406 L 0.519531 7.507812 Z M 8.523438 0.78125 "/></clipPath><clipPath id="ff0cc2f2ad"><path d="M 14.8125 8.269531 L 8.570312 0.835938 L 0.566406 7.5625 L 6.808594 14.992188 Z M 14.8125 8.269531 "/></clipPath><clipPath id="c965f18a4e"><path d="M 14.8125 8.269531 L 8.570312 0.835938 L 0.566406 7.5625 L 6.808594 14.992188 Z M 14.8125 8.269531 "/></clipPath><clipPath id="d2c911d712"><path d="M 7 3 L 12 3 L 12 12 L 7 12 Z M 7 3 "/></clipPath><clipPath id="06fef06015"><path d="M 8.523438 0.78125 L 14.769531 8.214844 L 6.765625 14.941406 L 0.519531 7.507812 Z M 8.523438 0.78125 "/></clipPath><clipPath id="43bbd396ef"><path d="M 14.8125 8.269531 L 8.570312 0.835938 L 0.566406 7.5625 L 6.808594 14.992188 Z M 14.8125 8.269531 "/></clipPath><clipPath id="4793d8841c"><path d="M 14.8125 8.269531 L 8.570312 0.835938 L 0.566406 7.5625 L 6.808594 14.992188 Z M 14.8125 8.269531 "/></clipPath><clipPath id="ca1d9346ac"><rect x="0" width="15" y="0" height="15"/></clipPath></defs><g id="22ba13a9bb"><g clip-rule="nonzero" clip-path="url(#71d1653e3c)"><g clip-rule="nonzero" clip-path="url(#b6ec31d917)"><g clip-rule="nonzero" clip-path="url(#f4b6ef5170)"><g clip-rule="nonzero" clip-path="url(#394be44bc3)"><path style=" stroke:none;fill-rule:nonzero;fill:#000000;fill-opacity:1;" d="M 28.175781 17.96875 L 27.371094 20.128906 L 27.042969 20.007812 L 26.925781 20.316406 L 24.632812 19.460938 L 24.519531 19.769531 L 26.15625 20.378906 L 26.484375 20.5 L 26.371094 20.808594 L 26.042969 20.6875 L 25.925781 20.996094 L 24.289062 20.386719 L 23.945312 21.3125 L 23.617188 21.1875 L 23.386719 21.804688 L 24.367188 22.171875 L 24.253906 22.480469 L 23.910156 23.40625 L 23.253906 23.164062 L 23.484375 22.546875 L 23.15625 22.421875 L 22.808594 23.351562 L 22.484375 23.226562 L 22.253906 23.84375 L 21.925781 23.722656 L 21.808594 24.03125 L 21.484375 23.910156 L 21.367188 24.21875 L 21.039062 24.097656 L 20.925781 24.40625 L 20.597656 24.28125 L 20.136719 25.515625 L 19.808594 25.394531 L 19.578125 26.011719 L 19.90625 26.132812 L 19.792969 26.441406 L 18.808594 26.078125 L 18.480469 25.953125 L 18.597656 25.644531 L 18.941406 24.71875 L 17.960938 24.351562 L 17.84375 24.660156 L 17.515625 24.539062 L 17.285156 25.15625 L 17.613281 25.277344 L 17.5 25.585938 L 16.515625 25.222656 L 16.1875 25.097656 L 16.878906 23.246094 L 16.550781 23.125 L 16.667969 22.816406 L 16.339844 22.695312 L 16.453125 22.386719 L 16.125 22.261719 L 16.242188 21.953125 L 15.914062 21.832031 L 16.03125 21.523438 L 15.703125 21.402344 L 15.816406 21.09375 L 15.488281 20.972656 L 15.605469 20.664062 L 15.277344 20.539062 L 16.082031 18.378906 L 16.410156 18.5 L 16.523438 18.191406 L 16.851562 18.316406 L 16.738281 18.625 L 17.066406 18.746094 L 16.949219 19.054688 L 17.277344 19.175781 L 17.164062 19.484375 L 17.488281 19.609375 L 17.375 19.917969 L 17.703125 20.039062 L 17.585938 20.347656 L 18.570312 20.714844 L 18.683594 20.40625 L 19.011719 20.527344 L 19.128906 20.21875 L 19.457031 20.339844 L 19.570312 20.03125 L 19.898438 20.152344 L 20.011719 19.84375 L 20.339844 19.96875 L 20.457031 19.660156 L 20.785156 19.78125 L 20.898438 19.472656 L 21.226562 19.59375 L 22.378906 16.507812 L 22.703125 16.628906 L 22.820312 16.320312 L 23.148438 16.445312 L 23.261719 16.136719 L 23.589844 16.257812 L 23.707031 15.949219 L 27.964844 17.535156 L 27.847656 17.84375 Z M 28.175781 17.96875 "/></g></g></g></g><g clip-rule="nonzero" clip-path="url(#06af0e0eb1)"><g clip-rule="nonzero" clip-path="url(#8c68a135a6)"><g clip-rule="nonzero" clip-path="url(#1245f06498)"><g clip-rule="nonzero" clip-path="url(#dadc273bec)"><path style=" stroke:none;fill-rule:nonzero;fill:#ffffff;fill-opacity:1;" d="M 24.015625 17.117188 L 24.671875 17.363281 L 24.441406 17.980469 L 23.785156 17.734375 Z M 18.453125 21.023438 L 18.339844 21.332031 L 18.667969 21.453125 L 18.78125 21.144531 Z M 17.800781 20.777344 L 17.683594 21.085938 L 18.011719 21.207031 L 18.128906 20.898438 Z M 17.144531 20.535156 L 17.03125 20.84375 L 17.355469 20.964844 L 17.472656 20.65625 Z M 17.144531 20.535156 L 17.261719 20.226562 L 16.933594 20.101562 L 16.816406 20.410156 Z M 16.933594 20.101562 L 17.046875 19.792969 L 16.71875 19.671875 L 16.605469 19.980469 Z M 16.835938 19.363281 L 16.507812 19.242188 L 16.390625 19.550781 L 16.71875 19.671875 Z M 16.296875 18.808594 L 16.179688 19.117188 L 16.507812 19.242188 L 16.621094 18.933594 Z M 16.488281 20.289062 L 16.375 20.597656 L 16.703125 20.71875 L 16.816406 20.410156 Z M 16.277344 19.859375 L 16.164062 20.167969 L 16.488281 20.289062 L 16.605469 19.980469 Z M 16.066406 19.425781 L 15.949219 19.734375 L 16.277344 19.859375 L 16.390625 19.550781 Z M 19.226562 20.957031 L 18.898438 20.835938 L 18.78125 21.144531 L 19.109375 21.265625 Z M 19.667969 20.769531 L 19.339844 20.648438 L 19.226562 20.957031 L 19.554688 21.078125 Z M 20.109375 20.585938 L 19.78125 20.460938 L 19.667969 20.769531 L 19.996094 20.894531 Z M 20.554688 20.398438 L 20.226562 20.277344 L 20.109375 20.585938 L 20.4375 20.707031 Z M 20.996094 20.210938 L 20.667969 20.089844 L 20.554688 20.398438 L 20.878906 20.519531 Z M 21.4375 20.027344 L 21.109375 19.902344 L 20.996094 20.210938 L 21.324219 20.335938 Z M 21.4375 20.027344 L 21.765625 20.148438 L 21.882812 19.839844 L 21.554688 19.714844 Z M 21.667969 19.40625 L 21.996094 19.53125 L 22.113281 19.222656 L 21.785156 19.097656 Z M 21.898438 18.789062 L 22.226562 18.914062 L 22.339844 18.605469 L 22.015625 18.480469 Z M 22.246094 17.863281 L 22.128906 18.171875 L 22.457031 18.296875 L 22.570312 17.988281 Z M 22.476562 17.246094 L 22.359375 17.554688 L 22.6875 17.679688 L 22.800781 17.371094 Z M 22.703125 16.628906 L 22.589844 16.9375 L 22.917969 17.0625 L 23.03125 16.753906 Z M 22.800781 17.371094 L 23.128906 17.492188 L 23.246094 17.183594 L 22.917969 17.0625 Z M 22.570312 17.988281 L 22.898438 18.109375 L 23.015625 17.800781 L 22.6875 17.679688 Z M 22.339844 18.605469 L 22.667969 18.726562 L 22.785156 18.417969 L 22.457031 18.296875 Z M 22.4375 19.34375 L 22.554688 19.035156 L 22.226562 18.914062 L 22.113281 19.222656 Z M 22.207031 19.960938 L 22.324219 19.652344 L 21.996094 19.53125 L 21.882812 19.839844 Z M 21.980469 20.578125 L 22.09375 20.269531 L 21.765625 20.148438 L 21.652344 20.457031 Z M 21.207031 20.644531 L 21.535156 20.765625 L 21.652344 20.457031 L 21.324219 20.335938 Z M 20.765625 20.828125 L 21.09375 20.953125 L 21.207031 20.644531 L 20.878906 20.519531 Z M 20.324219 21.015625 L 20.652344 21.136719 L 20.765625 20.828125 L 20.4375 20.707031 Z M 19.878906 21.203125 L 20.207031 21.324219 L 20.324219 21.015625 L 19.996094 20.894531 Z M 19.4375 21.390625 L 19.765625 21.511719 L 19.878906 21.203125 L 19.554688 21.078125 Z M 18.996094 21.574219 L 19.324219 21.699219 L 19.4375 21.390625 L 19.109375 21.265625 Z M 18.550781 21.761719 L 18.878906 21.882812 L 18.996094 21.574219 L 18.667969 21.453125 Z M 17.898438 21.515625 L 18.226562 21.640625 L 18.339844 21.332031 L 18.011719 21.207031 Z M 17.242188 21.273438 L 17.570312 21.394531 L 17.683594 21.085938 L 17.355469 20.964844 Z M 16.585938 21.027344 L 16.914062 21.152344 L 17.03125 20.84375 L 16.703125 20.71875 Z M 23.476562 16.566406 L 23.148438 16.445312 L 23.03125 16.753906 L 23.359375 16.875 Z M 23.917969 16.378906 L 23.589844 16.257812 L 23.476562 16.566406 L 23.800781 16.6875 Z M 24.574219 16.625 L 24.246094 16.5 L 24.128906 16.808594 L 24.457031 16.933594 Z M 24.898438 16.746094 L 24.785156 17.054688 L 25.113281 17.175781 L 25.226562 16.867188 Z M 23.246094 17.183594 L 23.574219 17.304688 L 23.6875 16.996094 L 23.359375 16.875 Z M 23.800781 16.6875 L 23.6875 16.996094 L 24.015625 17.117188 L 24.128906 16.808594 Z M 23.34375 17.921875 L 23.457031 17.613281 L 23.128906 17.492188 L 23.015625 17.800781 Z M 23.113281 18.539062 L 23.226562 18.230469 L 22.898438 18.109375 L 22.785156 18.417969 Z M 23.113281 18.539062 "/></g></g></g></g><g clip-rule="nonzero" clip-path="url(#1f469c4d1c)"><g clip-rule="nonzero" clip-path="url(#79151ee75c)"><g transform="matrix(1,0,0,1,83,15)"><g clip-path="url(#f110a3c65d)"><g clip-rule="nonzero" clip-path="url(#1d423f1eed)"><g clip-rule="nonzero" clip-path="url(#0d8e4fb831)"><g clip-rule="nonzero" clip-path="url(#ea08c6b4f5)"><g clip-rule="nonzero" clip-path="url(#1dae667bfa)"><path style=" stroke:none;fill-rule:nonzero;fill:#000000;fill-opacity:1;" d="M 12.296875 11.988281 L 12.074219 9.539062 L 11.726562 9.570312 L 11.695312 9.21875 L 9.257812 9.441406 L 9.226562 9.089844 L 10.964844 8.933594 L 11.316406 8.902344 L 11.285156 8.550781 L 10.933594 8.582031 L 10.902344 8.234375 L 9.160156 8.390625 L 9.066406 7.339844 L 8.71875 7.371094 L 8.65625 6.671875 L 9.699219 6.578125 L 9.667969 6.226562 L 9.574219 5.179688 L 8.878906 5.242188 L 8.941406 5.941406 L 8.59375 5.972656 L 8.496094 4.921875 L 8.148438 4.953125 L 8.085938 4.253906 L 7.738281 4.285156 L 7.707031 3.933594 L 7.355469 3.964844 L 7.324219 3.617188 L 6.976562 3.648438 L 6.945312 3.296875 L 6.597656 3.328125 L 6.472656 1.929688 L 6.121094 1.960938 L 6.058594 1.261719 L 6.40625 1.230469 L 6.375 0.878906 L 4.984375 1.003906 L 5.015625 1.355469 L 5.109375 2.40625 L 4.0625 2.5 L 4.03125 2.148438 L 3.683594 2.179688 L 3.621094 1.480469 L 3.96875 1.449219 L 3.9375 1.101562 L 2.894531 1.195312 L 2.542969 1.226562 L 2.734375 3.324219 L 2.386719 3.355469 L 2.417969 3.707031 L 2.070312 3.738281 L 2.101562 4.089844 L 1.753906 4.121094 L 1.785156 4.46875 L 1.433594 4.5 L 1.46875 4.851562 L 1.117188 4.882812 L 1.148438 5.234375 L 0.800781 5.265625 L 0.832031 5.613281 L 0.484375 5.644531 L 0.707031 8.09375 L 1.054688 8.0625 L 1.085938 8.414062 L 1.433594 8.382812 L 1.402344 8.03125 L 1.75 8 L 1.71875 7.652344 L 2.066406 7.621094 L 2.035156 7.269531 L 2.386719 7.238281 L 2.351562 6.886719 L 2.703125 6.855469 L 2.671875 6.507812 L 3.714844 6.414062 L 3.746094 6.761719 L 4.09375 6.730469 L 4.125 7.082031 L 4.476562 7.050781 L 4.507812 7.398438 L 4.855469 7.367188 L 4.886719 7.71875 L 5.234375 7.6875 L 5.265625 8.035156 L 5.613281 8.003906 L 5.644531 8.355469 L 5.996094 8.324219 L 6.3125 11.824219 L 6.660156 11.792969 L 6.691406 12.140625 L 7.039062 12.109375 L 7.070312 12.460938 L 7.417969 12.429688 L 7.449219 12.777344 L 11.980469 12.371094 L 11.949219 12.019531 Z M 12.296875 11.988281 "/></g></g></g></g><g clip-rule="nonzero" clip-path="url(#5439aff784)"><g clip-rule="nonzero" clip-path="url(#e8eddbe655)"><g clip-rule="nonzero" clip-path="url(#74752f8359)"><g clip-rule="nonzero" clip-path="url(#f7d518da3d)"><path style=" stroke:none;fill-rule:nonzero;fill:#ffffff;fill-opacity:1;" d="M 8.050781 11.664062 L 8.75 11.601562 L 8.6875 10.902344 L 7.988281 10.964844 Z M 3.683594 6.0625 L 3.652344 5.710938 L 4 5.679688 L 4.03125 6.03125 Z M 2.988281 6.125 L 2.957031 5.777344 L 3.304688 5.742188 L 3.335938 6.09375 Z M 2.289062 6.1875 L 2.257812 5.839844 L 2.605469 5.808594 L 2.636719 6.15625 Z M 2.289062 6.1875 L 2.320312 6.539062 L 1.972656 6.570312 L 1.941406 6.21875 Z M 1.972656 6.570312 L 2.003906 6.917969 L 1.65625 6.949219 L 1.625 6.601562 Z M 1.6875 7.300781 L 1.339844 7.332031 L 1.308594 6.984375 L 1.65625 6.949219 Z M 1.023438 7.714844 L 0.992188 7.363281 L 1.339844 7.332031 L 1.371094 7.683594 Z M 1.59375 6.25 L 1.5625 5.902344 L 1.910156 5.871094 L 1.941406 6.21875 Z M 1.277344 6.632812 L 1.246094 6.28125 L 1.59375 6.25 L 1.625 6.601562 Z M 0.960938 7.015625 L 0.929688 6.664062 L 1.277344 6.632812 L 1.308594 6.984375 Z M 4.410156 6.347656 L 4.0625 6.382812 L 4.03125 6.03125 L 4.378906 6 Z M 4.792969 6.667969 L 4.441406 6.699219 L 4.410156 6.347656 L 4.761719 6.316406 Z M 5.171875 6.988281 L 4.824219 7.019531 L 4.792969 6.667969 L 5.140625 6.636719 Z M 5.550781 7.304688 L 5.203125 7.335938 L 5.171875 6.988281 L 5.519531 6.957031 Z M 5.929688 7.625 L 5.582031 7.65625 L 5.550781 7.304688 L 5.898438 7.273438 Z M 6.3125 7.941406 L 5.964844 7.972656 L 5.929688 7.625 L 6.28125 7.59375 Z M 6.3125 7.941406 L 6.660156 7.910156 L 6.691406 8.261719 L 6.34375 8.292969 Z M 6.375 8.640625 L 6.722656 8.609375 L 6.753906 8.960938 L 6.40625 8.992188 Z M 6.4375 9.34375 L 6.785156 9.308594 L 6.816406 9.660156 L 6.46875 9.691406 Z M 6.53125 10.390625 L 6.5 10.042969 L 6.847656 10.011719 L 6.882812 10.359375 Z M 6.597656 11.089844 L 6.5625 10.742188 L 6.914062 10.710938 L 6.945312 11.058594 Z M 6.660156 11.792969 L 6.628906 11.441406 L 6.976562 11.410156 L 7.007812 11.761719 Z M 6.945312 11.058594 L 7.292969 11.027344 L 7.324219 11.378906 L 6.976562 11.410156 Z M 6.882812 10.359375 L 7.230469 10.328125 L 7.261719 10.679688 L 6.914062 10.710938 Z M 6.816406 9.660156 L 7.167969 9.628906 L 7.199219 9.980469 L 6.847656 10.011719 Z M 7.101562 8.929688 L 7.132812 9.277344 L 6.785156 9.308594 L 6.753906 8.960938 Z M 7.039062 8.230469 L 7.070312 8.578125 L 6.722656 8.609375 L 6.691406 8.261719 Z M 6.976562 7.527344 L 7.007812 7.878906 L 6.660156 7.910156 L 6.628906 7.5625 Z M 6.25 7.242188 L 6.597656 7.210938 L 6.628906 7.5625 L 6.28125 7.59375 Z M 5.867188 6.921875 L 6.214844 6.890625 L 6.25 7.242188 L 5.898438 7.273438 Z M 5.488281 6.605469 L 5.835938 6.574219 L 5.867188 6.921875 L 5.519531 6.957031 Z M 5.109375 6.285156 L 5.457031 6.253906 L 5.488281 6.605469 L 5.140625 6.636719 Z M 4.726562 5.96875 L 5.078125 5.9375 L 5.109375 6.285156 L 4.761719 6.316406 Z M 4.347656 5.648438 L 4.695312 5.617188 L 4.726562 5.96875 L 4.378906 6 Z M 3.96875 5.332031 L 4.316406 5.300781 L 4.347656 5.648438 L 4 5.679688 Z M 3.273438 5.394531 L 3.621094 5.363281 L 3.652344 5.710938 L 3.304688 5.742188 Z M 2.574219 5.457031 L 2.921875 5.425781 L 2.957031 5.777344 L 2.605469 5.808594 Z M 1.878906 5.519531 L 2.226562 5.488281 L 2.257812 5.839844 L 1.910156 5.871094 Z M 7.386719 12.078125 L 7.039062 12.109375 L 7.007812 11.761719 L 7.355469 11.730469 Z M 7.765625 12.398438 L 7.417969 12.429688 L 7.386719 12.078125 L 7.734375 12.046875 Z M 8.464844 12.335938 L 8.117188 12.367188 L 8.085938 12.015625 L 8.433594 11.984375 Z M 8.8125 12.300781 L 8.78125 11.953125 L 9.128906 11.921875 L 9.160156 12.269531 Z M 7.324219 11.378906 L 7.671875 11.347656 L 7.703125 11.695312 L 7.355469 11.730469 Z M 7.734375 12.046875 L 7.703125 11.695312 L 8.050781 11.664062 L 8.085938 12.015625 Z M 7.609375 10.648438 L 7.640625 10.996094 L 7.292969 11.027344 L 7.261719 10.679688 Z M 7.546875 9.949219 L 7.578125 10.296875 L 7.230469 10.328125 L 7.199219 9.980469 Z M 7.546875 9.949219 "/></g></g></g></g></g></g></g></g><g clip-rule="nonzero" clip-path="url(#a0615e9d5c)"><g clip-rule="nonzero" clip-path="url(#af8c03d0f5)"><g transform="matrix(1,0,0,1,23,69)"><g clip-path="url(#4a7d0c3447)"><g clip-rule="nonzero" clip-path="url(#f53055fc41)"><g clip-rule="nonzero" clip-path="url(#f786a7fe51)"><g clip-rule="nonzero" clip-path="url(#c5924fa90d)"><g clip-rule="nonzero" clip-path="url(#f09005029d)"><path style=" stroke:none;fill-rule:nonzero;fill:#000000;fill-opacity:1;" d="M 0.429688 6.804688 L 1.621094 9.472656 L 2.003906 9.300781 L 2.171875 9.683594 L 4.855469 8.484375 L 5.027344 8.867188 L 3.109375 9.722656 L 2.726562 9.894531 L 2.894531 10.273438 L 3.28125 10.101562 L 3.449219 10.484375 L 5.367188 9.628906 L 5.875 10.773438 L 6.257812 10.601562 L 6.601562 11.363281 L 5.449219 11.875 L 5.621094 12.257812 L 6.128906 13.402344 L 6.894531 13.058594 L 6.554688 12.296875 L 6.941406 12.125 L 7.449219 13.269531 L 7.832031 13.097656 L 8.171875 13.859375 L 8.554688 13.6875 L 8.726562 14.070312 L 9.109375 13.898438 L 9.28125 14.28125 L 9.664062 14.109375 L 9.832031 14.488281 L 10.214844 14.320312 L 10.894531 15.84375 L 11.28125 15.671875 L 11.621094 16.433594 L 11.234375 16.605469 L 11.40625 16.988281 L 12.9375 16.300781 L 12.769531 15.921875 L 12.257812 14.777344 L 13.410156 14.265625 L 13.578125 14.644531 L 13.964844 14.476562 L 14.304688 15.238281 L 13.917969 15.410156 L 14.089844 15.789062 L 15.238281 15.277344 L 15.621094 15.105469 L 14.601562 12.820312 L 14.988281 12.648438 L 14.816406 12.265625 L 15.199219 12.097656 L 15.03125 11.714844 L 15.414062 11.542969 L 15.242188 11.164062 L 15.625 10.992188 L 15.457031 10.609375 L 15.839844 10.441406 L 15.671875 10.058594 L 16.054688 9.886719 L 15.882812 9.507812 L 16.265625 9.335938 L 15.078125 6.667969 L 14.695312 6.839844 L 14.523438 6.457031 L 14.140625 6.628906 L 14.308594 7.011719 L 13.925781 7.179688 L 14.097656 7.5625 L 13.714844 7.734375 L 13.882812 8.113281 L 13.5 8.285156 L 13.671875 8.667969 L 13.285156 8.835938 L 13.457031 9.21875 L 12.308594 9.730469 L 12.136719 9.351562 L 11.753906 9.519531 L 11.582031 9.140625 L 11.199219 9.3125 L 11.03125 8.929688 L 10.648438 9.101562 L 10.476562 8.71875 L 10.09375 8.890625 L 9.921875 8.511719 L 9.539062 8.679688 L 9.371094 8.300781 L 8.988281 8.472656 L 7.285156 4.660156 L 6.902344 4.832031 L 6.734375 4.449219 L 6.351562 4.621094 L 6.179688 4.238281 L 5.796875 4.410156 L 5.628906 4.03125 L 0.644531 6.253906 L 0.8125 6.632812 Z M 0.429688 6.804688 "/></g></g></g></g><g clip-rule="nonzero" clip-path="url(#1b581cdba3)"><g clip-rule="nonzero" clip-path="url(#0404757617)"><g clip-rule="nonzero" clip-path="url(#40988d5649)"><g clip-rule="nonzero" clip-path="url(#6cbdd54c6c)"><path style=" stroke:none;fill-rule:nonzero;fill:#ffffff;fill-opacity:1;" d="M 5.371094 5.515625 L 4.601562 5.855469 L 4.945312 6.621094 L 5.710938 6.277344 Z M 12.476562 10.113281 L 12.648438 10.492188 L 12.261719 10.664062 L 12.09375 10.285156 Z M 13.242188 9.769531 L 13.414062 10.152344 L 13.03125 10.324219 L 12.859375 9.941406 Z M 14.011719 9.429688 L 14.179688 9.808594 L 13.796875 9.980469 L 13.625 9.601562 Z M 14.011719 9.429688 L 13.839844 9.046875 L 14.222656 8.875 L 14.394531 9.257812 Z M 14.222656 8.875 L 14.054688 8.496094 L 14.4375 8.324219 L 14.605469 8.707031 Z M 14.265625 7.945312 L 14.648438 7.773438 L 14.820312 8.152344 L 14.4375 8.324219 Z M 14.863281 7.21875 L 15.035156 7.601562 L 14.648438 7.773438 L 14.480469 7.390625 Z M 14.777344 9.085938 L 14.945312 9.46875 L 14.5625 9.640625 L 14.394531 9.257812 Z M 14.992188 8.535156 L 15.160156 8.914062 L 14.777344 9.085938 L 14.605469 8.707031 Z M 15.203125 7.984375 L 15.375 8.363281 L 14.992188 8.535156 L 14.820312 8.152344 Z M 11.539062 10.074219 L 11.921875 9.902344 L 12.09375 10.285156 L 11.710938 10.453125 Z M 10.988281 9.863281 L 11.371094 9.691406 L 11.539062 10.074219 L 11.15625 10.246094 Z M 10.433594 9.652344 L 10.816406 9.480469 L 10.988281 9.863281 L 10.601562 10.035156 Z M 9.878906 9.441406 L 10.261719 9.273438 L 10.433594 9.652344 L 10.050781 9.824219 Z M 9.328125 9.234375 L 9.710938 9.0625 L 9.878906 9.441406 L 9.496094 9.613281 Z M 8.773438 9.023438 L 9.15625 8.851562 L 9.328125 9.234375 L 8.941406 9.402344 Z M 8.773438 9.023438 L 8.390625 9.195312 L 8.21875 8.8125 L 8.601562 8.640625 Z M 8.433594 8.261719 L 8.050781 8.433594 L 7.878906 8.050781 L 8.261719 7.878906 Z M 8.09375 7.5 L 7.710938 7.667969 L 7.539062 7.289062 L 7.921875 7.117188 Z M 7.582031 6.355469 L 7.753906 6.738281 L 7.371094 6.90625 L 7.199219 6.527344 Z M 7.242188 5.59375 L 7.414062 5.972656 L 7.03125 6.144531 L 6.859375 5.765625 Z M 6.902344 4.832031 L 7.074219 5.210938 L 6.691406 5.382812 L 6.519531 5.003906 Z M 6.859375 5.765625 L 6.476562 5.933594 L 6.308594 5.554688 L 6.691406 5.382812 Z M 7.199219 6.527344 L 6.816406 6.699219 L 6.648438 6.316406 L 7.03125 6.144531 Z M 7.539062 7.289062 L 7.15625 7.460938 L 6.988281 7.078125 L 7.371094 6.90625 Z M 7.496094 8.222656 L 7.328125 7.839844 L 7.710938 7.667969 L 7.878906 8.050781 Z M 7.835938 8.984375 L 7.667969 8.601562 L 8.050781 8.433594 L 8.21875 8.8125 Z M 8.175781 9.746094 L 8.007812 9.363281 L 8.390625 9.195312 L 8.558594 9.574219 Z M 9.113281 9.785156 L 8.730469 9.957031 L 8.558594 9.574219 L 8.941406 9.402344 Z M 9.667969 9.996094 L 9.285156 10.167969 L 9.113281 9.785156 L 9.496094 9.613281 Z M 10.21875 10.207031 L 9.835938 10.375 L 9.667969 9.996094 L 10.050781 9.824219 Z M 10.773438 10.414062 L 10.390625 10.585938 L 10.21875 10.207031 L 10.601562 10.035156 Z M 11.328125 10.625 L 10.941406 10.796875 L 10.773438 10.414062 L 11.15625 10.246094 Z M 11.878906 10.835938 L 11.496094 11.007812 L 11.328125 10.625 L 11.710938 10.453125 Z M 12.433594 11.046875 L 12.050781 11.214844 L 11.878906 10.835938 L 12.261719 10.664062 Z M 13.199219 10.703125 L 12.816406 10.875 L 12.648438 10.492188 L 13.03125 10.324219 Z M 13.964844 10.363281 L 13.582031 10.53125 L 13.414062 10.152344 L 13.796875 9.980469 Z M 14.734375 10.019531 L 14.351562 10.191406 L 14.179688 9.808594 L 14.5625 9.640625 Z M 5.96875 4.792969 L 6.351562 4.621094 L 6.519531 5.003906 L 6.136719 5.171875 Z M 5.414062 4.582031 L 5.796875 4.410156 L 5.96875 4.792969 L 5.582031 4.964844 Z M 4.648438 4.925781 L 5.03125 4.753906 L 5.199219 5.132812 L 4.816406 5.304688 Z M 4.261719 5.09375 L 4.433594 5.476562 L 4.050781 5.648438 L 3.878906 5.265625 Z M 6.308594 5.554688 L 5.921875 5.726562 L 5.753906 5.34375 L 6.136719 5.171875 Z M 5.582031 4.964844 L 5.753906 5.34375 L 5.371094 5.515625 L 5.199219 5.132812 Z M 6.261719 6.488281 L 6.09375 6.105469 L 6.476562 5.933594 L 6.648438 6.316406 Z M 6.601562 7.25 L 6.433594 6.867188 L 6.816406 6.699219 L 6.988281 7.078125 Z M 6.601562 7.25 "/></g></g></g></g></g></g></g></g><g clip-rule="nonzero" clip-path="url(#2bc794c4fe)"><g clip-rule="nonzero" clip-path="url(#38e4cf93ae)"><g transform="matrix(1,0,0,1,69,55)"><g clip-path="url(#ca1d9346ac)"><g clip-rule="nonzero" clip-path="url(#1ed5e8a02b)"><g clip-rule="nonzero" clip-path="url(#8e115dd67e)"><g clip-rule="nonzero" clip-path="url(#ff0cc2f2ad)"><g clip-rule="nonzero" clip-path="url(#c965f18a4e)"><path style=" stroke:none;fill-rule:nonzero;fill:#000000;fill-opacity:1;" d="M 8.339844 1.039062 L 6.691406 2.425781 L 6.886719 2.65625 L 6.648438 2.855469 L 8.015625 4.476562 L 7.777344 4.675781 L 6.804688 3.515625 L 6.609375 3.285156 L 6.375 3.480469 L 6.570312 3.714844 L 6.332031 3.910156 L 7.308594 5.070312 L 6.601562 5.664062 L 6.796875 5.894531 L 6.324219 6.292969 L 5.742188 5.597656 L 5.503906 5.792969 L 4.800781 6.386719 L 4.996094 6.621094 L 5.1875 6.851562 L 5.660156 6.457031 L 5.855469 6.6875 L 5.148438 7.28125 L 5.34375 7.511719 L 4.871094 7.910156 L 5.066406 8.140625 L 4.832031 8.339844 L 5.027344 8.570312 L 4.792969 8.769531 L 4.988281 9 L 4.75 9.199219 L 4.945312 9.429688 L 4.003906 10.21875 L 4.199219 10.453125 L 3.730469 10.847656 L 3.535156 10.617188 L 3.296875 10.8125 L 3.882812 11.507812 L 4.078125 11.742188 L 4.3125 11.542969 L 5.019531 10.949219 L 5.605469 11.644531 L 5.367188 11.84375 L 5.5625 12.074219 L 5.09375 12.472656 L 4.898438 12.238281 L 4.664062 12.4375 L 5.246094 13.132812 L 5.441406 13.363281 L 6.855469 12.175781 L 7.046875 12.410156 L 7.285156 12.210938 L 7.480469 12.445312 L 7.714844 12.246094 L 7.910156 12.476562 L 8.144531 12.28125 L 8.339844 12.511719 L 8.574219 12.3125 L 8.769531 12.546875 L 9.003906 12.347656 L 9.199219 12.578125 L 9.433594 12.382812 L 9.628906 12.613281 L 11.277344 11.230469 L 11.082031 10.996094 L 11.320312 10.800781 L 11.125 10.566406 L 10.886719 10.765625 L 10.695312 10.535156 L 10.457031 10.730469 L 10.261719 10.5 L 10.027344 10.699219 L 9.832031 10.464844 L 9.597656 10.664062 L 9.402344 10.429688 L 9.167969 10.628906 L 8.582031 9.933594 L 8.816406 9.734375 L 8.625 9.503906 L 8.859375 9.304688 L 8.664062 9.074219 L 8.898438 8.875 L 8.703125 8.644531 L 8.941406 8.445312 L 8.746094 8.214844 L 8.980469 8.015625 L 8.785156 7.785156 L 9.019531 7.585938 L 8.824219 7.355469 L 11.179688 5.378906 L 10.984375 5.144531 L 11.21875 4.949219 L 11.027344 4.714844 L 11.261719 4.519531 L 11.066406 4.285156 L 11.300781 4.089844 L 8.769531 1.074219 L 8.53125 1.273438 Z M 8.339844 1.039062 "/></g></g></g></g><g clip-rule="nonzero" clip-path="url(#d2c911d712)"><g clip-rule="nonzero" clip-path="url(#06fef06015)"><g clip-rule="nonzero" clip-path="url(#43bbd396ef)"><g clip-rule="nonzero" clip-path="url(#4793d8841c)"><path style=" stroke:none;fill-rule:nonzero;fill:#ffffff;fill-opacity:1;" d="M 10.207031 4.21875 L 9.816406 3.753906 L 9.34375 4.148438 L 9.734375 4.613281 Z M 8.347656 10.132812 L 8.113281 10.328125 L 7.917969 10.097656 L 8.152344 9.898438 Z M 8.738281 10.59375 L 8.5 10.792969 L 8.308594 10.5625 L 8.542969 10.363281 Z M 9.125 11.058594 L 8.890625 11.257812 L 8.695312 11.023438 L 8.933594 10.828125 Z M 9.125 11.058594 L 9.363281 10.859375 L 9.558594 11.09375 L 9.320312 11.289062 Z M 9.558594 11.09375 L 9.792969 10.894531 L 9.988281 11.128906 L 9.75 11.324219 Z M 10.222656 10.929688 L 10.417969 11.160156 L 10.183594 11.359375 L 9.988281 11.128906 Z M 10.847656 11.195312 L 10.613281 11.394531 L 10.417969 11.160156 L 10.652344 10.964844 Z M 9.515625 11.523438 L 9.28125 11.71875 L 9.085938 11.488281 L 9.320312 11.289062 Z M 9.945312 11.558594 L 9.710938 11.753906 L 9.515625 11.523438 L 9.75 11.324219 Z M 10.375 11.589844 L 10.140625 11.789062 L 9.945312 11.558594 L 10.183594 11.359375 Z M 8.191406 9.46875 L 8.386719 9.703125 L 8.152344 9.898438 L 7.957031 9.667969 Z M 8.234375 9.039062 L 8.429688 9.273438 L 8.191406 9.46875 L 8 9.238281 Z M 8.273438 8.609375 L 8.46875 8.84375 L 8.234375 9.039062 L 8.039062 8.808594 Z M 8.316406 8.179688 L 8.507812 8.414062 L 8.273438 8.609375 L 8.078125 8.378906 Z M 8.355469 7.75 L 8.550781 7.984375 L 8.316406 8.179688 L 8.121094 7.949219 Z M 8.394531 7.320312 L 8.589844 7.554688 L 8.355469 7.75 L 8.160156 7.519531 Z M 8.394531 7.320312 L 8.199219 7.089844 L 8.4375 6.890625 L 8.632812 7.125 Z M 8.867188 6.925781 L 8.671875 6.695312 L 8.90625 6.496094 L 9.101562 6.726562 Z M 9.335938 6.53125 L 9.140625 6.296875 L 9.378906 6.101562 L 9.574219 6.332031 Z M 10.042969 5.9375 L 9.808594 6.136719 L 9.613281 5.902344 L 9.847656 5.707031 Z M 10.515625 5.542969 L 10.277344 5.738281 L 10.082031 5.507812 L 10.320312 5.308594 Z M 10.984375 5.144531 L 10.75 5.34375 L 10.554688 5.113281 L 10.789062 4.914062 Z M 10.320312 5.308594 L 10.125 5.078125 L 10.359375 4.878906 L 10.554688 5.113281 Z M 9.847656 5.707031 L 9.652344 5.472656 L 9.890625 5.277344 L 10.082031 5.507812 Z M 9.378906 6.101562 L 9.183594 5.867188 L 9.417969 5.671875 L 9.613281 5.902344 Z M 8.710938 6.265625 L 8.949219 6.066406 L 9.140625 6.296875 L 8.90625 6.496094 Z M 8.242188 6.660156 L 8.476562 6.460938 L 8.671875 6.695312 L 8.4375 6.890625 Z M 7.769531 7.054688 L 8.007812 6.859375 L 8.199219 7.089844 L 7.964844 7.289062 Z M 7.925781 7.71875 L 7.730469 7.484375 L 7.964844 7.289062 L 8.160156 7.519531 Z M 7.882812 8.148438 L 7.691406 7.914062 L 7.925781 7.71875 L 8.121094 7.949219 Z M 7.84375 8.578125 L 7.648438 8.34375 L 7.882812 8.148438 L 8.078125 8.378906 Z M 7.804688 9.007812 L 7.609375 8.773438 L 7.84375 8.578125 L 8.039062 8.808594 Z M 7.761719 9.4375 L 7.566406 9.203125 L 7.804688 9.007812 L 8 9.238281 Z M 7.722656 9.867188 L 7.527344 9.632812 L 7.761719 9.4375 L 7.957031 9.667969 Z M 7.683594 10.296875 L 7.488281 10.0625 L 7.722656 9.867188 L 7.917969 10.097656 Z M 8.070312 10.757812 L 7.875 10.527344 L 8.113281 10.328125 L 8.308594 10.5625 Z M 8.460938 11.222656 L 8.265625 10.992188 L 8.5 10.792969 L 8.695312 11.023438 Z M 8.851562 11.6875 L 8.65625 11.453125 L 8.890625 11.257812 L 9.085938 11.488281 Z M 10.832031 4.484375 L 11.027344 4.714844 L 10.789062 4.914062 L 10.59375 4.683594 Z M 10.871094 4.054688 L 11.066406 4.285156 L 10.832031 4.484375 L 10.636719 4.253906 Z M 10.480469 3.589844 L 10.675781 3.824219 L 10.441406 4.019531 L 10.246094 3.789062 Z M 10.285156 3.359375 L 10.050781 3.558594 L 9.855469 3.324219 L 10.09375 3.128906 Z M 10.359375 4.878906 L 10.164062 4.648438 L 10.402344 4.449219 L 10.59375 4.683594 Z M 10.636719 4.253906 L 10.402344 4.449219 L 10.207031 4.21875 L 10.441406 4.019531 Z M 9.695312 5.042969 L 9.929688 4.847656 L 10.125 5.078125 L 9.890625 5.277344 Z M 9.222656 5.4375 L 9.457031 5.242188 L 9.652344 5.472656 L 9.417969 5.671875 Z M 9.222656 5.4375 "/></g></g></g></g></g></g></g></g></g></svg>