<svg xmlns="http://www.w3.org/2000/svg" xmlns:xlink="http://www.w3.org/1999/xlink" width="150" zoomAndPan="magnify" viewBox="0 0 112.5 112.499997" height="150" preserveAspectRatio="xMidYMid meet" version="1.2"><defs><clipPath id="b555ed4f73"><path d="M 11 9 L 26 9 L 26 24 L 11 24 Z M 11 9 "/></clipPath><clipPath id="527e62d63a"><path d="M 13.960938 7.460938 L 26.980469 12.476562 L 22.207031 24.863281 L 9.191406 19.851562 Z M 13.960938 7.460938 "/></clipPath><clipPath id="9217271fcd"><path d="M 20.460938 9.964844 L 20.171875 15.289062 L 25.136719 17.199219 L 19.996094 18.578125 L 19.707031 23.902344 L 16.816406 19.429688 L 11.671875 20.808594 L 15.03125 16.664062 L 12.140625 12.195312 L 17.105469 14.105469 Z M 20.460938 9.964844 "/></clipPath><clipPath id="0d46b76770"><path d="M 0.46875 0.796875 L 14.328125 0.796875 L 14.328125 15 L 0.46875 15 Z M 0.46875 0.796875 "/></clipPath><clipPath id="c10b243cc2"><path d="M 2.960938 -1.539062 L 15.980469 3.476562 L 11.207031 15.863281 L -1.808594 10.851562 Z M 2.960938 -1.539062 "/></clipPath><clipPath id="cbcae4ad8f"><path d="M 9.460938 0.964844 L 9.171875 6.289062 L 14.136719 8.199219 L 8.996094 9.578125 L 8.707031 14.902344 L 5.816406 10.429688 L 0.671875 11.808594 L 4.03125 7.664062 L 1.140625 3.195312 L 6.105469 5.105469 Z M 9.460938 0.964844 "/></clipPath><clipPath id="3be2a589c8"><rect x="0" width="15" y="0" height="15"/></clipPath><clipPath id="4fcebe1e08"><path d="M 27 38 L 39 38 L 39 51 L 27 51 Z M 27 38 "/></clipPath><clipPath id="ffb0ab52b1"><path d="M 28.414062 36.578125 L 39.933594 40.171875 L 36.511719 51.136719 L 24.992188 47.542969 Z M 28.414062 36.578125 "/></clipPath><clipPath id="7910c51aa9"><path d="M 34.164062 38.371094 L 34.214844 42.984375 L 38.609375 44.355469 L 34.246094 45.832031 L 34.296875 50.445312 L 31.550781 46.746094 L 27.1875 48.226562 L 29.855469 44.460938 L 27.105469 40.765625 L 31.5 42.136719 Z M 34.164062 38.371094 "/></clipPath><clipPath id="a4edcf404e"><path d="M 0 0.230469 L 11.707031 0.230469 L 11.707031 12.65625 L 0 12.65625 Z M 0 0.230469 "/></clipPath><clipPath id="89b44e7e15"><path d="M 1.414062 -1.421875 L 12.933594 2.171875 L 9.511719 13.136719 L -2.007812 9.542969 Z M 1.414062 -1.421875 "/></clipPath><clipPath id="0adae0ba08"><path d="M 7.164062 0.371094 L 7.214844 4.984375 L 11.609375 6.355469 L 7.246094 7.832031 L 7.296875 12.445312 L 4.550781 8.746094 L 0.1875 10.226562 L 2.855469 6.460938 L 0.105469 2.765625 L 4.5 4.136719 Z M 7.164062 0.371094 "/></clipPath><clipPath id="6f29f118ec"><rect x="0" width="12" y="0" height="13"/></clipPath><clipPath id="46e04b8795"><path d="M 78 72 L 89 72 L 89 83 L 78 83 Z M 78 72 "/></clipPath><clipPath id="df84f3ec32"><path d="M 78.863281 71.640625 L 88.980469 72.605469 L 88.0625 82.230469 L 77.945312 81.265625 Z M 78.863281 71.640625 "/></clipPath><clipPath id="3b43bd4756"><path d="M 83.914062 72.121094 L 84.753906 75.910156 L 88.613281 76.28125 L 85.273438 78.253906 L 86.117188 82.046875 L 83.210938 79.476562 L 79.875 81.449219 L 81.417969 77.886719 L 78.511719 75.316406 L 82.371094 75.683594 Z M 83.914062 72.121094 "/></clipPath><clipPath id="1b07e667bb"><path d="M 0.371094 0 L 10.644531 0 L 10.644531 10.195312 L 0.371094 10.195312 Z M 0.371094 0 "/></clipPath><clipPath id="de076c95f8"><path d="M 0.863281 -0.359375 L 10.980469 0.605469 L 10.0625 10.230469 L -0.0546875 9.265625 Z M 0.863281 -0.359375 "/></clipPath><clipPath id="4a7abc8fe9"><path d="M 5.914062 0.121094 L 6.753906 3.910156 L 10.613281 4.28125 L 7.273438 6.253906 L 8.117188 10.046875 L 5.210938 7.476562 L 1.875 9.449219 L 3.417969 5.886719 L 0.511719 3.316406 L 4.371094 3.683594 Z M 5.914062 0.121094 "/></clipPath><clipPath id="33d7656493"><rect x="0" width="11" y="0" height="11"/></clipPath><clipPath id="1556f8c829"><path d="M 73 20 L 86 20 L 86 32 L 73 32 Z M 73 20 "/></clipPath><clipPath id="efa2b51046"><path d="M 70.605469 23.769531 L 80.453125 16.550781 L 87.320312 25.925781 L 77.472656 33.140625 Z M 70.605469 23.769531 "/></clipPath><clipPath id="9527b0a5e6"><path d="M 75.519531 20.164062 L 79.304688 22.894531 L 83.058594 20.144531 L 81.640625 24.582031 L 85.425781 27.3125 L 80.765625 27.324219 L 79.347656 31.765625 L 77.886719 27.332031 L 73.226562 27.347656 L 76.984375 24.597656 Z M 75.519531 20.164062 "/></clipPath><clipPath id="95384922a9"><path d="M 0.113281 0.0703125 L 12.539062 0.0703125 L 12.539062 11.777344 L 0.113281 11.777344 Z M 0.113281 0.0703125 "/></clipPath><clipPath id="9334f51651"><path d="M -2.394531 3.769531 L 7.453125 -3.449219 L 14.320312 5.925781 L 4.472656 13.140625 Z M -2.394531 3.769531 "/></clipPath><clipPath id="2b8e7d46d5"><path d="M 2.519531 0.164062 L 6.304688 2.894531 L 10.058594 0.144531 L 8.640625 4.582031 L 12.425781 7.3125 L 7.765625 7.324219 L 6.347656 11.765625 L 4.886719 7.332031 L 0.226562 7.347656 L 3.984375 4.597656 Z M 2.519531 0.164062 "/></clipPath><clipPath id="f8c6ea77ea"><rect x="0" width="13" y="0" height="12"/></clipPath><clipPath id="beed1e3ab9"><path d="M 27 88 L 37 88 L 37 99 L 27 99 Z M 27 88 "/></clipPath><clipPath id="01d8b09b72"><path d="M 26.792969 89.773438 L 36.28125 87.996094 L 37.96875 97.027344 L 28.480469 98.800781 Z M 26.792969 89.773438 "/></clipPath><clipPath id="d09cc10054"><path d="M 31.53125 88.886719 L 33.292969 92.125 L 36.910156 91.449219 L 34.382812 94.128906 L 36.144531 97.367188 L 32.820312 95.78125 L 30.292969 98.460938 L 30.765625 94.804688 L 27.4375 93.222656 L 31.054688 92.542969 Z M 31.53125 88.886719 "/></clipPath><clipPath id="663c071945"><path d="M 0.238281 0.886719 L 10 0.886719 L 10 10.679688 L 0.238281 10.679688 Z M 0.238281 0.886719 "/></clipPath><clipPath id="186642e503"><path d="M -0.207031 1.773438 L 9.28125 -0.00390625 L 10.96875 9.027344 L 1.480469 10.800781 Z M -0.207031 1.773438 "/></clipPath><clipPath id="e8cc1cb9f6"><path d="M 4.53125 0.886719 L 6.292969 4.125 L 9.910156 3.449219 L 7.382812 6.128906 L 9.144531 9.367188 L 5.820312 7.78125 L 3.292969 10.460938 L 3.765625 6.804688 L 0.4375 5.222656 L 4.054688 4.542969 Z M 4.53125 0.886719 "/></clipPath><clipPath id="0802971cec"><rect x="0" width="10" y="0" height="11"/></clipPath></defs><g id="e811c730b7"><g clip-rule="nonzero" clip-path="url(#b555ed4f73)"><g clip-rule="nonzero" clip-path="url(#527e62d63a)"><g clip-rule="nonzero" clip-path="url(#9217271fcd)"><g transform="matrix(1,0,0,1,11,9)"><g clip-path="url(#3be2a589c8)"><g clip-rule="nonzero" clip-path="url(#0d46b76770)"><g clip-rule="nonzero" clip-path="url(#c10b243cc2)"><g clip-rule="nonzero" clip-path="url(#cbcae4ad8f)"><path style=" stroke:none;fill-rule:nonzero;fill:#35acd6;fill-opacity:1;" d="M 2.960938 -1.539062 L 15.980469 3.476562 L 11.207031 15.863281 L -1.808594 10.851562 Z M 2.960938 -1.539062 "/></g></g></g></g></g></g></g></g><g clip-rule="nonzero" clip-path="url(#4fcebe1e08)"><g clip-rule="nonzero" clip-path="url(#ffb0ab52b1)"><g clip-rule="nonzero" clip-path="url(#7910c51aa9)"><g transform="matrix(1,0,0,1,27,38)"><g clip-path="url(#6f29f118ec)"><g clip-rule="nonzero" clip-path="url(#a4edcf404e)"><g clip-rule="nonzero" clip-path="url(#89b44e7e15)"><g clip-rule="nonzero" clip-path="url(#0adae0ba08)"><path style=" stroke:none;fill-rule:nonzero;fill:#ff66c4;fill-opacity:1;" d="M 1.414062 -1.421875 L 12.933594 2.171875 L 9.511719 13.136719 L -2.007812 9.542969 Z M 1.414062 -1.421875 "/></g></g></g></g></g></g></g></g><g clip-rule="nonzero" clip-path="url(#46e04b8795)"><g clip-rule="nonzero" clip-path="url(#df84f3ec32)"><g clip-rule="nonzero" clip-path="url(#3b43bd4756)"><g transform="matrix(1,0,0,1,78,72)"><g clip-path="url(#33d7656493)"><g clip-rule="nonzero" clip-path="url(#1b07e667bb)"><g clip-rule="nonzero" clip-path="url(#de076c95f8)"><g clip-rule="nonzero" clip-path="url(#4a7abc8fe9)"><path style=" stroke:none;fill-rule:nonzero;fill:#cb6ce6;fill-opacity:1;" d="M 0.863281 -0.359375 L 10.980469 0.605469 L 10.0625 10.230469 L -0.0546875 9.265625 Z M 0.863281 -0.359375 "/></g></g></g></g></g></g></g></g><g clip-rule="nonzero" clip-path="url(#1556f8c829)"><g clip-rule="nonzero" clip-path="url(#efa2b51046)"><g clip-rule="nonzero" clip-path="url(#9527b0a5e6)"><g transform="matrix(1,0,0,1,73,20)"><g clip-path="url(#f8c6ea77ea)"><g clip-rule="nonzero" clip-path="url(#95384922a9)"><g clip-rule="nonzero" clip-path="url(#9334f51651)"><g clip-rule="nonzero" clip-path="url(#2b8e7d46d5)"><path style=" stroke:none;fill-rule:nonzero;fill:#7fff00;fill-opacity:1;" d="M -2.394531 3.769531 L 7.453125 -3.449219 L 14.320312 5.925781 L 4.472656 13.140625 Z M -2.394531 3.769531 "/></g></g></g></g></g></g></g></g><g clip-rule="nonzero" clip-path="url(#beed1e3ab9)"><g clip-rule="nonzero" clip-path="url(#01d8b09b72)"><g clip-rule="nonzero" clip-path="url(#d09cc10054)"><g transform="matrix(1,0,0,1,27,88)"><g clip-path="url(#0802971cec)"><g clip-rule="nonzero" clip-path="url(#663c071945)"><g clip-rule="nonzero" clip-path="url(#186642e503)"><g clip-rule="nonzero" clip-path="url(#e8cc1cb9f6)"><path style=" stroke:none;fill-rule:nonzero;fill:#ffcc00;fill-opacity:1;" d="M -0.207031 1.773438 L 9.28125 -0.00390625 L 10.96875 9.027344 L 1.480469 10.800781 Z M -0.207031 1.773438 "/></g></g></g></g></g></g></g></g></g></svg>