<svg xmlns="http://www.w3.org/2000/svg" xmlns:xlink="http://www.w3.org/1999/xlink" width="150" zoomAndPan="magnify" viewBox="0 0 112.5 112.499997" height="150" preserveAspectRatio="xMidYMid meet" version="1.2"><defs><clipPath id="3365e32cf4"><path d="M 21 5 L 37 5 L 37 25 L 21 25 Z M 21 5 "/></clipPath><clipPath id="e595e07b7a"><path d="M 24.410156 4.582031 L 38.21875 7.832031 L 33.941406 26.003906 L 20.128906 22.753906 Z M 24.410156 4.582031 "/></clipPath><clipPath id="f85255505c"><path d="M 24.410156 4.582031 L 38.21875 7.832031 L 33.941406 26.003906 L 20.128906 22.753906 Z M 24.410156 4.582031 "/></clipPath><clipPath id="8bc3543fc1"><path d="M 24.410156 4.582031 L 38.21875 7.832031 L 33.941406 26.003906 L 20.128906 22.753906 Z M 24.410156 4.582031 "/></clipPath><clipPath id="6903af3f49"><path d="M 21 6 L 36 6 L 36 25 L 21 25 Z M 21 6 "/></clipPath><clipPath id="f95981cb29"><path d="M 24.410156 4.582031 L 38.21875 7.832031 L 33.941406 26.003906 L 20.128906 22.753906 Z M 24.410156 4.582031 "/></clipPath><clipPath id="fdc02f4ec0"><path d="M 24.410156 4.582031 L 38.21875 7.832031 L 33.941406 26.003906 L 20.128906 22.753906 Z M 24.410156 4.582031 "/></clipPath><clipPath id="5f6fcd435f"><path d="M 24.410156 4.582031 L 38.21875 7.832031 L 33.941406 26.003906 L 20.128906 22.753906 Z M 24.410156 4.582031 "/></clipPath><clipPath id="639f03343b"><path d="M 23 12 L 34 12 L 34 23 L 23 23 Z M 23 12 "/></clipPath><clipPath id="3b747f94da"><path d="M 24.410156 4.582031 L 38.21875 7.832031 L 33.941406 26.003906 L 20.128906 22.753906 Z M 24.410156 4.582031 "/></clipPath><clipPath id="7158ea7a04"><path d="M 24.410156 4.582031 L 38.21875 7.832031 L 33.941406 26.003906 L 20.128906 22.753906 Z M 24.410156 4.582031 "/></clipPath><clipPath id="4d723ec10d"><path d="M 24.410156 4.582031 L 38.21875 7.832031 L 33.941406 26.003906 L 20.128906 22.753906 Z M 24.410156 4.582031 "/></clipPath><clipPath id="2b67cf41b5"><path d="M 25 14 L 28 14 L 28 18 L 25 18 Z M 25 14 "/></clipPath><clipPath id="b81fee1761"><path d="M 24.410156 4.582031 L 38.21875 7.832031 L 33.941406 26.003906 L 20.128906 22.753906 Z M 24.410156 4.582031 "/></clipPath><clipPath id="816ddbdd3b"><path d="M 24.410156 4.582031 L 38.21875 7.832031 L 33.941406 26.003906 L 20.128906 22.753906 Z M 24.410156 4.582031 "/></clipPath><clipPath id="51c88d2276"><path d="M 24.410156 4.582031 L 38.21875 7.832031 L 33.941406 26.003906 L 20.128906 22.753906 Z M 24.410156 4.582031 "/></clipPath><clipPath id="7ed425182a"><path d="M 21 83 L 30 83 L 30 94 L 21 94 Z M 21 83 "/></clipPath><clipPath id="7c26d926e5"><path d="M 20.0625 85.339844 L 26.921875 82.382812 L 30.765625 91.292969 L 23.910156 94.253906 Z M 20.0625 85.339844 "/></clipPath><clipPath id="e33c829aaa"><path d="M 20.0625 85.339844 L 26.921875 82.382812 L 30.765625 91.292969 L 23.910156 94.253906 Z M 20.0625 85.339844 "/></clipPath><clipPath id="27844c732c"><path d="M 20.0625 85.339844 L 26.921875 82.382812 L 30.765625 91.292969 L 23.910156 94.253906 Z M 20.0625 85.339844 "/></clipPath><clipPath id="e2d8cf5554"><path d="M 23 86 L 29 86 L 29 92 L 23 92 Z M 23 86 "/></clipPath><clipPath id="62ce858041"><path d="M 20.0625 85.339844 L 26.921875 82.382812 L 30.765625 91.292969 L 23.910156 94.253906 Z M 20.0625 85.339844 "/></clipPath><clipPath id="8eefabd049"><path d="M 20.0625 85.339844 L 26.921875 82.382812 L 30.765625 91.292969 L 23.910156 94.253906 Z M 20.0625 85.339844 "/></clipPath><clipPath id="03379d45cf"><path d="M 20.0625 85.339844 L 26.921875 82.382812 L 30.765625 91.292969 L 23.910156 94.253906 Z M 20.0625 85.339844 "/></clipPath><clipPath id="83a03207a1"><path d="M 23 88 L 25 88 L 25 91 L 23 91 Z M 23 88 "/></clipPath><clipPath id="719b543cf7"><path d="M 20.0625 85.339844 L 26.921875 82.382812 L 30.765625 91.292969 L 23.910156 94.253906 Z M 20.0625 85.339844 "/></clipPath><clipPath id="436f0e962f"><path d="M 20.0625 85.339844 L 26.921875 82.382812 L 30.765625 91.292969 L 23.910156 94.253906 Z M 20.0625 85.339844 "/></clipPath><clipPath id="0db5b9b251"><path d="M 20.0625 85.339844 L 26.921875 82.382812 L 30.765625 91.292969 L 23.910156 94.253906 Z M 20.0625 85.339844 "/></clipPath><clipPath id="184c04227c"><path d="M 74 81 L 83 81 L 83 89 L 74 89 Z M 74 81 "/></clipPath><clipPath id="623646b5eb"><path d="M 76.527344 90.5 L 72.734375 84.953125 L 79.515625 80.316406 L 83.308594 85.863281 Z M 76.527344 90.5 "/></clipPath><clipPath id="fa6b9df7aa"><path d="M 76.527344 90.5 L 72.734375 84.953125 L 79.515625 80.316406 L 83.308594 85.863281 Z M 76.527344 90.5 "/></clipPath><clipPath id="6e0e97c016"><path d="M 76.527344 90.5 L 72.734375 84.953125 L 79.515625 80.316406 L 83.308594 85.863281 Z M 76.527344 90.5 "/></clipPath><clipPath id="184aa44206"><path d="M 74 81 L 82 81 L 82 89 L 74 89 Z M 74 81 "/></clipPath><clipPath id="46f220165c"><path d="M 76.527344 90.5 L 72.734375 84.953125 L 79.515625 80.316406 L 83.308594 85.863281 Z M 76.527344 90.5 "/></clipPath><clipPath id="6a4c682a46"><path d="M 76.527344 90.5 L 72.734375 84.953125 L 79.515625 80.316406 L 83.308594 85.863281 Z M 76.527344 90.5 "/></clipPath><clipPath id="f35212e53f"><path d="M 76.527344 90.5 L 72.734375 84.953125 L 79.515625 80.316406 L 83.308594 85.863281 Z M 76.527344 90.5 "/></clipPath><clipPath id="ce16369542"><path d="M 76 82 L 81 82 L 81 88 L 76 88 Z M 76 82 "/></clipPath><clipPath id="43636c83e8"><path d="M 76.527344 90.5 L 72.734375 84.953125 L 79.515625 80.316406 L 83.308594 85.863281 Z M 76.527344 90.5 "/></clipPath><clipPath id="2ee7944ca4"><path d="M 76.527344 90.5 L 72.734375 84.953125 L 79.515625 80.316406 L 83.308594 85.863281 Z M 76.527344 90.5 "/></clipPath><clipPath id="66d048b6a6"><path d="M 76.527344 90.5 L 72.734375 84.953125 L 79.515625 80.316406 L 83.308594 85.863281 Z M 76.527344 90.5 "/></clipPath><clipPath id="85b47dd3cf"><path d="M 78 85 L 80 85 L 80 87 L 78 87 Z M 78 85 "/></clipPath><clipPath id="02448bfa9a"><path d="M 76.527344 90.5 L 72.734375 84.953125 L 79.515625 80.316406 L 83.308594 85.863281 Z M 76.527344 90.5 "/></clipPath><clipPath id="cee3480ca0"><path d="M 76.527344 90.5 L 72.734375 84.953125 L 79.515625 80.316406 L 83.308594 85.863281 Z M 76.527344 90.5 "/></clipPath><clipPath id="e66051d7c8"><path d="M 76.527344 90.5 L 72.734375 84.953125 L 79.515625 80.316406 L 83.308594 85.863281 Z M 76.527344 90.5 "/></clipPath><clipPath id="63cec68197"><path d="M 85 42 L 95 42 L 95 53 L 85 53 Z M 85 42 "/></clipPath><clipPath id="0376534aee"><path d="M 90.867188 40.660156 L 96.671875 46.46875 L 89.28125 53.859375 L 83.472656 48.050781 Z M 90.867188 40.660156 "/></clipPath><clipPath id="27786ffb95"><path d="M 90.867188 40.660156 L 96.671875 46.46875 L 89.28125 53.859375 L 83.472656 48.050781 Z M 90.867188 40.660156 "/></clipPath><clipPath id="827815cb4d"><path d="M 90.867188 40.660156 L 96.671875 46.46875 L 89.28125 53.859375 L 83.472656 48.050781 Z M 90.867188 40.660156 "/></clipPath><clipPath id="ed4a55fa10"><path d="M 86 45 L 92 45 L 92 51 L 86 51 Z M 86 45 "/></clipPath><clipPath id="74d33ff2a0"><path d="M 90.867188 40.660156 L 96.671875 46.46875 L 89.28125 53.859375 L 83.472656 48.050781 Z M 90.867188 40.660156 "/></clipPath><clipPath id="f5649b198f"><path d="M 90.867188 40.660156 L 96.671875 46.46875 L 89.28125 53.859375 L 83.472656 48.050781 Z M 90.867188 40.660156 "/></clipPath><clipPath id="663aee0e95"><path d="M 90.867188 40.660156 L 96.671875 46.46875 L 89.28125 53.859375 L 83.472656 48.050781 Z M 90.867188 40.660156 "/></clipPath><clipPath id="9ee193f527"><path d="M 87 46 L 90 46 L 90 48 L 87 48 Z M 87 46 "/></clipPath><clipPath id="f44ea3e07c"><path d="M 90.867188 40.660156 L 96.671875 46.46875 L 89.28125 53.859375 L 83.472656 48.050781 Z M 90.867188 40.660156 "/></clipPath><clipPath id="356c217768"><path d="M 90.867188 40.660156 L 96.671875 46.46875 L 89.28125 53.859375 L 83.472656 48.050781 Z M 90.867188 40.660156 "/></clipPath><clipPath id="596f376391"><path d="M 90.867188 40.660156 L 96.671875 46.46875 L 89.28125 53.859375 L 83.472656 48.050781 Z M 90.867188 40.660156 "/></clipPath></defs><g id="097905f8dc"><g clip-rule="nonzero" clip-path="url(#3365e32cf4)"><g clip-rule="nonzero" clip-path="url(#e595e07b7a)"><g clip-rule="nonzero" clip-path="url(#f85255505c)"><g clip-rule="nonzero" clip-path="url(#8bc3543fc1)"><path style=" stroke:none;fill-rule:evenodd;fill:#000000;fill-opacity:1;" d="M 21.941406 17.886719 L 21.648438 19.140625 L 22.273438 19.289062 L 21.980469 20.542969 L 22.605469 20.691406 L 22.460938 21.316406 L 23.085938 21.464844 L 22.9375 22.089844 C 23.148438 22.140625 23.359375 22.1875 23.566406 22.238281 L 23.417969 22.863281 L 24.675781 23.160156 L 24.527344 23.785156 L 29.546875 24.96875 L 29.691406 24.34375 L 30.949219 24.636719 L 31.09375 24.011719 L 31.722656 24.160156 L 31.871094 23.53125 L 32.496094 23.679688 L 32.644531 23.054688 L 33.273438 23.199219 L 33.566406 21.949219 L 34.195312 22.097656 L 34.488281 20.84375 L 35.117188 20.992188 L 36.445312 15.351562 L 35.816406 15.203125 L 36.261719 13.324219 L 35.632812 13.175781 L 35.929688 11.921875 L 35.300781 11.777344 L 35.59375 10.523438 L 34.96875 10.375 L 35.117188 9.75 L 34.488281 9.601562 L 34.636719 8.972656 L 34.007812 8.824219 L 34.15625 8.199219 L 33.527344 8.050781 L 33.675781 7.425781 L 33.046875 7.277344 L 33.195312 6.652344 L 29.433594 5.765625 L 29.285156 6.390625 L 28.65625 6.242188 L 28.507812 6.871094 L 27.882812 6.722656 L 27.734375 7.347656 L 27.105469 7.203125 L 26.960938 7.828125 L 26.332031 7.679688 L 26.183594 8.308594 L 25.558594 8.160156 L 25.261719 9.410156 L 24.636719 9.265625 L 24.339844 10.515625 L 23.710938 10.371094 L 23.269531 12.25 L 22.640625 12.101562 L 21.316406 17.742188 L 21.941406 17.886719 "/></g></g></g></g><g clip-rule="nonzero" clip-path="url(#6903af3f49)"><g clip-rule="nonzero" clip-path="url(#f95981cb29)"><g clip-rule="nonzero" clip-path="url(#fdc02f4ec0)"><g clip-rule="nonzero" clip-path="url(#5f6fcd435f)"><path style=" stroke:none;fill-rule:evenodd;fill:#ffffff;fill-opacity:1;" d="M 22.238281 16.636719 L 21.941406 17.886719 L 22.570312 18.035156 L 22.273438 19.289062 L 22.902344 19.4375 L 22.605469 20.691406 L 23.234375 20.835938 L 23.085938 21.464844 L 23.714844 21.613281 L 23.566406 22.238281 C 23.984375 22.335938 24.402344 22.433594 24.820312 22.535156 L 24.675781 23.160156 L 29.691406 24.34375 L 29.839844 23.714844 C 30.257812 23.8125 30.675781 23.914062 31.09375 24.011719 L 31.242188 23.382812 L 31.871094 23.53125 L 32.019531 22.90625 L 32.644531 23.054688 L 32.941406 21.800781 L 33.566406 21.949219 L 33.863281 20.695312 L 34.488281 20.84375 L 35.816406 15.203125 L 35.191406 15.054688 L 35.632812 13.175781 L 35.003906 13.027344 L 35.300781 11.777344 L 34.671875 11.628906 L 34.96875 10.375 L 34.339844 10.226562 L 34.488281 9.601562 L 33.859375 9.453125 L 34.007812 8.824219 L 33.382812 8.679688 L 33.527344 8.050781 L 32.902344 7.902344 L 33.046875 7.277344 L 29.285156 6.390625 L 29.136719 7.019531 L 28.507812 6.871094 L 28.363281 7.496094 L 27.734375 7.347656 L 27.585938 7.976562 L 26.960938 7.828125 L 26.8125 8.453125 L 26.183594 8.308594 L 25.890625 9.558594 L 25.261719 9.410156 L 24.96875 10.664062 L 24.339844 10.515625 L 23.898438 12.398438 L 23.269531 12.25 L 22.238281 16.636719 "/></g></g></g></g><g clip-rule="nonzero" clip-path="url(#639f03343b)"><g clip-rule="nonzero" clip-path="url(#3b747f94da)"><g clip-rule="nonzero" clip-path="url(#7158ea7a04)"><g clip-rule="nonzero" clip-path="url(#4d723ec10d)"><path style=" stroke:none;fill-rule:evenodd;fill:#ffcb38;fill-opacity:1;" d="M 29.691406 13.101562 C 29.0625 12.953125 28.4375 12.804688 27.808594 12.65625 L 27.660156 13.285156 L 27.035156 13.136719 L 26.886719 13.761719 L 26.257812 13.613281 L 26.113281 14.242188 L 25.484375 14.09375 L 25.335938 14.71875 L 24.710938 14.570312 L 23.972656 17.703125 L 24.597656 17.851562 L 24.304688 19.105469 L 24.933594 19.253906 L 24.785156 19.878906 L 25.410156 20.027344 L 25.265625 20.65625 L 25.890625 20.800781 L 25.742188 21.429688 L 29.507812 22.316406 L 29.65625 21.6875 L 30.28125 21.835938 L 30.429688 21.210938 L 31.058594 21.355469 L 31.207031 20.730469 L 31.832031 20.878906 L 32.128906 19.625 L 32.753906 19.773438 L 33.492188 16.640625 L 32.867188 16.492188 L 33.011719 15.867188 L 32.386719 15.71875 L 32.535156 15.089844 L 31.90625 14.945312 L 32.054688 14.316406 L 31.425781 14.167969 L 31.574219 13.542969 C 30.945312 13.394531 30.320312 13.246094 29.691406 13.101562 "/></g></g></g></g><g clip-rule="nonzero" clip-path="url(#2b67cf41b5)"><g clip-rule="nonzero" clip-path="url(#b81fee1761)"><g clip-rule="nonzero" clip-path="url(#816ddbdd3b)"><g clip-rule="nonzero" clip-path="url(#51c88d2276)"><path style=" stroke:none;fill-rule:evenodd;fill:#ffdf77;fill-opacity:1;" d="M 26.148438 16.894531 L 26.777344 17.042969 L 27.070312 15.789062 L 27.699219 15.9375 L 27.992188 14.683594 C 27.574219 14.585938 27.15625 14.488281 26.738281 14.390625 L 26.589844 15.015625 L 25.964844 14.867188 L 25.523438 16.746094 L 26.148438 16.894531 "/></g></g></g></g><g clip-rule="nonzero" clip-path="url(#7ed425182a)"><g clip-rule="nonzero" clip-path="url(#7c26d926e5)"><g clip-rule="nonzero" clip-path="url(#e33c829aaa)"><g clip-rule="nonzero" clip-path="url(#27844c732c)"><path style=" stroke:none;fill-rule:evenodd;fill:#000000;fill-opacity:1;" d="M 23.160156 91.65625 L 23.425781 92.273438 L 23.738281 92.136719 L 24.003906 92.753906 L 24.316406 92.617188 L 24.449219 92.925781 L 24.757812 92.792969 L 24.890625 93.097656 C 24.996094 93.054688 25.097656 93.007812 25.203125 92.964844 L 25.335938 93.273438 L 25.957031 93.003906 L 26.089844 93.3125 L 28.582031 92.234375 L 28.449219 91.929688 L 29.074219 91.660156 L 28.941406 91.351562 L 29.253906 91.21875 L 29.121094 90.910156 L 29.429688 90.777344 L 29.296875 90.46875 L 29.609375 90.335938 L 29.34375 89.71875 L 29.65625 89.585938 L 29.390625 88.972656 L 29.703125 88.835938 L 28.507812 86.070312 L 28.199219 86.203125 L 27.800781 85.28125 L 27.488281 85.417969 L 27.222656 84.800781 L 26.914062 84.9375 L 26.648438 84.320312 L 26.335938 84.457031 L 26.203125 84.148438 L 25.890625 84.285156 L 25.757812 83.976562 L 25.449219 84.109375 L 25.316406 83.804688 L 25.003906 83.9375 L 24.871094 83.628906 L 24.558594 83.765625 L 24.425781 83.457031 L 22.558594 84.261719 L 22.691406 84.570312 L 22.378906 84.707031 L 22.511719 85.011719 L 22.199219 85.148438 L 22.332031 85.453125 L 22.023438 85.589844 L 22.152344 85.894531 L 21.84375 86.03125 L 21.976562 86.335938 L 21.664062 86.472656 L 21.929688 87.085938 L 21.617188 87.222656 L 21.882812 87.835938 L 21.570312 87.96875 L 21.96875 88.890625 L 21.65625 89.027344 L 22.851562 91.792969 L 23.160156 91.65625 "/><path style=" stroke:none;fill-rule:evenodd;fill:#ffffff;fill-opacity:1;" d="M 22.898438 91.042969 L 23.160156 91.65625 L 23.472656 91.523438 L 23.738281 92.136719 L 24.050781 92.003906 L 24.316406 92.617188 L 24.625 92.484375 L 24.757812 92.792969 L 25.070312 92.65625 L 25.203125 92.964844 C 25.410156 92.875 25.617188 92.785156 25.828125 92.695312 L 25.957031 93.003906 L 28.449219 91.929688 L 28.316406 91.621094 C 28.527344 91.53125 28.734375 91.441406 28.941406 91.351562 L 28.808594 91.046875 L 29.121094 90.910156 L 28.988281 90.601562 L 29.296875 90.46875 L 29.035156 89.855469 L 29.34375 89.71875 L 29.078125 89.105469 L 29.390625 88.972656 L 28.199219 86.203125 L 27.886719 86.339844 L 27.488281 85.417969 L 27.175781 85.550781 L 26.914062 84.9375 L 26.601562 85.070312 L 26.335938 84.457031 L 26.023438 84.589844 L 25.890625 84.285156 L 25.582031 84.417969 L 25.449219 84.109375 L 25.136719 84.246094 L 25.003906 83.9375 L 24.691406 84.070312 L 24.558594 83.765625 L 22.691406 84.570312 L 22.824219 84.878906 L 22.511719 85.011719 L 22.644531 85.320312 L 22.332031 85.453125 L 22.464844 85.761719 L 22.152344 85.894531 L 22.285156 86.203125 L 21.976562 86.335938 L 22.242188 86.953125 L 21.929688 87.085938 L 22.195312 87.703125 L 21.882812 87.835938 L 22.28125 88.757812 L 21.96875 88.890625 L 22.898438 91.042969 "/></g></g></g></g><g clip-rule="nonzero" clip-path="url(#e2d8cf5554)"><g clip-rule="nonzero" clip-path="url(#62ce858041)"><g clip-rule="nonzero" clip-path="url(#8eefabd049)"><g clip-rule="nonzero" clip-path="url(#03379d45cf)"><path style=" stroke:none;fill-rule:evenodd;fill:#ffcb38;fill-opacity:1;" d="M 24.949219 87.242188 C 24.640625 87.375 24.328125 87.511719 24.015625 87.644531 L 24.148438 87.953125 L 23.835938 88.085938 L 23.96875 88.394531 L 23.660156 88.527344 L 23.792969 88.835938 L 23.480469 88.96875 L 23.613281 89.277344 L 23.300781 89.410156 L 23.964844 90.949219 L 24.273438 90.8125 L 24.539062 91.429688 L 24.851562 91.292969 L 24.984375 91.601562 L 25.296875 91.464844 L 25.429688 91.773438 L 25.738281 91.640625 L 25.871094 91.945312 L 27.742188 91.140625 L 27.609375 90.832031 L 27.921875 90.699219 L 27.789062 90.390625 L 28.097656 90.257812 L 27.964844 89.949219 L 28.277344 89.816406 L 28.011719 89.199219 L 28.324219 89.066406 L 27.660156 87.53125 L 27.351562 87.664062 L 27.21875 87.355469 L 26.90625 87.492188 L 26.773438 87.183594 L 26.460938 87.316406 L 26.328125 87.011719 L 26.019531 87.144531 L 25.886719 86.839844 C 25.574219 86.972656 25.261719 87.105469 24.949219 87.242188 "/></g></g></g></g><g clip-rule="nonzero" clip-path="url(#83a03207a1)"><g clip-rule="nonzero" clip-path="url(#719b543cf7)"><g clip-rule="nonzero" clip-path="url(#436f0e962f)"><g clip-rule="nonzero" clip-path="url(#0db5b9b251)"><path style=" stroke:none;fill-rule:evenodd;fill:#ffdf77;fill-opacity:1;" d="M 24.632812 89.929688 L 24.945312 89.796875 L 24.679688 89.179688 L 24.992188 89.046875 L 24.726562 88.433594 C 24.519531 88.519531 24.308594 88.609375 24.101562 88.699219 L 24.234375 89.007812 L 23.925781 89.140625 L 24.320312 90.0625 L 24.632812 89.929688 "/></g></g></g></g><g clip-rule="nonzero" clip-path="url(#184c04227c)"><g clip-rule="nonzero" clip-path="url(#623646b5eb)"><g clip-rule="nonzero" clip-path="url(#fa6b9df7aa)"><g clip-rule="nonzero" clip-path="url(#6e0e97c016)"><path style=" stroke:none;fill-rule:evenodd;fill:#000000;fill-opacity:1;" d="M 81.261719 86.886719 L 81.730469 86.566406 L 81.558594 86.316406 L 82.027344 85.996094 L 81.855469 85.746094 L 82.089844 85.585938 L 81.914062 85.332031 L 82.148438 85.171875 C 82.09375 85.089844 82.035156 85.003906 81.976562 84.921875 L 82.210938 84.761719 L 81.867188 84.257812 L 82.101562 84.097656 L 80.722656 82.082031 L 80.488281 82.242188 L 80.144531 81.738281 L 79.910156 81.898438 L 79.738281 81.644531 L 79.503906 81.804688 L 79.332031 81.554688 L 79.097656 81.714844 L 78.925781 81.460938 L 78.460938 81.78125 L 78.285156 81.53125 L 77.820312 81.847656 L 77.648438 81.597656 L 75.542969 83.035156 L 75.714844 83.289062 L 75.011719 83.765625 L 75.1875 84.019531 L 74.71875 84.339844 L 74.890625 84.589844 L 74.421875 84.910156 L 74.59375 85.164062 L 74.359375 85.320312 L 74.53125 85.574219 L 74.300781 85.734375 L 74.472656 85.984375 L 74.238281 86.144531 L 74.410156 86.398438 L 74.175781 86.558594 L 74.347656 86.808594 L 74.113281 86.96875 L 75.148438 88.480469 L 75.382812 88.320312 L 75.554688 88.574219 L 75.789062 88.414062 L 75.960938 88.664062 L 76.195312 88.503906 L 76.367188 88.757812 L 76.597656 88.597656 L 76.773438 88.847656 L 77.003906 88.6875 L 77.179688 88.941406 L 77.644531 88.621094 L 77.816406 88.875 L 78.285156 88.554688 L 78.457031 88.804688 L 79.160156 88.328125 L 79.332031 88.578125 L 81.433594 87.140625 L 81.261719 86.886719 "/></g></g></g></g><g clip-rule="nonzero" clip-path="url(#184aa44206)"><g clip-rule="nonzero" clip-path="url(#46f220165c)"><g clip-rule="nonzero" clip-path="url(#6a4c682a46)"><g clip-rule="nonzero" clip-path="url(#f35212e53f)"><path style=" stroke:none;fill-rule:evenodd;fill:#ffffff;fill-opacity:1;" d="M 80.796875 87.207031 L 81.261719 86.886719 L 81.089844 86.636719 L 81.558594 86.316406 L 81.386719 86.0625 L 81.855469 85.746094 L 81.683594 85.492188 L 81.914062 85.332031 L 81.742188 85.082031 L 81.976562 84.921875 C 81.863281 84.753906 81.746094 84.585938 81.632812 84.417969 L 81.867188 84.257812 L 80.488281 82.242188 L 80.253906 82.402344 C 80.140625 82.234375 80.027344 82.066406 79.910156 81.898438 L 79.675781 82.058594 L 79.503906 81.804688 L 79.269531 81.964844 L 79.097656 81.714844 L 78.632812 82.035156 L 78.460938 81.78125 L 77.992188 82.101562 L 77.820312 81.847656 L 75.714844 83.289062 L 75.886719 83.539062 L 75.1875 84.019531 L 75.359375 84.269531 L 74.890625 84.589844 L 75.0625 84.84375 L 74.59375 85.164062 L 74.765625 85.414062 L 74.53125 85.574219 L 74.707031 85.824219 L 74.472656 85.984375 L 74.644531 86.238281 L 74.410156 86.398438 L 74.582031 86.648438 L 74.347656 86.808594 L 75.382812 88.320312 L 75.617188 88.160156 L 75.789062 88.414062 L 76.019531 88.253906 L 76.195312 88.503906 L 76.425781 88.34375 L 76.597656 88.597656 L 76.832031 88.4375 L 77.003906 88.6875 L 77.472656 88.371094 L 77.644531 88.621094 L 78.113281 88.300781 L 78.285156 88.554688 L 78.988281 88.074219 L 79.160156 88.328125 L 80.796875 87.207031 "/></g></g></g></g><g clip-rule="nonzero" clip-path="url(#ce16369542)"><g clip-rule="nonzero" clip-path="url(#43636c83e8)"><g clip-rule="nonzero" clip-path="url(#2ee7944ca4)"><g clip-rule="nonzero" clip-path="url(#66d048b6a6)"><path style=" stroke:none;fill-rule:evenodd;fill:#ffcb38;fill-opacity:1;" d="M 77.203125 85.96875 C 77.375 86.21875 77.546875 86.472656 77.71875 86.722656 L 77.953125 86.5625 L 78.125 86.816406 L 78.359375 86.65625 L 78.53125 86.90625 L 78.765625 86.746094 L 78.9375 87 L 79.171875 86.839844 L 79.34375 87.089844 L 80.511719 86.292969 L 80.339844 86.039062 L 80.808594 85.71875 L 80.636719 85.46875 L 80.871094 85.308594 L 80.699219 85.054688 L 80.929688 84.898438 L 80.757812 84.644531 L 80.992188 84.484375 L 79.960938 82.972656 L 79.726562 83.132812 L 79.554688 82.882812 L 79.320312 83.042969 L 79.148438 82.789062 L 78.914062 82.949219 L 78.742188 82.695312 L 78.273438 83.015625 L 78.101562 82.765625 L 76.933594 83.5625 L 77.105469 83.816406 L 76.871094 83.976562 L 77.042969 84.226562 L 76.808594 84.386719 L 76.980469 84.640625 L 76.75 84.800781 L 76.921875 85.050781 L 76.6875 85.210938 C 76.859375 85.464844 77.03125 85.714844 77.203125 85.96875 "/></g></g></g></g><g clip-rule="nonzero" clip-path="url(#85b47dd3cf)"><g clip-rule="nonzero" clip-path="url(#02448bfa9a)"><g clip-rule="nonzero" clip-path="url(#cee3480ca0)"><g clip-rule="nonzero" clip-path="url(#e66051d7c8)"><path style=" stroke:none;fill-rule:evenodd;fill:#ffdf77;fill-opacity:1;" d="M 79.527344 85.855469 L 79.355469 85.605469 L 78.890625 85.921875 L 78.714844 85.671875 L 78.25 85.992188 C 78.363281 86.160156 78.480469 86.328125 78.59375 86.496094 L 78.828125 86.335938 L 79 86.585938 L 79.699219 86.109375 L 79.527344 85.855469 "/></g></g></g></g><g clip-rule="nonzero" clip-path="url(#63cec68197)"><g clip-rule="nonzero" clip-path="url(#0376534aee)"><g clip-rule="nonzero" clip-path="url(#27786ffb95)"><g clip-rule="nonzero" clip-path="url(#827815cb4d)"><path style=" stroke:none;fill-rule:evenodd;fill:#000000;fill-opacity:1;" d="M 85.78125 46.28125 L 85.269531 46.789062 L 85.535156 47.054688 L 85.023438 47.5625 L 85.289062 47.828125 L 85.035156 48.082031 L 85.296875 48.347656 L 85.042969 48.601562 C 85.128906 48.6875 85.21875 48.777344 85.304688 48.863281 L 85.050781 49.121094 L 85.578125 49.648438 L 85.324219 49.902344 L 87.433594 52.011719 L 87.6875 51.757812 L 88.214844 52.285156 L 88.472656 52.03125 L 88.734375 52.292969 L 88.988281 52.039062 L 89.253906 52.300781 L 89.507812 52.046875 L 89.773438 52.3125 L 90.28125 51.800781 L 90.546875 52.066406 L 91.054688 51.554688 L 91.320312 51.820312 L 93.613281 49.523438 L 93.347656 49.261719 L 94.113281 48.496094 L 93.851562 48.234375 L 94.359375 47.722656 L 94.097656 47.460938 L 94.605469 46.949219 L 94.34375 46.6875 L 94.597656 46.429688 L 94.332031 46.167969 L 94.589844 45.914062 L 94.324219 45.648438 L 94.578125 45.394531 L 94.316406 45.128906 L 94.570312 44.875 L 94.304688 44.613281 L 94.5625 44.355469 L 92.980469 42.773438 L 92.722656 43.027344 L 92.460938 42.765625 L 92.207031 43.019531 L 91.941406 42.757812 L 91.6875 43.011719 L 91.421875 42.746094 L 91.167969 43.003906 L 90.90625 42.738281 L 90.648438 42.992188 L 90.386719 42.730469 L 89.875 43.238281 L 89.613281 42.976562 L 89.101562 43.484375 L 88.839844 43.222656 L 88.074219 43.988281 L 87.808594 43.722656 L 85.515625 46.015625 L 85.78125 46.28125 "/><path style=" stroke:none;fill-rule:evenodd;fill:#ffffff;fill-opacity:1;" d="M 86.289062 45.769531 L 85.78125 46.28125 L 86.042969 46.542969 L 85.535156 47.054688 L 85.796875 47.316406 L 85.289062 47.828125 L 85.550781 48.089844 L 85.296875 48.347656 L 85.5625 48.609375 L 85.304688 48.863281 C 85.480469 49.039062 85.65625 49.214844 85.832031 49.390625 L 85.578125 49.648438 L 87.6875 51.757812 L 87.941406 51.503906 C 88.121094 51.679688 88.296875 51.855469 88.472656 52.03125 L 88.726562 51.773438 L 88.988281 52.039062 L 89.246094 51.785156 L 89.507812 52.046875 L 90.019531 51.539062 L 90.28125 51.800781 L 90.792969 51.292969 L 91.054688 51.554688 L 93.347656 49.261719 L 93.085938 48.996094 L 93.851562 48.234375 L 93.585938 47.96875 L 94.097656 47.460938 L 93.832031 47.195312 L 94.34375 46.6875 L 94.078125 46.421875 L 94.332031 46.167969 L 94.070312 45.902344 L 94.324219 45.648438 L 94.0625 45.386719 L 94.316406 45.128906 L 94.050781 44.867188 L 94.304688 44.613281 L 92.722656 43.027344 L 92.46875 43.285156 L 92.207031 43.019531 L 91.949219 43.273438 L 91.6875 43.011719 L 91.433594 43.265625 L 91.167969 43.003906 L 90.914062 43.257812 L 90.648438 42.992188 L 90.140625 43.503906 L 89.875 43.238281 L 89.367188 43.75 L 89.101562 43.484375 L 88.339844 44.25 L 88.074219 43.988281 L 86.289062 45.769531 "/></g></g></g></g><g clip-rule="nonzero" clip-path="url(#ed4a55fa10)"><g clip-rule="nonzero" clip-path="url(#74d33ff2a0)"><g clip-rule="nonzero" clip-path="url(#f5649b198f)"><g clip-rule="nonzero" clip-path="url(#663aee0e95)"><path style=" stroke:none;fill-rule:evenodd;fill:#ffcb38;fill-opacity:1;" d="M 90.964844 46.367188 C 90.703125 46.105469 90.4375 45.839844 90.175781 45.578125 L 89.921875 45.832031 L 89.65625 45.570312 L 89.402344 45.824219 L 89.136719 45.558594 L 88.882812 45.816406 L 88.621094 45.550781 L 88.363281 45.804688 L 88.101562 45.542969 L 86.828125 46.816406 L 87.089844 47.082031 L 86.582031 47.589844 L 86.84375 47.855469 L 86.589844 48.109375 L 86.851562 48.371094 L 86.597656 48.628906 L 86.863281 48.890625 L 86.605469 49.144531 L 88.1875 50.730469 L 88.445312 50.472656 L 88.707031 50.738281 L 88.960938 50.484375 L 89.226562 50.746094 L 89.480469 50.492188 L 89.746094 50.753906 L 90.253906 50.246094 L 90.519531 50.507812 L 91.792969 49.234375 L 91.53125 48.972656 L 91.785156 48.714844 L 91.519531 48.453125 L 91.777344 48.199219 L 91.511719 47.933594 L 91.765625 47.679688 L 91.503906 47.414062 L 91.757812 47.160156 C 91.492188 46.894531 91.230469 46.632812 90.964844 46.367188 "/></g></g></g></g><g clip-rule="nonzero" clip-path="url(#9ee193f527)"><g clip-rule="nonzero" clip-path="url(#f44ea3e07c)"><g clip-rule="nonzero" clip-path="url(#356c217768)"><g clip-rule="nonzero" clip-path="url(#596f376391)"><path style=" stroke:none;fill-rule:evenodd;fill:#ffdf77;fill-opacity:1;" d="M 88.128906 47.097656 L 88.390625 47.363281 L 88.902344 46.851562 L 89.164062 47.117188 L 89.675781 46.605469 C 89.5 46.429688 89.324219 46.253906 89.148438 46.078125 L 88.890625 46.332031 L 88.628906 46.070312 L 87.863281 46.835938 L 88.128906 47.097656 "/></g></g></g></g></g></svg>