<svg xmlns="http://www.w3.org/2000/svg" xmlns:xlink="http://www.w3.org/1999/xlink" width="150" zoomAndPan="magnify" viewBox="0 0 112.5 112.499997" height="150" preserveAspectRatio="xMidYMid meet" version="1.2"><defs><clipPath id="8cacab4796"><path d="M 3 15 L 29 15 L 29 31 L 3 31 Z M 3 15 "/></clipPath><clipPath id="0a3bf6c138"><path d="M 2.253906 15.996094 L 45.109375 2.941406 L 51.855469 25.082031 L 9 38.136719 Z M 2.253906 15.996094 "/></clipPath><clipPath id="909c720838"><path d="M 2.253906 15.996094 L 45.109375 2.941406 L 51.855469 25.082031 L 9 38.136719 Z M 2.253906 15.996094 "/></clipPath><clipPath id="c44e495893"><path d="M 2.253906 15.996094 L 45.109375 2.941406 L 51.855469 25.082031 L 9 38.136719 Z M 2.253906 15.996094 "/></clipPath><clipPath id="afa1bf7840"><path d="M 27 3 L 46 3 L 46 25 L 27 25 Z M 27 3 "/></clipPath><clipPath id="fff122863a"><path d="M 2.253906 15.996094 L 45.109375 2.941406 L 51.855469 25.082031 L 9 38.136719 Z M 2.253906 15.996094 "/></clipPath><clipPath id="cc5116660c"><path d="M 2.253906 15.996094 L 45.109375 2.941406 L 51.855469 25.082031 L 9 38.136719 Z M 2.253906 15.996094 "/></clipPath><clipPath id="bcc34d774c"><path d="M 2.253906 15.996094 L 45.109375 2.941406 L 51.855469 25.082031 L 9 38.136719 Z M 2.253906 15.996094 "/></clipPath><clipPath id="d0e94c1e93"><path d="M 14 9 L 38 9 L 38 32 L 14 32 Z M 14 9 "/></clipPath><clipPath id="73f35bbe88"><path d="M 2.253906 15.996094 L 45.109375 2.941406 L 51.855469 25.082031 L 9 38.136719 Z M 2.253906 15.996094 "/></clipPath><clipPath id="cd754a3175"><path d="M 2.253906 15.996094 L 45.109375 2.941406 L 51.855469 25.082031 L 9 38.136719 Z M 2.253906 15.996094 "/></clipPath><clipPath id="d0b1ea7442"><path d="M 2.253906 15.996094 L 45.109375 2.941406 L 51.855469 25.082031 L 9 38.136719 Z M 2.253906 15.996094 "/></clipPath><clipPath id="9a7affaafa"><path d="M 19 25 L 25 25 L 25 29 L 19 29 Z M 19 25 "/></clipPath><clipPath id="ddfa7e19cc"><path d="M 2.253906 15.996094 L 45.109375 2.941406 L 51.855469 25.082031 L 9 38.136719 Z M 2.253906 15.996094 "/></clipPath><clipPath id="411518014b"><path d="M 2.253906 15.996094 L 45.109375 2.941406 L 51.855469 25.082031 L 9 38.136719 Z M 2.253906 15.996094 "/></clipPath><clipPath id="6387e0a3b6"><path d="M 2.253906 15.996094 L 45.109375 2.941406 L 51.855469 25.082031 L 9 38.136719 Z M 2.253906 15.996094 "/></clipPath><clipPath id="0ba0923a58"><path d="M 32 22 L 38 22 L 38 25 L 32 25 Z M 32 22 "/></clipPath><clipPath id="de91c85077"><path d="M 2.253906 15.996094 L 45.109375 2.941406 L 51.855469 25.082031 L 9 38.136719 Z M 2.253906 15.996094 "/></clipPath><clipPath id="75388b9266"><path d="M 2.253906 15.996094 L 45.109375 2.941406 L 51.855469 25.082031 L 9 38.136719 Z M 2.253906 15.996094 "/></clipPath><clipPath id="a304c1d5cd"><path d="M 2.253906 15.996094 L 45.109375 2.941406 L 51.855469 25.082031 L 9 38.136719 Z M 2.253906 15.996094 "/></clipPath><clipPath id="b2dc3a7cd1"><path d="M 23 82 L 34 82 L 34 92 L 23 92 Z M 23 82 "/></clipPath><clipPath id="de0ce04143"><path d="M 22.90625 91.125 L 28.648438 70.246094 L 39.449219 73.214844 L 33.707031 94.09375 Z M 22.90625 91.125 "/></clipPath><clipPath id="7fa5a3c227"><path d="M 22.90625 91.125 L 28.648438 70.246094 L 39.449219 73.214844 L 33.707031 94.09375 Z M 22.90625 91.125 "/></clipPath><clipPath id="8e39704551"><path d="M 22.90625 91.125 L 28.648438 70.246094 L 39.449219 73.214844 L 33.707031 94.09375 Z M 22.90625 91.125 "/></clipPath><clipPath id="af2bad4174"><path d="M 28 70 L 36 70 L 36 83 L 28 83 Z M 28 70 "/></clipPath><clipPath id="b158dccf09"><path d="M 22.90625 91.125 L 28.648438 70.246094 L 39.449219 73.214844 L 33.707031 94.09375 Z M 22.90625 91.125 "/></clipPath><clipPath id="515759e29c"><path d="M 22.90625 91.125 L 28.648438 70.246094 L 39.449219 73.214844 L 33.707031 94.09375 Z M 22.90625 91.125 "/></clipPath><clipPath id="5064eb0a04"><path d="M 22.90625 91.125 L 28.648438 70.246094 L 39.449219 73.214844 L 33.707031 94.09375 Z M 22.90625 91.125 "/></clipPath><clipPath id="c746ee4327"><path d="M 25 76 L 37 76 L 37 88 L 25 88 Z M 25 76 "/></clipPath><clipPath id="146a695044"><path d="M 22.90625 91.125 L 28.648438 70.246094 L 39.449219 73.214844 L 33.707031 94.09375 Z M 22.90625 91.125 "/></clipPath><clipPath id="43822454fc"><path d="M 22.90625 91.125 L 28.648438 70.246094 L 39.449219 73.214844 L 33.707031 94.09375 Z M 22.90625 91.125 "/></clipPath><clipPath id="44711b1745"><path d="M 22.90625 91.125 L 28.648438 70.246094 L 39.449219 73.214844 L 33.707031 94.09375 Z M 22.90625 91.125 "/></clipPath><clipPath id="07337fd0f7"><path d="M 32 84 L 34 84 L 34 87 L 32 87 Z M 32 84 "/></clipPath><clipPath id="2f436700e0"><path d="M 22.90625 91.125 L 28.648438 70.246094 L 39.449219 73.214844 L 33.707031 94.09375 Z M 22.90625 91.125 "/></clipPath><clipPath id="3eb90f5b27"><path d="M 22.90625 91.125 L 28.648438 70.246094 L 39.449219 73.214844 L 33.707031 94.09375 Z M 22.90625 91.125 "/></clipPath><clipPath id="499a60f89d"><path d="M 22.90625 91.125 L 28.648438 70.246094 L 39.449219 73.214844 L 33.707031 94.09375 Z M 22.90625 91.125 "/></clipPath><clipPath id="c2e4ac8cb7"><path d="M 33 78 L 35 78 L 35 81 L 33 81 Z M 33 78 "/></clipPath><clipPath id="30fb31fe30"><path d="M 22.90625 91.125 L 28.648438 70.246094 L 39.449219 73.214844 L 33.707031 94.09375 Z M 22.90625 91.125 "/></clipPath><clipPath id="0fb31bdf6c"><path d="M 22.90625 91.125 L 28.648438 70.246094 L 39.449219 73.214844 L 33.707031 94.09375 Z M 22.90625 91.125 "/></clipPath><clipPath id="0405c96322"><path d="M 22.90625 91.125 L 28.648438 70.246094 L 39.449219 73.214844 L 33.707031 94.09375 Z M 22.90625 91.125 "/></clipPath><clipPath id="2bf82edd93"><path d="M 58 38 L 76 38 L 76 54 L 58 54 Z M 58 38 "/></clipPath><clipPath id="15a1e2438f"><path d="M 57.960938 37.976562 L 94.507812 39.671875 L 93.644531 58.320312 L 57.097656 56.625 Z M 57.960938 37.976562 "/></clipPath><clipPath id="4a40575600"><path d="M 57.960938 37.976562 L 94.507812 39.671875 L 93.644531 58.320312 L 57.097656 56.625 Z M 57.960938 37.976562 "/></clipPath><clipPath id="4d2e49dc47"><path d="M 57.960938 37.976562 L 94.507812 39.671875 L 93.644531 58.320312 L 57.097656 56.625 Z M 57.960938 37.976562 "/></clipPath><clipPath id="0f1f32bd87"><path d="M 75 39 L 94 39 L 94 55 L 75 55 Z M 75 39 "/></clipPath><clipPath id="c3ff152abf"><path d="M 57.960938 37.976562 L 94.507812 39.671875 L 93.644531 58.320312 L 57.097656 56.625 Z M 57.960938 37.976562 "/></clipPath><clipPath id="ff0e490baa"><path d="M 57.960938 37.976562 L 94.507812 39.671875 L 93.644531 58.320312 L 57.097656 56.625 Z M 57.960938 37.976562 "/></clipPath><clipPath id="ec2835f76e"><path d="M 57.960938 37.976562 L 94.507812 39.671875 L 93.644531 58.320312 L 57.097656 56.625 Z M 57.960938 37.976562 "/></clipPath><clipPath id="a799414df7"><path d="M 66 40 L 86 40 L 86 58 L 66 58 Z M 66 40 "/></clipPath><clipPath id="35a99bd273"><path d="M 57.960938 37.976562 L 94.507812 39.671875 L 93.644531 58.320312 L 57.097656 56.625 Z M 57.960938 37.976562 "/></clipPath><clipPath id="b9e9b19aa9"><path d="M 57.960938 37.976562 L 94.507812 39.671875 L 93.644531 58.320312 L 57.097656 56.625 Z M 57.960938 37.976562 "/></clipPath><clipPath id="1c34bd63b0"><path d="M 57.960938 37.976562 L 94.507812 39.671875 L 93.644531 58.320312 L 57.097656 56.625 Z M 57.960938 37.976562 "/></clipPath><clipPath id="2b1cd1010a"><path d="M 68 51 L 73 51 L 73 53 L 68 53 Z M 68 51 "/></clipPath><clipPath id="73f07063ee"><path d="M 57.960938 37.976562 L 94.507812 39.671875 L 93.644531 58.320312 L 57.097656 56.625 Z M 57.960938 37.976562 "/></clipPath><clipPath id="9ba5c9753a"><path d="M 57.960938 37.976562 L 94.507812 39.671875 L 93.644531 58.320312 L 57.097656 56.625 Z M 57.960938 37.976562 "/></clipPath><clipPath id="ba24d5b7bc"><path d="M 57.960938 37.976562 L 94.507812 39.671875 L 93.644531 58.320312 L 57.097656 56.625 Z M 57.960938 37.976562 "/></clipPath><clipPath id="354a1542f1"><path d="M 79 51 L 84 51 L 84 54 L 79 54 Z M 79 51 "/></clipPath><clipPath id="877b1b4fb5"><path d="M 57.960938 37.976562 L 94.507812 39.671875 L 93.644531 58.320312 L 57.097656 56.625 Z M 57.960938 37.976562 "/></clipPath><clipPath id="ed9eff4e06"><path d="M 57.960938 37.976562 L 94.507812 39.671875 L 93.644531 58.320312 L 57.097656 56.625 Z M 57.960938 37.976562 "/></clipPath><clipPath id="d720652b90"><path d="M 57.960938 37.976562 L 94.507812 39.671875 L 93.644531 58.320312 L 57.097656 56.625 Z M 57.960938 37.976562 "/></clipPath><clipPath id="5efcbed78b"><path d="M 74 78 L 84 78 L 84 94 L 74 94 Z M 74 78 "/></clipPath><clipPath id="baf965edab"><path d="M 75.996094 78.355469 L 97.761719 92.824219 L 90.324219 104.015625 L 68.558594 89.550781 Z M 75.996094 78.355469 "/></clipPath><clipPath id="6e79216fa2"><path d="M 75.996094 78.355469 L 97.761719 92.824219 L 90.324219 104.015625 L 68.558594 89.550781 Z M 75.996094 78.355469 "/></clipPath><clipPath id="39f44bcd06"><path d="M 75.996094 78.355469 L 97.761719 92.824219 L 90.324219 104.015625 L 68.558594 89.550781 Z M 75.996094 78.355469 "/></clipPath><clipPath id="05003d33a2"><path d="M 81 89 L 97 89 L 97 99 L 81 99 Z M 81 89 "/></clipPath><clipPath id="11f54e4fc7"><path d="M 75.996094 78.355469 L 97.761719 92.824219 L 90.324219 104.015625 L 68.558594 89.550781 Z M 75.996094 78.355469 "/></clipPath><clipPath id="105fcb5c67"><path d="M 75.996094 78.355469 L 97.761719 92.824219 L 90.324219 104.015625 L 68.558594 89.550781 Z M 75.996094 78.355469 "/></clipPath><clipPath id="f935d9a88e"><path d="M 75.996094 78.355469 L 97.761719 92.824219 L 90.324219 104.015625 L 68.558594 89.550781 Z M 75.996094 78.355469 "/></clipPath><clipPath id="695716db6c"><path d="M 77 84 L 91 84 L 91 97 L 77 97 Z M 77 84 "/></clipPath><clipPath id="9432b3d9eb"><path d="M 75.996094 78.355469 L 97.761719 92.824219 L 90.324219 104.015625 L 68.558594 89.550781 Z M 75.996094 78.355469 "/></clipPath><clipPath id="cc47e16ee8"><path d="M 75.996094 78.355469 L 97.761719 92.824219 L 90.324219 104.015625 L 68.558594 89.550781 Z M 75.996094 78.355469 "/></clipPath><clipPath id="18aafd295c"><path d="M 75.996094 78.355469 L 97.761719 92.824219 L 90.324219 104.015625 L 68.558594 89.550781 Z M 75.996094 78.355469 "/></clipPath><clipPath id="bfbd818b93"><path d="M 77 90 L 80 90 L 80 93 L 77 93 Z M 77 90 "/></clipPath><clipPath id="ae05ba2197"><path d="M 75.996094 78.355469 L 97.761719 92.824219 L 90.324219 104.015625 L 68.558594 89.550781 Z M 75.996094 78.355469 "/></clipPath><clipPath id="8c30442c36"><path d="M 75.996094 78.355469 L 97.761719 92.824219 L 90.324219 104.015625 L 68.558594 89.550781 Z M 75.996094 78.355469 "/></clipPath><clipPath id="14be1a01c3"><path d="M 75.996094 78.355469 L 97.761719 92.824219 L 90.324219 104.015625 L 68.558594 89.550781 Z M 75.996094 78.355469 "/></clipPath><clipPath id="11193466a5"><path d="M 83 94 L 87 94 L 87 97 L 83 97 Z M 83 94 "/></clipPath><clipPath id="d8d8c019be"><path d="M 75.996094 78.355469 L 97.761719 92.824219 L 90.324219 104.015625 L 68.558594 89.550781 Z M 75.996094 78.355469 "/></clipPath><clipPath id="8296b2bcd3"><path d="M 75.996094 78.355469 L 97.761719 92.824219 L 90.324219 104.015625 L 68.558594 89.550781 Z M 75.996094 78.355469 "/></clipPath><clipPath id="e15bf6658c"><path d="M 75.996094 78.355469 L 97.761719 92.824219 L 90.324219 104.015625 L 68.558594 89.550781 Z M 75.996094 78.355469 "/></clipPath></defs><g id="3f1b5e7afe"><g clip-rule="nonzero" clip-path="url(#8cacab4796)"><g clip-rule="nonzero" clip-path="url(#0a3bf6c138)"><g clip-rule="nonzero" clip-path="url(#909c720838)"><g clip-rule="nonzero" clip-path="url(#c44e495893)"><path style=" stroke:none;fill-rule:nonzero;fill:#d83556;fill-opacity:1;" d="M 27.863281 22.996094 C 27.863281 22.996094 27.058594 21.535156 26.125 21.015625 C 25.019531 20.40625 23.742188 20.648438 23.316406 19.804688 C 22.351562 17.832031 23.480469 16.929688 23.480469 16.929688 C 23.480469 16.929688 22.085938 17.039062 21.914062 18.453125 C 21.761719 19.695312 22.878906 20.109375 23.039062 21.277344 C 23.195312 22.421875 22.710938 23.371094 21.820312 23.300781 C 21.148438 23.238281 20.515625 22.824219 20.523438 21.894531 C 20.53125 20.96875 21.320312 20.628906 20.617188 19.507812 C 19.90625 18.359375 18.746094 18.761719 18.402344 17.625 C 18.066406 16.535156 19.035156 15.824219 19.035156 15.824219 C 19.035156 15.824219 17.59375 16.242188 17.582031 17.632812 C 17.570312 19.023438 18.21875 19.167969 18.769531 19.949219 C 19.597656 21.15625 17.746094 22.765625 16.640625 21.132812 C 15.730469 19.800781 16.1875 18.371094 15.0625 17.765625 C 13.386719 16.863281 12.5625 17.652344 11.554688 16.886719 C 10.550781 16.121094 10.679688 15.351562 10.679688 15.351562 C 10.679688 15.351562 10.066406 16.195312 10.746094 17.085938 C 11.433594 17.996094 13.324219 18.5625 12.441406 19.636719 C 11.558594 20.707031 10.226562 18.703125 9.148438 18.421875 C 7.753906 18.046875 6.429688 19.007812 4.867188 17.851562 C 3.617188 16.917969 3.820312 15.519531 3.820312 15.519531 C 3.820312 15.519531 2.734375 17.1875 4.257812 18.625 C 5.78125 20.058594 8.027344 19.421875 9.445312 20.742188 C 10.355469 21.585938 9.777344 22.785156 8.863281 22.796875 C 7.824219 22.796875 7.171875 21.605469 7.171875 21.605469 C 7.171875 21.605469 7.3125 23.972656 9.472656 23.851562 C 11.398438 23.75 11.21875 22.441406 12.898438 21.929688 C 13.894531 21.628906 15.414062 21.699219 15.515625 22.910156 C 15.601562 23.980469 14.179688 24 13.269531 25.054688 C 12.359375 26.109375 12.992188 27.234375 12.992188 27.234375 C 12.992188 27.234375 13.140625 25.65625 14.589844 25.335938 C 15.992188 25.027344 16.398438 25.804688 18.320312 25.851562 C 20.808594 25.921875 21.003906 24.183594 22.199219 24.308594 C 23.394531 24.429688 23.90625 26.34375 22.070312 26.902344 C 20.238281 27.460938 19.59375 26.855469 18.898438 28.378906 C 18.320312 29.652344 19.046875 30.378906 19.046875 30.378906 C 19.046875 30.378906 19.445312 28.820312 20.996094 28.128906 C 22.378906 27.515625 24.425781 27.960938 25.253906 26.320312 C 26.113281 24.625 25.914062 22.300781 28.160156 24.367188 C 28.195312 24.402344 28.226562 24.417969 28.261719 24.457031 L 27.820312 23.007812 Z M 27.863281 22.996094 "/></g></g></g></g><g clip-rule="nonzero" clip-path="url(#afa1bf7840)"><g clip-rule="nonzero" clip-path="url(#fff122863a)"><g clip-rule="nonzero" clip-path="url(#cc5116660c)"><g clip-rule="nonzero" clip-path="url(#bcc34d774c)"><path style=" stroke:none;fill-rule:nonzero;fill:#d83556;fill-opacity:1;" d="M 27.808594 23.132812 C 27.808594 23.132812 27.664062 21.472656 28.148438 20.523438 C 28.726562 19.398438 29.921875 18.886719 29.804688 17.949219 C 29.507812 15.777344 28.066406 15.65625 28.066406 15.65625 C 28.066406 15.65625 29.285156 14.96875 30.214844 16.046875 C 31.035156 16.988281 30.339844 17.957031 30.855469 19.015625 C 31.363281 20.054688 32.296875 20.574219 32.996094 20.019531 C 33.519531 19.59375 33.8125 18.894531 33.289062 18.128906 C 32.769531 17.363281 31.921875 17.523438 31.882812 16.195312 C 31.832031 14.847656 33.019531 14.535156 32.671875 13.398438 C 32.339844 12.308594 31.140625 12.257812 31.140625 12.257812 C 31.140625 12.257812 32.570312 11.800781 33.355469 12.949219 C 34.140625 14.097656 33.683594 14.578125 33.660156 15.53125 C 33.648438 16.996094 36.082031 17.300781 36.085938 15.328125 C 36.101562 13.71875 34.925781 12.785156 35.523438 11.65625 C 36.394531 10 37.519531 10.195312 37.925781 9 C 38.335938 7.804688 37.800781 7.238281 37.800781 7.238281 C 37.800781 7.238281 38.78125 7.59375 38.710938 8.710938 C 38.644531 9.851562 37.394531 11.375 38.722656 11.773438 C 40.054688 12.171875 40.042969 9.765625 40.78125 8.933594 C 41.730469 7.839844 43.367188 7.902344 44.015625 6.074219 C 44.535156 4.601562 43.585938 3.550781 43.585938 3.550781 C 43.585938 3.550781 45.417969 4.332031 44.953125 6.371094 C 44.480469 8.390625 42.269531 9.136719 41.828125 11.023438 C 41.542969 12.230469 42.691406 12.902344 43.457031 12.402344 C 44.320312 11.824219 44.199219 10.472656 44.199219 10.472656 C 44.199219 10.472656 45.402344 12.515625 43.539062 13.621094 C 41.882812 14.609375 41.304688 13.421875 39.625 13.933594 C 38.628906 14.238281 37.40625 15.144531 37.996094 16.207031 C 38.523438 17.144531 39.710938 16.367188 41.058594 16.738281 C 42.386719 17.136719 42.503906 18.390625 42.503906 18.390625 C 42.503906 18.390625 41.5 17.160156 40.121094 17.703125 C 38.78125 18.234375 38.878906 19.105469 37.308594 20.214844 C 35.285156 21.660156 34.152344 20.324219 33.226562 21.09375 C 32.300781 21.863281 32.945312 23.734375 34.78125 23.175781 C 36.59375 22.625 36.8125 21.753906 38.238281 22.632812 C 39.429688 23.367188 39.230469 24.378906 39.230469 24.378906 C 39.230469 24.378906 38.03125 23.304688 36.359375 23.597656 C 34.867188 23.855469 33.417969 25.367188 31.816406 24.46875 C 30.15625 23.539062 29.027344 21.496094 28.3125 24.464844 C 28.304688 24.515625 28.289062 24.546875 28.28125 24.597656 L 27.832031 23.125 Z M 27.808594 23.132812 "/></g></g></g></g><g clip-rule="nonzero" clip-path="url(#d0e94c1e93)"><g clip-rule="nonzero" clip-path="url(#73f35bbe88)"><g clip-rule="nonzero" clip-path="url(#cd754a3175)"><g clip-rule="nonzero" clip-path="url(#d0b1ea7442)"><path style=" stroke:none;fill-rule:nonzero;fill:#231f20;fill-opacity:1;" d="M 30.484375 31.59375 C 30.460938 31.601562 30.4375 31.605469 30.386719 31.597656 C 30.359375 31.582031 28.378906 30.796875 25.808594 29.488281 C 24.296875 28.730469 22.867188 27.925781 21.570312 27.152344 C 19.960938 26.15625 18.542969 25.152344 17.375 24.171875 C 16.949219 23.8125 16.558594 23.394531 16.203125 22.945312 C 15.839844 22.46875 15.546875 21.976562 15.308594 21.4375 C 14.796875 20.304688 14.539062 19.144531 14.59375 18.054688 C 14.640625 17.261719 14.828125 16.523438 15.164062 15.886719 C 15.53125 15.1875 16.09375 14.578125 16.792969 14.097656 C 18.257812 13.117188 19.753906 12.785156 21.242188 13.15625 C 21.949219 13.332031 22.652344 13.652344 23.332031 14.152344 C 23.878906 14.519531 24.417969 15.011719 24.902344 15.570312 C 25.410156 16.125 25.753906 16.625 25.980469 16.972656 C 25.976562 16.558594 26 15.917969 26.097656 15.207031 C 26.207031 14.46875 26.386719 13.78125 26.605469 13.152344 C 26.902344 12.382812 27.296875 11.703125 27.785156 11.164062 C 28.800781 10.050781 30.21875 9.472656 32.003906 9.464844 C 32.851562 9.472656 33.652344 9.644531 34.355469 10.039062 C 34.988281 10.382812 35.578125 10.882812 36.039062 11.523438 C 36.691406 12.394531 37.152344 13.519531 37.328125 14.730469 C 37.410156 15.316406 37.449219 15.914062 37.425781 16.480469 C 37.390625 17.074219 37.296875 17.636719 37.136719 18.148438 C 36.714844 19.617188 36.097656 21.242188 35.320312 22.964844 C 34.703125 24.34375 33.957031 25.789062 33.101562 27.265625 C 31.695312 29.789062 30.492188 31.542969 30.476562 31.570312 C 30.527344 31.582031 30.503906 31.585938 30.484375 31.59375 Z M 18.652344 13.457031 C 18.078125 13.632812 17.507812 13.90625 16.949219 14.292969 C 15.648438 15.175781 14.929688 16.46875 14.855469 18.046875 C 14.816406 19.105469 15.039062 20.230469 15.539062 21.320312 C 15.769531 21.835938 16.066406 22.328125 16.417969 22.78125 C 16.753906 23.238281 17.136719 23.632812 17.53125 23.976562 C 18.695312 24.9375 20.089844 25.949219 21.691406 26.921875 C 22.972656 27.722656 24.398438 28.507812 25.90625 29.261719 C 28.164062 30.402344 29.960938 31.144531 30.371094 31.3125 C 30.625 30.941406 31.695312 29.300781 32.9375 27.121094 C 33.769531 25.652344 34.515625 24.207031 35.132812 22.824219 C 35.914062 21.101562 36.535156 19.5 36.941406 18.0625 C 37.078125 17.558594 37.179688 17.015625 37.199219 16.449219 C 37.222656 15.882812 37.191406 15.308594 37.117188 14.746094 C 36.925781 13.566406 36.503906 12.5 35.859375 11.648438 C 34.917969 10.378906 33.578125 9.714844 32.027344 9.699219 C 31.136719 9.703125 30.335938 9.851562 29.625 10.140625 C 29.003906 10.402344 28.46875 10.785156 27.996094 11.292969 C 27.523438 11.804688 27.140625 12.457031 26.859375 13.199219 C 26.632812 13.804688 26.449219 14.46875 26.359375 15.199219 C 26.183594 16.449219 26.261719 17.421875 26.261719 17.421875 C 26.261719 17.496094 26.222656 17.53125 26.15625 17.550781 C 26.089844 17.570312 26.03125 17.539062 25.996094 17.503906 C 25.996094 17.503906 25.519531 16.648438 24.679688 15.710938 C 24.203125 15.175781 23.671875 14.707031 23.144531 14.328125 C 22.5 13.871094 21.820312 13.542969 21.140625 13.382812 C 20.488281 13.214844 19.808594 13.203125 19.144531 13.332031 C 19.015625 13.375 18.832031 13.40625 18.652344 13.457031 Z M 18.652344 13.457031 "/></g></g></g></g><g clip-rule="nonzero" clip-path="url(#9a7affaafa)"><g clip-rule="nonzero" clip-path="url(#ddfa7e19cc)"><g clip-rule="nonzero" clip-path="url(#411518014b)"><g clip-rule="nonzero" clip-path="url(#6387e0a3b6)"><path style=" stroke:none;fill-rule:nonzero;fill:#d83556;fill-opacity:1;" d="M 24.964844 26.726562 L 23.191406 25.976562 C 23.042969 26.363281 22.683594 26.691406 22.085938 26.871094 C 21.003906 27.203125 20.355469 27.132812 19.832031 27.316406 L 20.777344 28.199219 C 20.855469 28.148438 20.945312 28.121094 21.003906 28.078125 C 22.261719 27.527344 24.019531 27.816406 24.964844 26.726562 Z M 24.964844 26.726562 "/></g></g></g></g><g clip-rule="nonzero" clip-path="url(#0ba0923a58)"><g clip-rule="nonzero" clip-path="url(#de91c85077)"><g clip-rule="nonzero" clip-path="url(#75388b9266)"><g clip-rule="nonzero" clip-path="url(#a304c1d5cd)"><path style=" stroke:none;fill-rule:nonzero;fill:#d83556;fill-opacity:1;" d="M 34.765625 23.132812 C 34.214844 23.300781 33.761719 23.242188 33.4375 23.050781 L 32.820312 24.675781 C 34.035156 24.695312 35.164062 23.71875 36.332031 23.507812 C 36.582031 23.457031 36.820312 23.457031 37.042969 23.460938 L 37.355469 22.195312 C 36.582031 22.117188 36.136719 22.714844 34.765625 23.132812 Z M 34.765625 23.132812 "/></g></g></g></g><g clip-rule="nonzero" clip-path="url(#b2dc3a7cd1)"><g clip-rule="nonzero" clip-path="url(#de0ce04143)"><g clip-rule="nonzero" clip-path="url(#7fa5a3c227)"><g clip-rule="nonzero" clip-path="url(#8e39704551)"><path style=" stroke:none;fill-rule:nonzero;fill:#d83556;fill-opacity:1;" d="M 32.390625 82.476562 C 32.390625 82.476562 31.585938 82.429688 31.132812 82.675781 C 30.597656 82.96875 30.367188 83.554688 29.910156 83.507812 C 28.855469 83.394531 28.777344 82.699219 28.777344 82.699219 C 28.777344 82.699219 28.460938 83.296875 28.996094 83.734375 C 29.460938 84.117188 29.921875 83.765625 30.441406 84.003906 C 30.949219 84.234375 31.210938 84.679688 30.953125 85.023438 C 30.753906 85.28125 30.421875 85.433594 30.042969 85.191406 C 29.664062 84.949219 29.730469 84.539062 29.089844 84.535156 C 28.4375 84.53125 28.300781 85.105469 27.746094 84.953125 C 27.214844 84.808594 27.175781 84.230469 27.175781 84.230469 C 27.175781 84.230469 26.972656 84.925781 27.539062 85.292969 C 28.105469 85.65625 28.332031 85.429688 28.792969 85.40625 C 29.5 85.378906 29.679688 86.554688 28.726562 86.582031 C 27.945312 86.609375 27.480469 86.050781 26.941406 86.355469 C 26.140625 86.808594 26.25 87.347656 25.675781 87.5625 C 25.101562 87.773438 24.820312 87.523438 24.820312 87.523438 C 24.820312 87.523438 25.007812 87.992188 25.546875 87.941406 C 26.097656 87.898438 26.816406 87.273438 27.027344 87.910156 C 27.238281 88.546875 26.074219 88.574219 25.679688 88.941406 C 25.164062 89.414062 25.21875 90.207031 24.339844 90.542969 C 23.636719 90.8125 23.113281 90.371094 23.113281 90.371094 C 23.113281 90.371094 23.515625 91.246094 24.496094 90.992188 C 25.480469 90.742188 25.800781 89.660156 26.707031 89.421875 C 27.285156 89.269531 27.625 89.8125 27.394531 90.191406 C 27.125 90.613281 26.472656 90.574219 26.472656 90.574219 C 26.472656 90.574219 27.476562 91.128906 27.984375 90.214844 C 28.441406 89.398438 27.859375 89.136719 28.085938 88.316406 C 28.21875 87.832031 28.640625 87.230469 29.164062 87.5 C 29.621094 87.742188 29.261719 88.328125 29.460938 88.972656 C 29.65625 89.617188 30.277344 89.648438 30.277344 89.648438 C 30.277344 89.648438 29.671875 89.179688 29.914062 88.507812 C 30.152344 87.851562 30.574219 87.886719 31.09375 87.113281 C 31.765625 86.117188 31.101562 85.585938 31.460938 85.128906 C 31.820312 84.671875 32.738281 84.957031 32.492188 85.851562 C 32.246094 86.746094 31.828125 86.855469 32.273438 87.53125 C 32.644531 88.097656 33.128906 87.988281 33.128906 87.988281 C 33.128906 87.988281 32.597656 87.425781 32.714844 86.609375 C 32.820312 85.886719 33.53125 85.167969 33.078125 84.402344 C 32.605469 83.613281 31.601562 83.09375 33.027344 82.707031 C 33.054688 82.703125 33.066406 82.695312 33.089844 82.691406 L 32.386719 82.496094 Z M 32.390625 82.476562 "/></g></g></g></g><g clip-rule="nonzero" clip-path="url(#af2bad4174)"><g clip-rule="nonzero" clip-path="url(#b158dccf09)"><g clip-rule="nonzero" clip-path="url(#515759e29c)"><g clip-rule="nonzero" clip-path="url(#5064eb0a04)"><path style=" stroke:none;fill-rule:nonzero;fill:#d83556;fill-opacity:1;" d="M 32.433594 82.535156 C 32.433594 82.535156 31.71875 82.164062 31.453125 81.71875 C 31.144531 81.195312 31.242188 80.570312 30.828125 80.378906 C 29.863281 79.9375 29.441406 80.492188 29.441406 80.492188 C 29.441406 80.492188 29.476562 79.820312 30.160156 79.71875 C 30.753906 79.625 30.972656 80.160156 31.539062 80.222656 C 32.09375 80.285156 32.546875 80.039062 32.503906 79.609375 C 32.460938 79.285156 32.253906 78.984375 31.804688 79 C 31.355469 79.015625 31.203125 79.402344 30.648438 79.074219 C 30.085938 78.746094 30.265625 78.179688 29.710938 78.027344 C 29.179688 77.882812 28.847656 78.359375 28.847656 78.359375 C 28.847656 78.359375 29.03125 77.65625 29.703125 77.632812 C 30.375 77.609375 30.453125 77.921875 30.839844 78.175781 C 31.433594 78.5625 32.1875 77.644531 31.382812 77.132812 C 30.726562 76.710938 30.042969 76.949219 29.734375 76.414062 C 29.285156 75.628906 29.652344 75.21875 29.269531 74.742188 C 28.886719 74.265625 28.515625 74.339844 28.515625 74.339844 C 28.515625 74.339844 28.917969 74.03125 29.355469 74.347656 C 29.804688 74.667969 30.105469 75.574219 30.613281 75.136719 C 31.117188 74.695312 30.132812 74.074219 29.980469 73.558594 C 29.78125 72.890625 30.230469 72.234375 29.648438 71.496094 C 29.179688 70.90625 28.507812 71.019531 28.507812 71.019531 C 28.507812 71.019531 29.300781 70.472656 30.015625 71.191406 C 30.71875 71.90625 30.449219 73.003906 31.109375 73.671875 C 31.527344 74.101562 32.101562 73.804688 32.09375 73.363281 C 32.078125 72.859375 31.496094 72.5625 31.496094 72.5625 C 31.496094 72.5625 32.640625 72.597656 32.609375 73.644531 C 32.589844 74.578125 31.953125 74.507812 31.726562 75.328125 C 31.59375 75.8125 31.648438 76.546875 32.238281 76.578125 C 32.753906 76.605469 32.746094 75.917969 33.246094 75.464844 C 33.75 75.023438 34.292969 75.300781 34.292969 75.300781 C 34.292969 75.300781 33.53125 75.394531 33.398438 76.097656 C 33.269531 76.78125 33.648438 76.96875 33.699219 77.898438 C 33.765625 79.097656 32.925781 79.214844 33 79.792969 C 33.074219 80.367188 34.007812 80.589844 34.253906 79.695312 C 34.496094 78.8125 34.199219 78.496094 34.925781 78.140625 C 35.535156 77.84375 35.894531 78.1875 35.894531 78.1875 C 35.894531 78.1875 35.148438 78.398438 34.835938 79.160156 C 34.554688 79.835938 34.796875 80.820312 34.015625 81.242188 C 33.207031 81.679688 32.078125 81.613281 33.109375 82.671875 C 33.128906 82.691406 33.136719 82.703125 33.152344 82.71875 L 32.4375 82.523438 Z M 32.433594 82.535156 "/></g></g></g></g><g clip-rule="nonzero" clip-path="url(#c746ee4327)"><g clip-rule="nonzero" clip-path="url(#146a695044)"><g clip-rule="nonzero" clip-path="url(#43822454fc)"><g clip-rule="nonzero" clip-path="url(#44711b1745)"><path style=" stroke:none;fill-rule:nonzero;fill:#231f20;fill-opacity:1;" d="M 36.585938 83.628906 C 36.582031 83.640625 36.578125 83.652344 36.5625 83.667969 C 36.546875 83.675781 35.714844 84.28125 34.515625 84.996094 C 33.8125 85.417969 33.113281 85.792969 32.464844 86.125 C 31.640625 86.523438 30.863281 86.84375 30.160156 87.066406 C 29.902344 87.148438 29.632812 87.199219 29.355469 87.226562 C 29.066406 87.253906 28.789062 87.246094 28.507812 87.203125 C 27.910156 87.121094 27.371094 86.925781 26.9375 86.621094 C 26.625 86.398438 26.371094 86.128906 26.199219 85.828125 C 26.007812 85.496094 25.90625 85.109375 25.890625 84.699219 C 25.867188 83.847656 26.117188 83.148438 26.65625 82.636719 C 26.910156 82.394531 27.222656 82.191406 27.601562 82.039062 C 27.894531 81.910156 28.234375 81.820312 28.589844 81.765625 C 28.945312 81.703125 29.242188 81.691406 29.441406 81.6875 C 29.269531 81.582031 29.015625 81.40625 28.75 81.183594 C 28.476562 80.945312 28.242188 80.695312 28.042969 80.445312 C 27.800781 80.125 27.625 79.785156 27.53125 79.445312 C 27.339844 78.746094 27.472656 78.015625 27.929688 77.285156 C 28.152344 76.941406 28.429688 76.65625 28.773438 76.472656 C 29.074219 76.300781 29.433594 76.191406 29.8125 76.167969 C 30.339844 76.125 30.917969 76.226562 31.460938 76.46875 C 31.71875 76.585938 31.972656 76.726562 32.199219 76.882812 C 32.433594 77.050781 32.640625 77.234375 32.808594 77.433594 C 33.300781 77.984375 33.804688 78.65625 34.308594 79.421875 C 34.710938 80.03125 35.109375 80.707031 35.492188 81.4375 C 36.160156 82.667969 36.566406 83.613281 36.574219 83.625 C 36.589844 83.609375 36.585938 83.617188 36.585938 83.628906 Z M 26.109375 83.773438 C 26.03125 84.054688 25.996094 84.355469 26.011719 84.683594 C 26.035156 85.445312 26.375 86.074219 27.003906 86.511719 C 27.425781 86.800781 27.945312 87.003906 28.519531 87.078125 C 28.789062 87.117188 29.066406 87.125 29.34375 87.097656 C 29.617188 87.082031 29.878906 87.023438 30.121094 86.953125 C 30.8125 86.726562 31.589844 86.417969 32.398438 86.015625 C 33.058594 85.695312 33.75 85.316406 34.449219 84.894531 C 35.496094 84.269531 36.265625 83.726562 36.441406 83.601562 C 36.355469 83.402344 35.960938 82.542969 35.390625 81.46875 C 35.003906 80.75 34.605469 80.070312 34.203125 79.460938 C 33.699219 78.695312 33.207031 78.027344 32.722656 77.488281 C 32.550781 77.304688 32.355469 77.121094 32.128906 76.96875 C 31.902344 76.8125 31.660156 76.675781 31.410156 76.5625 C 30.878906 76.332031 30.335938 76.230469 29.820312 76.273438 C 29.054688 76.332031 28.4375 76.707031 28.03125 77.335938 C 27.804688 77.703125 27.65625 78.066406 27.589844 78.429688 C 27.535156 78.753906 27.554688 79.070312 27.640625 79.394531 C 27.726562 79.71875 27.894531 80.046875 28.125 80.351562 C 28.3125 80.601562 28.539062 80.847656 28.816406 81.074219 C 29.277344 81.46875 29.699219 81.6875 29.699219 81.6875 C 29.726562 81.707031 29.730469 81.734375 29.722656 81.765625 C 29.714844 81.796875 29.6875 81.8125 29.664062 81.816406 C 29.664062 81.816406 29.191406 81.792969 28.589844 81.894531 C 28.246094 81.949219 27.917969 82.046875 27.628906 82.164062 C 27.273438 82.308594 26.960938 82.5 26.722656 82.738281 C 26.484375 82.960938 26.304688 83.234375 26.183594 83.539062 C 26.167969 83.605469 26.132812 83.6875 26.109375 83.773438 Z M 26.109375 83.773438 "/></g></g></g></g><g clip-rule="nonzero" clip-path="url(#07337fd0f7)"><g clip-rule="nonzero" clip-path="url(#2f436700e0)"><g clip-rule="nonzero" clip-path="url(#3eb90f5b27)"><g clip-rule="nonzero" clip-path="url(#499a60f89d)"><path style=" stroke:none;fill-rule:nonzero;fill:#d83556;fill-opacity:1;" d="M 33.167969 84.625 L 32.402344 85.15625 C 32.519531 85.316406 32.5625 85.546875 32.484375 85.839844 C 32.335938 86.367188 32.140625 86.613281 32.082031 86.875 L 32.683594 86.71875 C 32.6875 86.671875 32.699219 86.628906 32.695312 86.59375 C 32.792969 85.9375 33.367188 85.296875 33.167969 84.625 Z M 33.167969 84.625 "/></g></g></g></g><g clip-rule="nonzero" clip-path="url(#c2e4ac8cb7)"><g clip-rule="nonzero" clip-path="url(#30fb31fe30)"><g clip-rule="nonzero" clip-path="url(#0fb31bdf6c)"><g clip-rule="nonzero" clip-path="url(#0405c96322)"><path style=" stroke:none;fill-rule:nonzero;fill:#d83556;fill-opacity:1;" d="M 34.234375 79.691406 C 34.160156 79.960938 34.019531 80.128906 33.855469 80.210938 L 34.359375 80.882812 C 34.683594 80.394531 34.574219 79.679688 34.789062 79.148438 C 34.835938 79.03125 34.894531 78.933594 34.957031 78.84375 L 34.519531 78.390625 C 34.285156 78.683594 34.417969 79.023438 34.234375 79.691406 Z M 34.234375 79.691406 "/></g></g></g></g><g clip-rule="nonzero" clip-path="url(#2bf82edd93)"><g clip-rule="nonzero" clip-path="url(#15a1e2438f)"><g clip-rule="nonzero" clip-path="url(#4a40575600)"><g clip-rule="nonzero" clip-path="url(#4d2e49dc47)"><path style=" stroke:none;fill-rule:nonzero;fill:#d83556;fill-opacity:1;" d="M 75.753906 50.234375 C 75.753906 50.234375 75.53125 48.90625 74.957031 48.257812 C 74.273438 47.496094 73.222656 47.332031 73.125 46.578125 C 72.921875 44.820312 74.035156 44.4375 74.035156 44.4375 C 74.035156 44.4375 72.9375 44.144531 72.414062 45.171875 C 71.957031 46.070312 72.703125 46.6875 72.511719 47.621094 C 72.316406 48.53125 71.683594 49.125 71.015625 48.828125 C 70.519531 48.597656 70.144531 48.113281 70.402344 47.410156 C 70.664062 46.707031 71.363281 46.664062 71.128906 45.621094 C 70.894531 44.554688 69.894531 44.546875 69.9375 43.589844 C 69.980469 42.671875 70.917969 42.394531 70.917969 42.394531 C 70.917969 42.394531 69.695312 42.320312 69.304688 43.371094 C 68.914062 44.425781 69.375 44.710938 69.585938 45.453125 C 69.890625 46.597656 68.027344 47.316406 67.625 45.777344 C 67.285156 44.519531 68.03125 43.558594 67.328125 42.792969 C 66.285156 41.652344 65.4375 42.027344 64.871094 41.175781 C 64.304688 40.320312 64.613281 39.769531 64.613281 39.769531 C 64.613281 39.769531 63.910156 40.246094 64.195312 41.105469 C 64.472656 41.984375 65.773438 42.925781 64.800781 43.503906 C 63.828125 44.078125 63.347656 42.195312 62.597656 41.6875 C 61.625 41.023438 60.34375 41.398438 59.457031 40.097656 C 58.75 39.046875 59.289062 38.039062 59.289062 38.039062 C 59.289062 38.039062 57.996094 39.011719 58.777344 40.515625 C 59.558594 42.019531 61.460938 42.144531 62.191406 43.53125 C 62.660156 44.417969 61.886719 45.171875 61.179688 44.933594 C 60.382812 44.652344 60.203125 43.570312 60.203125 43.570312 C 60.203125 43.570312 59.664062 45.40625 61.363281 45.898438 C 62.875 46.347656 63.089844 45.304688 64.523438 45.371094 C 65.375 45.410156 66.523438 45.875 66.273438 46.824219 C 66.042969 47.660156 64.945312 47.289062 63.957031 47.84375 C 62.96875 48.398438 63.144531 49.421875 63.144531 49.421875 C 63.144531 49.421875 63.691406 48.265625 64.894531 48.414062 C 66.058594 48.5625 66.160156 49.261719 67.625 49.820312 C 69.519531 50.546875 70.144531 49.277344 71.035156 49.695312 C 71.921875 50.113281 71.792969 51.703125 70.226562 51.632812 C 68.660156 51.558594 68.332031 50.921875 67.378906 51.894531 C 66.585938 52.703125 66.949219 53.453125 66.949219 53.453125 C 66.949219 53.453125 67.675781 52.378906 69.0625 52.273438 C 70.296875 52.179688 71.746094 53.074219 72.832031 52.054688 C 73.960938 50.996094 74.441406 49.175781 75.605469 51.355469 C 75.625 51.394531 75.640625 51.414062 75.660156 51.449219 L 75.714844 50.230469 Z M 75.753906 50.234375 "/></g></g></g></g><g clip-rule="nonzero" clip-path="url(#0f1f32bd87)"><g clip-rule="nonzero" clip-path="url(#c3ff152abf)"><g clip-rule="nonzero" clip-path="url(#ff0e490baa)"><g clip-rule="nonzero" clip-path="url(#ec2835f76e)"><path style=" stroke:none;fill-rule:nonzero;fill:#d83556;fill-opacity:1;" d="M 75.671875 50.324219 C 75.671875 50.324219 76.015625 49.023438 76.648438 48.433594 C 77.398438 47.734375 78.460938 47.671875 78.628906 46.925781 C 78.992188 45.195312 77.917969 44.710938 77.917969 44.710938 C 77.917969 44.710938 79.042969 44.519531 79.464844 45.59375 C 79.835938 46.53125 79.035156 47.078125 79.144531 48.019531 C 79.253906 48.949219 79.828125 49.59375 80.519531 49.363281 C 81.035156 49.179688 81.453125 48.730469 81.261719 48.007812 C 81.066406 47.285156 80.375 47.175781 80.703125 46.15625 C 81.035156 45.121094 82.035156 45.203125 82.078125 44.246094 C 82.121094 43.328125 81.210938 42.964844 81.210938 42.964844 C 81.210938 42.964844 82.4375 43.003906 82.726562 44.089844 C 83.019531 45.175781 82.535156 45.414062 82.253906 46.136719 C 81.84375 47.246094 83.636719 48.136719 84.179688 46.636719 C 84.632812 45.417969 83.980469 44.390625 84.75 43.695312 C 85.875 42.675781 86.683594 43.125 87.328125 42.328125 C 87.96875 41.53125 87.710938 40.957031 87.710938 40.957031 C 87.710938 40.957031 88.367188 41.492188 88.007812 42.324219 C 87.648438 43.171875 86.265625 43.988281 87.179688 44.652344 C 88.09375 45.316406 88.746094 43.484375 89.542969 43.050781 C 90.570312 42.480469 91.8125 42.96875 92.816406 41.757812 C 93.617188 40.777344 93.175781 39.722656 93.175781 39.722656 C 93.175781 39.722656 94.371094 40.8125 93.453125 42.238281 C 92.539062 43.640625 90.632812 43.609375 89.777344 44.921875 C 89.226562 45.761719 89.925781 46.585938 90.652344 46.410156 C 91.476562 46.207031 91.75 45.148438 91.75 45.148438 C 91.75 45.148438 92.117188 47.023438 90.382812 47.359375 C 88.835938 47.664062 88.714844 46.605469 87.28125 46.539062 C 86.433594 46.5 85.246094 46.855469 85.410156 47.824219 C 85.558594 48.675781 86.6875 48.410156 87.621094 49.054688 C 88.535156 49.714844 88.28125 50.699219 88.28125 50.699219 C 88.28125 50.699219 87.84375 49.496094 86.632812 49.535156 C 85.460938 49.574219 85.296875 50.261719 83.785156 50.679688 C 81.832031 51.230469 81.324219 49.910156 80.402344 50.242188 C 79.480469 50.574219 79.460938 52.171875 81.027344 52.246094 C 82.574219 52.316406 82.980469 51.714844 83.835938 52.769531 C 84.554688 53.648438 84.121094 54.363281 84.121094 54.363281 C 84.121094 54.363281 83.496094 53.222656 82.125 52.992188 C 80.90625 52.785156 79.378906 53.539062 78.390625 52.421875 C 77.367188 51.265625 77.058594 49.410156 75.695312 51.472656 C 75.675781 51.507812 75.65625 51.527344 75.632812 51.5625 L 75.691406 50.324219 Z M 75.671875 50.324219 "/></g></g></g></g><g clip-rule="nonzero" clip-path="url(#a799414df7)"><g clip-rule="nonzero" clip-path="url(#35a99bd273)"><g clip-rule="nonzero" clip-path="url(#b9e9b19aa9)"><g clip-rule="nonzero" clip-path="url(#1c34bd63b0)"><path style=" stroke:none;fill-rule:nonzero;fill:#231f20;fill-opacity:1;" d="M 75.417969 57.472656 C 75.398438 57.472656 75.378906 57.472656 75.34375 57.453125 C 75.324219 57.433594 74.015625 56.300781 72.394531 54.609375 C 71.4375 53.625 70.558594 52.625 69.769531 51.683594 C 68.804688 50.492188 67.988281 49.347656 67.355469 48.285156 C 67.128906 47.898438 66.941406 47.472656 66.792969 47.035156 C 66.640625 46.578125 66.550781 46.121094 66.515625 45.648438 C 66.429688 44.648438 66.550781 43.695312 66.890625 42.886719 C 67.144531 42.296875 67.488281 41.785156 67.921875 41.390625 C 68.394531 40.960938 68.996094 40.652344 69.664062 40.476562 C 71.0625 40.125 72.300781 40.277344 73.347656 40.964844 C 73.84375 41.289062 74.296875 41.722656 74.683594 42.289062 C 75.003906 42.714844 75.285156 43.238281 75.503906 43.792969 C 75.742188 44.347656 75.871094 44.824219 75.949219 45.148438 C 76.058594 44.832031 76.253906 44.351562 76.523438 43.839844 C 76.8125 43.308594 77.136719 42.832031 77.476562 42.417969 C 77.914062 41.910156 78.40625 41.5 78.929688 41.226562 C 80.015625 40.65625 81.265625 40.601562 82.640625 41.078125 C 83.292969 41.3125 83.863281 41.660156 84.292969 42.148438 C 84.6875 42.582031 85.003906 43.125 85.183594 43.734375 C 85.445312 44.574219 85.496094 45.550781 85.300781 46.519531 C 85.203125 46.988281 85.066406 47.449219 84.894531 47.875 C 84.707031 48.316406 84.480469 48.71875 84.21875 49.066406 C 83.492188 50.066406 82.570312 51.132812 81.5 52.230469 C 80.648438 53.109375 79.679688 54.007812 78.617188 54.898438 C 76.84375 56.429688 75.4375 57.4375 75.417969 57.457031 C 75.453125 57.476562 75.4375 57.476562 75.417969 57.472656 Z M 71.273438 40.492188 C 70.78125 40.472656 70.269531 40.523438 69.734375 40.667969 C 68.488281 40.984375 67.582031 41.769531 67.09375 42.949219 C 66.773438 43.746094 66.636719 44.660156 66.722656 45.621094 C 66.761719 46.074219 66.851562 46.53125 67.003906 46.96875 C 67.132812 47.40625 67.324219 47.8125 67.53125 48.179688 C 68.164062 49.222656 68.960938 50.371094 69.925781 51.542969 C 70.695312 52.5 71.578125 53.480469 72.53125 54.464844 C 73.957031 55.941406 75.136719 56.992188 75.410156 57.230469 C 75.703125 57.015625 76.976562 56.0625 78.53125 54.742188 C 79.574219 53.851562 80.539062 52.957031 81.394531 52.074219 C 82.464844 50.976562 83.382812 49.929688 84.089844 48.945312 C 84.332031 48.601562 84.558594 48.214844 84.730469 47.792969 C 84.902344 47.367188 85.035156 46.921875 85.132812 46.476562 C 85.308594 45.523438 85.273438 44.601562 85.011719 43.78125 C 84.632812 42.5625 83.785156 41.695312 82.59375 41.261719 C 81.90625 41.023438 81.25 40.917969 80.625 40.945312 C 80.074219 40.976562 79.558594 41.121094 79.054688 41.382812 C 78.550781 41.640625 78.078125 42.03125 77.660156 42.519531 C 77.320312 42.917969 76.996094 43.371094 76.726562 43.90625 C 76.25 44.804688 76.042969 45.566406 76.042969 45.566406 C 76.023438 45.621094 75.984375 45.636719 75.929688 45.636719 C 75.871094 45.632812 75.835938 45.59375 75.820312 45.554688 C 75.820312 45.554688 75.683594 44.777344 75.292969 43.839844 C 75.074219 43.300781 74.792969 42.800781 74.492188 42.371094 C 74.121094 41.847656 73.6875 41.414062 73.207031 41.109375 C 72.75 40.804688 72.230469 40.613281 71.6875 40.53125 C 71.574219 40.527344 71.421875 40.5 71.273438 40.492188 Z M 71.273438 40.492188 "/></g></g></g></g><g clip-rule="nonzero" clip-path="url(#2b1cd1010a)"><g clip-rule="nonzero" clip-path="url(#73f07063ee)"><g clip-rule="nonzero" clip-path="url(#9ba5c9753a)"><g clip-rule="nonzero" clip-path="url(#ba24d5b7bc)"><path style=" stroke:none;fill-rule:nonzero;fill:#d83556;fill-opacity:1;" d="M 72.5 52.28125 L 71.339844 51.230469 C 71.121094 51.484375 70.753906 51.636719 70.246094 51.613281 C 69.320312 51.570312 68.839844 51.339844 68.386719 51.339844 L 68.875 52.265625 C 68.949219 52.25 69.023438 52.253906 69.082031 52.234375 C 70.203125 52.15625 71.472656 52.855469 72.5 52.28125 Z M 72.5 52.28125 "/></g></g></g></g><g clip-rule="nonzero" clip-path="url(#354a1542f1)"><g clip-rule="nonzero" clip-path="url(#877b1b4fb5)"><g clip-rule="nonzero" clip-path="url(#ed9eff4e06)"><g clip-rule="nonzero" clip-path="url(#d720652b90)"><path style=" stroke:none;fill-rule:nonzero;fill:#d83556;fill-opacity:1;" d="M 81.027344 52.207031 C 80.558594 52.183594 80.226562 52.019531 80.027344 51.785156 L 79.109375 52.851562 C 80.039062 53.195312 81.171875 52.757812 82.128906 52.917969 C 82.335938 52.945312 82.523438 53.007812 82.691406 53.074219 L 83.277344 52.199219 C 82.703125 51.929688 82.199219 52.261719 81.027344 52.207031 Z M 81.027344 52.207031 "/></g></g></g></g><g clip-rule="nonzero" clip-path="url(#5efcbed78b)"><g clip-rule="nonzero" clip-path="url(#baf965edab)"><g clip-rule="nonzero" clip-path="url(#6e79216fa2)"><g clip-rule="nonzero" clip-path="url(#39f44bcd06)"><path style=" stroke:none;fill-rule:nonzero;fill:#d83556;fill-opacity:1;" d="M 82.355469 92.453125 C 82.355469 92.453125 82.714844 91.554688 82.601562 90.945312 C 82.464844 90.222656 81.882812 89.734375 82.101562 89.234375 C 82.632812 88.074219 83.453125 88.25 83.453125 88.25 C 83.453125 88.25 82.890625 87.660156 82.191406 88.105469 C 81.574219 88.492188 81.804688 89.148438 81.339844 89.652344 C 80.882812 90.144531 80.277344 90.277344 79.976562 89.851562 C 79.757812 89.523438 79.707031 89.085938 80.128906 88.75 C 80.546875 88.410156 80.992188 88.640625 81.234375 87.910156 C 81.484375 87.167969 80.875 86.792969 81.257812 86.21875 C 81.625 85.667969 82.300781 85.84375 82.300781 85.84375 C 82.300781 85.84375 81.578125 85.347656 80.953125 85.855469 C 80.324219 86.363281 80.5 86.707031 80.351562 87.242188 C 80.117188 88.058594 78.707031 87.820312 79.03125 86.722656 C 79.289062 85.820312 80.101562 85.5 79.957031 84.769531 C 79.738281 83.683594 79.082031 83.605469 79.050781 82.871094 C 79.019531 82.136719 79.414062 81.910156 79.414062 81.910156 C 79.414062 81.910156 78.808594 81.945312 78.660156 82.578125 C 78.507812 83.222656 78.953125 84.28125 78.144531 84.28125 C 77.335938 84.28125 77.742188 82.941406 77.46875 82.351562 C 77.121094 81.585938 76.195312 81.34375 76.136719 80.21875 C 76.089844 79.3125 76.792969 78.886719 76.792969 78.886719 C 76.792969 78.886719 75.640625 79.011719 75.5625 80.226562 C 75.484375 81.441406 76.605469 82.21875 76.535156 83.339844 C 76.496094 84.0625 75.742188 84.242188 75.398438 83.835938 C 75.011719 83.367188 75.304688 82.636719 75.304688 82.636719 C 75.304688 82.636719 74.292969 83.574219 75.152344 84.5 C 75.910156 85.328125 76.429688 84.765625 77.285156 85.332031 C 77.789062 85.667969 78.320312 86.378906 77.816406 86.871094 C 77.367188 87.300781 76.832031 86.671875 76.019531 86.652344 C 75.207031 86.628906 74.9375 87.328125 74.9375 87.328125 C 74.9375 87.328125 75.703125 86.8125 76.382812 87.347656 C 77.039062 87.867188 76.84375 88.335938 77.535156 89.214844 C 78.425781 90.359375 79.277344 89.808594 79.667969 90.390625 C 80.054688 90.972656 79.386719 91.910156 78.453125 91.289062 C 77.523438 90.671875 77.558594 90.15625 76.613281 90.40625 C 75.828125 90.617188 75.773438 91.210938 75.773438 91.210938 C 75.773438 91.210938 76.617188 90.816406 77.503906 91.257812 C 78.292969 91.652344 78.851562 92.738281 79.894531 92.507812 C 80.976562 92.269531 81.945312 91.320312 81.851562 93.09375 C 81.847656 93.125 81.851562 93.140625 81.847656 93.171875 L 82.335938 92.441406 Z M 82.355469 92.453125 "/></g></g></g></g><g clip-rule="nonzero" clip-path="url(#05003d33a2)"><g clip-rule="nonzero" clip-path="url(#11f54e4fc7)"><g clip-rule="nonzero" clip-path="url(#105fcb5c67)"><g clip-rule="nonzero" clip-path="url(#f935d9a88e)"><path style=" stroke:none;fill-rule:nonzero;fill:#d83556;fill-opacity:1;" d="M 82.273438 92.480469 C 82.273438 92.480469 82.96875 91.804688 83.574219 91.671875 C 84.292969 91.515625 84.964844 91.867188 85.34375 91.46875 C 86.207031 90.53125 85.730469 89.839844 85.730469 89.839844 C 85.730469 89.839844 86.488281 90.136719 86.351562 90.953125 C 86.230469 91.667969 85.539062 91.710938 85.253906 92.335938 C 84.976562 92.945312 85.089844 93.554688 85.597656 93.667969 C 85.984375 93.746094 86.40625 93.621094 86.554688 93.101562 C 86.707031 92.585938 86.320312 92.261719 86.898438 91.757812 C 87.488281 91.238281 88.066406 91.65625 88.449219 91.082031 C 88.816406 90.53125 88.394531 89.972656 88.394531 89.972656 C 88.394531 89.972656 89.128906 90.445312 88.90625 91.222656 C 88.679688 92 88.296875 91.96875 87.859375 92.3125 C 87.195312 92.84375 87.960938 94.054688 88.847656 93.328125 C 89.578125 92.742188 89.558594 91.867188 90.289062 91.71875 C 91.355469 91.503906 91.6875 92.078125 92.375 91.824219 C 93.0625 91.566406 93.117188 91.117188 93.117188 91.117188 C 93.117188 91.117188 93.320312 91.6875 92.792969 92.070312 C 92.257812 92.460938 91.109375 92.460938 91.421875 93.203125 C 91.738281 93.949219 92.816406 93.058594 93.460938 93.082031 C 94.304688 93.105469 94.882812 93.863281 95.949219 93.484375 C 96.800781 93.175781 96.921875 92.359375 96.921875 92.359375 C 96.921875 92.359375 97.25 93.472656 96.160156 94.015625 C 95.078125 94.546875 93.921875 93.828125 92.914062 94.324219 C 92.265625 94.640625 92.390625 95.40625 92.898438 95.5625 C 93.476562 95.738281 94.039062 95.1875 94.039062 95.1875 C 94.039062 95.1875 93.566406 96.480469 92.382812 96.050781 C 91.324219 95.667969 91.640625 94.972656 90.789062 94.40625 C 90.28125 94.070312 89.421875 93.855469 89.164062 94.511719 C 88.9375 95.09375 89.726562 95.339844 90.0625 96.082031 C 90.375 96.828125 89.855469 97.339844 89.855469 97.339844 C 89.855469 97.339844 90.035156 96.4375 89.277344 96.015625 C 88.546875 95.609375 88.191406 95.976562 87.109375 95.679688 C 85.710938 95.300781 85.890625 94.300781 85.199219 94.167969 C 84.511719 94.035156 83.910156 95.011719 84.839844 95.632812 C 85.761719 96.242188 86.234375 96.023438 86.367188 96.988281 C 86.480469 97.792969 85.953125 98.074219 85.953125 98.074219 C 85.953125 98.074219 85.988281 97.140625 85.238281 96.496094 C 84.566406 95.921875 83.351562 95.828125 83.160156 94.773438 C 82.964844 93.6875 83.460938 92.425781 81.863281 93.199219 C 81.835938 93.214844 81.820312 93.21875 81.792969 93.230469 L 82.285156 92.488281 Z M 82.273438 92.480469 "/></g></g></g></g><g clip-rule="nonzero" clip-path="url(#695716db6c)"><g clip-rule="nonzero" clip-path="url(#9432b3d9eb)"><g clip-rule="nonzero" clip-path="url(#cc47e16ee8)"><g clip-rule="nonzero" clip-path="url(#18aafd295c)"><path style=" stroke:none;fill-rule:nonzero;fill:#231f20;fill-opacity:1;" d="M 79.46875 96.800781 C 79.457031 96.792969 79.445312 96.785156 79.429688 96.761719 C 79.425781 96.742188 79.046875 95.5625 78.679688 93.921875 C 78.457031 92.964844 78.289062 92.023438 78.15625 91.15625 C 78.007812 90.066406 77.929688 89.058594 77.9375 88.171875 C 77.941406 87.847656 77.984375 87.519531 78.054688 87.191406 C 78.132812 86.855469 78.246094 86.539062 78.398438 86.234375 C 78.71875 85.585938 79.144531 85.042969 79.652344 84.667969 C 80.027344 84.394531 80.425781 84.207031 80.839844 84.125 C 81.289062 84.03125 81.769531 84.0625 82.246094 84.199219 C 83.230469 84.496094 83.933594 85.042969 84.320312 85.851562 C 84.503906 86.234375 84.617188 86.667969 84.648438 87.160156 C 84.683594 87.539062 84.664062 87.964844 84.589844 88.386719 C 84.53125 88.816406 84.433594 89.160156 84.363281 89.386719 C 84.546875 89.234375 84.84375 89.007812 85.199219 88.789062 C 85.570312 88.566406 85.945312 88.394531 86.308594 88.261719 C 86.765625 88.109375 87.21875 88.039062 87.640625 88.058594 C 88.515625 88.105469 89.300781 88.53125 89.96875 89.332031 C 90.277344 89.714844 90.5 90.136719 90.582031 90.597656 C 90.664062 91.011719 90.65625 91.460938 90.539062 91.902344 C 90.390625 92.519531 90.058594 93.140625 89.578125 93.667969 C 89.347656 93.917969 89.09375 94.15625 88.832031 94.355469 C 88.550781 94.558594 88.261719 94.722656 87.972656 94.839844 C 87.15625 95.191406 86.199219 95.511719 85.136719 95.796875 C 84.289062 96.027344 83.363281 96.222656 82.382812 96.382812 C 80.730469 96.683594 79.496094 96.785156 79.476562 96.789062 C 79.492188 96.816406 79.480469 96.808594 79.46875 96.800781 Z M 83.222656 84.796875 C 82.929688 84.605469 82.597656 84.449219 82.214844 84.339844 C 81.335938 84.082031 80.492188 84.234375 79.753906 84.78125 C 79.265625 85.15625 78.839844 85.667969 78.539062 86.296875 C 78.390625 86.589844 78.28125 86.902344 78.207031 87.230469 C 78.125 87.546875 78.09375 87.867188 78.085938 88.167969 C 78.085938 89.046875 78.148438 90.046875 78.304688 91.125 C 78.421875 91.996094 78.597656 92.925781 78.816406 93.886719 C 79.144531 95.320312 79.476562 96.402344 79.554688 96.648438 C 79.8125 96.625 80.945312 96.5 82.386719 96.257812 C 83.355469 96.089844 84.28125 95.890625 85.128906 95.660156 C 86.191406 95.378906 87.144531 95.066406 87.941406 94.71875 C 88.214844 94.597656 88.496094 94.441406 88.757812 94.242188 C 89.019531 94.042969 89.269531 93.816406 89.492188 93.578125 C 89.953125 93.054688 90.273438 92.472656 90.417969 91.871094 C 90.636719 90.976562 90.441406 90.132812 89.871094 89.429688 C 89.539062 89.027344 89.175781 88.722656 88.78125 88.511719 C 88.433594 88.328125 88.0625 88.226562 87.660156 88.203125 C 87.253906 88.175781 86.820312 88.246094 86.382812 88.394531 C 86.027344 88.515625 85.660156 88.675781 85.296875 88.90625 C 84.675781 89.285156 84.265625 89.679688 84.265625 89.679688 C 84.230469 89.707031 84.203125 89.703125 84.167969 89.679688 C 84.136719 89.660156 84.128906 89.621094 84.132812 89.589844 C 84.132812 89.589844 84.335938 89.0625 84.445312 88.339844 C 84.507812 87.925781 84.523438 87.515625 84.5 87.140625 C 84.464844 86.679688 84.359375 86.253906 84.179688 85.890625 C 84.011719 85.535156 83.765625 85.222656 83.460938 84.972656 C 83.394531 84.929688 83.3125 84.859375 83.222656 84.796875 Z M 83.222656 84.796875 "/></g></g></g></g><g clip-rule="nonzero" clip-path="url(#bfbd818b93)"><g clip-rule="nonzero" clip-path="url(#ae05ba2197)"><g clip-rule="nonzero" clip-path="url(#8c30442c36)"><g clip-rule="nonzero" clip-path="url(#14be1a01c3)"><path style=" stroke:none;fill-rule:nonzero;fill:#d83556;fill-opacity:1;" d="M 79.605469 92.527344 L 79.285156 91.453125 C 79.058594 91.527344 78.777344 91.488281 78.472656 91.285156 C 77.921875 90.921875 77.714844 90.601562 77.4375 90.433594 L 77.390625 91.183594 C 77.445312 91.203125 77.488281 91.230469 77.53125 91.242188 C 78.246094 91.605469 78.765625 92.503906 79.605469 92.527344 Z M 79.605469 92.527344 "/></g></g></g></g><g clip-rule="nonzero" clip-path="url(#11193466a5)"><g clip-rule="nonzero" clip-path="url(#d8d8c019be)"><g clip-rule="nonzero" clip-path="url(#8296b2bcd3)"><g clip-rule="nonzero" clip-path="url(#e15bf6658c)"><path style=" stroke:none;fill-rule:nonzero;fill:#d83556;fill-opacity:1;" d="M 84.855469 95.609375 C 84.574219 95.421875 84.433594 95.199219 84.398438 94.980469 L 83.441406 95.300781 C 83.882812 95.855469 84.742188 96.003906 85.269531 96.453125 C 85.382812 96.542969 85.472656 96.652344 85.550781 96.753906 L 86.238281 96.429688 C 85.988281 96.050781 85.550781 96.070312 84.855469 95.609375 Z M 84.855469 95.609375 "/></g></g></g></g></g></svg>