<svg xmlns="http://www.w3.org/2000/svg" xmlns:xlink="http://www.w3.org/1999/xlink" width="150" zoomAndPan="magnify" viewBox="0 0 112.5 112.499997" height="150" preserveAspectRatio="xMidYMid meet" version="1.2"><defs><clipPath id="3de0cd0135"><path d="M 28 9 L 35 9 L 35 16 L 28 16 Z M 28 9 "/></clipPath><clipPath id="bb22372160"><path d="M 15.722656 -4.578125 L 40.941406 8.421875 L 27.941406 33.640625 L 2.722656 20.640625 Z M 15.722656 -4.578125 "/></clipPath><clipPath id="f308442d85"><path d="M 15.722656 -4.578125 L 40.941406 8.421875 L 27.941406 33.640625 L 2.722656 20.640625 Z M 15.722656 -4.578125 "/></clipPath><clipPath id="fbdd6a905f"><path d="M 15.722656 -4.578125 L 40.941406 8.421875 L 27.941406 33.640625 L 2.722656 20.640625 Z M 15.722656 -4.578125 "/></clipPath><clipPath id="7b528eddc2"><path d="M 9 13 L 15 13 L 15 20 L 9 20 Z M 9 13 "/></clipPath><clipPath id="2271fcf901"><path d="M 15.722656 -4.578125 L 40.941406 8.421875 L 27.941406 33.640625 L 2.722656 20.640625 Z M 15.722656 -4.578125 "/></clipPath><clipPath id="9edb094c9b"><path d="M 15.722656 -4.578125 L 40.941406 8.421875 L 27.941406 33.640625 L 2.722656 20.640625 Z M 15.722656 -4.578125 "/></clipPath><clipPath id="daa58825e8"><path d="M 15.722656 -4.578125 L 40.941406 8.421875 L 27.941406 33.640625 L 2.722656 20.640625 Z M 15.722656 -4.578125 "/></clipPath><clipPath id="7f5029a1d6"><path d="M 28 7 L 36 7 L 36 18 L 28 18 Z M 28 7 "/></clipPath><clipPath id="4194a9d9c4"><path d="M 15.722656 -4.578125 L 40.941406 8.421875 L 27.941406 33.640625 L 2.722656 20.640625 Z M 15.722656 -4.578125 "/></clipPath><clipPath id="e6d98debce"><path d="M 15.722656 -4.578125 L 40.941406 8.421875 L 27.941406 33.640625 L 2.722656 20.640625 Z M 15.722656 -4.578125 "/></clipPath><clipPath id="fe91d60d50"><path d="M 15.722656 -4.578125 L 40.941406 8.421875 L 27.941406 33.640625 L 2.722656 20.640625 Z M 15.722656 -4.578125 "/></clipPath><clipPath id="8738623193"><path d="M 35 14 L 38 14 L 38 16 L 35 16 Z M 35 14 "/></clipPath><clipPath id="97bbb8a050"><path d="M 15.722656 -4.578125 L 40.941406 8.421875 L 27.941406 33.640625 L 2.722656 20.640625 Z M 15.722656 -4.578125 "/></clipPath><clipPath id="87a6b0a778"><path d="M 15.722656 -4.578125 L 40.941406 8.421875 L 27.941406 33.640625 L 2.722656 20.640625 Z M 15.722656 -4.578125 "/></clipPath><clipPath id="862e0542a3"><path d="M 15.722656 -4.578125 L 40.941406 8.421875 L 27.941406 33.640625 L 2.722656 20.640625 Z M 15.722656 -4.578125 "/></clipPath><clipPath id="44f39a8479"><path d="M 25 8 L 28 8 L 28 11 L 25 11 Z M 25 8 "/></clipPath><clipPath id="b1120a9207"><path d="M 15.722656 -4.578125 L 40.941406 8.421875 L 27.941406 33.640625 L 2.722656 20.640625 Z M 15.722656 -4.578125 "/></clipPath><clipPath id="72e926b413"><path d="M 15.722656 -4.578125 L 40.941406 8.421875 L 27.941406 33.640625 L 2.722656 20.640625 Z M 15.722656 -4.578125 "/></clipPath><clipPath id="1490eb3d4f"><path d="M 15.722656 -4.578125 L 40.941406 8.421875 L 27.941406 33.640625 L 2.722656 20.640625 Z M 15.722656 -4.578125 "/></clipPath><clipPath id="7a7bb549d7"><path d="M 33 5 L 36 5 L 36 8 L 33 8 Z M 33 5 "/></clipPath><clipPath id="b3e780f6ce"><path d="M 15.722656 -4.578125 L 40.941406 8.421875 L 27.941406 33.640625 L 2.722656 20.640625 Z M 15.722656 -4.578125 "/></clipPath><clipPath id="cbab642b28"><path d="M 15.722656 -4.578125 L 40.941406 8.421875 L 27.941406 33.640625 L 2.722656 20.640625 Z M 15.722656 -4.578125 "/></clipPath><clipPath id="a7c27a2181"><path d="M 15.722656 -4.578125 L 40.941406 8.421875 L 27.941406 33.640625 L 2.722656 20.640625 Z M 15.722656 -4.578125 "/></clipPath><clipPath id="9f9ed6cb9f"><path d="M 27 17 L 30 17 L 30 20 L 27 20 Z M 27 17 "/></clipPath><clipPath id="0d058268da"><path d="M 15.722656 -4.578125 L 40.941406 8.421875 L 27.941406 33.640625 L 2.722656 20.640625 Z M 15.722656 -4.578125 "/></clipPath><clipPath id="68ba7be52e"><path d="M 15.722656 -4.578125 L 40.941406 8.421875 L 27.941406 33.640625 L 2.722656 20.640625 Z M 15.722656 -4.578125 "/></clipPath><clipPath id="85f7d58b31"><path d="M 15.722656 -4.578125 L 40.941406 8.421875 L 27.941406 33.640625 L 2.722656 20.640625 Z M 15.722656 -4.578125 "/></clipPath><clipPath id="d70a73d250"><path d="M 8 11 L 16 11 L 16 22 L 8 22 Z M 8 11 "/></clipPath><clipPath id="cd5cd30811"><path d="M 15.722656 -4.578125 L 40.941406 8.421875 L 27.941406 33.640625 L 2.722656 20.640625 Z M 15.722656 -4.578125 "/></clipPath><clipPath id="1a6384082d"><path d="M 15.722656 -4.578125 L 40.941406 8.421875 L 27.941406 33.640625 L 2.722656 20.640625 Z M 15.722656 -4.578125 "/></clipPath><clipPath id="7c8ac74ec3"><path d="M 15.722656 -4.578125 L 40.941406 8.421875 L 27.941406 33.640625 L 2.722656 20.640625 Z M 15.722656 -4.578125 "/></clipPath><clipPath id="a7997b8e27"><path d="M 16 18 L 18 18 L 18 21 L 16 21 Z M 16 18 "/></clipPath><clipPath id="f1c7694d1c"><path d="M 15.722656 -4.578125 L 40.941406 8.421875 L 27.941406 33.640625 L 2.722656 20.640625 Z M 15.722656 -4.578125 "/></clipPath><clipPath id="1f39b26ef5"><path d="M 15.722656 -4.578125 L 40.941406 8.421875 L 27.941406 33.640625 L 2.722656 20.640625 Z M 15.722656 -4.578125 "/></clipPath><clipPath id="d6fca211df"><path d="M 15.722656 -4.578125 L 40.941406 8.421875 L 27.941406 33.640625 L 2.722656 20.640625 Z M 15.722656 -4.578125 "/></clipPath><clipPath id="9d31646547"><path d="M 5 13 L 8 13 L 8 15 L 5 15 Z M 5 13 "/></clipPath><clipPath id="854ad3d63b"><path d="M 15.722656 -4.578125 L 40.941406 8.421875 L 27.941406 33.640625 L 2.722656 20.640625 Z M 15.722656 -4.578125 "/></clipPath><clipPath id="874083a0cd"><path d="M 15.722656 -4.578125 L 40.941406 8.421875 L 27.941406 33.640625 L 2.722656 20.640625 Z M 15.722656 -4.578125 "/></clipPath><clipPath id="9c2e55022d"><path d="M 15.722656 -4.578125 L 40.941406 8.421875 L 27.941406 33.640625 L 2.722656 20.640625 Z M 15.722656 -4.578125 "/></clipPath><clipPath id="781546f38b"><path d="M 14 9 L 17 9 L 17 12 L 14 12 Z M 14 9 "/></clipPath><clipPath id="c5ef7be280"><path d="M 15.722656 -4.578125 L 40.941406 8.421875 L 27.941406 33.640625 L 2.722656 20.640625 Z M 15.722656 -4.578125 "/></clipPath><clipPath id="905ce89124"><path d="M 15.722656 -4.578125 L 40.941406 8.421875 L 27.941406 33.640625 L 2.722656 20.640625 Z M 15.722656 -4.578125 "/></clipPath><clipPath id="211139cfde"><path d="M 15.722656 -4.578125 L 40.941406 8.421875 L 27.941406 33.640625 L 2.722656 20.640625 Z M 15.722656 -4.578125 "/></clipPath><clipPath id="85329db9ae"><path d="M 7 21 L 10 21 L 10 24 L 7 24 Z M 7 21 "/></clipPath><clipPath id="c585502b24"><path d="M 15.722656 -4.578125 L 40.941406 8.421875 L 27.941406 33.640625 L 2.722656 20.640625 Z M 15.722656 -4.578125 "/></clipPath><clipPath id="1e999386b0"><path d="M 15.722656 -4.578125 L 40.941406 8.421875 L 27.941406 33.640625 L 2.722656 20.640625 Z M 15.722656 -4.578125 "/></clipPath><clipPath id="e14079186c"><path d="M 15.722656 -4.578125 L 40.941406 8.421875 L 27.941406 33.640625 L 2.722656 20.640625 Z M 15.722656 -4.578125 "/></clipPath><clipPath id="a662f48ab0"><path d="M 84 79 L 89 79 L 89 84 L 84 84 Z M 84 79 "/></clipPath><clipPath id="1c5644de35"><path d="M 67.21875 73.382812 L 92.539062 75.242188 L 90.679688 100.5625 L 65.359375 98.703125 Z M 67.21875 73.382812 "/></clipPath><clipPath id="3d689d3e83"><path d="M 67.21875 73.382812 L 92.539062 75.242188 L 90.679688 100.5625 L 65.359375 98.703125 Z M 67.21875 73.382812 "/></clipPath><clipPath id="e3f0bba0fa"><path d="M 67.21875 73.382812 L 92.539062 75.242188 L 90.679688 100.5625 L 65.359375 98.703125 Z M 67.21875 73.382812 "/></clipPath><clipPath id="6d4c1d91e1"><path d="M 69 90 L 74 90 L 74 95 L 69 95 Z M 69 90 "/></clipPath><clipPath id="403bbebdc6"><path d="M 67.21875 73.382812 L 92.539062 75.242188 L 90.679688 100.5625 L 65.359375 98.703125 Z M 67.21875 73.382812 "/></clipPath><clipPath id="da05a529ed"><path d="M 67.21875 73.382812 L 92.539062 75.242188 L 90.679688 100.5625 L 65.359375 98.703125 Z M 67.21875 73.382812 "/></clipPath><clipPath id="9e0441dab2"><path d="M 67.21875 73.382812 L 92.539062 75.242188 L 90.679688 100.5625 L 65.359375 98.703125 Z M 67.21875 73.382812 "/></clipPath><clipPath id="b68b82b209"><path d="M 83 77 L 90 77 L 90 87 L 83 87 Z M 83 77 "/></clipPath><clipPath id="7bc3b060c8"><path d="M 67.21875 73.382812 L 92.539062 75.242188 L 90.679688 100.5625 L 65.359375 98.703125 Z M 67.21875 73.382812 "/></clipPath><clipPath id="fe19a2a39c"><path d="M 67.21875 73.382812 L 92.539062 75.242188 L 90.679688 100.5625 L 65.359375 98.703125 Z M 67.21875 73.382812 "/></clipPath><clipPath id="0a9b8d33c8"><path d="M 67.21875 73.382812 L 92.539062 75.242188 L 90.679688 100.5625 L 65.359375 98.703125 Z M 67.21875 73.382812 "/></clipPath><clipPath id="1aa93a8107"><path d="M 90 81 L 93 81 L 93 83 L 90 83 Z M 90 81 "/></clipPath><clipPath id="94d5570b18"><path d="M 67.21875 73.382812 L 92.539062 75.242188 L 90.679688 100.5625 L 65.359375 98.703125 Z M 67.21875 73.382812 "/></clipPath><clipPath id="98e4a08dc7"><path d="M 67.21875 73.382812 L 92.539062 75.242188 L 90.679688 100.5625 L 65.359375 98.703125 Z M 67.21875 73.382812 "/></clipPath><clipPath id="73f6fed5dc"><path d="M 67.21875 73.382812 L 92.539062 75.242188 L 90.679688 100.5625 L 65.359375 98.703125 Z M 67.21875 73.382812 "/></clipPath><clipPath id="8a67de959e"><path d="M 80 80 L 82 80 L 82 83 L 80 83 Z M 80 80 "/></clipPath><clipPath id="58db25d524"><path d="M 67.21875 73.382812 L 92.539062 75.242188 L 90.679688 100.5625 L 65.359375 98.703125 Z M 67.21875 73.382812 "/></clipPath><clipPath id="29ac699007"><path d="M 67.21875 73.382812 L 92.539062 75.242188 L 90.679688 100.5625 L 65.359375 98.703125 Z M 67.21875 73.382812 "/></clipPath><clipPath id="a0c43afa90"><path d="M 67.21875 73.382812 L 92.539062 75.242188 L 90.679688 100.5625 L 65.359375 98.703125 Z M 67.21875 73.382812 "/></clipPath><clipPath id="fd5124e2bd"><path d="M 86 74 L 88 74 L 88 77 L 86 77 Z M 86 74 "/></clipPath><clipPath id="49fc134790"><path d="M 67.21875 73.382812 L 92.539062 75.242188 L 90.679688 100.5625 L 65.359375 98.703125 Z M 67.21875 73.382812 "/></clipPath><clipPath id="844fa76646"><path d="M 67.21875 73.382812 L 92.539062 75.242188 L 90.679688 100.5625 L 65.359375 98.703125 Z M 67.21875 73.382812 "/></clipPath><clipPath id="b38a32d25e"><path d="M 67.21875 73.382812 L 92.539062 75.242188 L 90.679688 100.5625 L 65.359375 98.703125 Z M 67.21875 73.382812 "/></clipPath><clipPath id="508bcab1de"><path d="M 85 87 L 87 87 L 87 89 L 85 89 Z M 85 87 "/></clipPath><clipPath id="82c40ac553"><path d="M 67.21875 73.382812 L 92.539062 75.242188 L 90.679688 100.5625 L 65.359375 98.703125 Z M 67.21875 73.382812 "/></clipPath><clipPath id="2bc21de164"><path d="M 67.21875 73.382812 L 92.539062 75.242188 L 90.679688 100.5625 L 65.359375 98.703125 Z M 67.21875 73.382812 "/></clipPath><clipPath id="f8a82f4938"><path d="M 67.21875 73.382812 L 92.539062 75.242188 L 90.679688 100.5625 L 65.359375 98.703125 Z M 67.21875 73.382812 "/></clipPath><clipPath id="4719580db9"><path d="M 68 87 L 75 87 L 75 97 L 68 97 Z M 68 87 "/></clipPath><clipPath id="6df228077d"><path d="M 67.21875 73.382812 L 92.539062 75.242188 L 90.679688 100.5625 L 65.359375 98.703125 Z M 67.21875 73.382812 "/></clipPath><clipPath id="ee5e50fcd2"><path d="M 67.21875 73.382812 L 92.539062 75.242188 L 90.679688 100.5625 L 65.359375 98.703125 Z M 67.21875 73.382812 "/></clipPath><clipPath id="da5387bc4e"><path d="M 67.21875 73.382812 L 92.539062 75.242188 L 90.679688 100.5625 L 65.359375 98.703125 Z M 67.21875 73.382812 "/></clipPath><clipPath id="db6b936856"><path d="M 75 91 L 78 91 L 78 94 L 75 94 Z M 75 91 "/></clipPath><clipPath id="1569cc76ab"><path d="M 67.21875 73.382812 L 92.539062 75.242188 L 90.679688 100.5625 L 65.359375 98.703125 Z M 67.21875 73.382812 "/></clipPath><clipPath id="6e82af5e9f"><path d="M 67.21875 73.382812 L 92.539062 75.242188 L 90.679688 100.5625 L 65.359375 98.703125 Z M 67.21875 73.382812 "/></clipPath><clipPath id="8a51cb3dbf"><path d="M 67.21875 73.382812 L 92.539062 75.242188 L 90.679688 100.5625 L 65.359375 98.703125 Z M 67.21875 73.382812 "/></clipPath><clipPath id="0a7f0877bd"><path d="M 65 91 L 68 91 L 68 93 L 65 93 Z M 65 91 "/></clipPath><clipPath id="1ddd122af1"><path d="M 67.21875 73.382812 L 92.539062 75.242188 L 90.679688 100.5625 L 65.359375 98.703125 Z M 67.21875 73.382812 "/></clipPath><clipPath id="cddd8920f8"><path d="M 67.21875 73.382812 L 92.539062 75.242188 L 90.679688 100.5625 L 65.359375 98.703125 Z M 67.21875 73.382812 "/></clipPath><clipPath id="88547921da"><path d="M 67.21875 73.382812 L 92.539062 75.242188 L 90.679688 100.5625 L 65.359375 98.703125 Z M 67.21875 73.382812 "/></clipPath><clipPath id="28fcc85118"><path d="M 71 85 L 73 85 L 73 87 L 71 87 Z M 71 85 "/></clipPath><clipPath id="cc316d70c9"><path d="M 67.21875 73.382812 L 92.539062 75.242188 L 90.679688 100.5625 L 65.359375 98.703125 Z M 67.21875 73.382812 "/></clipPath><clipPath id="9d81300fbf"><path d="M 67.21875 73.382812 L 92.539062 75.242188 L 90.679688 100.5625 L 65.359375 98.703125 Z M 67.21875 73.382812 "/></clipPath><clipPath id="5ce26873ea"><path d="M 67.21875 73.382812 L 92.539062 75.242188 L 90.679688 100.5625 L 65.359375 98.703125 Z M 67.21875 73.382812 "/></clipPath><clipPath id="df7942bb39"><path d="M 70 97 L 72 97 L 72 100 L 70 100 Z M 70 97 "/></clipPath><clipPath id="7ef1b2c0e9"><path d="M 67.21875 73.382812 L 92.539062 75.242188 L 90.679688 100.5625 L 65.359375 98.703125 Z M 67.21875 73.382812 "/></clipPath><clipPath id="a59929083e"><path d="M 67.21875 73.382812 L 92.539062 75.242188 L 90.679688 100.5625 L 65.359375 98.703125 Z M 67.21875 73.382812 "/></clipPath><clipPath id="ed371c8064"><path d="M 67.21875 73.382812 L 92.539062 75.242188 L 90.679688 100.5625 L 65.359375 98.703125 Z M 67.21875 73.382812 "/></clipPath><clipPath id="959f57525f"><path d="M 23 75 L 29 75 L 29 82 L 23 82 Z M 23 75 "/></clipPath><clipPath id="80d88b9580"><path d="M 5.59375 83.402344 L 26.769531 69.398438 L 40.773438 90.570312 L 19.601562 104.578125 Z M 5.59375 83.402344 "/></clipPath><clipPath id="1ffdc71b6e"><path d="M 5.59375 83.402344 L 26.769531 69.398438 L 40.773438 90.570312 L 19.601562 104.578125 Z M 5.59375 83.402344 "/></clipPath><clipPath id="3a354151e6"><path d="M 5.59375 83.402344 L 26.769531 69.398438 L 40.773438 90.570312 L 19.601562 104.578125 Z M 5.59375 83.402344 "/></clipPath><clipPath id="715025e7a6"><path d="M 17 92 L 24 92 L 24 99 L 17 99 Z M 17 92 "/></clipPath><clipPath id="bcc0cc114e"><path d="M 5.59375 83.402344 L 26.769531 69.398438 L 40.773438 90.570312 L 19.601562 104.578125 Z M 5.59375 83.402344 "/></clipPath><clipPath id="1b8a78e4d9"><path d="M 5.59375 83.402344 L 26.769531 69.398438 L 40.773438 90.570312 L 19.601562 104.578125 Z M 5.59375 83.402344 "/></clipPath><clipPath id="9a888d3cb1"><path d="M 5.59375 83.402344 L 26.769531 69.398438 L 40.773438 90.570312 L 19.601562 104.578125 Z M 5.59375 83.402344 "/></clipPath><clipPath id="e74577f0a9"><path d="M 22 74 L 29 74 L 29 83 L 22 83 Z M 22 74 "/></clipPath><clipPath id="d541cb9ef7"><path d="M 5.59375 83.402344 L 26.769531 69.398438 L 40.773438 90.570312 L 19.601562 104.578125 Z M 5.59375 83.402344 "/></clipPath><clipPath id="923c0f57f1"><path d="M 5.59375 83.402344 L 26.769531 69.398438 L 40.773438 90.570312 L 19.601562 104.578125 Z M 5.59375 83.402344 "/></clipPath><clipPath id="c81aee0476"><path d="M 5.59375 83.402344 L 26.769531 69.398438 L 40.773438 90.570312 L 19.601562 104.578125 Z M 5.59375 83.402344 "/></clipPath><clipPath id="44dc9e714b"><path d="M 29 74 L 31 74 L 31 77 L 29 77 Z M 29 74 "/></clipPath><clipPath id="268cdc2e60"><path d="M 5.59375 83.402344 L 26.769531 69.398438 L 40.773438 90.570312 L 19.601562 104.578125 Z M 5.59375 83.402344 "/></clipPath><clipPath id="85164c8c72"><path d="M 5.59375 83.402344 L 26.769531 69.398438 L 40.773438 90.570312 L 19.601562 104.578125 Z M 5.59375 83.402344 "/></clipPath><clipPath id="85ac288bad"><path d="M 5.59375 83.402344 L 26.769531 69.398438 L 40.773438 90.570312 L 19.601562 104.578125 Z M 5.59375 83.402344 "/></clipPath><clipPath id="4b18e16f9d"><path d="M 20 80 L 23 80 L 23 83 L 20 83 Z M 20 80 "/></clipPath><clipPath id="4a5470d845"><path d="M 5.59375 83.402344 L 26.769531 69.398438 L 40.773438 90.570312 L 19.601562 104.578125 Z M 5.59375 83.402344 "/></clipPath><clipPath id="420dd40387"><path d="M 5.59375 83.402344 L 26.769531 69.398438 L 40.773438 90.570312 L 19.601562 104.578125 Z M 5.59375 83.402344 "/></clipPath><clipPath id="b730ab3b4d"><path d="M 5.59375 83.402344 L 26.769531 69.398438 L 40.773438 90.570312 L 19.601562 104.578125 Z M 5.59375 83.402344 "/></clipPath><clipPath id="d71c56d0fd"><path d="M 21 72 L 24 72 L 24 74 L 21 74 Z M 21 72 "/></clipPath><clipPath id="8a955af9d2"><path d="M 5.59375 83.402344 L 26.769531 69.398438 L 40.773438 90.570312 L 19.601562 104.578125 Z M 5.59375 83.402344 "/></clipPath><clipPath id="5220e771af"><path d="M 5.59375 83.402344 L 26.769531 69.398438 L 40.773438 90.570312 L 19.601562 104.578125 Z M 5.59375 83.402344 "/></clipPath><clipPath id="4b63420fc2"><path d="M 5.59375 83.402344 L 26.769531 69.398438 L 40.773438 90.570312 L 19.601562 104.578125 Z M 5.59375 83.402344 "/></clipPath><clipPath id="5696c3dc39"><path d="M 28 82 L 31 82 L 31 85 L 28 85 Z M 28 82 "/></clipPath><clipPath id="27374b43d4"><path d="M 5.59375 83.402344 L 26.769531 69.398438 L 40.773438 90.570312 L 19.601562 104.578125 Z M 5.59375 83.402344 "/></clipPath><clipPath id="e5414ae96f"><path d="M 5.59375 83.402344 L 26.769531 69.398438 L 40.773438 90.570312 L 19.601562 104.578125 Z M 5.59375 83.402344 "/></clipPath><clipPath id="c66f7ab6e9"><path d="M 5.59375 83.402344 L 26.769531 69.398438 L 40.773438 90.570312 L 19.601562 104.578125 Z M 5.59375 83.402344 "/></clipPath><clipPath id="b685bc5b36"><path d="M 17 91 L 24 91 L 24 100 L 17 100 Z M 17 91 "/></clipPath><clipPath id="1dc13b35d0"><path d="M 5.59375 83.402344 L 26.769531 69.398438 L 40.773438 90.570312 L 19.601562 104.578125 Z M 5.59375 83.402344 "/></clipPath><clipPath id="424b409937"><path d="M 5.59375 83.402344 L 26.769531 69.398438 L 40.773438 90.570312 L 19.601562 104.578125 Z M 5.59375 83.402344 "/></clipPath><clipPath id="fae1489af5"><path d="M 5.59375 83.402344 L 26.769531 69.398438 L 40.773438 90.570312 L 19.601562 104.578125 Z M 5.59375 83.402344 "/></clipPath><clipPath id="62073c34d4"><path d="M 23 91 L 26 91 L 26 94 L 23 94 Z M 23 91 "/></clipPath><clipPath id="0bf2a24c7b"><path d="M 5.59375 83.402344 L 26.769531 69.398438 L 40.773438 90.570312 L 19.601562 104.578125 Z M 5.59375 83.402344 "/></clipPath><clipPath id="fcdbb8221b"><path d="M 5.59375 83.402344 L 26.769531 69.398438 L 40.773438 90.570312 L 19.601562 104.578125 Z M 5.59375 83.402344 "/></clipPath><clipPath id="88e45fdfaa"><path d="M 5.59375 83.402344 L 26.769531 69.398438 L 40.773438 90.570312 L 19.601562 104.578125 Z M 5.59375 83.402344 "/></clipPath><clipPath id="d02d598663"><path d="M 15 97 L 18 97 L 18 100 L 15 100 Z M 15 97 "/></clipPath><clipPath id="c0b709f0b4"><path d="M 5.59375 83.402344 L 26.769531 69.398438 L 40.773438 90.570312 L 19.601562 104.578125 Z M 5.59375 83.402344 "/></clipPath><clipPath id="56a658831b"><path d="M 5.59375 83.402344 L 26.769531 69.398438 L 40.773438 90.570312 L 19.601562 104.578125 Z M 5.59375 83.402344 "/></clipPath><clipPath id="38ac622024"><path d="M 5.59375 83.402344 L 26.769531 69.398438 L 40.773438 90.570312 L 19.601562 104.578125 Z M 5.59375 83.402344 "/></clipPath><clipPath id="76087755d1"><path d="M 16 89 L 18 89 L 18 92 L 16 92 Z M 16 89 "/></clipPath><clipPath id="633b162035"><path d="M 5.59375 83.402344 L 26.769531 69.398438 L 40.773438 90.570312 L 19.601562 104.578125 Z M 5.59375 83.402344 "/></clipPath><clipPath id="2b883e9e89"><path d="M 5.59375 83.402344 L 26.769531 69.398438 L 40.773438 90.570312 L 19.601562 104.578125 Z M 5.59375 83.402344 "/></clipPath><clipPath id="284772eae6"><path d="M 5.59375 83.402344 L 26.769531 69.398438 L 40.773438 90.570312 L 19.601562 104.578125 Z M 5.59375 83.402344 "/></clipPath><clipPath id="92bb09c8e7"><path d="M 23 100 L 25 100 L 25 102 L 23 102 Z M 23 100 "/></clipPath><clipPath id="5a52dc728c"><path d="M 5.59375 83.402344 L 26.769531 69.398438 L 40.773438 90.570312 L 19.601562 104.578125 Z M 5.59375 83.402344 "/></clipPath><clipPath id="090aecee0e"><path d="M 5.59375 83.402344 L 26.769531 69.398438 L 40.773438 90.570312 L 19.601562 104.578125 Z M 5.59375 83.402344 "/></clipPath><clipPath id="49e8c5ecf4"><path d="M 5.59375 83.402344 L 26.769531 69.398438 L 40.773438 90.570312 L 19.601562 104.578125 Z M 5.59375 83.402344 "/></clipPath><clipPath id="1d761316f8"><path d="M 74 29 L 78 29 L 78 34 L 74 34 Z M 74 29 "/></clipPath><clipPath id="d6ccc795b9"><path d="M 61.753906 34.730469 L 76.703125 24.847656 L 86.589844 39.792969 L 71.640625 49.679688 Z M 61.753906 34.730469 "/></clipPath><clipPath id="0db47c2289"><path d="M 61.753906 34.730469 L 76.703125 24.847656 L 86.589844 39.792969 L 71.640625 49.679688 Z M 61.753906 34.730469 "/></clipPath><clipPath id="8c65d3e6da"><path d="M 61.753906 34.730469 L 76.703125 24.847656 L 86.589844 39.792969 L 71.640625 49.679688 Z M 61.753906 34.730469 "/></clipPath><clipPath id="c2a89f5499"><path d="M 70 41 L 75 41 L 75 46 L 70 46 Z M 70 41 "/></clipPath><clipPath id="3fd4febf79"><path d="M 61.753906 34.730469 L 76.703125 24.847656 L 86.589844 39.792969 L 71.640625 49.679688 Z M 61.753906 34.730469 "/></clipPath><clipPath id="554f20704d"><path d="M 61.753906 34.730469 L 76.703125 24.847656 L 86.589844 39.792969 L 71.640625 49.679688 Z M 61.753906 34.730469 "/></clipPath><clipPath id="c9904786e4"><path d="M 61.753906 34.730469 L 76.703125 24.847656 L 86.589844 39.792969 L 71.640625 49.679688 Z M 61.753906 34.730469 "/></clipPath><clipPath id="6f7816f581"><path d="M 73 28 L 79 28 L 79 35 L 73 35 Z M 73 28 "/></clipPath><clipPath id="41a74570b5"><path d="M 61.753906 34.730469 L 76.703125 24.847656 L 86.589844 39.792969 L 71.640625 49.679688 Z M 61.753906 34.730469 "/></clipPath><clipPath id="6db0c2af47"><path d="M 61.753906 34.730469 L 76.703125 24.847656 L 86.589844 39.792969 L 71.640625 49.679688 Z M 61.753906 34.730469 "/></clipPath><clipPath id="f4b4f6c559"><path d="M 61.753906 34.730469 L 76.703125 24.847656 L 86.589844 39.792969 L 71.640625 49.679688 Z M 61.753906 34.730469 "/></clipPath><clipPath id="90cc539e73"><path d="M 78 28 L 80 28 L 80 30 L 78 30 Z M 78 28 "/></clipPath><clipPath id="e40a0c11d2"><path d="M 61.753906 34.730469 L 76.703125 24.847656 L 86.589844 39.792969 L 71.640625 49.679688 Z M 61.753906 34.730469 "/></clipPath><clipPath id="3c69353957"><path d="M 61.753906 34.730469 L 76.703125 24.847656 L 86.589844 39.792969 L 71.640625 49.679688 Z M 61.753906 34.730469 "/></clipPath><clipPath id="8f764861ee"><path d="M 61.753906 34.730469 L 76.703125 24.847656 L 86.589844 39.792969 L 71.640625 49.679688 Z M 61.753906 34.730469 "/></clipPath><clipPath id="f06e71d996"><path d="M 72 32 L 74 32 L 74 34 L 72 34 Z M 72 32 "/></clipPath><clipPath id="b9131c7648"><path d="M 61.753906 34.730469 L 76.703125 24.847656 L 86.589844 39.792969 L 71.640625 49.679688 Z M 61.753906 34.730469 "/></clipPath><clipPath id="79081291b3"><path d="M 61.753906 34.730469 L 76.703125 24.847656 L 86.589844 39.792969 L 71.640625 49.679688 Z M 61.753906 34.730469 "/></clipPath><clipPath id="2d394d44ce"><path d="M 61.753906 34.730469 L 76.703125 24.847656 L 86.589844 39.792969 L 71.640625 49.679688 Z M 61.753906 34.730469 "/></clipPath><clipPath id="8f39fb17fc"><path d="M 72 26 L 75 26 L 75 29 L 72 29 Z M 72 26 "/></clipPath><clipPath id="9dd6d05fe7"><path d="M 61.753906 34.730469 L 76.703125 24.847656 L 86.589844 39.792969 L 71.640625 49.679688 Z M 61.753906 34.730469 "/></clipPath><clipPath id="7165969b6e"><path d="M 61.753906 34.730469 L 76.703125 24.847656 L 86.589844 39.792969 L 71.640625 49.679688 Z M 61.753906 34.730469 "/></clipPath><clipPath id="d4bb192240"><path d="M 61.753906 34.730469 L 76.703125 24.847656 L 86.589844 39.792969 L 71.640625 49.679688 Z M 61.753906 34.730469 "/></clipPath><clipPath id="aaf0d10a67"><path d="M 77 34 L 80 34 L 80 36 L 77 36 Z M 77 34 "/></clipPath><clipPath id="a7f56deb78"><path d="M 61.753906 34.730469 L 76.703125 24.847656 L 86.589844 39.792969 L 71.640625 49.679688 Z M 61.753906 34.730469 "/></clipPath><clipPath id="9ad9815d76"><path d="M 61.753906 34.730469 L 76.703125 24.847656 L 86.589844 39.792969 L 71.640625 49.679688 Z M 61.753906 34.730469 "/></clipPath><clipPath id="5f877ab15a"><path d="M 61.753906 34.730469 L 76.703125 24.847656 L 86.589844 39.792969 L 71.640625 49.679688 Z M 61.753906 34.730469 "/></clipPath><clipPath id="8d84e42e99"><path d="M 70 40 L 75 40 L 75 47 L 70 47 Z M 70 40 "/></clipPath><clipPath id="2f92ce5234"><path d="M 61.753906 34.730469 L 76.703125 24.847656 L 86.589844 39.792969 L 71.640625 49.679688 Z M 61.753906 34.730469 "/></clipPath><clipPath id="62dbfa0745"><path d="M 61.753906 34.730469 L 76.703125 24.847656 L 86.589844 39.792969 L 71.640625 49.679688 Z M 61.753906 34.730469 "/></clipPath><clipPath id="22e9ce52cd"><path d="M 61.753906 34.730469 L 76.703125 24.847656 L 86.589844 39.792969 L 71.640625 49.679688 Z M 61.753906 34.730469 "/></clipPath><clipPath id="2eabace1cb"><path d="M 74 40 L 76 40 L 76 42 L 74 42 Z M 74 40 "/></clipPath><clipPath id="01a8c584ce"><path d="M 61.753906 34.730469 L 76.703125 24.847656 L 86.589844 39.792969 L 71.640625 49.679688 Z M 61.753906 34.730469 "/></clipPath><clipPath id="21017463a7"><path d="M 61.753906 34.730469 L 76.703125 24.847656 L 86.589844 39.792969 L 71.640625 49.679688 Z M 61.753906 34.730469 "/></clipPath><clipPath id="b85a010789"><path d="M 61.753906 34.730469 L 76.703125 24.847656 L 86.589844 39.792969 L 71.640625 49.679688 Z M 61.753906 34.730469 "/></clipPath><clipPath id="e70b5e61a7"><path d="M 68 44 L 70 44 L 70 46 L 68 46 Z M 68 44 "/></clipPath><clipPath id="33a1085986"><path d="M 61.753906 34.730469 L 76.703125 24.847656 L 86.589844 39.792969 L 71.640625 49.679688 Z M 61.753906 34.730469 "/></clipPath><clipPath id="634b60a735"><path d="M 61.753906 34.730469 L 76.703125 24.847656 L 86.589844 39.792969 L 71.640625 49.679688 Z M 61.753906 34.730469 "/></clipPath><clipPath id="d7fed3bcab"><path d="M 61.753906 34.730469 L 76.703125 24.847656 L 86.589844 39.792969 L 71.640625 49.679688 Z M 61.753906 34.730469 "/></clipPath><clipPath id="ed96b08d8f"><path d="M 69 38 L 71 38 L 71 41 L 69 41 Z M 69 38 "/></clipPath><clipPath id="7b1ea3bcb5"><path d="M 61.753906 34.730469 L 76.703125 24.847656 L 86.589844 39.792969 L 71.640625 49.679688 Z M 61.753906 34.730469 "/></clipPath><clipPath id="c646f46d07"><path d="M 61.753906 34.730469 L 76.703125 24.847656 L 86.589844 39.792969 L 71.640625 49.679688 Z M 61.753906 34.730469 "/></clipPath><clipPath id="fd6562bd33"><path d="M 61.753906 34.730469 L 76.703125 24.847656 L 86.589844 39.792969 L 71.640625 49.679688 Z M 61.753906 34.730469 "/></clipPath><clipPath id="f6765aae21"><path d="M 74 46 L 76 46 L 76 48 L 74 48 Z M 74 46 "/></clipPath><clipPath id="92a1bf3ee6"><path d="M 61.753906 34.730469 L 76.703125 24.847656 L 86.589844 39.792969 L 71.640625 49.679688 Z M 61.753906 34.730469 "/></clipPath><clipPath id="fe05f9e61d"><path d="M 61.753906 34.730469 L 76.703125 24.847656 L 86.589844 39.792969 L 71.640625 49.679688 Z M 61.753906 34.730469 "/></clipPath><clipPath id="2c718bf7a8"><path d="M 61.753906 34.730469 L 76.703125 24.847656 L 86.589844 39.792969 L 71.640625 49.679688 Z M 61.753906 34.730469 "/></clipPath></defs><g id="27d125c107"><g clip-rule="nonzero" clip-path="url(#3de0cd0135)"><g clip-rule="nonzero" clip-path="url(#bb22372160)"><g clip-rule="nonzero" clip-path="url(#f308442d85)"><g clip-rule="nonzero" clip-path="url(#fbdd6a905f)"><path style=" stroke:none;fill-rule:nonzero;fill:#f9ebaa;fill-opacity:1;" d="M 30.777344 9.566406 L 34.558594 11.515625 L 32.609375 15.296875 L 28.828125 13.347656 Z M 30.777344 9.566406 "/></g></g></g></g><g clip-rule="nonzero" clip-path="url(#7b528eddc2)"><g clip-rule="nonzero" clip-path="url(#2271fcf901)"><g clip-rule="nonzero" clip-path="url(#9edb094c9b)"><g clip-rule="nonzero" clip-path="url(#daa58825e8)"><path style=" stroke:none;fill-rule:nonzero;fill:#f9ebaa;fill-opacity:1;" d="M 11.054688 13.765625 L 14.839844 15.714844 L 12.886719 19.496094 L 9.105469 17.546875 Z M 11.054688 13.765625 "/></g></g></g></g><g clip-rule="nonzero" clip-path="url(#7f5029a1d6)"><g clip-rule="nonzero" clip-path="url(#4194a9d9c4)"><g clip-rule="nonzero" clip-path="url(#e6d98debce)"><g clip-rule="nonzero" clip-path="url(#fe91d60d50)"><path style=" stroke:none;fill-rule:nonzero;fill:#f6db6e;fill-opacity:1;" d="M 34.597656 8.34375 L 33.335938 7.695312 L 31.386719 11.476562 L 28.867188 10.175781 L 28.214844 11.4375 L 30.738281 12.738281 L 28.789062 16.519531 L 30.046875 17.171875 L 32 13.386719 L 34.519531 14.6875 L 35.171875 13.425781 L 32.648438 12.125 Z M 34.597656 8.34375 "/></g></g></g></g><g clip-rule="nonzero" clip-path="url(#8738623193)"><g clip-rule="nonzero" clip-path="url(#97bbb8a050)"><g clip-rule="nonzero" clip-path="url(#87a6b0a778)"><g clip-rule="nonzero" clip-path="url(#862e0542a3)"><path style=" stroke:none;fill-rule:nonzero;fill:#f6db6e;fill-opacity:1;" d="M 36.429688 14.078125 L 37.691406 14.726562 L 37.042969 15.988281 L 35.78125 15.335938 Z M 36.429688 14.078125 "/></g></g></g></g><g clip-rule="nonzero" clip-path="url(#44f39a8479)"><g clip-rule="nonzero" clip-path="url(#b1120a9207)"><g clip-rule="nonzero" clip-path="url(#72e926b413)"><g clip-rule="nonzero" clip-path="url(#1490eb3d4f)"><path style=" stroke:none;fill-rule:nonzero;fill:#f6db6e;fill-opacity:1;" d="M 26.34375 8.875 L 27.605469 9.527344 L 26.953125 10.789062 L 25.691406 10.136719 Z M 26.34375 8.875 "/></g></g></g></g><g clip-rule="nonzero" clip-path="url(#7a7bb549d7)"><g clip-rule="nonzero" clip-path="url(#b3e780f6ce)"><g clip-rule="nonzero" clip-path="url(#cbab642b28)"><g clip-rule="nonzero" clip-path="url(#a7c27a2181)"><path style=" stroke:none;fill-rule:nonzero;fill:#f6db6e;fill-opacity:1;" d="M 34.636719 5.171875 L 35.898438 5.820312 L 35.25 7.082031 L 33.988281 6.433594 Z M 34.636719 5.171875 "/></g></g></g></g><g clip-rule="nonzero" clip-path="url(#9f9ed6cb9f)"><g clip-rule="nonzero" clip-path="url(#0d058268da)"><g clip-rule="nonzero" clip-path="url(#68ba7be52e)"><g clip-rule="nonzero" clip-path="url(#85f7d58b31)"><path style=" stroke:none;fill-rule:nonzero;fill:#f6db6e;fill-opacity:1;" d="M 28.136719 17.78125 L 29.398438 18.433594 L 28.75 19.691406 L 27.488281 19.042969 Z M 28.136719 17.78125 "/></g></g></g></g><g clip-rule="nonzero" clip-path="url(#d70a73d250)"><g clip-rule="nonzero" clip-path="url(#cd5cd30811)"><g clip-rule="nonzero" clip-path="url(#1a6384082d)"><g clip-rule="nonzero" clip-path="url(#7c8ac74ec3)"><path style=" stroke:none;fill-rule:nonzero;fill:#f6db6e;fill-opacity:1;" d="M 14.878906 12.542969 L 13.617188 11.894531 L 11.667969 15.675781 L 9.144531 14.375 L 8.492188 15.636719 L 11.015625 16.9375 L 9.066406 20.71875 L 10.328125 21.371094 L 12.277344 17.585938 L 14.800781 18.886719 L 15.449219 17.625 L 12.925781 16.324219 Z M 14.878906 12.542969 "/></g></g></g></g><g clip-rule="nonzero" clip-path="url(#a7997b8e27)"><g clip-rule="nonzero" clip-path="url(#f1c7694d1c)"><g clip-rule="nonzero" clip-path="url(#1f39b26ef5)"><g clip-rule="nonzero" clip-path="url(#d6fca211df)"><path style=" stroke:none;fill-rule:nonzero;fill:#f6db6e;fill-opacity:1;" d="M 16.710938 18.277344 L 17.972656 18.925781 L 17.320312 20.1875 L 16.058594 19.535156 Z M 16.710938 18.277344 "/></g></g></g></g><g clip-rule="nonzero" clip-path="url(#9d31646547)"><g clip-rule="nonzero" clip-path="url(#854ad3d63b)"><g clip-rule="nonzero" clip-path="url(#874083a0cd)"><g clip-rule="nonzero" clip-path="url(#9c2e55022d)"><path style=" stroke:none;fill-rule:nonzero;fill:#f6db6e;fill-opacity:1;" d="M 6.621094 13.074219 L 7.882812 13.726562 L 7.234375 14.988281 L 5.972656 14.335938 Z M 6.621094 13.074219 "/></g></g></g></g><g clip-rule="nonzero" clip-path="url(#781546f38b)"><g clip-rule="nonzero" clip-path="url(#c5ef7be280)"><g clip-rule="nonzero" clip-path="url(#905ce89124)"><g clip-rule="nonzero" clip-path="url(#211139cfde)"><path style=" stroke:none;fill-rule:nonzero;fill:#f6db6e;fill-opacity:1;" d="M 14.917969 9.371094 L 16.175781 10.019531 L 15.527344 11.28125 L 14.265625 10.632812 Z M 14.917969 9.371094 "/></g></g></g></g><g clip-rule="nonzero" clip-path="url(#85329db9ae)"><g clip-rule="nonzero" clip-path="url(#c585502b24)"><g clip-rule="nonzero" clip-path="url(#1e999386b0)"><g clip-rule="nonzero" clip-path="url(#e14079186c)"><path style=" stroke:none;fill-rule:nonzero;fill:#f6db6e;fill-opacity:1;" d="M 8.417969 21.980469 L 9.675781 22.632812 L 9.027344 23.890625 L 7.765625 23.242188 Z M 8.417969 21.980469 "/></g></g></g></g><g clip-rule="nonzero" clip-path="url(#a662f48ab0)"><g clip-rule="nonzero" clip-path="url(#1c5644de35)"><g clip-rule="nonzero" clip-path="url(#3d689d3e83)"><g clip-rule="nonzero" clip-path="url(#e3f0bba0fa)"><path style=" stroke:none;fill-rule:nonzero;fill:#f9ebaa;fill-opacity:1;" d="M 84.570312 79.75 L 88.371094 80.027344 L 88.089844 83.824219 L 84.292969 83.546875 Z M 84.570312 79.75 "/></g></g></g></g><g clip-rule="nonzero" clip-path="url(#6d4c1d91e1)"><g clip-rule="nonzero" clip-path="url(#403bbebdc6)"><g clip-rule="nonzero" clip-path="url(#da05a529ed)"><g clip-rule="nonzero" clip-path="url(#9e0441dab2)"><path style=" stroke:none;fill-rule:nonzero;fill:#f9ebaa;fill-opacity:1;" d="M 69.808594 90.121094 L 73.605469 90.398438 L 73.328125 94.195312 L 69.53125 93.917969 Z M 69.808594 90.121094 "/></g></g></g></g><g clip-rule="nonzero" clip-path="url(#b68b82b209)"><g clip-rule="nonzero" clip-path="url(#7bc3b060c8)"><g clip-rule="nonzero" clip-path="url(#fe19a2a39c)"><g clip-rule="nonzero" clip-path="url(#0a9b8d33c8)"><path style=" stroke:none;fill-rule:nonzero;fill:#f6db6e;fill-opacity:1;" d="M 87.289062 77.402344 L 86.023438 77.308594 L 85.746094 81.109375 L 83.210938 80.921875 L 83.121094 82.1875 L 85.652344 82.375 L 85.371094 86.171875 L 86.636719 86.265625 L 86.917969 82.46875 L 89.449219 82.652344 L 89.542969 81.386719 L 87.011719 81.199219 Z M 87.289062 77.402344 "/></g></g></g></g><g clip-rule="nonzero" clip-path="url(#1aa93a8107)"><g clip-rule="nonzero" clip-path="url(#94d5570b18)"><g clip-rule="nonzero" clip-path="url(#98e4a08dc7)"><g clip-rule="nonzero" clip-path="url(#73f6fed5dc)"><path style=" stroke:none;fill-rule:nonzero;fill:#f6db6e;fill-opacity:1;" d="M 90.808594 81.480469 L 92.074219 81.574219 L 91.980469 82.839844 L 90.714844 82.746094 Z M 90.808594 81.480469 "/></g></g></g></g><g clip-rule="nonzero" clip-path="url(#8a67de959e)"><g clip-rule="nonzero" clip-path="url(#58db25d524)"><g clip-rule="nonzero" clip-path="url(#29ac699007)"><g clip-rule="nonzero" clip-path="url(#a0c43afa90)"><path style=" stroke:none;fill-rule:nonzero;fill:#f6db6e;fill-opacity:1;" d="M 80.679688 80.734375 L 81.945312 80.828125 L 81.851562 82.09375 L 80.585938 82.003906 Z M 80.679688 80.734375 "/></g></g></g></g><g clip-rule="nonzero" clip-path="url(#fd5124e2bd)"><g clip-rule="nonzero" clip-path="url(#49fc134790)"><g clip-rule="nonzero" clip-path="url(#844fa76646)"><g clip-rule="nonzero" clip-path="url(#b38a32d25e)"><path style=" stroke:none;fill-rule:nonzero;fill:#f6db6e;fill-opacity:1;" d="M 86.210938 74.777344 L 87.476562 74.871094 L 87.382812 76.136719 L 86.117188 76.042969 Z M 86.210938 74.777344 "/></g></g></g></g><g clip-rule="nonzero" clip-path="url(#508bcab1de)"><g clip-rule="nonzero" clip-path="url(#82c40ac553)"><g clip-rule="nonzero" clip-path="url(#2bc21de164)"><g clip-rule="nonzero" clip-path="url(#f8a82f4938)"><path style=" stroke:none;fill-rule:nonzero;fill:#f6db6e;fill-opacity:1;" d="M 85.28125 87.4375 L 86.546875 87.53125 L 86.453125 88.796875 L 85.1875 88.703125 Z M 85.28125 87.4375 "/></g></g></g></g><g clip-rule="nonzero" clip-path="url(#4719580db9)"><g clip-rule="nonzero" clip-path="url(#6df228077d)"><g clip-rule="nonzero" clip-path="url(#ee5e50fcd2)"><g clip-rule="nonzero" clip-path="url(#da5387bc4e)"><path style=" stroke:none;fill-rule:nonzero;fill:#f6db6e;fill-opacity:1;" d="M 72.527344 87.773438 L 71.261719 87.679688 L 70.980469 91.480469 L 68.449219 91.292969 L 68.355469 92.558594 L 70.890625 92.746094 L 70.609375 96.542969 L 71.875 96.636719 L 72.15625 92.835938 L 74.6875 93.023438 L 74.78125 91.757812 L 72.246094 91.570312 Z M 72.527344 87.773438 "/></g></g></g></g><g clip-rule="nonzero" clip-path="url(#db6b936856)"><g clip-rule="nonzero" clip-path="url(#1569cc76ab)"><g clip-rule="nonzero" clip-path="url(#6e82af5e9f)"><g clip-rule="nonzero" clip-path="url(#8a51cb3dbf)"><path style=" stroke:none;fill-rule:nonzero;fill:#f6db6e;fill-opacity:1;" d="M 76.046875 91.851562 L 77.3125 91.945312 L 77.21875 93.210938 L 75.953125 93.117188 Z M 76.046875 91.851562 "/></g></g></g></g><g clip-rule="nonzero" clip-path="url(#0a7f0877bd)"><g clip-rule="nonzero" clip-path="url(#1ddd122af1)"><g clip-rule="nonzero" clip-path="url(#cddd8920f8)"><g clip-rule="nonzero" clip-path="url(#88547921da)"><path style=" stroke:none;fill-rule:nonzero;fill:#f6db6e;fill-opacity:1;" d="M 65.917969 91.105469 L 67.183594 91.199219 L 67.089844 92.464844 L 65.824219 92.371094 Z M 65.917969 91.105469 "/></g></g></g></g><g clip-rule="nonzero" clip-path="url(#28fcc85118)"><g clip-rule="nonzero" clip-path="url(#cc316d70c9)"><g clip-rule="nonzero" clip-path="url(#9d81300fbf)"><g clip-rule="nonzero" clip-path="url(#5ce26873ea)"><path style=" stroke:none;fill-rule:nonzero;fill:#f6db6e;fill-opacity:1;" d="M 71.445312 85.148438 L 72.714844 85.242188 L 72.621094 86.507812 L 71.355469 86.414062 Z M 71.445312 85.148438 "/></g></g></g></g><g clip-rule="nonzero" clip-path="url(#df7942bb39)"><g clip-rule="nonzero" clip-path="url(#7ef1b2c0e9)"><g clip-rule="nonzero" clip-path="url(#a59929083e)"><g clip-rule="nonzero" clip-path="url(#ed371c8064)"><path style=" stroke:none;fill-rule:nonzero;fill:#f6db6e;fill-opacity:1;" d="M 70.515625 97.808594 L 71.78125 97.902344 L 71.691406 99.167969 L 70.425781 99.074219 Z M 70.515625 97.808594 "/></g></g></g></g><g clip-rule="nonzero" clip-path="url(#959f57525f)"><g clip-rule="nonzero" clip-path="url(#80d88b9580)"><g clip-rule="nonzero" clip-path="url(#1ffdc71b6e)"><g clip-rule="nonzero" clip-path="url(#3a354151e6)"><path style=" stroke:none;fill-rule:nonzero;fill:#f9ebaa;fill-opacity:1;" d="M 23.21875 77.832031 L 26.394531 75.730469 L 28.496094 78.910156 L 25.320312 81.007812 Z M 23.21875 77.832031 "/></g></g></g></g><g clip-rule="nonzero" clip-path="url(#715025e7a6)"><g clip-rule="nonzero" clip-path="url(#bcc0cc114e)"><g clip-rule="nonzero" clip-path="url(#1b8a78e4d9)"><g clip-rule="nonzero" clip-path="url(#9a888d3cb1)"><path style=" stroke:none;fill-rule:nonzero;fill:#f9ebaa;fill-opacity:1;" d="M 17.875 95.066406 L 21.050781 92.964844 L 23.152344 96.140625 L 19.976562 98.242188 Z M 17.875 95.066406 "/></g></g></g></g><g clip-rule="nonzero" clip-path="url(#e74577f0a9)"><g clip-rule="nonzero" clip-path="url(#d541cb9ef7)"><g clip-rule="nonzero" clip-path="url(#923c0f57f1)"><g clip-rule="nonzero" clip-path="url(#c81aee0476)"><path style=" stroke:none;fill-rule:nonzero;fill:#f6db6e;fill-opacity:1;" d="M 23.933594 74.316406 L 22.875 75.015625 L 24.976562 78.191406 L 22.859375 79.59375 L 23.558594 80.652344 L 25.679688 79.25 L 27.777344 82.425781 L 28.835938 81.726562 L 26.738281 78.550781 L 28.855469 77.148438 L 28.152344 76.089844 L 26.035156 77.492188 Z M 23.933594 74.316406 "/></g></g></g></g><g clip-rule="nonzero" clip-path="url(#44dc9e714b)"><g clip-rule="nonzero" clip-path="url(#268cdc2e60)"><g clip-rule="nonzero" clip-path="url(#85164c8c72)"><g clip-rule="nonzero" clip-path="url(#85ac288bad)"><path style=" stroke:none;fill-rule:nonzero;fill:#f6db6e;fill-opacity:1;" d="M 29.210938 75.390625 L 30.269531 74.691406 L 30.972656 75.75 L 29.914062 76.449219 Z M 29.210938 75.390625 "/></g></g></g></g><g clip-rule="nonzero" clip-path="url(#4b18e16f9d)"><g clip-rule="nonzero" clip-path="url(#4a5470d845)"><g clip-rule="nonzero" clip-path="url(#420dd40387)"><g clip-rule="nonzero" clip-path="url(#b730ab3b4d)"><path style=" stroke:none;fill-rule:nonzero;fill:#f6db6e;fill-opacity:1;" d="M 20.742188 80.992188 L 21.800781 80.292969 L 22.5 81.351562 L 21.441406 82.050781 Z M 20.742188 80.992188 "/></g></g></g></g><g clip-rule="nonzero" clip-path="url(#d71c56d0fd)"><g clip-rule="nonzero" clip-path="url(#8a955af9d2)"><g clip-rule="nonzero" clip-path="url(#5220e771af)"><g clip-rule="nonzero" clip-path="url(#4b63420fc2)"><path style=" stroke:none;fill-rule:nonzero;fill:#f6db6e;fill-opacity:1;" d="M 21.476562 72.898438 L 22.535156 72.199219 L 23.234375 73.257812 L 22.175781 73.957031 Z M 21.476562 72.898438 "/></g></g></g></g><g clip-rule="nonzero" clip-path="url(#5696c3dc39)"><g clip-rule="nonzero" clip-path="url(#27374b43d4)"><g clip-rule="nonzero" clip-path="url(#e5414ae96f)"><g clip-rule="nonzero" clip-path="url(#c66f7ab6e9)"><path style=" stroke:none;fill-rule:nonzero;fill:#f6db6e;fill-opacity:1;" d="M 28.480469 83.484375 L 29.539062 82.785156 L 30.238281 83.84375 L 29.179688 84.542969 Z M 28.480469 83.484375 "/></g></g></g></g><g clip-rule="nonzero" clip-path="url(#b685bc5b36)"><g clip-rule="nonzero" clip-path="url(#1dc13b35d0)"><g clip-rule="nonzero" clip-path="url(#424b409937)"><g clip-rule="nonzero" clip-path="url(#fae1489af5)"><path style=" stroke:none;fill-rule:nonzero;fill:#f6db6e;fill-opacity:1;" d="M 18.59375 91.546875 L 17.535156 92.246094 L 19.632812 95.421875 L 17.515625 96.824219 L 18.21875 97.882812 L 20.335938 96.480469 L 22.433594 99.65625 L 23.492188 98.957031 L 21.394531 95.78125 L 23.511719 94.382812 L 22.808594 93.324219 L 20.691406 94.722656 Z M 18.59375 91.546875 "/></g></g></g></g><g clip-rule="nonzero" clip-path="url(#62073c34d4)"><g clip-rule="nonzero" clip-path="url(#0bf2a24c7b)"><g clip-rule="nonzero" clip-path="url(#fcdbb8221b)"><g clip-rule="nonzero" clip-path="url(#88e45fdfaa)"><path style=" stroke:none;fill-rule:nonzero;fill:#f6db6e;fill-opacity:1;" d="M 23.867188 92.621094 L 24.925781 91.921875 L 25.628906 92.980469 L 24.570312 93.679688 Z M 23.867188 92.621094 "/></g></g></g></g><g clip-rule="nonzero" clip-path="url(#d02d598663)"><g clip-rule="nonzero" clip-path="url(#c0b709f0b4)"><g clip-rule="nonzero" clip-path="url(#56a658831b)"><g clip-rule="nonzero" clip-path="url(#38ac622024)"><path style=" stroke:none;fill-rule:nonzero;fill:#f6db6e;fill-opacity:1;" d="M 15.398438 98.222656 L 16.457031 97.523438 L 17.160156 98.582031 L 16.097656 99.28125 Z M 15.398438 98.222656 "/></g></g></g></g><g clip-rule="nonzero" clip-path="url(#76087755d1)"><g clip-rule="nonzero" clip-path="url(#633b162035)"><g clip-rule="nonzero" clip-path="url(#2b883e9e89)"><g clip-rule="nonzero" clip-path="url(#284772eae6)"><path style=" stroke:none;fill-rule:nonzero;fill:#f6db6e;fill-opacity:1;" d="M 16.132812 90.128906 L 17.191406 89.429688 L 17.890625 90.488281 L 16.832031 91.1875 Z M 16.132812 90.128906 "/></g></g></g></g><g clip-rule="nonzero" clip-path="url(#92bb09c8e7)"><g clip-rule="nonzero" clip-path="url(#5a52dc728c)"><g clip-rule="nonzero" clip-path="url(#090aecee0e)"><g clip-rule="nonzero" clip-path="url(#49e8c5ecf4)"><path style=" stroke:none;fill-rule:nonzero;fill:#f6db6e;fill-opacity:1;" d="M 23.136719 100.714844 L 24.195312 100.015625 L 24.894531 101.074219 L 23.835938 101.777344 Z M 23.136719 100.714844 "/></g></g></g></g><g clip-rule="nonzero" clip-path="url(#1d761316f8)"><g clip-rule="nonzero" clip-path="url(#d6ccc795b9)"><g clip-rule="nonzero" clip-path="url(#0db47c2289)"><g clip-rule="nonzero" clip-path="url(#8c65d3e6da)"><path style=" stroke:none;fill-rule:nonzero;fill:#f9ebaa;fill-opacity:1;" d="M 74.195312 30.800781 L 76.4375 29.316406 L 77.921875 31.558594 L 75.679688 33.042969 Z M 74.195312 30.800781 "/></g></g></g></g><g clip-rule="nonzero" clip-path="url(#c2a89f5499)"><g clip-rule="nonzero" clip-path="url(#3fd4febf79)"><g clip-rule="nonzero" clip-path="url(#554f20704d)"><g clip-rule="nonzero" clip-path="url(#c9904786e4)"><path style=" stroke:none;fill-rule:nonzero;fill:#f9ebaa;fill-opacity:1;" d="M 70.421875 42.964844 L 72.664062 41.480469 L 74.148438 43.722656 L 71.90625 45.207031 Z M 70.421875 42.964844 "/></g></g></g></g><g clip-rule="nonzero" clip-path="url(#6f7816f581)"><g clip-rule="nonzero" clip-path="url(#41a74570b5)"><g clip-rule="nonzero" clip-path="url(#6db0c2af47)"><g clip-rule="nonzero" clip-path="url(#f4b4f6c559)"><path style=" stroke:none;fill-rule:nonzero;fill:#f6db6e;fill-opacity:1;" d="M 74.699219 28.316406 L 73.953125 28.8125 L 75.4375 31.054688 L 73.941406 32.042969 L 74.4375 32.789062 L 75.929688 31.800781 L 77.414062 34.042969 L 78.160156 33.550781 L 76.679688 31.308594 L 78.171875 30.320312 L 77.679688 29.570312 L 76.183594 30.558594 Z M 74.699219 28.316406 "/></g></g></g></g><g clip-rule="nonzero" clip-path="url(#90cc539e73)"><g clip-rule="nonzero" clip-path="url(#e40a0c11d2)"><g clip-rule="nonzero" clip-path="url(#3c69353957)"><g clip-rule="nonzero" clip-path="url(#8f764861ee)"><path style=" stroke:none;fill-rule:nonzero;fill:#f6db6e;fill-opacity:1;" d="M 78.425781 29.078125 L 79.171875 28.582031 L 79.667969 29.328125 L 78.921875 29.824219 Z M 78.425781 29.078125 "/></g></g></g></g><g clip-rule="nonzero" clip-path="url(#f06e71d996)"><g clip-rule="nonzero" clip-path="url(#b9131c7648)"><g clip-rule="nonzero" clip-path="url(#79081291b3)"><g clip-rule="nonzero" clip-path="url(#2d394d44ce)"><path style=" stroke:none;fill-rule:nonzero;fill:#f6db6e;fill-opacity:1;" d="M 72.449219 33.03125 L 73.195312 32.535156 L 73.6875 33.285156 L 72.941406 33.777344 Z M 72.449219 33.03125 "/></g></g></g></g><g clip-rule="nonzero" clip-path="url(#8f39fb17fc)"><g clip-rule="nonzero" clip-path="url(#9dd6d05fe7)"><g clip-rule="nonzero" clip-path="url(#7165969b6e)"><g clip-rule="nonzero" clip-path="url(#d4bb192240)"><path style=" stroke:none;fill-rule:nonzero;fill:#f6db6e;fill-opacity:1;" d="M 72.964844 27.316406 L 73.710938 26.824219 L 74.207031 27.570312 L 73.460938 28.066406 Z M 72.964844 27.316406 "/></g></g></g></g><g clip-rule="nonzero" clip-path="url(#aaf0d10a67)"><g clip-rule="nonzero" clip-path="url(#a7f56deb78)"><g clip-rule="nonzero" clip-path="url(#9ad9815d76)"><g clip-rule="nonzero" clip-path="url(#5f877ab15a)"><path style=" stroke:none;fill-rule:nonzero;fill:#f6db6e;fill-opacity:1;" d="M 77.910156 34.789062 L 78.65625 34.296875 L 79.148438 35.042969 L 78.402344 35.539062 Z M 77.910156 34.789062 "/></g></g></g></g><g clip-rule="nonzero" clip-path="url(#8d84e42e99)"><g clip-rule="nonzero" clip-path="url(#2f92ce5234)"><g clip-rule="nonzero" clip-path="url(#62dbfa0745)"><g clip-rule="nonzero" clip-path="url(#22e9ce52cd)"><path style=" stroke:none;fill-rule:nonzero;fill:#f6db6e;fill-opacity:1;" d="M 70.929688 40.480469 L 70.183594 40.976562 L 71.664062 43.21875 L 70.171875 44.207031 L 70.664062 44.953125 L 72.160156 43.964844 L 73.640625 46.207031 L 74.390625 45.710938 L 72.90625 43.46875 L 74.402344 42.480469 L 73.90625 41.734375 L 72.414062 42.722656 Z M 70.929688 40.480469 "/></g></g></g></g><g clip-rule="nonzero" clip-path="url(#2eabace1cb)"><g clip-rule="nonzero" clip-path="url(#01a8c584ce)"><g clip-rule="nonzero" clip-path="url(#21017463a7)"><g clip-rule="nonzero" clip-path="url(#b85a010789)"><path style=" stroke:none;fill-rule:nonzero;fill:#f6db6e;fill-opacity:1;" d="M 74.65625 41.242188 L 75.402344 40.746094 L 75.894531 41.492188 L 75.148438 41.988281 Z M 74.65625 41.242188 "/></g></g></g></g><g clip-rule="nonzero" clip-path="url(#e70b5e61a7)"><g clip-rule="nonzero" clip-path="url(#33a1085986)"><g clip-rule="nonzero" clip-path="url(#634b60a735)"><g clip-rule="nonzero" clip-path="url(#d7fed3bcab)"><path style=" stroke:none;fill-rule:nonzero;fill:#f6db6e;fill-opacity:1;" d="M 68.675781 45.195312 L 69.421875 44.699219 L 69.917969 45.449219 L 69.171875 45.941406 Z M 68.675781 45.195312 "/></g></g></g></g><g clip-rule="nonzero" clip-path="url(#ed96b08d8f)"><g clip-rule="nonzero" clip-path="url(#7b1ea3bcb5)"><g clip-rule="nonzero" clip-path="url(#c646f46d07)"><g clip-rule="nonzero" clip-path="url(#fd6562bd33)"><path style=" stroke:none;fill-rule:nonzero;fill:#f6db6e;fill-opacity:1;" d="M 69.195312 39.480469 L 69.941406 38.988281 L 70.433594 39.734375 L 69.6875 40.226562 Z M 69.195312 39.480469 "/></g></g></g></g><g clip-rule="nonzero" clip-path="url(#f6765aae21)"><g clip-rule="nonzero" clip-path="url(#92a1bf3ee6)"><g clip-rule="nonzero" clip-path="url(#fe05f9e61d)"><g clip-rule="nonzero" clip-path="url(#2c718bf7a8)"><path style=" stroke:none;fill-rule:nonzero;fill:#f6db6e;fill-opacity:1;" d="M 74.136719 46.953125 L 74.882812 46.460938 L 75.378906 47.207031 L 74.632812 47.703125 Z M 74.136719 46.953125 "/></g></g></g></g></g></svg>