<svg xmlns="http://www.w3.org/2000/svg" xmlns:xlink="http://www.w3.org/1999/xlink" width="150" zoomAndPan="magnify" viewBox="0 0 112.5 112.499997" height="150" preserveAspectRatio="xMidYMid meet" version="1.2"><defs><clipPath id="5ddff1e2c9"><path d="M 11 12 L 36 12 L 36 30 L 11 30 Z M 11 12 "/></clipPath><clipPath id="a673d724a8"><path d="M 9.421875 13.601562 L 31.871094 7.972656 L 36.777344 27.527344 L 14.324219 33.15625 Z M 9.421875 13.601562 "/></clipPath><clipPath id="9c5c1cd113"><path d="M 9.421875 13.601562 L 31.871094 7.972656 L 36.777344 27.527344 L 14.324219 33.15625 Z M 9.421875 13.601562 "/></clipPath><clipPath id="725839dc87"><path d="M 9.421875 13.601562 L 31.871094 7.972656 L 36.777344 27.527344 L 14.324219 33.15625 Z M 9.421875 13.601562 "/></clipPath><clipPath id="f7f486dde9"><path d="M 71 23 L 96 23 L 96 48 L 71 48 Z M 71 23 "/></clipPath><clipPath id="70e707d62b"><path d="M 72.25 22.0625 L 97.933594 26.890625 L 93.796875 48.90625 L 68.113281 44.078125 Z M 72.25 22.0625 "/></clipPath><clipPath id="2d273bd8a8"><path d="M 72.25 22.0625 L 97.933594 26.890625 L 93.796875 48.90625 L 68.113281 44.078125 Z M 72.25 22.0625 "/></clipPath><clipPath id="c50b569cd6"><path d="M 72.25 22.0625 L 97.933594 26.890625 L 93.796875 48.90625 L 68.113281 44.078125 Z M 72.25 22.0625 "/></clipPath><clipPath id="da887eac96"><path d="M 18 65 L 53 65 L 53 90 L 18 90 Z M 18 65 "/></clipPath><clipPath id="e8d3c61625"><path d="M 14.648438 85.964844 L 31.683594 57 L 56.785156 71.765625 L 39.75 100.726562 Z M 14.648438 85.964844 "/></clipPath><clipPath id="a894cba71f"><path d="M 14.648438 85.964844 L 31.683594 57 L 56.785156 71.765625 L 39.75 100.726562 Z M 14.648438 85.964844 "/></clipPath><clipPath id="051d600d32"><path d="M 14.648438 85.964844 L 31.683594 57 L 56.785156 71.765625 L 39.75 100.726562 Z M 14.648438 85.964844 "/></clipPath></defs><g id="0353f2feb2"><g clip-rule="nonzero" clip-path="url(#5ddff1e2c9)"><g clip-rule="nonzero" clip-path="url(#a673d724a8)"><g clip-rule="nonzero" clip-path="url(#9c5c1cd113)"><g clip-rule="nonzero" clip-path="url(#725839dc87)"><path style=" stroke:none;fill-rule:nonzero;fill:#7fff00;fill-opacity:1;" d="M 30.964844 28.894531 C 30.957031 28.855469 30.289062 27.785156 29.488281 26.515625 C 27.730469 23.734375 27.316406 22.785156 27.554688 22.09375 C 27.890625 21.121094 28.433594 20.828125 31.394531 20.007812 C 32.902344 19.589844 34.191406 19.15625 34.257812 19.046875 C 34.53125 18.617188 33.71875 18.679688 31.296875 19.285156 C 27.402344 20.257812 26.125 20.109375 24.5 18.492188 C 23.488281 17.488281 23.464844 17.335938 24.300781 17.125 C 24.707031 17.023438 24.917969 16.902344 24.832031 16.816406 C 24.75 16.738281 24.363281 16.753906 23.972656 16.851562 L 23.257812 17.03125 L 22.53125 16.015625 C 22.132812 15.453125 21.542969 14.605469 21.21875 14.125 C 20.65625 13.285156 20.324219 13.003906 20.179688 13.242188 C 20.140625 13.304688 20.640625 14.1875 21.289062 15.203125 C 21.96875 16.265625 22.410156 17.105469 22.335938 17.1875 C 22.074219 17.453125 19.960938 17.632812 19.179688 17.457031 C 18.140625 17.21875 17.375 16.496094 15.867188 14.332031 C 14.59375 12.5 14.46875 12.351562 14.347656 12.554688 C 14.308594 12.621094 14.8125 13.515625 15.46875 14.542969 C 16.777344 16.597656 17.039062 17.296875 16.730469 17.9375 C 16.472656 18.476562 15.285156 19.03125 13.335938 19.519531 C 11.042969 20.09375 11.660156 20.230469 14.1875 19.710938 C 17.308594 19.0625 18.21875 19.261719 19.601562 20.882812 C 20.570312 22.019531 20.601562 21.964844 18.640625 22.457031 C 17.019531 22.863281 16.492188 23.148438 16.898438 23.394531 C 16.976562 23.441406 17.921875 23.300781 18.992188 23.078125 L 20.945312 22.679688 L 21.363281 23.394531 C 21.59375 23.789062 21.917969 24.179688 22.085938 24.257812 C 22.472656 24.445312 22.421875 24.265625 21.84375 23.367188 C 21.585938 22.96875 21.402344 22.59375 21.4375 22.539062 C 21.46875 22.484375 22.035156 22.390625 22.691406 22.332031 C 25.363281 22.097656 26.386719 22.90625 29.734375 27.898438 C 30.195312 28.585938 30.621094 29.054688 30.753906 29.019531 C 30.878906 28.988281 30.972656 28.929688 30.964844 28.894531 Z M 20.566406 21.308594 C 19.878906 20.054688 19.792969 19.84375 19.792969 19.417969 C 19.792969 18.824219 20.363281 18.355469 21.660156 17.878906 L 22.730469 17.484375 L 23.113281 18.195312 C 23.675781 19.25 23.734375 19.671875 23.402344 20.351562 C 23.113281 20.953125 22.367188 21.460938 21.335938 21.761719 C 20.949219 21.875 20.839844 21.808594 20.566406 21.308594 Z M 33.539062 25.527344 C 32.8125 24.222656 32.867188 24.050781 34.136719 23.703125 L 35.179688 23.417969 L 34.148438 23.550781 C 32.542969 23.761719 32.203125 23.59375 31.082031 22.019531 C 30.65625 21.425781 30.773438 21.71875 31.417969 22.851562 C 31.949219 23.792969 31.859375 23.957031 30.527344 24.457031 L 29.503906 24.839844 L 30.6875 24.566406 C 32.085938 24.246094 32.472656 24.386719 33.226562 25.5 C 33.964844 26.578125 34.128906 26.59375 33.539062 25.527344 Z M 28.953125 16.847656 C 28.878906 16.71875 28.730469 16.46875 28.621094 16.289062 C 28.363281 15.867188 28.597656 15.558594 29.410156 15.265625 C 30.011719 15.046875 29.996094 15.042969 29.203125 15.214844 C 28.253906 15.421875 27.941406 15.285156 27.332031 14.410156 C 26.761719 13.585938 26.542969 13.542969 27.066406 14.351562 C 27.703125 15.335938 27.640625 15.570312 26.675781 15.84375 L 25.886719 16.066406 L 26.746094 15.964844 C 27.808594 15.835938 27.96875 15.886719 28.589844 16.550781 C 28.863281 16.84375 29.027344 16.976562 28.953125 16.847656 Z M 28.953125 16.847656 "/></g></g></g></g><g clip-rule="nonzero" clip-path="url(#f7f486dde9)"><g clip-rule="nonzero" clip-path="url(#70e707d62b)"><g clip-rule="nonzero" clip-path="url(#2d273bd8a8)"><g clip-rule="nonzero" clip-path="url(#c50b569cd6)"><path style=" stroke:none;fill-rule:nonzero;fill:#7fff00;fill-opacity:1;" d="M 87.191406 47.570312 C 87.199219 47.527344 87.019531 46.136719 86.789062 44.480469 C 86.292969 40.851562 86.3125 39.699219 86.878906 39.113281 C 87.679688 38.289062 88.378906 38.246094 91.800781 38.804688 C 93.542969 39.089844 95.066406 39.257812 95.1875 39.179688 C 95.671875 38.871094 94.808594 38.554688 92.039062 38.03125 C 87.585938 37.191406 86.34375 36.441406 85.433594 34.050781 C 84.867188 32.5625 84.914062 32.398438 85.867188 32.578125 C 86.335938 32.667969 86.609375 32.640625 86.5625 32.511719 C 86.515625 32.398438 86.109375 32.234375 85.660156 32.148438 L 84.84375 31.996094 L 84.578125 30.628906 C 84.429688 29.875 84.222656 28.742188 84.117188 28.109375 C 83.929688 26.996094 83.722656 26.554688 83.460938 26.730469 C 83.394531 26.777344 83.496094 27.898438 83.683594 29.226562 C 83.878906 30.617188 83.941406 31.675781 83.824219 31.71875 C 83.433594 31.867188 81.179688 31.058594 80.457031 30.515625 C 79.503906 29.789062 79.054688 28.703125 78.527344 25.8125 C 78.078125 23.367188 78.019531 23.160156 77.800781 23.308594 C 77.730469 23.355469 77.824219 24.496094 78.015625 25.839844 C 78.398438 28.523438 78.335938 29.351562 77.722656 29.855469 C 77.203125 30.28125 75.726562 30.28125 73.492188 29.863281 C 70.871094 29.371094 71.441406 29.796875 74.28125 30.453125 C 77.785156 31.261719 78.625 31.886719 79.285156 34.167969 C 79.746094 35.769531 79.804688 35.730469 77.5625 35.308594 C 75.703125 34.960938 75.03125 35 75.335938 35.441406 C 75.390625 35.523438 76.425781 35.820312 77.628906 36.101562 L 79.820312 36.609375 L 79.914062 37.53125 C 79.964844 38.035156 80.117188 38.578125 80.25 38.738281 C 80.5625 39.109375 80.59375 38.902344 80.421875 37.722656 C 80.34375 37.199219 80.332031 36.742188 80.390625 36.699219 C 80.449219 36.660156 81.074219 36.828125 81.773438 37.078125 C 84.628906 38.09375 85.300781 39.390625 86.394531 45.992188 C 86.546875 46.902344 86.761719 47.570312 86.914062 47.601562 C 87.058594 47.625 87.183594 47.613281 87.191406 47.570312 Z M 80.074219 35.050781 C 79.957031 33.464844 79.96875 33.210938 80.167969 32.777344 C 80.445312 32.183594 81.253906 31.976562 82.804688 32.101562 L 84.089844 32.203125 L 84.148438 33.101562 C 84.234375 34.429688 84.09375 34.882812 83.4375 35.414062 C 82.855469 35.882812 81.851562 36.046875 80.652344 35.867188 C 80.203125 35.800781 80.121094 35.683594 80.074219 35.050781 Z M 91.410156 45.378906 C 91.277344 43.722656 91.414062 43.574219 92.878906 43.816406 L 94.082031 44.015625 L 92.964844 43.671875 C 91.214844 43.132812 90.949219 42.804688 90.535156 40.691406 C 90.375 39.890625 90.359375 40.242188 90.488281 41.6875 C 90.59375 42.882812 90.425781 43.007812 88.820312 42.886719 L 87.59375 42.796875 L 88.9375 43.078125 C 90.519531 43.40625 90.851562 43.726562 91.105469 45.207031 C 91.351562 46.636719 91.515625 46.730469 91.410156 45.378906 Z M 90.777344 34.476562 C 90.761719 34.3125 90.726562 33.988281 90.699219 33.757812 C 90.632812 33.207031 91.015625 33.007812 91.988281 33.09375 C 92.707031 33.152344 92.691406 33.144531 91.796875 32.945312 C 90.730469 32.707031 90.46875 32.421875 90.257812 31.257812 C 90.054688 30.160156 89.855469 30.011719 90.011719 31.074219 C 90.203125 32.367188 90.027344 32.574219 88.910156 32.398438 L 87.992188 32.253906 L 88.925781 32.550781 C 90.074219 32.917969 90.214844 33.042969 90.542969 34.003906 C 90.6875 34.429688 90.792969 34.640625 90.777344 34.476562 Z M 90.777344 34.476562 "/></g></g></g></g><g clip-rule="nonzero" clip-path="url(#da887eac96)"><g clip-rule="nonzero" clip-path="url(#e8d3c61625)"><g clip-rule="nonzero" clip-path="url(#a894cba71f)"><g clip-rule="nonzero" clip-path="url(#051d600d32)"><path style=" stroke:none;fill-rule:nonzero;fill:#7fff00;fill-opacity:1;" d="M 52.285156 79.171875 C 52.234375 79.144531 50.457031 78.746094 48.335938 78.289062 C 43.6875 77.285156 42.289062 76.75 41.824219 75.804688 C 41.164062 74.46875 41.414062 73.605469 43.582031 69.707031 C 44.679688 67.722656 45.546875 65.953125 45.503906 65.769531 C 45.339844 65.046875 44.578125 65.957031 42.738281 69.078125 C 39.777344 74.097656 38.328125 75.269531 35.007812 75.3125 C 32.949219 75.339844 32.769531 75.207031 33.402344 74.132812 C 33.710938 73.605469 33.800781 73.261719 33.621094 73.265625 C 33.460938 73.269531 33.085938 73.6875 32.785156 74.195312 L 32.246094 75.113281 L 30.460938 74.832031 C 29.476562 74.675781 28.003906 74.425781 27.179688 74.273438 C 25.742188 74.003906 25.113281 74.0625 25.214844 74.457031 C 25.242188 74.558594 26.65625 74.933594 28.359375 75.292969 C 30.144531 75.671875 31.460938 76.066406 31.464844 76.226562 C 31.476562 76.765625 29.511719 79.136719 28.535156 79.769531 C 27.234375 80.605469 25.710938 80.664062 21.953125 80.023438 C 18.769531 79.484375 18.492188 79.464844 18.578125 79.792969 C 18.605469 79.902344 20.039062 80.289062 21.761719 80.652344 C 25.210938 81.382812 26.191406 81.820312 26.542969 82.789062 C 26.835938 83.605469 26.195312 85.398438 24.714844 87.914062 C 22.976562 90.871094 23.742188 90.371094 25.777344 87.222656 C 28.289062 83.335938 29.410156 82.597656 32.488281 82.808594 C 34.640625 82.960938 34.617188 82.871094 33.132812 85.398438 C 31.902344 87.492188 31.65625 88.328125 32.324219 88.15625 C 32.453125 88.121094 33.265625 87.003906 34.132812 85.667969 L 35.703125 83.242188 L 36.867188 83.535156 C 37.503906 83.695312 38.234375 83.753906 38.488281 83.664062 C 39.074219 83.453125 38.839844 83.320312 37.320312 83.007812 C 36.652344 82.871094 36.082031 82.683594 36.058594 82.589844 C 36.035156 82.5 36.511719 81.820312 37.121094 81.082031 C 39.601562 78.074219 41.472656 77.835938 50.011719 79.4375 C 51.1875 79.65625 52.101562 79.691406 52.203125 79.519531 C 52.296875 79.359375 52.335938 79.203125 52.285156 79.171875 Z M 33.90625 82.242188 C 31.917969 81.683594 31.613281 81.554688 31.171875 81.125 C 30.566406 80.523438 30.664062 79.453125 31.488281 77.628906 L 32.175781 76.117188 L 33.292969 76.445312 C 34.953125 76.933594 35.445312 77.300781 35.808594 78.332031 C 36.128906 79.242188 35.894531 80.53125 35.15625 81.90625 C 34.882812 82.417969 34.703125 82.46875 33.90625 82.242188 Z M 51.441406 73.09375 C 49.359375 72.519531 49.238281 72.285156 50.167969 70.621094 L 50.933594 69.253906 L 50.027344 70.457031 C 48.613281 72.332031 48.09375 72.511719 45.332031 72.078125 C 44.285156 71.914062 44.710938 72.085938 46.53125 72.574219 C 48.039062 72.976562 48.113281 73.238281 47.273438 75.125 L 46.628906 76.570312 L 47.554688 75.066406 C 48.644531 73.296875 49.179688 73.039062 51.09375 73.386719 C 52.953125 73.71875 53.136719 73.5625 51.441406 73.09375 Z M 37.847656 69.03125 C 37.640625 68.976562 37.230469 68.875 36.9375 68.808594 C 36.234375 68.644531 36.160156 68.089844 36.683594 66.949219 C 37.070312 66.109375 37.050781 66.121094 36.421875 67.117188 C 35.667969 68.304688 35.207031 68.492188 33.691406 68.234375 C 32.265625 67.988281 31.992188 68.167969 33.363281 68.449219 C 35.023438 68.792969 35.199219 69.09375 34.5 70.367188 L 33.925781 71.414062 L 34.691406 70.417969 C 35.640625 69.1875 35.855469 69.074219 37.171875 69.105469 C 37.75 69.117188 38.054688 69.085938 37.847656 69.03125 Z M 37.847656 69.03125 "/></g></g></g></g></g></svg>