<svg xmlns="http://www.w3.org/2000/svg" xmlns:xlink="http://www.w3.org/1999/xlink" width="150" zoomAndPan="magnify" viewBox="0 0 112.5 112.499997" height="150" preserveAspectRatio="xMidYMid meet" version="1.2"><defs><clipPath id="7ab8feea96"><path d="M 9 9 L 25 9 L 25 25 L 9 25 Z M 9 9 "/></clipPath><clipPath id="f0063d91fb"><path d="M 6.886719 15.253906 L 18.945312 6.441406 L 27.757812 18.496094 L 15.703125 27.308594 Z M 6.886719 15.253906 "/></clipPath><clipPath id="f775fe2cf8"><path d="M 6.886719 15.253906 L 18.945312 6.441406 L 27.757812 18.496094 L 15.703125 27.308594 Z M 6.886719 15.253906 "/></clipPath><clipPath id="6629cd98f1"><path d="M 6.886719 15.253906 L 18.945312 6.441406 L 27.757812 18.496094 L 15.703125 27.308594 Z M 6.886719 15.253906 "/></clipPath><clipPath id="5b63501eb9"><path d="M 11 10 L 24 10 L 24 24 L 11 24 Z M 11 10 "/></clipPath><clipPath id="29bdc2bd1c"><path d="M 6.886719 15.253906 L 18.945312 6.441406 L 27.757812 18.496094 L 15.703125 27.308594 Z M 6.886719 15.253906 "/></clipPath><clipPath id="2053a5a512"><path d="M 6.886719 15.253906 L 18.945312 6.441406 L 27.757812 18.496094 L 15.703125 27.308594 Z M 6.886719 15.253906 "/></clipPath><clipPath id="052e2fe9d4"><path d="M 6.886719 15.253906 L 18.945312 6.441406 L 27.757812 18.496094 L 15.703125 27.308594 Z M 6.886719 15.253906 "/></clipPath><clipPath id="dd799f8f02"><path d="M 14 14 L 22 14 L 22 21 L 14 21 Z M 14 14 "/></clipPath><clipPath id="735e0bcc52"><path d="M 6.886719 15.253906 L 18.945312 6.441406 L 27.757812 18.496094 L 15.703125 27.308594 Z M 6.886719 15.253906 "/></clipPath><clipPath id="1aea7ad79a"><path d="M 6.886719 15.253906 L 18.945312 6.441406 L 27.757812 18.496094 L 15.703125 27.308594 Z M 6.886719 15.253906 "/></clipPath><clipPath id="b01042a30d"><path d="M 6.886719 15.253906 L 18.945312 6.441406 L 27.757812 18.496094 L 15.703125 27.308594 Z M 6.886719 15.253906 "/></clipPath><clipPath id="e20c1c2348"><path d="M 13 14 L 17 14 L 17 18 L 13 18 Z M 13 14 "/></clipPath><clipPath id="1822371f36"><path d="M 6.886719 15.253906 L 18.945312 6.441406 L 27.757812 18.496094 L 15.703125 27.308594 Z M 6.886719 15.253906 "/></clipPath><clipPath id="21a5a5e1a4"><path d="M 6.886719 15.253906 L 18.945312 6.441406 L 27.757812 18.496094 L 15.703125 27.308594 Z M 6.886719 15.253906 "/></clipPath><clipPath id="dfd8ebd457"><path d="M 6.886719 15.253906 L 18.945312 6.441406 L 27.757812 18.496094 L 15.703125 27.308594 Z M 6.886719 15.253906 "/></clipPath><clipPath id="615d11b275"><path d="M 16 12 L 19 12 L 19 16 L 16 16 Z M 16 12 "/></clipPath><clipPath id="43404648fc"><path d="M 6.886719 15.253906 L 18.945312 6.441406 L 27.757812 18.496094 L 15.703125 27.308594 Z M 6.886719 15.253906 "/></clipPath><clipPath id="49c64eb3f1"><path d="M 6.886719 15.253906 L 18.945312 6.441406 L 27.757812 18.496094 L 15.703125 27.308594 Z M 6.886719 15.253906 "/></clipPath><clipPath id="765079f6c9"><path d="M 6.886719 15.253906 L 18.945312 6.441406 L 27.757812 18.496094 L 15.703125 27.308594 Z M 6.886719 15.253906 "/></clipPath><clipPath id="0326f8e750"><path d="M 13 15 L 15 15 L 15 16 L 13 16 Z M 13 15 "/></clipPath><clipPath id="a0febe59df"><path d="M 6.886719 15.253906 L 18.945312 6.441406 L 27.757812 18.496094 L 15.703125 27.308594 Z M 6.886719 15.253906 "/></clipPath><clipPath id="b7cc3eac8c"><path d="M 6.886719 15.253906 L 18.945312 6.441406 L 27.757812 18.496094 L 15.703125 27.308594 Z M 6.886719 15.253906 "/></clipPath><clipPath id="19d60127b4"><path d="M 6.886719 15.253906 L 18.945312 6.441406 L 27.757812 18.496094 L 15.703125 27.308594 Z M 6.886719 15.253906 "/></clipPath><clipPath id="88b4e3b1e0"><path d="M 16 13 L 17 13 L 17 14 L 16 14 Z M 16 13 "/></clipPath><clipPath id="8252435afb"><path d="M 6.886719 15.253906 L 18.945312 6.441406 L 27.757812 18.496094 L 15.703125 27.308594 Z M 6.886719 15.253906 "/></clipPath><clipPath id="4e5dd45ad0"><path d="M 6.886719 15.253906 L 18.945312 6.441406 L 27.757812 18.496094 L 15.703125 27.308594 Z M 6.886719 15.253906 "/></clipPath><clipPath id="b9362f7e0a"><path d="M 6.886719 15.253906 L 18.945312 6.441406 L 27.757812 18.496094 L 15.703125 27.308594 Z M 6.886719 15.253906 "/></clipPath><clipPath id="4277994866"><path d="M 16 13 L 17 13 L 17 15 L 16 15 Z M 16 13 "/></clipPath><clipPath id="6590e6c526"><path d="M 6.886719 15.253906 L 18.945312 6.441406 L 27.757812 18.496094 L 15.703125 27.308594 Z M 6.886719 15.253906 "/></clipPath><clipPath id="eeb5b405b1"><path d="M 6.886719 15.253906 L 18.945312 6.441406 L 27.757812 18.496094 L 15.703125 27.308594 Z M 6.886719 15.253906 "/></clipPath><clipPath id="ebdb6d2163"><path d="M 6.886719 15.253906 L 18.945312 6.441406 L 27.757812 18.496094 L 15.703125 27.308594 Z M 6.886719 15.253906 "/></clipPath><clipPath id="09dee5724a"><path d="M 67 16 L 92 16 L 92 41 L 67 41 Z M 67 16 "/></clipPath><clipPath id="c4be2bcbb6"><path d="M 64.773438 20.21875 L 87.839844 13.984375 L 94.074219 37.050781 L 71.007812 43.285156 Z M 64.773438 20.21875 "/></clipPath><clipPath id="edabbffe9d"><path d="M 64.773438 20.21875 L 87.839844 13.984375 L 94.074219 37.050781 L 71.007812 43.285156 Z M 64.773438 20.21875 "/></clipPath><clipPath id="6feab3d050"><path d="M 64.773438 20.21875 L 87.839844 13.984375 L 94.074219 37.050781 L 71.007812 43.285156 Z M 64.773438 20.21875 "/></clipPath><clipPath id="c161f81073"><path d="M 69 18 L 90 18 L 90 39 L 69 39 Z M 69 18 "/></clipPath><clipPath id="978dbd4fd3"><path d="M 64.773438 20.21875 L 87.839844 13.984375 L 94.074219 37.050781 L 71.007812 43.285156 Z M 64.773438 20.21875 "/></clipPath><clipPath id="b67e55f40a"><path d="M 64.773438 20.21875 L 87.839844 13.984375 L 94.074219 37.050781 L 71.007812 43.285156 Z M 64.773438 20.21875 "/></clipPath><clipPath id="a85890b3a8"><path d="M 64.773438 20.21875 L 87.839844 13.984375 L 94.074219 37.050781 L 71.007812 43.285156 Z M 64.773438 20.21875 "/></clipPath><clipPath id="5b4f441228"><path d="M 73 27 L 86 27 L 86 35 L 73 35 Z M 73 27 "/></clipPath><clipPath id="23358df46b"><path d="M 64.773438 20.21875 L 87.839844 13.984375 L 94.074219 37.050781 L 71.007812 43.285156 Z M 64.773438 20.21875 "/></clipPath><clipPath id="0e33c577a2"><path d="M 64.773438 20.21875 L 87.839844 13.984375 L 94.074219 37.050781 L 71.007812 43.285156 Z M 64.773438 20.21875 "/></clipPath><clipPath id="b7c6b2845b"><path d="M 64.773438 20.21875 L 87.839844 13.984375 L 94.074219 37.050781 L 71.007812 43.285156 Z M 64.773438 20.21875 "/></clipPath><clipPath id="8ff03e8d41"><path d="M 74 23 L 78 23 L 78 29 L 74 29 Z M 74 23 "/></clipPath><clipPath id="b7672714cb"><path d="M 64.773438 20.21875 L 87.839844 13.984375 L 94.074219 37.050781 L 71.007812 43.285156 Z M 64.773438 20.21875 "/></clipPath><clipPath id="a2b2f7f853"><path d="M 64.773438 20.21875 L 87.839844 13.984375 L 94.074219 37.050781 L 71.007812 43.285156 Z M 64.773438 20.21875 "/></clipPath><clipPath id="638e342637"><path d="M 64.773438 20.21875 L 87.839844 13.984375 L 94.074219 37.050781 L 71.007812 43.285156 Z M 64.773438 20.21875 "/></clipPath><clipPath id="7720805160"><path d="M 79 22 L 83 22 L 83 28 L 79 28 Z M 79 22 "/></clipPath><clipPath id="cbd14f1ac8"><path d="M 64.773438 20.21875 L 87.839844 13.984375 L 94.074219 37.050781 L 71.007812 43.285156 Z M 64.773438 20.21875 "/></clipPath><clipPath id="f741d3a4f9"><path d="M 64.773438 20.21875 L 87.839844 13.984375 L 94.074219 37.050781 L 71.007812 43.285156 Z M 64.773438 20.21875 "/></clipPath><clipPath id="d5b7e62860"><path d="M 64.773438 20.21875 L 87.839844 13.984375 L 94.074219 37.050781 L 71.007812 43.285156 Z M 64.773438 20.21875 "/></clipPath><clipPath id="b0924f56f3"><path d="M 75 24 L 76 24 L 76 25 L 75 25 Z M 75 24 "/></clipPath><clipPath id="1e871333ec"><path d="M 64.773438 20.21875 L 87.839844 13.984375 L 94.074219 37.050781 L 71.007812 43.285156 Z M 64.773438 20.21875 "/></clipPath><clipPath id="4e12153456"><path d="M 64.773438 20.21875 L 87.839844 13.984375 L 94.074219 37.050781 L 71.007812 43.285156 Z M 64.773438 20.21875 "/></clipPath><clipPath id="4fd16cfc6a"><path d="M 64.773438 20.21875 L 87.839844 13.984375 L 94.074219 37.050781 L 71.007812 43.285156 Z M 64.773438 20.21875 "/></clipPath><clipPath id="848cd64e02"><path d="M 75 24 L 76 24 L 76 26 L 75 26 Z M 75 24 "/></clipPath><clipPath id="cc7573dffd"><path d="M 64.773438 20.21875 L 87.839844 13.984375 L 94.074219 37.050781 L 71.007812 43.285156 Z M 64.773438 20.21875 "/></clipPath><clipPath id="f67c98a44a"><path d="M 64.773438 20.21875 L 87.839844 13.984375 L 94.074219 37.050781 L 71.007812 43.285156 Z M 64.773438 20.21875 "/></clipPath><clipPath id="0c977ac38b"><path d="M 64.773438 20.21875 L 87.839844 13.984375 L 94.074219 37.050781 L 71.007812 43.285156 Z M 64.773438 20.21875 "/></clipPath><clipPath id="90f746cb93"><path d="M 79 22 L 81 22 L 81 24 L 79 24 Z M 79 22 "/></clipPath><clipPath id="e2ec8854c4"><path d="M 64.773438 20.21875 L 87.839844 13.984375 L 94.074219 37.050781 L 71.007812 43.285156 Z M 64.773438 20.21875 "/></clipPath><clipPath id="34e1a5ef47"><path d="M 64.773438 20.21875 L 87.839844 13.984375 L 94.074219 37.050781 L 71.007812 43.285156 Z M 64.773438 20.21875 "/></clipPath><clipPath id="779342e7b5"><path d="M 64.773438 20.21875 L 87.839844 13.984375 L 94.074219 37.050781 L 71.007812 43.285156 Z M 64.773438 20.21875 "/></clipPath><clipPath id="7f3ab3112f"><path d="M 79 23 L 81 23 L 81 24 L 79 24 Z M 79 23 "/></clipPath><clipPath id="ab0f222e9d"><path d="M 64.773438 20.21875 L 87.839844 13.984375 L 94.074219 37.050781 L 71.007812 43.285156 Z M 64.773438 20.21875 "/></clipPath><clipPath id="682e1dcf2d"><path d="M 64.773438 20.21875 L 87.839844 13.984375 L 94.074219 37.050781 L 71.007812 43.285156 Z M 64.773438 20.21875 "/></clipPath><clipPath id="82a12a520d"><path d="M 64.773438 20.21875 L 87.839844 13.984375 L 94.074219 37.050781 L 71.007812 43.285156 Z M 64.773438 20.21875 "/></clipPath><clipPath id="7518dbedfc"><path d="M 28 75 L 47 75 L 47 94 L 28 94 Z M 28 75 "/></clipPath><clipPath id="0cef17088c"><path d="M 34.042969 72.804688 L 49.953125 81.050781 L 41.707031 96.960938 L 25.796875 88.714844 Z M 34.042969 72.804688 "/></clipPath><clipPath id="6027d7cfe4"><path d="M 34.042969 72.804688 L 49.953125 81.050781 L 41.707031 96.960938 L 25.796875 88.714844 Z M 34.042969 72.804688 "/></clipPath><clipPath id="fa36de8890"><path d="M 34.042969 72.804688 L 49.953125 81.050781 L 41.707031 96.960938 L 25.796875 88.714844 Z M 34.042969 72.804688 "/></clipPath><clipPath id="07e4e1ab95"><path d="M 30 77 L 46 77 L 46 93 L 30 93 Z M 30 77 "/></clipPath><clipPath id="b6db7c0a87"><path d="M 34.042969 72.804688 L 49.953125 81.050781 L 41.707031 96.960938 L 25.796875 88.714844 Z M 34.042969 72.804688 "/></clipPath><clipPath id="c2394d349b"><path d="M 34.042969 72.804688 L 49.953125 81.050781 L 41.707031 96.960938 L 25.796875 88.714844 Z M 34.042969 72.804688 "/></clipPath><clipPath id="fe28df70b6"><path d="M 34.042969 72.804688 L 49.953125 81.050781 L 41.707031 96.960938 L 25.796875 88.714844 Z M 34.042969 72.804688 "/></clipPath><clipPath id="f30a017ba7"><path d="M 33 83 L 42 83 L 42 90 L 33 90 Z M 33 83 "/></clipPath><clipPath id="510e21a109"><path d="M 34.042969 72.804688 L 49.953125 81.050781 L 41.707031 96.960938 L 25.796875 88.714844 Z M 34.042969 72.804688 "/></clipPath><clipPath id="c4fcc1849e"><path d="M 34.042969 72.804688 L 49.953125 81.050781 L 41.707031 96.960938 L 25.796875 88.714844 Z M 34.042969 72.804688 "/></clipPath><clipPath id="6303bee7ab"><path d="M 34.042969 72.804688 L 49.953125 81.050781 L 41.707031 96.960938 L 25.796875 88.714844 Z M 34.042969 72.804688 "/></clipPath><clipPath id="5a5f3b7728"><path d="M 36 79 L 39 79 L 39 84 L 36 84 Z M 36 79 "/></clipPath><clipPath id="8a8f29e070"><path d="M 34.042969 72.804688 L 49.953125 81.050781 L 41.707031 96.960938 L 25.796875 88.714844 Z M 34.042969 72.804688 "/></clipPath><clipPath id="67c04dd1f8"><path d="M 34.042969 72.804688 L 49.953125 81.050781 L 41.707031 96.960938 L 25.796875 88.714844 Z M 34.042969 72.804688 "/></clipPath><clipPath id="57b3c1ca11"><path d="M 34.042969 72.804688 L 49.953125 81.050781 L 41.707031 96.960938 L 25.796875 88.714844 Z M 34.042969 72.804688 "/></clipPath><clipPath id="27ab2f71b1"><path d="M 39 81 L 42 81 L 42 86 L 39 86 Z M 39 81 "/></clipPath><clipPath id="ae302d49d8"><path d="M 34.042969 72.804688 L 49.953125 81.050781 L 41.707031 96.960938 L 25.796875 88.714844 Z M 34.042969 72.804688 "/></clipPath><clipPath id="e1d22b1569"><path d="M 34.042969 72.804688 L 49.953125 81.050781 L 41.707031 96.960938 L 25.796875 88.714844 Z M 34.042969 72.804688 "/></clipPath><clipPath id="7c8ad852b0"><path d="M 34.042969 72.804688 L 49.953125 81.050781 L 41.707031 96.960938 L 25.796875 88.714844 Z M 34.042969 72.804688 "/></clipPath><clipPath id="e9aac7378c"><path d="M 37 80 L 39 80 L 39 81 L 37 81 Z M 37 80 "/></clipPath><clipPath id="124e33c96e"><path d="M 34.042969 72.804688 L 49.953125 81.050781 L 41.707031 96.960938 L 25.796875 88.714844 Z M 34.042969 72.804688 "/></clipPath><clipPath id="08796d2628"><path d="M 34.042969 72.804688 L 49.953125 81.050781 L 41.707031 96.960938 L 25.796875 88.714844 Z M 34.042969 72.804688 "/></clipPath><clipPath id="64d6a35e21"><path d="M 34.042969 72.804688 L 49.953125 81.050781 L 41.707031 96.960938 L 25.796875 88.714844 Z M 34.042969 72.804688 "/></clipPath><clipPath id="3d68f43498"><path d="M 37 80 L 38 80 L 38 81 L 37 81 Z M 37 80 "/></clipPath><clipPath id="a3ecdef01a"><path d="M 34.042969 72.804688 L 49.953125 81.050781 L 41.707031 96.960938 L 25.796875 88.714844 Z M 34.042969 72.804688 "/></clipPath><clipPath id="e5d51018c5"><path d="M 34.042969 72.804688 L 49.953125 81.050781 L 41.707031 96.960938 L 25.796875 88.714844 Z M 34.042969 72.804688 "/></clipPath><clipPath id="204990cd3d"><path d="M 34.042969 72.804688 L 49.953125 81.050781 L 41.707031 96.960938 L 25.796875 88.714844 Z M 34.042969 72.804688 "/></clipPath><clipPath id="4c3d962b6e"><path d="M 40 82 L 42 82 L 42 83 L 40 83 Z M 40 82 "/></clipPath><clipPath id="27478919b2"><path d="M 34.042969 72.804688 L 49.953125 81.050781 L 41.707031 96.960938 L 25.796875 88.714844 Z M 34.042969 72.804688 "/></clipPath><clipPath id="ca293b9945"><path d="M 34.042969 72.804688 L 49.953125 81.050781 L 41.707031 96.960938 L 25.796875 88.714844 Z M 34.042969 72.804688 "/></clipPath><clipPath id="9de67f05a2"><path d="M 34.042969 72.804688 L 49.953125 81.050781 L 41.707031 96.960938 L 25.796875 88.714844 Z M 34.042969 72.804688 "/></clipPath><clipPath id="01c3605568"><path d="M 40 82 L 41 82 L 41 83 L 40 83 Z M 40 82 "/></clipPath><clipPath id="8506744858"><path d="M 34.042969 72.804688 L 49.953125 81.050781 L 41.707031 96.960938 L 25.796875 88.714844 Z M 34.042969 72.804688 "/></clipPath><clipPath id="64a9bfa2e3"><path d="M 34.042969 72.804688 L 49.953125 81.050781 L 41.707031 96.960938 L 25.796875 88.714844 Z M 34.042969 72.804688 "/></clipPath><clipPath id="7f22a4f3b6"><path d="M 34.042969 72.804688 L 49.953125 81.050781 L 41.707031 96.960938 L 25.796875 88.714844 Z M 34.042969 72.804688 "/></clipPath></defs><g id="366b31c0d1"><g clip-rule="nonzero" clip-path="url(#7ab8feea96)"><g clip-rule="nonzero" clip-path="url(#f0063d91fb)"><g clip-rule="nonzero" clip-path="url(#f775fe2cf8)"><g clip-rule="nonzero" clip-path="url(#6629cd98f1)"><path style=" stroke:none;fill-rule:nonzero;fill:#ffcc00;fill-opacity:1;" d="M 23.347656 12.46875 C 23.636719 12.863281 23.882812 13.285156 24.089844 13.730469 C 24.296875 14.171875 24.457031 14.632812 24.574219 15.109375 C 24.691406 15.585938 24.757812 16.070312 24.78125 16.558594 C 24.800781 17.046875 24.773438 17.535156 24.699219 18.019531 C 24.621094 18.503906 24.5 18.976562 24.332031 19.4375 C 24.164062 19.898438 23.953125 20.335938 23.699219 20.757812 C 23.441406 21.175781 23.148438 21.566406 22.816406 21.925781 C 22.488281 22.285156 22.121094 22.613281 21.726562 22.902344 C 21.332031 23.191406 20.910156 23.4375 20.464844 23.644531 C 20.023438 23.851562 19.5625 24.011719 19.085938 24.128906 C 18.609375 24.246094 18.125 24.3125 17.636719 24.332031 C 17.148438 24.355469 16.660156 24.328125 16.175781 24.25 C 15.691406 24.175781 15.21875 24.054688 14.757812 23.886719 C 14.296875 23.71875 13.859375 23.507812 13.441406 23.25 C 13.019531 22.996094 12.632812 22.703125 12.269531 22.371094 C 11.910156 22.039062 11.582031 21.675781 11.292969 21.28125 C 11.003906 20.886719 10.757812 20.464844 10.550781 20.019531 C 10.34375 19.574219 10.183594 19.117188 10.066406 18.640625 C 9.953125 18.164062 9.882812 17.679688 9.863281 17.191406 C 9.839844 16.699219 9.867188 16.214844 9.945312 15.730469 C 10.019531 15.246094 10.140625 14.773438 10.308594 14.3125 C 10.476562 13.851562 10.6875 13.410156 10.945312 12.992188 C 11.199219 12.574219 11.492188 12.183594 11.824219 11.824219 C 12.15625 11.460938 12.519531 11.136719 12.914062 10.847656 C 13.308594 10.558594 13.730469 10.3125 14.175781 10.105469 C 14.621094 9.898438 15.078125 9.738281 15.554688 9.621094 C 16.03125 9.503906 16.515625 9.4375 17.003906 9.417969 C 17.496094 9.394531 17.980469 9.421875 18.464844 9.496094 C 18.949219 9.574219 19.421875 9.695312 19.882812 9.863281 C 20.34375 10.03125 20.785156 10.242188 21.203125 10.496094 C 21.621094 10.753906 22.011719 11.046875 22.371094 11.378906 C 22.734375 11.710938 23.058594 12.074219 23.347656 12.46875 Z M 23.347656 12.46875 "/></g></g></g></g><g clip-rule="nonzero" clip-path="url(#5b63501eb9)"><g clip-rule="nonzero" clip-path="url(#29bdc2bd1c)"><g clip-rule="nonzero" clip-path="url(#2053a5a512)"><g clip-rule="nonzero" clip-path="url(#052e2fe9d4)"><path style=" stroke:none;fill-rule:nonzero;fill:#000000;fill-opacity:1;" d="M 22.207031 12.9375 C 21.953125 12.625 21.671875 12.335938 21.363281 12.078125 C 21.054688 11.816406 20.722656 11.589844 20.371094 11.394531 C 20.019531 11.195312 19.648438 11.035156 19.265625 10.910156 C 18.882812 10.785156 18.492188 10.699219 18.089844 10.648438 C 17.6875 10.601562 17.289062 10.589844 16.886719 10.617188 C 16.484375 10.644531 16.085938 10.710938 15.695312 10.816406 C 15.304688 10.921875 14.929688 11.0625 14.566406 11.238281 C 14.207031 11.417969 13.863281 11.625 13.539062 11.871094 C 13.21875 12.113281 12.921875 12.386719 12.652344 12.683594 C 12.382812 12.984375 12.144531 13.308594 11.9375 13.65625 C 11.730469 14.003906 11.558594 14.363281 11.421875 14.746094 C 11.285156 15.125 11.183594 15.511719 11.125 15.914062 C 11.0625 16.3125 11.039062 16.710938 11.054688 17.117188 C 11.070312 17.519531 11.125 17.917969 11.214844 18.308594 C 11.308594 18.703125 11.4375 19.082031 11.601562 19.449219 C 11.769531 19.820312 11.96875 20.167969 12.199219 20.496094 C 12.433594 20.828125 12.695312 21.132812 12.988281 21.410156 C 13.28125 21.6875 13.597656 21.9375 13.9375 22.15625 C 14.277344 22.371094 14.632812 22.554688 15.007812 22.703125 C 15.382812 22.855469 15.769531 22.964844 16.164062 23.039062 C 16.5625 23.113281 16.960938 23.148438 17.367188 23.148438 C 17.769531 23.144531 18.167969 23.101562 18.566406 23.023438 C 18.960938 22.941406 19.34375 22.824219 19.71875 22.671875 C 20.089844 22.515625 20.445312 22.328125 20.78125 22.105469 C 21.144531 21.863281 21.480469 21.589844 21.785156 21.277344 C 22.089844 20.964844 22.359375 20.625 22.597656 20.257812 C 22.832031 19.890625 23.027344 19.503906 23.179688 19.09375 C 23.335938 18.6875 23.445312 18.265625 23.511719 17.835938 C 23.578125 17.40625 23.601562 16.972656 23.578125 16.535156 C 23.554688 16.101562 23.484375 15.671875 23.375 15.25 C 23.261719 14.828125 23.105469 14.421875 22.910156 14.035156 C 22.714844 13.644531 22.480469 13.28125 22.207031 12.9375 Z M 22.359375 13.542969 C 22.574219 13.867188 22.753906 14.207031 22.902344 14.566406 C 23.050781 14.925781 23.164062 15.296875 23.242188 15.675781 C 23.316406 16.058594 23.355469 16.441406 23.359375 16.832031 C 23.363281 17.21875 23.328125 17.605469 23.257812 17.988281 C 23.183594 18.371094 23.078125 18.742188 22.933594 19.101562 C 22.792969 19.464844 22.613281 19.808594 22.40625 20.132812 C 22.195312 20.460938 21.957031 20.765625 21.6875 21.046875 C 21.417969 21.328125 21.125 21.582031 20.808594 21.804688 C 20.492188 22.027344 20.15625 22.222656 19.800781 22.378906 C 19.449219 22.539062 19.082031 22.664062 18.703125 22.753906 C 18.324219 22.84375 17.941406 22.894531 17.554688 22.910156 C 17.164062 22.925781 16.777344 22.902344 16.394531 22.84375 C 16.011719 22.78125 15.636719 22.6875 15.269531 22.554688 C 14.90625 22.421875 14.554688 22.257812 14.222656 22.058594 C 13.890625 21.859375 13.578125 21.628906 13.289062 21.371094 C 13 21.109375 12.738281 20.824219 12.503906 20.515625 C 12.269531 20.207031 12.066406 19.875 11.894531 19.527344 C 11.726562 19.175781 11.589844 18.816406 11.488281 18.441406 C 11.386719 18.066406 11.324219 17.683594 11.296875 17.296875 C 11.269531 16.90625 11.28125 16.519531 11.328125 16.136719 C 11.375 15.75 11.460938 15.371094 11.578125 15.003906 C 11.699219 14.632812 11.855469 14.277344 12.042969 13.941406 C 12.234375 13.601562 12.453125 13.28125 12.703125 12.984375 C 12.953125 12.6875 13.230469 12.417969 13.53125 12.171875 C 13.859375 11.910156 14.210938 11.683594 14.585938 11.496094 C 14.960938 11.304688 15.351562 11.15625 15.757812 11.046875 C 16.164062 10.941406 16.574219 10.875 16.996094 10.851562 C 17.414062 10.828125 17.832031 10.851562 18.246094 10.914062 C 18.660156 10.980469 19.066406 11.085938 19.457031 11.234375 C 19.851562 11.382812 20.226562 11.570312 20.578125 11.796875 C 20.933594 12.023438 21.257812 12.28125 21.558594 12.578125 C 21.859375 12.871094 22.125 13.191406 22.359375 13.542969 Z M 22.359375 13.542969 "/></g></g></g></g><g clip-rule="nonzero" clip-path="url(#dd799f8f02)"><g clip-rule="nonzero" clip-path="url(#735e0bcc52)"><g clip-rule="nonzero" clip-path="url(#1aea7ad79a)"><g clip-rule="nonzero" clip-path="url(#b01042a30d)"><path style=" stroke:none;fill-rule:nonzero;fill:#000000;fill-opacity:1;" d="M 20.761719 14.976562 L 20.757812 14.976562 C 20.726562 15.003906 20.710938 15.039062 20.710938 15.078125 C 20.691406 15.222656 20.613281 15.28125 20.46875 15.257812 C 20.429688 15.242188 20.390625 15.246094 20.359375 15.269531 L 20.351562 15.273438 C 20.316406 15.300781 20.300781 15.335938 20.308594 15.378906 C 20.3125 15.421875 20.335938 15.453125 20.378906 15.472656 C 20.472656 15.503906 20.566406 15.5 20.660156 15.464844 C 21.53125 16.746094 21.007812 18.671875 19.464844 19.800781 C 17.917969 20.929688 15.921875 20.84375 14.96875 19.628906 C 15.03125 19.550781 15.0625 19.460938 15.058594 19.359375 C 15.058594 19.3125 15.035156 19.28125 14.996094 19.261719 C 14.953125 19.246094 14.914062 19.25 14.878906 19.277344 L 14.875 19.28125 C 14.84375 19.304688 14.828125 19.339844 14.828125 19.378906 C 14.824219 19.441406 14.796875 19.488281 14.746094 19.519531 C 14.699219 19.558594 14.644531 19.570312 14.585938 19.558594 C 14.546875 19.542969 14.511719 19.546875 14.476562 19.570312 L 14.472656 19.574219 C 14.433594 19.601562 14.417969 19.636719 14.425781 19.679688 C 14.429688 19.726562 14.453125 19.757812 14.496094 19.773438 C 14.589844 19.804688 14.683594 19.804688 14.777344 19.765625 C 15.8125 21.085938 17.953125 21.195312 19.601562 19.988281 C 21.25 18.785156 21.796875 16.710938 20.851562 15.328125 C 20.914062 15.25 20.945312 15.160156 20.945312 15.058594 C 20.941406 15.011719 20.917969 14.980469 20.878906 14.960938 C 20.835938 14.945312 20.796875 14.949219 20.761719 14.976562 Z M 20.761719 14.976562 "/></g></g></g></g><g clip-rule="nonzero" clip-path="url(#e20c1c2348)"><g clip-rule="nonzero" clip-path="url(#1822371f36)"><g clip-rule="nonzero" clip-path="url(#21a5a5e1a4)"><g clip-rule="nonzero" clip-path="url(#dfd8ebd457)"><path style=" stroke:none;fill-rule:nonzero;fill:#000000;fill-opacity:1;" d="M 15.511719 15.648438 C 15.652344 15.839844 15.769531 16.035156 15.871094 16.238281 C 15.96875 16.4375 16.039062 16.625 16.082031 16.804688 C 16.125 16.980469 16.136719 17.132812 16.117188 17.261719 C 16.097656 17.386719 16.046875 17.480469 15.964844 17.539062 C 15.886719 17.597656 15.78125 17.617188 15.652344 17.597656 C 15.527344 17.578125 15.382812 17.523438 15.226562 17.425781 C 15.070312 17.332031 14.914062 17.207031 14.753906 17.054688 C 14.59375 16.898438 14.441406 16.722656 14.300781 16.53125 C 14.160156 16.339844 14.039062 16.144531 13.941406 15.941406 C 13.84375 15.742188 13.769531 15.554688 13.730469 15.375 C 13.6875 15.199219 13.675781 15.046875 13.695312 14.917969 C 13.714844 14.792969 13.765625 14.699219 13.84375 14.640625 C 13.925781 14.582031 14.03125 14.5625 14.15625 14.582031 C 14.285156 14.601562 14.425781 14.65625 14.582031 14.753906 C 14.738281 14.847656 14.898438 14.972656 15.058594 15.125 C 15.21875 15.28125 15.371094 15.457031 15.511719 15.648438 Z M 15.511719 15.648438 "/></g></g></g></g><g clip-rule="nonzero" clip-path="url(#615d11b275)"><g clip-rule="nonzero" clip-path="url(#43404648fc)"><g clip-rule="nonzero" clip-path="url(#49c64eb3f1)"><g clip-rule="nonzero" clip-path="url(#765079f6c9)"><path style=" stroke:none;fill-rule:nonzero;fill:#000000;fill-opacity:1;" d="M 17.964844 13.851562 C 18.105469 14.046875 18.226562 14.242188 18.324219 14.441406 C 18.421875 14.640625 18.496094 14.832031 18.539062 15.007812 C 18.578125 15.1875 18.589844 15.339844 18.570312 15.464844 C 18.550781 15.59375 18.5 15.6875 18.421875 15.746094 C 18.339844 15.804688 18.234375 15.824219 18.109375 15.804688 C 17.980469 15.785156 17.839844 15.726562 17.683594 15.632812 C 17.527344 15.539062 17.367188 15.414062 17.207031 15.257812 C 17.046875 15.101562 16.894531 14.929688 16.753906 14.738281 C 16.613281 14.542969 16.496094 14.347656 16.394531 14.148438 C 16.296875 13.949219 16.226562 13.761719 16.183594 13.582031 C 16.140625 13.40625 16.128906 13.253906 16.148438 13.125 C 16.167969 12.996094 16.21875 12.902344 16.300781 12.84375 C 16.378906 12.785156 16.484375 12.765625 16.613281 12.785156 C 16.738281 12.804688 16.882812 12.863281 17.039062 12.957031 C 17.195312 13.050781 17.351562 13.175781 17.511719 13.332031 C 17.671875 13.488281 17.824219 13.660156 17.964844 13.851562 Z M 17.964844 13.851562 "/></g></g></g></g><g clip-rule="nonzero" clip-path="url(#0326f8e750)"><g clip-rule="nonzero" clip-path="url(#a0febe59df)"><g clip-rule="nonzero" clip-path="url(#b7cc3eac8c)"><g clip-rule="nonzero" clip-path="url(#19d60127b4)"><path style=" stroke:none;fill-rule:nonzero;fill:#ffffff;fill-opacity:1;" d="M 13.957031 15.15625 C 13.753906 15.304688 13.984375 15.617188 14.1875 15.46875 C 14.390625 15.320312 14.160156 15.007812 13.957031 15.15625 Z M 13.957031 15.15625 "/><path style=" stroke:none;fill-rule:nonzero;fill:#ffffff;fill-opacity:1;" d="M 13.988281 15.632812 C 13.933594 15.671875 13.925781 15.714844 13.964844 15.769531 C 14.003906 15.820312 14.050781 15.828125 14.101562 15.789062 C 14.152344 15.75 14.160156 15.707031 14.121094 15.652344 C 14.085938 15.601562 14.039062 15.59375 13.988281 15.632812 Z M 13.988281 15.632812 "/></g></g></g></g><g clip-rule="nonzero" clip-path="url(#88b4e3b1e0)"><g clip-rule="nonzero" clip-path="url(#8252435afb)"><g clip-rule="nonzero" clip-path="url(#4e5dd45ad0)"><g clip-rule="nonzero" clip-path="url(#b9362f7e0a)"><path style=" stroke:none;fill-rule:nonzero;fill:#ffffff;fill-opacity:1;" d="M 16.410156 13.363281 C 16.207031 13.511719 16.4375 13.824219 16.640625 13.675781 C 16.84375 13.527344 16.613281 13.214844 16.410156 13.363281 Z M 16.410156 13.363281 "/></g></g></g></g><g clip-rule="nonzero" clip-path="url(#4277994866)"><g clip-rule="nonzero" clip-path="url(#6590e6c526)"><g clip-rule="nonzero" clip-path="url(#eeb5b405b1)"><g clip-rule="nonzero" clip-path="url(#ebdb6d2163)"><path style=" stroke:none;fill-rule:nonzero;fill:#ffffff;fill-opacity:1;" d="M 16.4375 13.839844 C 16.386719 13.878906 16.378906 13.925781 16.417969 13.976562 C 16.453125 14.03125 16.5 14.035156 16.550781 14 C 16.605469 13.960938 16.613281 13.914062 16.574219 13.863281 C 16.535156 13.808594 16.488281 13.800781 16.4375 13.839844 Z M 16.4375 13.839844 "/></g></g></g></g><g clip-rule="nonzero" clip-path="url(#09dee5724a)"><g clip-rule="nonzero" clip-path="url(#c4be2bcbb6)"><g clip-rule="nonzero" clip-path="url(#edabbffe9d)"><g clip-rule="nonzero" clip-path="url(#6feab3d050)"><path style=" stroke:none;fill-rule:nonzero;fill:#ffcc00;fill-opacity:1;" d="M 90.949219 25.515625 C 91.15625 26.273438 91.285156 27.042969 91.335938 27.828125 C 91.390625 28.609375 91.367188 29.390625 91.265625 30.167969 C 91.164062 30.945312 90.988281 31.707031 90.738281 32.449219 C 90.488281 33.191406 90.167969 33.902344 89.777344 34.582031 C 89.386719 35.261719 88.933594 35.898438 88.417969 36.488281 C 87.902344 37.082031 87.332031 37.613281 86.710938 38.09375 C 86.089844 38.574219 85.429688 38.984375 84.726562 39.335938 C 84.023438 39.683594 83.292969 39.960938 82.535156 40.164062 C 81.777344 40.367188 81.007812 40.496094 80.226562 40.550781 C 79.445312 40.601562 78.664062 40.578125 77.886719 40.480469 C 77.109375 40.378906 76.347656 40.203125 75.605469 39.953125 C 74.863281 39.703125 74.148438 39.378906 73.46875 38.988281 C 72.789062 38.597656 72.15625 38.144531 71.5625 37.628906 C 70.972656 37.113281 70.4375 36.546875 69.960938 35.925781 C 69.480469 35.304688 69.066406 34.640625 68.71875 33.9375 C 68.371094 33.234375 68.09375 32.507812 67.890625 31.75 C 67.683594 30.992188 67.554688 30.222656 67.503906 29.441406 C 67.449219 28.65625 67.472656 27.875 67.574219 27.097656 C 67.675781 26.320312 67.851562 25.5625 68.101562 24.816406 C 68.351562 24.074219 68.671875 23.363281 69.0625 22.683594 C 69.453125 22.003906 69.90625 21.367188 70.421875 20.777344 C 70.9375 20.1875 71.507812 19.652344 72.128906 19.171875 C 72.75 18.695312 73.410156 18.28125 74.113281 17.933594 C 74.816406 17.582031 75.546875 17.308594 76.304688 17.101562 C 77.0625 16.898438 77.832031 16.769531 78.613281 16.714844 C 79.394531 16.664062 80.175781 16.6875 80.953125 16.789062 C 81.730469 16.886719 82.492188 17.0625 83.234375 17.316406 C 83.980469 17.566406 84.691406 17.886719 85.371094 18.277344 C 86.050781 18.667969 86.6875 19.121094 87.277344 19.636719 C 87.867188 20.152344 88.402344 20.71875 88.882812 21.34375 C 89.359375 21.964844 89.773438 22.625 90.121094 23.328125 C 90.46875 24.03125 90.746094 24.761719 90.949219 25.515625 Z M 90.949219 25.515625 "/></g></g></g></g><g clip-rule="nonzero" clip-path="url(#c161f81073)"><g clip-rule="nonzero" clip-path="url(#978dbd4fd3)"><g clip-rule="nonzero" clip-path="url(#b67e55f40a)"><g clip-rule="nonzero" clip-path="url(#a85890b3a8)"><path style=" stroke:none;fill-rule:nonzero;fill:#000000;fill-opacity:1;" d="M 88.976562 25.5625 C 88.777344 24.949219 88.523438 24.359375 88.214844 23.792969 C 87.902344 23.226562 87.539062 22.695312 87.125 22.203125 C 86.710938 21.707031 86.253906 21.253906 85.753906 20.847656 C 85.25 20.4375 84.714844 20.082031 84.148438 19.78125 C 83.578125 19.476562 82.984375 19.230469 82.367188 19.039062 C 81.75 18.851562 81.117188 18.722656 80.476562 18.652344 C 79.835938 18.585938 79.191406 18.578125 78.546875 18.636719 C 77.90625 18.691406 77.273438 18.808594 76.652344 18.988281 C 76.03125 19.164062 75.433594 19.402344 74.859375 19.695312 C 74.285156 19.988281 73.742188 20.335938 73.234375 20.734375 C 72.726562 21.132812 72.257812 21.574219 71.835938 22.0625 C 71.414062 22.550781 71.042969 23.074219 70.71875 23.632812 C 70.398438 24.195312 70.132812 24.78125 69.925781 25.390625 C 69.714844 26 69.566406 26.628906 69.480469 27.265625 C 69.390625 27.90625 69.363281 28.550781 69.402344 29.195312 C 69.4375 29.839844 69.535156 30.472656 69.691406 31.101562 C 69.851562 31.726562 70.070312 32.332031 70.34375 32.914062 C 70.621094 33.5 70.949219 34.050781 71.332031 34.570312 C 71.710938 35.09375 72.140625 35.570312 72.617188 36.011719 C 73.089844 36.449219 73.601562 36.835938 74.152344 37.175781 C 74.703125 37.515625 75.277344 37.796875 75.882812 38.027344 C 76.488281 38.253906 77.109375 38.421875 77.746094 38.527344 C 78.382812 38.636719 79.023438 38.683594 79.667969 38.667969 C 80.3125 38.652344 80.953125 38.574219 81.582031 38.433594 C 82.261719 38.28125 82.921875 38.0625 83.554688 37.773438 C 84.191406 37.484375 84.789062 37.132812 85.351562 36.71875 C 85.914062 36.304688 86.429688 35.835938 86.894531 35.316406 C 87.359375 34.792969 87.765625 34.230469 88.113281 33.625 C 88.460938 33.019531 88.742188 32.386719 88.957031 31.722656 C 89.171875 31.058594 89.316406 30.378906 89.390625 29.6875 C 89.464844 28.992188 89.46875 28.296875 89.398438 27.605469 C 89.328125 26.910156 89.1875 26.230469 88.976562 25.5625 Z M 88.855469 26.554688 C 88.992188 27.160156 89.066406 27.773438 89.082031 28.394531 C 89.09375 29.019531 89.050781 29.636719 88.949219 30.246094 C 88.84375 30.859375 88.683594 31.457031 88.460938 32.039062 C 88.242188 32.621094 87.972656 33.175781 87.644531 33.707031 C 87.316406 34.234375 86.945312 34.730469 86.523438 35.183594 C 86.101562 35.640625 85.640625 36.054688 85.136719 36.421875 C 84.636719 36.789062 84.105469 37.105469 83.542969 37.371094 C 82.980469 37.636719 82.398438 37.847656 81.796875 38 C 81.191406 38.152344 80.582031 38.246094 79.960938 38.28125 C 79.339844 38.316406 78.722656 38.289062 78.105469 38.207031 C 77.488281 38.121094 76.886719 37.976562 76.300781 37.777344 C 75.710938 37.578125 75.148438 37.320312 74.609375 37.011719 C 74.070312 36.703125 73.566406 36.34375 73.09375 35.9375 C 72.625 35.53125 72.199219 35.082031 71.816406 34.59375 C 71.429688 34.101562 71.097656 33.582031 70.816406 33.027344 C 70.53125 32.472656 70.304688 31.898438 70.132812 31.300781 C 69.960938 30.703125 69.851562 30.09375 69.796875 29.476562 C 69.742188 28.855469 69.746094 28.238281 69.8125 27.617188 C 69.878906 27 70 26.394531 70.183594 25.800781 C 70.367188 25.207031 70.605469 24.632812 70.894531 24.085938 C 71.1875 23.535156 71.53125 23.019531 71.921875 22.539062 C 72.316406 22.054688 72.75 21.617188 73.226562 21.21875 C 73.703125 20.820312 74.214844 20.46875 74.761719 20.167969 C 75.304688 19.871094 75.871094 19.625 76.464844 19.433594 C 77.105469 19.230469 77.757812 19.09375 78.429688 19.027344 C 79.097656 18.960938 79.765625 18.960938 80.433594 19.035156 C 81.101562 19.105469 81.753906 19.246094 82.394531 19.453125 C 83.035156 19.660156 83.644531 19.929688 84.226562 20.265625 C 84.808594 20.601562 85.351562 20.992188 85.855469 21.441406 C 86.355469 21.886719 86.804688 22.382812 87.203125 22.921875 C 87.601562 23.464844 87.941406 24.039062 88.21875 24.652344 C 88.496094 25.261719 88.710938 25.898438 88.855469 26.554688 Z M 88.855469 26.554688 "/></g></g></g></g><g clip-rule="nonzero" clip-path="url(#5b4f441228)"><g clip-rule="nonzero" clip-path="url(#23358df46b)"><g clip-rule="nonzero" clip-path="url(#0e33c577a2)"><g clip-rule="nonzero" clip-path="url(#b7c6b2845b)"><path style=" stroke:none;fill-rule:nonzero;fill:#000000;fill-opacity:1;" d="M 85.652344 27.773438 L 85.644531 27.777344 C 85.578125 27.796875 85.539062 27.835938 85.515625 27.898438 C 85.46875 27.984375 85.402344 28.039062 85.308594 28.0625 C 85.21875 28.089844 85.128906 28.074219 85.050781 28.027344 C 85 27.984375 84.941406 27.96875 84.878906 27.984375 L 84.867188 27.984375 C 84.800781 28.003906 84.757812 28.046875 84.738281 28.117188 C 84.722656 28.1875 84.738281 28.246094 84.792969 28.292969 C 84.914062 28.398438 85.058594 28.449219 85.21875 28.445312 C 85.785156 30.859375 83.894531 33.4375 80.9375 34.234375 C 77.984375 35.03125 75.050781 33.757812 74.324219 31.390625 C 74.464844 31.3125 74.5625 31.195312 74.617188 31.042969 C 74.636719 30.972656 74.625 30.914062 74.574219 30.863281 C 74.523438 30.8125 74.464844 30.796875 74.394531 30.816406 L 74.386719 30.816406 C 74.324219 30.839844 74.28125 30.878906 74.261719 30.941406 C 74.21875 31.027344 74.148438 31.082031 74.054688 31.105469 C 73.960938 31.132812 73.875 31.121094 73.792969 31.066406 C 73.742188 31.023438 73.6875 31.011719 73.621094 31.023438 L 73.613281 31.027344 C 73.542969 31.046875 73.5 31.089844 73.484375 31.160156 C 73.464844 31.226562 73.484375 31.289062 73.535156 31.335938 C 73.660156 31.441406 73.800781 31.492188 73.964844 31.488281 C 74.746094 34.054688 77.882812 35.449219 81.035156 34.59375 C 84.1875 33.742188 86.199219 30.960938 85.582031 28.351562 C 85.722656 28.269531 85.820312 28.15625 85.875 28.003906 C 85.894531 27.933594 85.878906 27.875 85.832031 27.824219 C 85.78125 27.769531 85.71875 27.753906 85.652344 27.773438 Z M 85.652344 27.773438 "/></g></g></g></g><g clip-rule="nonzero" clip-path="url(#8ff03e8d41)"><g clip-rule="nonzero" clip-path="url(#b7672714cb)"><g clip-rule="nonzero" clip-path="url(#a2b2f7f853)"><g clip-rule="nonzero" clip-path="url(#638e342637)"><path style=" stroke:none;fill-rule:nonzero;fill:#000000;fill-opacity:1;" d="M 77.421875 25.761719 C 77.519531 26.128906 77.585938 26.492188 77.621094 26.847656 C 77.652344 27.203125 77.652344 27.523438 77.613281 27.8125 C 77.574219 28.105469 77.503906 28.339844 77.398438 28.515625 C 77.296875 28.695312 77.167969 28.804688 77.015625 28.847656 C 76.863281 28.890625 76.695312 28.859375 76.515625 28.757812 C 76.335938 28.652344 76.15625 28.488281 75.976562 28.257812 C 75.800781 28.023438 75.632812 27.746094 75.484375 27.421875 C 75.332031 27.101562 75.207031 26.753906 75.109375 26.386719 C 75.007812 26.019531 74.941406 25.65625 74.910156 25.300781 C 74.875 24.945312 74.878906 24.621094 74.917969 24.332031 C 74.957031 24.042969 75.027344 23.808594 75.128906 23.628906 C 75.234375 23.449219 75.363281 23.339844 75.515625 23.296875 C 75.667969 23.257812 75.835938 23.289062 76.015625 23.390625 C 76.195312 23.492188 76.375 23.660156 76.550781 23.890625 C 76.730469 24.121094 76.894531 24.398438 77.046875 24.722656 C 77.195312 25.046875 77.320312 25.394531 77.421875 25.761719 Z M 77.421875 25.761719 "/></g></g></g></g><g clip-rule="nonzero" clip-path="url(#7720805160)"><g clip-rule="nonzero" clip-path="url(#cbd14f1ac8)"><g clip-rule="nonzero" clip-path="url(#f741d3a4f9)"><g clip-rule="nonzero" clip-path="url(#d5b7e62860)"><path style=" stroke:none;fill-rule:nonzero;fill:#000000;fill-opacity:1;" d="M 82.117188 24.492188 C 82.21875 24.859375 82.285156 25.222656 82.316406 25.578125 C 82.351562 25.933594 82.347656 26.257812 82.308594 26.546875 C 82.269531 26.835938 82.199219 27.070312 82.097656 27.25 C 81.992188 27.425781 81.863281 27.539062 81.710938 27.578125 C 81.558594 27.621094 81.390625 27.589844 81.210938 27.488281 C 81.03125 27.386719 80.851562 27.21875 80.675781 26.988281 C 80.496094 26.757812 80.332031 26.480469 80.179688 26.15625 C 80.03125 25.832031 79.90625 25.484375 79.804688 25.117188 C 79.707031 24.75 79.640625 24.386719 79.605469 24.03125 C 79.574219 23.675781 79.574219 23.351562 79.613281 23.0625 C 79.652344 22.773438 79.722656 22.539062 79.828125 22.359375 C 79.929688 22.179688 80.058594 22.070312 80.210938 22.03125 C 80.363281 21.988281 80.53125 22.019531 80.710938 22.121094 C 80.890625 22.222656 81.070312 22.390625 81.25 22.621094 C 81.425781 22.851562 81.59375 23.128906 81.742188 23.453125 C 81.894531 23.777344 82.019531 24.125 82.117188 24.492188 Z M 82.117188 24.492188 "/></g></g></g></g><g clip-rule="nonzero" clip-path="url(#b0924f56f3)"><g clip-rule="nonzero" clip-path="url(#1e871333ec)"><g clip-rule="nonzero" clip-path="url(#4e12153456)"><g clip-rule="nonzero" clip-path="url(#4fd16cfc6a)"><path style=" stroke:none;fill-rule:nonzero;fill:#ffffff;fill-opacity:1;" d="M 75.386719 24.132812 C 75 24.238281 75.160156 24.839844 75.546875 24.734375 C 75.9375 24.628906 75.777344 24.027344 75.386719 24.132812 Z M 75.386719 24.132812 "/></g></g></g></g><g clip-rule="nonzero" clip-path="url(#848cd64e02)"><g clip-rule="nonzero" clip-path="url(#cc7573dffd)"><g clip-rule="nonzero" clip-path="url(#f67c98a44a)"><g clip-rule="nonzero" clip-path="url(#0c977ac38b)"><path style=" stroke:none;fill-rule:nonzero;fill:#ffffff;fill-opacity:1;" d="M 75.15625 24.863281 C 75.054688 24.890625 75.019531 24.953125 75.046875 25.054688 C 75.074219 25.152344 75.136719 25.191406 75.238281 25.164062 C 75.335938 25.136719 75.375 25.074219 75.347656 24.972656 C 75.320312 24.871094 75.253906 24.835938 75.15625 24.863281 Z M 75.15625 24.863281 "/></g></g></g></g><g clip-rule="nonzero" clip-path="url(#90f746cb93)"><g clip-rule="nonzero" clip-path="url(#e2ec8854c4)"><g clip-rule="nonzero" clip-path="url(#34e1a5ef47)"><g clip-rule="nonzero" clip-path="url(#779342e7b5)"><path style=" stroke:none;fill-rule:nonzero;fill:#ffffff;fill-opacity:1;" d="M 80.078125 22.863281 C 79.691406 22.96875 79.855469 23.570312 80.242188 23.464844 C 80.628906 23.363281 80.464844 22.761719 80.078125 22.863281 Z M 80.078125 22.863281 "/></g></g></g></g><g clip-rule="nonzero" clip-path="url(#7f3ab3112f)"><g clip-rule="nonzero" clip-path="url(#ab0f222e9d)"><g clip-rule="nonzero" clip-path="url(#682e1dcf2d)"><g clip-rule="nonzero" clip-path="url(#82a12a520d)"><path style=" stroke:none;fill-rule:nonzero;fill:#ffffff;fill-opacity:1;" d="M 79.84375 23.59375 C 79.746094 23.621094 79.707031 23.6875 79.734375 23.785156 C 79.761719 23.886719 79.824219 23.921875 79.925781 23.894531 C 80.027344 23.871094 80.0625 23.804688 80.035156 23.707031 C 80.007812 23.605469 79.945312 23.566406 79.84375 23.59375 Z M 79.84375 23.59375 "/></g></g></g></g><g clip-rule="nonzero" clip-path="url(#7518dbedfc)"><g clip-rule="nonzero" clip-path="url(#0cef17088c)"><g clip-rule="nonzero" clip-path="url(#6027d7cfe4)"><g clip-rule="nonzero" clip-path="url(#fa36de8890)"><path style=" stroke:none;fill-rule:nonzero;fill:#ffcc00;fill-opacity:1;" d="M 45.828125 89.003906 C 45.558594 89.523438 45.238281 90.015625 44.871094 90.476562 C 44.503906 90.933594 44.097656 91.355469 43.644531 91.734375 C 43.195312 92.113281 42.714844 92.445312 42.199219 92.726562 C 41.683594 93.011719 41.144531 93.242188 40.585938 93.421875 C 40.023438 93.597656 39.453125 93.71875 38.867188 93.785156 C 38.28125 93.847656 37.695312 93.855469 37.109375 93.808594 C 36.523438 93.757812 35.949219 93.648438 35.382812 93.484375 C 34.820312 93.324219 34.277344 93.105469 33.753906 92.835938 C 33.230469 92.5625 32.738281 92.246094 32.28125 91.878906 C 31.820312 91.511719 31.402344 91.101562 31.023438 90.652344 C 30.644531 90.203125 30.3125 89.71875 30.027344 89.203125 C 29.746094 88.6875 29.515625 88.152344 29.335938 87.589844 C 29.160156 87.03125 29.035156 86.457031 28.972656 85.871094 C 28.90625 85.289062 28.898438 84.703125 28.949219 84.117188 C 29 83.53125 29.105469 82.957031 29.269531 82.390625 C 29.433594 81.824219 29.652344 81.28125 29.921875 80.757812 C 30.191406 80.238281 30.511719 79.746094 30.878906 79.285156 C 31.246094 78.828125 31.65625 78.410156 32.105469 78.03125 C 32.554688 77.652344 33.035156 77.320312 33.550781 77.035156 C 34.066406 76.75 34.605469 76.519531 35.164062 76.34375 C 35.726562 76.164062 36.300781 76.042969 36.882812 75.976562 C 37.46875 75.914062 38.054688 75.90625 38.640625 75.957031 C 39.226562 76.003906 39.800781 76.113281 40.367188 76.277344 C 40.929688 76.441406 41.476562 76.65625 41.996094 76.925781 C 42.519531 77.199219 43.011719 77.515625 43.46875 77.882812 C 43.929688 78.25 44.347656 78.660156 44.726562 79.109375 C 45.105469 79.558594 45.4375 80.042969 45.722656 80.558594 C 46.003906 81.074219 46.234375 81.609375 46.414062 82.171875 C 46.589844 82.730469 46.714844 83.304688 46.777344 83.890625 C 46.84375 84.472656 46.851562 85.058594 46.800781 85.644531 C 46.75 86.230469 46.644531 86.808594 46.480469 87.371094 C 46.316406 87.9375 46.097656 88.480469 45.828125 89.003906 Z M 45.828125 89.003906 "/></g></g></g></g><g clip-rule="nonzero" clip-path="url(#07e4e1ab95)"><g clip-rule="nonzero" clip-path="url(#b6db7c0a87)"><g clip-rule="nonzero" clip-path="url(#c2394d349b)"><g clip-rule="nonzero" clip-path="url(#fe28df70b6)"><path style=" stroke:none;fill-rule:nonzero;fill:#000000;fill-opacity:1;" d="M 44.714844 88.027344 C 44.917969 87.589844 45.074219 87.132812 45.1875 86.664062 C 45.304688 86.191406 45.371094 85.714844 45.394531 85.230469 C 45.417969 84.746094 45.394531 84.265625 45.324219 83.785156 C 45.25 83.308594 45.136719 82.839844 44.976562 82.382812 C 44.8125 81.925781 44.613281 81.488281 44.367188 81.070312 C 44.121094 80.652344 43.839844 80.261719 43.515625 79.898438 C 43.195312 79.535156 42.84375 79.207031 42.460938 78.914062 C 42.074219 78.617188 41.667969 78.363281 41.234375 78.144531 C 40.800781 77.929688 40.351562 77.757812 39.882812 77.628906 C 39.417969 77.5 38.941406 77.414062 38.460938 77.378906 C 37.976562 77.339844 37.496094 77.347656 37.011719 77.40625 C 36.53125 77.460938 36.058594 77.5625 35.597656 77.707031 C 35.136719 77.855469 34.695312 78.042969 34.269531 78.277344 C 33.84375 78.507812 33.445312 78.777344 33.070312 79.085938 C 32.699219 79.394531 32.359375 79.738281 32.050781 80.113281 C 31.746094 80.488281 31.476562 80.886719 31.246094 81.316406 C 31.019531 81.742188 30.832031 82.1875 30.6875 82.648438 C 30.542969 83.109375 30.445312 83.582031 30.394531 84.0625 C 30.339844 84.546875 30.335938 85.027344 30.375 85.511719 C 30.414062 85.992188 30.5 86.46875 30.632812 86.933594 C 30.765625 87.398438 30.941406 87.847656 31.160156 88.28125 C 31.378906 88.710938 31.636719 89.121094 31.933594 89.503906 C 32.230469 89.882812 32.5625 90.234375 32.925781 90.554688 C 33.292969 90.871094 33.683594 91.152344 34.101562 91.394531 C 34.554688 91.65625 35.03125 91.867188 35.53125 92.03125 C 36.027344 92.191406 36.535156 92.300781 37.058594 92.355469 C 37.578125 92.414062 38.097656 92.414062 38.621094 92.363281 C 39.140625 92.3125 39.648438 92.207031 40.148438 92.046875 C 40.648438 91.886719 41.125 91.679688 41.582031 91.421875 C 42.035156 91.164062 42.460938 90.863281 42.855469 90.519531 C 43.246094 90.171875 43.601562 89.789062 43.914062 89.371094 C 44.226562 88.949219 44.492188 88.503906 44.714844 88.027344 Z M 44.144531 88.515625 C 43.914062 88.917969 43.640625 89.296875 43.335938 89.644531 C 43.027344 89.996094 42.691406 90.316406 42.324219 90.601562 C 41.957031 90.890625 41.5625 91.136719 41.148438 91.347656 C 40.730469 91.558594 40.300781 91.726562 39.851562 91.855469 C 39.402344 91.980469 38.945312 92.0625 38.480469 92.101562 C 38.015625 92.140625 37.550781 92.136719 37.089844 92.085938 C 36.625 92.035156 36.171875 91.941406 35.726562 91.800781 C 35.28125 91.664062 34.851562 91.484375 34.441406 91.261719 C 34.03125 91.042969 33.644531 90.785156 33.285156 90.488281 C 32.921875 90.191406 32.59375 89.867188 32.296875 89.507812 C 32 89.148438 31.738281 88.765625 31.515625 88.355469 C 31.292969 87.945312 31.109375 87.519531 30.96875 87.074219 C 30.828125 86.628906 30.730469 86.175781 30.675781 85.710938 C 30.625 85.25 30.613281 84.785156 30.652344 84.320312 C 30.6875 83.855469 30.765625 83.398438 30.890625 82.949219 C 31.015625 82.5 31.183594 82.066406 31.390625 81.648438 C 31.597656 81.230469 31.84375 80.839844 32.128906 80.46875 C 32.410156 80.097656 32.726562 79.757812 33.078125 79.449219 C 33.425781 79.140625 33.804688 78.871094 34.207031 78.632812 C 34.605469 78.398438 35.027344 78.203125 35.46875 78.046875 C 35.90625 77.890625 36.359375 77.78125 36.820312 77.710938 C 37.28125 77.644531 37.746094 77.621094 38.210938 77.644531 C 38.675781 77.664062 39.136719 77.730469 39.589844 77.839844 C 40.042969 77.949219 40.480469 78.101562 40.902344 78.296875 C 41.359375 78.511719 41.792969 78.765625 42.195312 79.070312 C 42.597656 79.371094 42.96875 79.710938 43.300781 80.089844 C 43.632812 80.464844 43.925781 80.875 44.171875 81.3125 C 44.421875 81.753906 44.621094 82.210938 44.773438 82.691406 C 44.925781 83.171875 45.027344 83.664062 45.078125 84.164062 C 45.128906 84.667969 45.125 85.167969 45.070312 85.667969 C 45.019531 86.171875 44.914062 86.660156 44.757812 87.140625 C 44.601562 87.621094 44.398438 88.078125 44.144531 88.515625 Z M 44.144531 88.515625 "/></g></g></g></g><g clip-rule="nonzero" clip-path="url(#f30a017ba7)"><g clip-rule="nonzero" clip-path="url(#510e21a109)"><g clip-rule="nonzero" clip-path="url(#c4fcc1849e)"><g clip-rule="nonzero" clip-path="url(#6303bee7ab)"><path style=" stroke:none;fill-rule:nonzero;fill:#000000;fill-opacity:1;" d="M 41.753906 87.566406 L 41.75 87.5625 C 41.703125 87.539062 41.660156 87.542969 41.617188 87.566406 C 41.546875 87.589844 41.484375 87.582031 41.417969 87.550781 C 41.355469 87.519531 41.316406 87.46875 41.292969 87.398438 C 41.289062 87.347656 41.265625 87.3125 41.222656 87.289062 L 41.214844 87.285156 C 41.167969 87.261719 41.121094 87.261719 41.078125 87.292969 C 41.03125 87.320312 41.011719 87.363281 41.015625 87.414062 C 41.03125 87.535156 41.085938 87.636719 41.175781 87.71875 C 40.265625 89.335938 37.914062 89.804688 35.875 88.746094 C 33.835938 87.691406 32.863281 85.5 33.660156 83.824219 C 33.777344 83.851562 33.890625 83.835938 34 83.777344 C 34.046875 83.75 34.066406 83.710938 34.066406 83.65625 C 34.0625 83.605469 34.039062 83.566406 33.992188 83.539062 L 33.984375 83.539062 C 33.941406 83.515625 33.894531 83.519531 33.851562 83.542969 C 33.785156 83.566406 33.71875 83.5625 33.65625 83.527344 C 33.589844 83.496094 33.546875 83.445312 33.53125 83.375 C 33.523438 83.324219 33.5 83.289062 33.457031 83.265625 L 33.453125 83.261719 C 33.402344 83.238281 33.359375 83.238281 33.3125 83.269531 C 33.269531 83.296875 33.246094 83.339844 33.25 83.394531 C 33.265625 83.511719 33.320312 83.613281 33.410156 83.695312 C 32.542969 85.511719 33.570312 87.867188 35.746094 88.996094 C 37.921875 90.121094 40.441406 89.605469 41.425781 87.847656 C 41.542969 87.875 41.65625 87.859375 41.761719 87.804688 C 41.808594 87.777344 41.832031 87.734375 41.828125 87.683594 C 41.828125 87.628906 41.804688 87.589844 41.753906 87.566406 Z M 41.753906 87.566406 "/></g></g></g></g><g clip-rule="nonzero" clip-path="url(#5a5f3b7728)"><g clip-rule="nonzero" clip-path="url(#8a8f29e070)"><g clip-rule="nonzero" clip-path="url(#67c04dd1f8)"><g clip-rule="nonzero" clip-path="url(#57b3c1ca11)"><path style=" stroke:none;fill-rule:nonzero;fill:#000000;fill-opacity:1;" d="M 38.226562 82.28125 C 38.09375 82.535156 37.949219 82.769531 37.785156 82.980469 C 37.625 83.195312 37.457031 83.371094 37.292969 83.511719 C 37.125 83.652344 36.964844 83.746094 36.816406 83.792969 C 36.667969 83.839844 36.542969 83.835938 36.4375 83.78125 C 36.332031 83.726562 36.253906 83.625 36.207031 83.476562 C 36.160156 83.328125 36.144531 83.144531 36.164062 82.929688 C 36.179688 82.710938 36.230469 82.472656 36.3125 82.21875 C 36.394531 81.960938 36.5 81.707031 36.628906 81.453125 C 36.761719 81.199219 36.910156 80.964844 37.070312 80.753906 C 37.234375 80.539062 37.398438 80.363281 37.566406 80.222656 C 37.734375 80.082031 37.890625 79.988281 38.039062 79.941406 C 38.1875 79.894531 38.316406 79.898438 38.421875 79.953125 C 38.527344 80.007812 38.601562 80.109375 38.648438 80.257812 C 38.699219 80.40625 38.710938 80.585938 38.695312 80.804688 C 38.675781 81.023438 38.625 81.261719 38.542969 81.515625 C 38.464844 81.773438 38.359375 82.027344 38.226562 82.28125 Z M 38.226562 82.28125 "/></g></g></g></g><g clip-rule="nonzero" clip-path="url(#27ab2f71b1)"><g clip-rule="nonzero" clip-path="url(#ae302d49d8)"><g clip-rule="nonzero" clip-path="url(#e1d22b1569)"><g clip-rule="nonzero" clip-path="url(#7c8ad852b0)"><path style=" stroke:none;fill-rule:nonzero;fill:#000000;fill-opacity:1;" d="M 41.464844 83.960938 C 41.332031 84.210938 41.1875 84.445312 41.023438 84.660156 C 40.863281 84.875 40.699219 85.050781 40.53125 85.191406 C 40.363281 85.332031 40.203125 85.425781 40.058594 85.472656 C 39.910156 85.519531 39.78125 85.515625 39.675781 85.460938 C 39.570312 85.40625 39.492188 85.304688 39.445312 85.15625 C 39.398438 85.007812 39.382812 84.824219 39.402344 84.605469 C 39.421875 84.386719 39.46875 84.152344 39.550781 83.894531 C 39.632812 83.640625 39.738281 83.386719 39.871094 83.132812 C 40 82.878906 40.148438 82.644531 40.308594 82.429688 C 40.472656 82.21875 40.636719 82.039062 40.804688 81.898438 C 40.972656 81.757812 41.132812 81.664062 41.277344 81.621094 C 41.425781 81.574219 41.554688 81.578125 41.660156 81.632812 C 41.765625 81.6875 41.84375 81.789062 41.890625 81.9375 C 41.9375 82.082031 41.953125 82.265625 41.933594 82.484375 C 41.914062 82.703125 41.867188 82.941406 41.785156 83.195312 C 41.703125 83.449219 41.597656 83.707031 41.464844 83.960938 Z M 41.464844 83.960938 "/></g></g></g></g><g clip-rule="nonzero" clip-path="url(#e9aac7378c)"><g clip-rule="nonzero" clip-path="url(#124e33c96e)"><g clip-rule="nonzero" clip-path="url(#08796d2628)"><g clip-rule="nonzero" clip-path="url(#64d6a35e21)"><path style=" stroke:none;fill-rule:nonzero;fill:#ffffff;fill-opacity:1;" d="M 37.925781 80.347656 C 37.660156 80.210938 37.445312 80.625 37.710938 80.761719 C 37.976562 80.902344 38.195312 80.488281 37.925781 80.347656 Z M 37.925781 80.347656 "/></g></g></g></g><g clip-rule="nonzero" clip-path="url(#3d68f43498)"><g clip-rule="nonzero" clip-path="url(#a3ecdef01a)"><g clip-rule="nonzero" clip-path="url(#e5d51018c5)"><g clip-rule="nonzero" clip-path="url(#204990cd3d)"><path style=" stroke:none;fill-rule:nonzero;fill:#ffffff;fill-opacity:1;" d="M 37.429688 80.636719 C 37.359375 80.597656 37.308594 80.617188 37.269531 80.683594 C 37.234375 80.753906 37.253906 80.808594 37.320312 80.84375 C 37.390625 80.878906 37.441406 80.863281 37.480469 80.792969 C 37.515625 80.722656 37.496094 80.671875 37.429688 80.636719 Z M 37.429688 80.636719 "/></g></g></g></g><g clip-rule="nonzero" clip-path="url(#4c3d962b6e)"><g clip-rule="nonzero" clip-path="url(#27478919b2)"><g clip-rule="nonzero" clip-path="url(#ca293b9945)"><g clip-rule="nonzero" clip-path="url(#9de67f05a2)"><path style=" stroke:none;fill-rule:nonzero;fill:#ffffff;fill-opacity:1;" d="M 41.164062 82.027344 C 40.894531 81.886719 40.679688 82.300781 40.949219 82.441406 C 41.214844 82.578125 41.429688 82.164062 41.164062 82.027344 Z M 41.164062 82.027344 "/></g></g></g></g><g clip-rule="nonzero" clip-path="url(#01c3605568)"><g clip-rule="nonzero" clip-path="url(#8506744858)"><g clip-rule="nonzero" clip-path="url(#64a9bfa2e3)"><g clip-rule="nonzero" clip-path="url(#7f22a4f3b6)"><path style=" stroke:none;fill-rule:nonzero;fill:#ffffff;fill-opacity:1;" d="M 40.664062 82.3125 C 40.59375 82.277344 40.542969 82.292969 40.503906 82.363281 C 40.46875 82.429688 40.488281 82.484375 40.554688 82.519531 C 40.625 82.554688 40.675781 82.539062 40.714844 82.46875 C 40.75 82.398438 40.730469 82.347656 40.664062 82.3125 Z M 40.664062 82.3125 "/></g></g></g></g></g></svg>