<svg xmlns="http://www.w3.org/2000/svg" xmlns:xlink="http://www.w3.org/1999/xlink" width="150" zoomAndPan="magnify" viewBox="0 0 112.5 112.499997" height="150" preserveAspectRatio="xMidYMid meet" version="1.2"><defs><clipPath id="80d5c7e556"><path d="M 14 16 L 29 16 L 29 29 L 14 29 Z M 14 16 "/></clipPath><clipPath id="02dd4248f3"><path d="M 17.800781 13.746094 L 28.996094 17.921875 L 24.5625 29.816406 L 13.367188 25.640625 Z M 17.800781 13.746094 "/></clipPath><clipPath id="7a92b5c1fc"><path d="M 17.800781 13.746094 L 28.996094 17.921875 L 24.5625 29.816406 L 13.367188 25.640625 Z M 17.800781 13.746094 "/></clipPath><clipPath id="64bb413688"><path d="M 15 16 L 26 16 L 26 23 L 15 23 Z M 15 16 "/></clipPath><clipPath id="df092360c3"><path d="M 17.800781 13.746094 L 28.996094 17.921875 L 24.5625 29.816406 L 13.367188 25.640625 Z M 17.800781 13.746094 "/></clipPath><clipPath id="233b5a1ace"><path d="M 17.800781 13.746094 L 28.996094 17.921875 L 24.5625 29.816406 L 13.367188 25.640625 Z M 17.800781 13.746094 "/></clipPath><clipPath id="87c313fd59"><path d="M 75 16 L 87 16 L 87 28 L 75 28 Z M 75 16 "/></clipPath><clipPath id="1a0e5cb4ff"><path d="M 75.871094 17.214844 L 85.539062 16.34375 L 86.476562 26.753906 L 76.808594 27.628906 Z M 75.871094 17.214844 "/></clipPath><clipPath id="d4d4b626de"><path d="M 1 0.246094 L 11.496094 0.246094 L 11.496094 11.71875 L 1 11.71875 Z M 1 0.246094 "/></clipPath><clipPath id="bb20f05fb9"><path d="M 0.871094 1.214844 L 10.539062 0.34375 L 11.476562 10.753906 L 1.808594 11.628906 Z M 0.871094 1.214844 "/></clipPath><clipPath id="f7ada36434"><path d="M 1.816406 11.699219 L 11.484375 10.824219 L 10.542969 0.414062 L 0.875 1.285156 Z M 1.816406 11.699219 "/></clipPath><clipPath id="5487fa5767"><path d="M 1 4 L 9 4 L 9 11 L 1 11 Z M 1 4 "/></clipPath><clipPath id="a32d0d804f"><path d="M 0.871094 1.214844 L 10.539062 0.34375 L 11.476562 10.753906 L 1.808594 11.628906 Z M 0.871094 1.214844 "/></clipPath><clipPath id="06b2ab34c1"><path d="M 1.816406 11.699219 L 11.484375 10.824219 L 10.542969 0.414062 L 0.875 1.285156 Z M 1.816406 11.699219 "/></clipPath><clipPath id="e843d1d063"><rect x="0" width="12" y="0" height="12"/></clipPath><clipPath id="0bb98da8aa"><path d="M 23 72 L 33 72 L 33 83 L 23 83 Z M 23 72 "/></clipPath><clipPath id="6565a81cf6"><path d="M 23.308594 75.402344 L 29.449219 72.664062 L 32.488281 79.484375 L 26.351562 82.222656 Z M 23.308594 75.402344 "/></clipPath><clipPath id="f3068ed0de"><path d="M 0.175781 2 L 9 2 L 9 9 L 0.175781 9 Z M 0.175781 2 "/></clipPath><clipPath id="1072321768"><path d="M 0.308594 3.402344 L 6.449219 0.664062 L 9.488281 7.484375 L 3.351562 10.222656 Z M 0.308594 3.402344 "/></clipPath><clipPath id="58990fa124"><path d="M 6.523438 0.632812 L 0.382812 3.367188 L 3.425781 10.1875 L 9.5625 7.449219 Z M 6.523438 0.632812 "/></clipPath><clipPath id="e296e4db3f"><path d="M 2 2 L 8 2 L 8 6 L 2 6 Z M 2 2 "/></clipPath><clipPath id="32b29f2e2d"><path d="M 0.308594 3.402344 L 6.449219 0.664062 L 9.488281 7.484375 L 3.351562 10.222656 Z M 0.308594 3.402344 "/></clipPath><clipPath id="d6bd590f00"><path d="M 6.523438 0.632812 L 0.382812 3.367188 L 3.425781 10.1875 L 9.5625 7.449219 Z M 6.523438 0.632812 "/></clipPath><clipPath id="20bafcb53a"><rect x="0" width="10" y="0" height="11"/></clipPath><clipPath id="98681250ab"><path d="M 67 55 L 86 55 L 86 73 L 67 73 Z M 67 55 "/></clipPath><clipPath id="45bb593c95"><path d="M 77.523438 55.785156 L 85.210938 64.933594 L 75.492188 73.101562 L 67.808594 63.953125 Z M 77.523438 55.785156 "/></clipPath><clipPath id="cbf1112bcc"><path d="M 4 1 L 14 1 L 14 16 L 4 16 Z M 4 1 "/></clipPath><clipPath id="04f00ec36a"><path d="M 10.523438 0.785156 L 18.210938 9.933594 L 8.492188 18.101562 L 0.808594 8.953125 Z M 10.523438 0.785156 "/></clipPath><clipPath id="151ca67a53"><path d="M 18 9.683594 L 10.316406 0.535156 L 0.597656 8.703125 L 8.28125 17.847656 Z M 18 9.683594 "/></clipPath><clipPath id="7236e4ae84"><path d="M 9 3 L 14 3 L 14 14 L 9 14 Z M 9 3 "/></clipPath><clipPath id="b6d7f4d773"><path d="M 10.523438 0.785156 L 18.210938 9.933594 L 8.492188 18.101562 L 0.808594 8.953125 Z M 10.523438 0.785156 "/></clipPath><clipPath id="b514776dfd"><path d="M 18 9.683594 L 10.316406 0.535156 L 0.597656 8.703125 L 8.28125 17.847656 Z M 18 9.683594 "/></clipPath><clipPath id="924c3d2499"><rect x="0" width="19" y="0" height="18"/></clipPath></defs><g id="32372b5e48"><g clip-rule="nonzero" clip-path="url(#80d5c7e556)"><g clip-rule="nonzero" clip-path="url(#02dd4248f3)"><g clip-rule="nonzero" clip-path="url(#7a92b5c1fc)"><path style=" stroke:none;fill-rule:nonzero;fill:#00bf63;fill-opacity:1;" d="M 28.921875 18.296875 L 28.007812 20.753906 L 27.65625 20.625 L 27.523438 20.976562 L 25.0625 20.058594 L 24.933594 20.410156 L 26.691406 21.066406 L 27.042969 21.195312 L 26.910156 21.546875 L 26.558594 21.417969 L 26.429688 21.769531 L 24.671875 21.113281 L 24.277344 22.167969 L 23.925781 22.035156 L 23.664062 22.738281 L 24.71875 23.132812 L 24.585938 23.484375 L 24.195312 24.539062 L 23.492188 24.273438 L 23.753906 23.574219 L 23.402344 23.441406 L 23.007812 24.496094 L 22.65625 24.363281 L 22.394531 25.066406 L 22.042969 24.9375 L 21.914062 25.289062 L 21.5625 25.15625 L 21.429688 25.507812 L 21.078125 25.378906 L 20.949219 25.726562 L 20.597656 25.597656 L 20.070312 27.003906 L 19.722656 26.871094 L 19.457031 27.574219 L 19.808594 27.707031 L 19.679688 28.058594 L 18.625 27.664062 L 18.273438 27.53125 L 18.40625 27.179688 L 18.796875 26.128906 L 17.742188 25.734375 L 17.613281 26.085938 L 17.261719 25.953125 L 17 26.65625 L 17.351562 26.789062 L 17.21875 27.140625 L 16.164062 26.746094 L 15.8125 26.617188 L 16.601562 24.507812 L 16.25 24.375 L 16.378906 24.023438 L 16.027344 23.894531 L 16.160156 23.542969 L 15.808594 23.410156 L 15.9375 23.058594 L 15.585938 22.929688 L 15.71875 22.578125 L 15.367188 22.445312 L 15.5 22.09375 L 15.148438 21.964844 L 15.277344 21.613281 L 14.925781 21.480469 L 15.84375 19.019531 L 16.195312 19.152344 L 16.328125 18.800781 L 16.675781 18.933594 L 16.546875 19.285156 L 16.898438 19.414062 L 16.765625 19.765625 L 17.117188 19.898438 L 16.988281 20.25 L 17.339844 20.378906 L 17.207031 20.730469 L 17.558594 20.863281 L 17.429688 21.214844 L 18.480469 21.605469 L 18.613281 21.253906 L 18.964844 21.386719 L 19.097656 21.035156 L 19.445312 21.164062 L 19.578125 20.8125 L 19.929688 20.945312 L 20.0625 20.59375 L 20.410156 20.726562 L 20.542969 20.375 L 20.894531 20.503906 L 21.027344 20.152344 L 21.378906 20.285156 L 22.6875 16.769531 L 23.039062 16.902344 L 23.171875 16.550781 L 23.523438 16.679688 L 23.652344 16.328125 L 24.003906 16.460938 L 24.136719 16.109375 L 28.703125 17.8125 L 28.574219 18.164062 Z M 28.921875 18.296875 "/></g></g></g><g clip-rule="nonzero" clip-path="url(#64bb413688)"><g clip-rule="nonzero" clip-path="url(#df092360c3)"><g clip-rule="nonzero" clip-path="url(#233b5a1ace)"><path style=" stroke:none;fill-rule:nonzero;fill:#ffffff;fill-opacity:1;" d="M 24.445312 17.425781 L 25.148438 17.6875 L 24.886719 18.390625 L 24.183594 18.128906 Z M 18.351562 21.957031 L 18.21875 22.308594 L 18.570312 22.441406 L 18.703125 22.089844 Z M 17.648438 21.695312 L 17.515625 22.046875 L 17.867188 22.179688 L 18 21.828125 Z M 16.945312 21.433594 L 16.8125 21.785156 L 17.164062 21.917969 L 17.296875 21.566406 Z M 16.945312 21.433594 L 17.078125 21.082031 L 16.726562 20.953125 L 16.59375 21.300781 Z M 16.726562 20.953125 L 16.855469 20.601562 L 16.503906 20.46875 L 16.375 20.820312 Z M 16.636719 20.117188 L 16.285156 19.984375 L 16.152344 20.335938 L 16.503906 20.46875 Z M 16.0625 19.503906 L 15.933594 19.855469 L 16.285156 19.984375 L 16.414062 19.636719 Z M 16.242188 21.171875 L 16.113281 21.523438 L 16.464844 21.652344 L 16.59375 21.300781 Z M 16.023438 20.6875 L 15.890625 21.039062 L 16.242188 21.171875 L 16.375 20.820312 Z M 15.800781 20.207031 L 15.671875 20.558594 L 16.023438 20.6875 L 16.152344 20.335938 Z M 19.183594 21.867188 L 18.832031 21.738281 L 18.703125 22.089844 L 19.054688 22.21875 Z M 19.667969 21.648438 L 19.316406 21.515625 L 19.183594 21.867188 L 19.535156 22 Z M 20.148438 21.429688 L 19.796875 21.296875 L 19.667969 21.648438 L 20.019531 21.78125 Z M 20.632812 21.207031 L 20.28125 21.078125 L 20.148438 21.429688 L 20.5 21.558594 Z M 21.113281 20.988281 L 20.761719 20.855469 L 20.632812 21.207031 L 20.984375 21.339844 Z M 21.597656 20.765625 L 21.246094 20.636719 L 21.113281 20.988281 L 21.464844 21.117188 Z M 21.597656 20.765625 L 21.949219 20.898438 L 22.078125 20.546875 L 21.726562 20.414062 Z M 21.859375 20.0625 L 22.210938 20.195312 L 22.34375 19.84375 L 21.992188 19.710938 Z M 22.121094 19.359375 L 22.472656 19.492188 L 22.605469 19.140625 L 22.253906 19.011719 Z M 22.515625 18.308594 L 22.382812 18.660156 L 22.734375 18.789062 L 22.867188 18.4375 Z M 22.777344 17.605469 L 22.644531 17.957031 L 22.996094 18.085938 L 23.128906 17.734375 Z M 23.039062 16.902344 L 22.90625 17.253906 L 23.257812 17.382812 L 23.390625 17.03125 Z M 23.128906 17.734375 L 23.480469 17.867188 L 23.609375 17.515625 L 23.257812 17.382812 Z M 22.867188 18.4375 L 23.21875 18.570312 L 23.347656 18.21875 L 22.996094 18.085938 Z M 22.605469 19.140625 L 22.957031 19.273438 L 23.085938 18.921875 L 22.734375 18.789062 Z M 22.695312 19.976562 L 22.824219 19.625 L 22.472656 19.492188 L 22.34375 19.84375 Z M 22.429688 20.675781 L 22.5625 20.328125 L 22.210938 20.195312 L 22.078125 20.546875 Z M 22.167969 21.378906 L 22.300781 21.027344 L 21.949219 20.898438 L 21.816406 21.25 Z M 21.335938 21.46875 L 21.6875 21.601562 L 21.816406 21.25 L 21.464844 21.117188 Z M 20.851562 21.691406 L 21.203125 21.820312 L 21.335938 21.46875 L 20.984375 21.339844 Z M 20.371094 21.910156 L 20.722656 22.042969 L 20.851562 21.691406 L 20.5 21.558594 Z M 19.886719 22.128906 L 20.238281 22.261719 L 20.371094 21.910156 L 20.019531 21.78125 Z M 19.40625 22.351562 L 19.757812 22.480469 L 19.886719 22.128906 L 19.535156 22 Z M 18.921875 22.570312 L 19.273438 22.703125 L 19.40625 22.351562 L 19.054688 22.21875 Z M 18.441406 22.792969 L 18.792969 22.921875 L 18.921875 22.570312 L 18.570312 22.441406 Z M 17.738281 22.53125 L 18.089844 22.660156 L 18.21875 22.308594 L 17.867188 22.179688 Z M 17.035156 22.269531 L 17.386719 22.398438 L 17.515625 22.046875 L 17.164062 21.917969 Z M 16.332031 22.003906 L 16.683594 22.136719 L 16.8125 21.785156 L 16.464844 21.652344 Z M 23.871094 16.8125 L 23.523438 16.679688 L 23.390625 17.03125 L 23.742188 17.164062 Z M 24.355469 16.589844 L 24.003906 16.460938 L 23.871094 16.8125 L 24.222656 16.941406 Z M 25.058594 16.855469 L 24.707031 16.722656 L 24.574219 17.074219 L 24.925781 17.207031 Z M 25.410156 16.984375 L 25.277344 17.335938 L 25.628906 17.46875 L 25.761719 17.117188 Z M 23.609375 17.515625 L 23.960938 17.644531 L 24.09375 17.292969 L 23.742188 17.164062 Z M 24.222656 16.941406 L 24.09375 17.292969 L 24.445312 17.425781 L 24.574219 17.074219 Z M 23.699219 18.347656 L 23.832031 17.996094 L 23.480469 17.867188 L 23.347656 18.21875 Z M 23.4375 19.050781 L 23.570312 18.699219 L 23.21875 18.570312 L 23.085938 18.921875 Z M 23.4375 19.050781 "/></g></g></g><g clip-rule="nonzero" clip-path="url(#87c313fd59)"><g clip-rule="nonzero" clip-path="url(#1a0e5cb4ff)"><g transform="matrix(1,0,0,1,75,16)"><g clip-path="url(#e843d1d063)"><g clip-rule="nonzero" clip-path="url(#d4d4b626de)"><g clip-rule="nonzero" clip-path="url(#bb20f05fb9)"><g clip-rule="nonzero" clip-path="url(#f7ada36434)"><path style=" stroke:none;fill-rule:nonzero;fill:#00bf63;fill-opacity:1;" d="M 11.652344 10.5 L 11.457031 8.339844 L 11.148438 8.367188 L 11.121094 8.058594 L 8.964844 8.253906 L 8.9375 7.945312 L 10.476562 7.808594 L 10.785156 7.78125 L 10.757812 7.472656 L 10.449219 7.5 L 10.421875 7.191406 L 8.882812 7.332031 L 8.796875 6.40625 L 8.488281 6.433594 L 8.433594 5.816406 L 9.359375 5.734375 L 9.332031 5.425781 L 9.246094 4.5 L 8.628906 4.554688 L 8.6875 5.171875 L 8.378906 5.199219 L 8.292969 4.277344 L 7.984375 4.304688 L 7.929688 3.6875 L 7.621094 3.714844 L 7.59375 3.40625 L 7.285156 3.433594 L 7.257812 3.125 L 6.949219 3.152344 L 6.921875 2.84375 L 6.613281 2.875 L 6.503906 1.640625 L 6.195312 1.667969 L 6.136719 1.050781 L 6.445312 1.023438 L 6.417969 0.714844 L 5.496094 0.800781 L 5.1875 0.828125 L 5.214844 1.136719 L 5.296875 2.058594 L 4.371094 2.144531 L 4.34375 1.835938 L 4.035156 1.863281 L 3.980469 1.246094 L 4.289062 1.21875 L 4.261719 0.910156 L 3.335938 0.992188 L 3.027344 1.023438 L 3.195312 2.871094 L 2.886719 2.898438 L 2.914062 3.207031 L 2.605469 3.234375 L 2.632812 3.542969 L 2.324219 3.570312 L 2.355469 3.878906 L 2.046875 3.90625 L 2.074219 4.214844 L 1.765625 4.242188 L 1.792969 4.550781 L 1.484375 4.578125 L 1.511719 4.886719 L 1.203125 4.914062 L 1.398438 7.074219 L 1.707031 7.046875 L 1.734375 7.355469 L 2.042969 7.328125 L 2.015625 7.019531 L 2.324219 6.988281 L 2.296875 6.683594 L 2.605469 6.652344 L 2.578125 6.347656 L 2.886719 6.316406 L 2.855469 6.007812 L 3.164062 5.980469 L 3.136719 5.671875 L 4.0625 5.589844 L 4.089844 5.898438 L 4.398438 5.871094 L 4.425781 6.179688 L 4.734375 6.152344 L 4.761719 6.460938 L 5.070312 6.429688 L 5.097656 6.738281 L 5.40625 6.710938 L 5.433594 7.019531 L 5.742188 6.992188 L 5.769531 7.300781 L 6.078125 7.273438 L 6.355469 10.355469 L 6.664062 10.328125 L 6.695312 10.636719 L 7 10.609375 L 7.03125 10.917969 L 7.335938 10.886719 L 7.367188 11.195312 L 11.371094 10.835938 L 11.34375 10.527344 Z M 11.652344 10.5 "/></g></g></g><g clip-rule="nonzero" clip-path="url(#5487fa5767)"><g clip-rule="nonzero" clip-path="url(#a32d0d804f)"><g clip-rule="nonzero" clip-path="url(#06b2ab34c1)"><path style=" stroke:none;fill-rule:nonzero;fill:#ffffff;fill-opacity:1;" d="M 7.898438 10.214844 L 8.515625 10.160156 L 8.460938 9.542969 L 7.84375 9.597656 Z M 4.035156 5.28125 L 4.007812 4.972656 L 4.316406 4.945312 L 4.34375 5.253906 Z M 3.417969 5.335938 L 3.390625 5.027344 L 3.699219 5 L 3.726562 5.308594 Z M 2.800781 5.394531 L 2.773438 5.085938 L 3.082031 5.058594 L 3.109375 5.367188 Z M 2.800781 5.394531 L 2.828125 5.703125 L 2.519531 5.730469 L 2.492188 5.421875 Z M 2.519531 5.730469 L 2.550781 6.039062 L 2.242188 6.066406 L 2.210938 5.757812 Z M 2.269531 6.375 L 1.960938 6.402344 L 1.933594 6.09375 L 2.242188 6.066406 Z M 1.679688 6.738281 L 1.652344 6.429688 L 1.960938 6.402344 L 1.988281 6.710938 Z M 2.183594 5.449219 L 2.15625 5.140625 L 2.464844 5.113281 L 2.492188 5.421875 Z M 1.90625 5.785156 L 1.875 5.476562 L 2.183594 5.449219 L 2.210938 5.757812 Z M 1.625 6.121094 L 1.597656 5.8125 L 1.90625 5.785156 L 1.933594 6.09375 Z M 4.679688 5.535156 L 4.371094 5.5625 L 4.34375 5.253906 L 4.652344 5.226562 Z M 5.015625 5.816406 L 4.707031 5.84375 L 4.679688 5.535156 L 4.988281 5.507812 Z M 5.351562 6.09375 L 5.042969 6.121094 L 5.015625 5.816406 L 5.324219 5.785156 Z M 5.6875 6.375 L 5.378906 6.402344 L 5.351562 6.09375 L 5.660156 6.066406 Z M 6.023438 6.65625 L 5.714844 6.683594 L 5.6875 6.375 L 5.996094 6.347656 Z M 6.359375 6.9375 L 6.050781 6.964844 L 6.023438 6.65625 L 6.332031 6.628906 Z M 6.359375 6.9375 L 6.667969 6.910156 L 6.695312 7.21875 L 6.386719 7.246094 Z M 6.414062 7.554688 L 6.722656 7.523438 L 6.75 7.832031 L 6.441406 7.859375 Z M 6.46875 8.167969 L 6.777344 8.140625 L 6.808594 8.449219 L 6.5 8.476562 Z M 6.554688 9.09375 L 6.527344 8.785156 L 6.835938 8.757812 L 6.863281 9.066406 Z M 6.609375 9.710938 L 6.582031 9.402344 L 6.890625 9.375 L 6.917969 9.683594 Z M 6.664062 10.328125 L 6.636719 10.019531 L 6.945312 9.992188 L 6.972656 10.300781 Z M 6.917969 9.683594 L 7.226562 9.65625 L 7.253906 9.964844 L 6.945312 9.992188 Z M 6.863281 9.066406 L 7.171875 9.039062 L 7.199219 9.347656 L 6.890625 9.375 Z M 6.808594 8.449219 L 7.113281 8.421875 L 7.144531 8.730469 L 6.835938 8.757812 Z M 7.058594 7.804688 L 7.085938 8.113281 L 6.777344 8.140625 L 6.75 7.832031 Z M 7.003906 7.1875 L 7.03125 7.496094 L 6.722656 7.523438 L 6.695312 7.21875 Z M 6.949219 6.574219 L 6.976562 6.878906 L 6.667969 6.910156 L 6.640625 6.601562 Z M 6.304688 6.320312 L 6.613281 6.292969 L 6.640625 6.601562 L 6.332031 6.628906 Z M 5.96875 6.039062 L 6.277344 6.011719 L 6.304688 6.320312 L 5.996094 6.347656 Z M 5.632812 5.757812 L 5.941406 5.730469 L 5.96875 6.039062 L 5.660156 6.066406 Z M 5.296875 5.480469 L 5.605469 5.449219 L 5.632812 5.757812 L 5.324219 5.785156 Z M 4.960938 5.199219 L 5.265625 5.171875 L 5.296875 5.480469 L 4.988281 5.507812 Z M 4.625 4.917969 L 4.929688 4.890625 L 4.960938 5.199219 L 4.652344 5.226562 Z M 4.285156 4.636719 L 4.59375 4.609375 L 4.625 4.917969 L 4.316406 4.945312 Z M 3.671875 4.691406 L 3.980469 4.664062 L 4.007812 4.972656 L 3.699219 5 Z M 3.054688 4.75 L 3.363281 4.722656 L 3.390625 5.027344 L 3.082031 5.058594 Z M 2.4375 4.804688 L 2.746094 4.777344 L 2.773438 5.085938 L 2.464844 5.113281 Z M 7.308594 10.578125 L 7 10.609375 L 6.972656 10.300781 L 7.28125 10.273438 Z M 7.644531 10.859375 L 7.335938 10.886719 L 7.308594 10.578125 L 7.617188 10.550781 Z M 8.261719 10.804688 L 7.953125 10.832031 L 7.925781 10.523438 L 8.234375 10.496094 Z M 8.570312 10.777344 L 8.542969 10.46875 L 8.851562 10.441406 L 8.878906 10.75 Z M 7.253906 9.964844 L 7.5625 9.9375 L 7.589844 10.242188 L 7.28125 10.273438 Z M 7.617188 10.550781 L 7.589844 10.242188 L 7.898438 10.214844 L 7.925781 10.523438 Z M 7.507812 9.320312 L 7.535156 9.628906 L 7.226562 9.65625 L 7.199219 9.347656 Z M 7.449219 8.703125 L 7.480469 9.011719 L 7.171875 9.039062 L 7.144531 8.730469 Z M 7.449219 8.703125 "/></g></g></g></g></g></g></g><g clip-rule="nonzero" clip-path="url(#0bb98da8aa)"><g clip-rule="nonzero" clip-path="url(#6565a81cf6)"><g transform="matrix(1,0,0,1,23,72)"><g clip-path="url(#20bafcb53a)"><g clip-rule="nonzero" clip-path="url(#f3068ed0de)"><g clip-rule="nonzero" clip-path="url(#1072321768)"><g clip-rule="nonzero" clip-path="url(#58990fa124)"><path style=" stroke:none;fill-rule:nonzero;fill:#00bf63;fill-opacity:1;" d="M 0.398438 3.59375 L 1.003906 4.953125 L 1.199219 4.867188 L 1.285156 5.058594 L 2.644531 4.453125 L 2.730469 4.648438 L 1.757812 5.082031 L 1.566406 5.167969 L 1.652344 5.363281 L 1.847656 5.273438 L 1.933594 5.46875 L 2.902344 5.035156 L 3.160156 5.617188 L 3.355469 5.53125 L 3.527344 5.917969 L 2.945312 6.179688 L 3.035156 6.375 L 3.292969 6.957031 L 3.488281 6.867188 L 3.679688 6.78125 L 3.507812 6.394531 L 3.703125 6.308594 L 3.960938 6.890625 L 4.15625 6.804688 L 4.328125 7.191406 L 4.523438 7.105469 L 4.609375 7.296875 L 4.804688 7.210938 L 4.890625 7.40625 L 5.082031 7.320312 L 5.171875 7.511719 L 5.363281 7.425781 L 5.710938 8.203125 L 5.902344 8.117188 L 6.078125 8.503906 L 5.882812 8.589844 L 5.96875 8.785156 L 6.550781 8.523438 L 6.746094 8.4375 L 6.660156 8.246094 L 6.398438 7.664062 L 6.980469 7.402344 L 7.066406 7.597656 L 7.261719 7.511719 L 7.433594 7.898438 L 7.242188 7.984375 L 7.328125 8.179688 L 7.910156 7.917969 L 8.105469 7.832031 L 7.585938 6.667969 L 7.777344 6.582031 L 7.691406 6.390625 L 7.886719 6.300781 L 7.800781 6.109375 L 7.992188 6.023438 L 7.90625 5.828125 L 8.101562 5.742188 L 8.015625 5.546875 L 8.207031 5.460938 L 8.121094 5.265625 L 8.316406 5.179688 L 8.230469 4.984375 L 8.421875 4.898438 L 7.816406 3.542969 L 7.625 3.628906 L 7.535156 3.433594 L 7.34375 3.519531 L 7.429688 3.714844 L 7.234375 3.800781 L 7.320312 3.996094 L 7.128906 4.082031 L 7.214844 4.277344 L 7.019531 4.363281 L 7.105469 4.554688 L 6.914062 4.644531 L 7 4.835938 L 6.417969 5.097656 L 6.332031 4.902344 L 6.136719 4.988281 L 6.050781 4.796875 L 5.855469 4.882812 L 5.769531 4.6875 L 5.578125 4.773438 L 5.488281 4.578125 L 5.296875 4.667969 L 5.210938 4.472656 L 5.015625 4.558594 L 4.929688 4.363281 L 4.734375 4.453125 L 3.871094 2.511719 L 3.675781 2.597656 L 3.589844 2.402344 L 3.394531 2.492188 L 3.308594 2.296875 L 3.113281 2.382812 L 3.027344 2.1875 L 0.507812 3.3125 L 0.59375 3.507812 Z M 0.398438 3.59375 "/></g></g></g><g clip-rule="nonzero" clip-path="url(#e296e4db3f)"><g clip-rule="nonzero" clip-path="url(#32b29f2e2d)"><g clip-rule="nonzero" clip-path="url(#d6bd590f00)"><path style=" stroke:none;fill-rule:nonzero;fill:#ffffff;fill-opacity:1;" d="M 2.898438 2.945312 L 2.511719 3.117188 L 2.683594 3.503906 L 3.074219 3.332031 Z M 6.503906 5.289062 L 6.589844 5.484375 L 6.398438 5.570312 L 6.308594 5.375 Z M 6.890625 5.117188 L 6.980469 5.3125 L 6.785156 5.398438 L 6.699219 5.203125 Z M 7.28125 4.945312 L 7.367188 5.136719 L 7.171875 5.226562 L 7.085938 5.03125 Z M 7.28125 4.945312 L 7.195312 4.75 L 7.386719 4.664062 L 7.472656 4.859375 Z M 7.386719 4.664062 L 7.300781 4.46875 L 7.496094 4.382812 L 7.582031 4.578125 Z M 7.410156 4.1875 L 7.601562 4.101562 L 7.6875 4.296875 L 7.496094 4.382812 Z M 7.710938 3.820312 L 7.796875 4.015625 L 7.601562 4.101562 L 7.515625 3.910156 Z M 7.667969 4.769531 L 7.753906 4.964844 L 7.5625 5.050781 L 7.472656 4.859375 Z M 7.777344 4.492188 L 7.863281 4.683594 L 7.667969 4.769531 L 7.582031 4.578125 Z M 7.882812 4.210938 L 7.96875 4.402344 L 7.777344 4.492188 L 7.6875 4.296875 Z M 6.03125 5.269531 L 6.222656 5.183594 L 6.308594 5.375 L 6.117188 5.464844 Z M 5.75 5.160156 L 5.941406 5.074219 L 6.03125 5.269531 L 5.835938 5.355469 Z M 5.46875 5.054688 L 5.664062 4.96875 L 5.75 5.160156 L 5.554688 5.25 Z M 5.1875 4.945312 L 5.382812 4.859375 L 5.46875 5.054688 L 5.273438 5.140625 Z M 4.90625 4.839844 L 5.101562 4.753906 L 5.1875 4.945312 L 4.996094 5.035156 Z M 4.628906 4.730469 L 4.820312 4.644531 L 4.90625 4.839844 L 4.714844 4.925781 Z M 4.628906 4.730469 L 4.433594 4.820312 L 4.347656 4.625 L 4.539062 4.539062 Z M 4.453125 4.34375 L 4.261719 4.429688 L 4.171875 4.238281 L 4.367188 4.148438 Z M 4.28125 3.957031 L 4.085938 4.042969 L 4 3.847656 L 4.195312 3.761719 Z M 4.023438 3.375 L 4.109375 3.566406 L 3.914062 3.65625 L 3.828125 3.460938 Z M 3.847656 2.984375 L 3.933594 3.179688 L 3.742188 3.265625 L 3.65625 3.074219 Z M 3.675781 2.597656 L 3.761719 2.792969 L 3.566406 2.878906 L 3.480469 2.683594 Z M 3.65625 3.074219 L 3.460938 3.160156 L 3.375 2.964844 L 3.566406 2.878906 Z M 3.828125 3.460938 L 3.632812 3.546875 L 3.546875 3.351562 L 3.742188 3.265625 Z M 4 3.847656 L 3.808594 3.933594 L 3.71875 3.742188 L 3.914062 3.65625 Z M 3.980469 4.324219 L 3.894531 4.128906 L 4.085938 4.042969 L 4.171875 4.238281 Z M 4.152344 4.710938 L 4.066406 4.515625 L 4.261719 4.429688 L 4.347656 4.625 Z M 4.324219 5.097656 L 4.238281 4.90625 L 4.433594 4.820312 L 4.519531 5.011719 Z M 4.800781 5.121094 L 4.605469 5.207031 L 4.519531 5.011719 L 4.714844 4.925781 Z M 5.082031 5.226562 L 4.886719 5.3125 L 4.800781 5.121094 L 4.996094 5.035156 Z M 5.363281 5.335938 L 5.167969 5.421875 L 5.082031 5.226562 L 5.273438 5.140625 Z M 5.640625 5.441406 L 5.449219 5.527344 L 5.363281 5.335938 L 5.554688 5.25 Z M 5.921875 5.550781 L 5.726562 5.636719 L 5.640625 5.441406 L 5.835938 5.355469 Z M 6.203125 5.65625 L 6.007812 5.742188 L 5.921875 5.550781 L 6.117188 5.464844 Z M 6.484375 5.765625 L 6.289062 5.851562 L 6.203125 5.65625 L 6.398438 5.570312 Z M 6.871094 5.59375 L 6.675781 5.679688 L 6.589844 5.484375 L 6.785156 5.398438 Z M 7.257812 5.417969 L 7.066406 5.503906 L 6.980469 5.3125 L 7.171875 5.226562 Z M 7.648438 5.246094 L 7.453125 5.332031 L 7.367188 5.136719 L 7.5625 5.050781 Z M 3.199219 2.578125 L 3.394531 2.492188 L 3.480469 2.683594 L 3.289062 2.769531 Z M 2.921875 2.46875 L 3.113281 2.382812 L 3.199219 2.578125 L 3.007812 2.664062 Z M 2.53125 2.644531 L 2.726562 2.554688 L 2.8125 2.75 L 2.617188 2.835938 Z M 2.339844 2.730469 L 2.425781 2.921875 L 2.230469 3.011719 L 2.144531 2.816406 Z M 3.375 2.964844 L 3.179688 3.050781 L 3.09375 2.859375 L 3.289062 2.769531 Z M 3.007812 2.664062 L 3.09375 2.859375 L 2.898438 2.945312 L 2.8125 2.75 Z M 3.351562 3.441406 L 3.265625 3.246094 L 3.460938 3.160156 L 3.546875 3.351562 Z M 3.527344 3.828125 L 3.441406 3.632812 L 3.632812 3.546875 L 3.71875 3.742188 Z M 3.527344 3.828125 "/></g></g></g></g></g></g></g><g clip-rule="nonzero" clip-path="url(#98681250ab)"><g clip-rule="nonzero" clip-path="url(#45bb593c95)"><g transform="matrix(1,0,0,1,67,55)"><g clip-path="url(#924c3d2499)"><g clip-rule="nonzero" clip-path="url(#cbf1112bcc)"><g clip-rule="nonzero" clip-path="url(#04f00ec36a)"><g clip-rule="nonzero" clip-path="url(#151ca67a53)"><path style=" stroke:none;fill-rule:nonzero;fill:#00bf63;fill-opacity:1;" d="M 10.25 1.023438 L 8.300781 2.65625 L 8.535156 2.933594 L 8.257812 3.167969 L 9.894531 5.113281 L 9.613281 5.347656 L 8.449219 3.957031 L 8.214844 3.679688 L 7.9375 3.914062 L 8.167969 4.191406 L 7.890625 4.425781 L 9.058594 5.8125 L 8.226562 6.515625 L 8.457031 6.792969 L 7.902344 7.261719 L 7.203125 6.425781 L 6.925781 6.660156 L 6.089844 7.359375 L 6.324219 7.636719 L 6.558594 7.917969 L 7.113281 7.449219 L 7.347656 7.726562 L 6.511719 8.429688 L 6.746094 8.707031 L 6.191406 9.171875 L 6.425781 9.449219 L 6.148438 9.683594 L 6.378906 9.960938 L 6.101562 10.195312 L 6.335938 10.472656 L 6.058594 10.707031 L 6.292969 10.984375 L 5.179688 11.917969 L 5.414062 12.199219 L 4.855469 12.664062 L 4.625 12.386719 L 4.347656 12.621094 L 5.046875 13.453125 L 5.28125 13.730469 L 5.558594 13.5 L 6.390625 12.796875 L 7.09375 13.632812 L 6.816406 13.867188 L 7.046875 14.144531 L 6.492188 14.609375 L 6.257812 14.332031 L 5.980469 14.566406 L 6.679688 15.398438 L 6.914062 15.675781 L 8.582031 14.277344 L 8.816406 14.554688 L 9.09375 14.320312 L 9.328125 14.597656 L 9.605469 14.363281 L 9.839844 14.644531 L 10.117188 14.410156 L 10.351562 14.6875 L 10.628906 14.453125 L 10.863281 14.730469 L 11.140625 14.5 L 11.375 14.777344 L 11.652344 14.542969 L 11.886719 14.820312 L 13.832031 13.1875 L 13.597656 12.90625 L 13.875 12.675781 L 13.640625 12.394531 L 13.363281 12.628906 L 13.128906 12.351562 L 12.851562 12.585938 L 12.617188 12.308594 L 12.339844 12.542969 L 12.105469 12.261719 L 11.828125 12.496094 L 11.59375 12.21875 L 11.316406 12.453125 L 10.617188 11.617188 L 10.894531 11.386719 L 10.660156 11.105469 L 10.9375 10.875 L 10.707031 10.59375 L 10.984375 10.363281 L 10.75 10.082031 L 11.027344 9.851562 L 10.792969 9.574219 L 11.074219 9.339844 L 10.839844 9.0625 L 11.117188 8.828125 L 10.882812 8.550781 L 13.664062 6.214844 L 13.429688 5.9375 L 13.707031 5.703125 L 13.472656 5.425781 L 13.75 5.191406 L 13.519531 4.914062 L 13.796875 4.679688 L 10.757812 1.066406 L 10.480469 1.300781 Z M 10.25 1.023438 "/></g></g></g><g clip-rule="nonzero" clip-path="url(#7236e4ae84)"><g clip-rule="nonzero" clip-path="url(#b6d7f4d773)"><g clip-rule="nonzero" clip-path="url(#b514776dfd)"><path style=" stroke:none;fill-rule:nonzero;fill:#ffffff;fill-opacity:1;" d="M 12.496094 4.824219 L 12.027344 4.269531 L 11.472656 4.734375 L 11.9375 5.292969 Z M 10.339844 11.851562 L 10.0625 12.085938 L 9.828125 11.808594 L 10.105469 11.574219 Z M 10.804688 12.40625 L 10.527344 12.640625 L 10.292969 12.363281 L 10.574219 12.128906 Z M 11.273438 12.964844 L 10.996094 13.199219 L 10.761719 12.917969 L 11.039062 12.6875 Z M 11.273438 12.964844 L 11.550781 12.730469 L 11.785156 13.007812 L 11.507812 13.242188 Z M 11.785156 13.007812 L 12.0625 12.773438 L 12.296875 13.050781 L 12.019531 13.285156 Z M 12.574219 12.820312 L 12.808594 13.097656 L 12.53125 13.332031 L 12.296875 13.050781 Z M 13.320312 13.140625 L 13.042969 13.375 L 12.808594 13.097656 L 13.085938 12.863281 Z M 11.742188 13.519531 L 11.460938 13.753906 L 11.230469 13.476562 L 11.507812 13.242188 Z M 12.25 13.5625 L 11.972656 13.796875 L 11.742188 13.519531 L 12.019531 13.285156 Z M 12.761719 13.609375 L 12.484375 13.84375 L 12.25 13.5625 L 12.53125 13.332031 Z M 10.148438 11.0625 L 10.382812 11.339844 L 10.105469 11.574219 L 9.871094 11.296875 Z M 10.195312 10.550781 L 10.429688 10.828125 L 10.148438 11.0625 L 9.917969 10.785156 Z M 10.238281 10.039062 L 10.472656 10.316406 L 10.195312 10.550781 L 9.960938 10.273438 Z M 10.28125 9.527344 L 10.515625 9.804688 L 10.238281 10.039062 L 10.003906 9.761719 Z M 10.328125 9.015625 L 10.5625 9.292969 L 10.28125 9.527344 L 10.050781 9.25 Z M 10.371094 8.503906 L 10.605469 8.78125 L 10.328125 9.015625 L 10.09375 8.738281 Z M 10.371094 8.503906 L 10.136719 8.226562 L 10.417969 7.992188 L 10.648438 8.269531 Z M 10.925781 8.039062 L 10.695312 7.761719 L 10.972656 7.527344 L 11.207031 7.804688 Z M 11.484375 7.570312 L 11.25 7.292969 L 11.527344 7.058594 L 11.761719 7.335938 Z M 12.316406 6.871094 L 12.039062 7.105469 L 11.804688 6.824219 L 12.082031 6.59375 Z M 12.875 6.402344 L 12.59375 6.636719 L 12.363281 6.359375 L 12.640625 6.125 Z M 13.429688 5.9375 L 13.152344 6.167969 L 12.917969 5.890625 L 13.195312 5.65625 Z M 12.640625 6.125 L 12.40625 5.847656 L 12.683594 5.613281 L 12.917969 5.890625 Z M 12.082031 6.59375 L 11.851562 6.3125 L 12.128906 6.082031 L 12.363281 6.359375 Z M 11.527344 7.058594 L 11.292969 6.78125 L 11.574219 6.546875 L 11.804688 6.824219 Z M 10.738281 7.25 L 11.015625 7.015625 L 11.25 7.292969 L 10.972656 7.527344 Z M 10.183594 7.714844 L 10.460938 7.480469 L 10.695312 7.761719 L 10.417969 7.992188 Z M 9.625 8.183594 L 9.90625 7.949219 L 10.136719 8.226562 L 9.859375 8.460938 Z M 9.816406 8.972656 L 9.582031 8.695312 L 9.859375 8.460938 L 10.09375 8.738281 Z M 9.773438 9.484375 L 9.539062 9.207031 L 9.816406 8.972656 L 10.050781 9.25 Z M 9.726562 9.996094 L 9.492188 9.71875 L 9.773438 9.484375 L 10.003906 9.761719 Z M 9.683594 10.507812 L 9.449219 10.230469 L 9.726562 9.996094 L 9.960938 10.273438 Z M 9.636719 11.019531 L 9.40625 10.738281 L 9.683594 10.507812 L 9.917969 10.785156 Z M 9.59375 11.53125 L 9.359375 11.25 L 9.636719 11.019531 L 9.871094 11.296875 Z M 9.550781 12.042969 L 9.316406 11.761719 L 9.59375 11.53125 L 9.828125 11.808594 Z M 10.015625 12.597656 L 9.785156 12.320312 L 10.0625 12.085938 L 10.292969 12.363281 Z M 10.484375 13.152344 L 10.25 12.875 L 10.527344 12.640625 L 10.761719 12.917969 Z M 10.949219 13.707031 L 10.71875 13.429688 L 10.996094 13.199219 L 11.230469 13.476562 Z M 13.238281 5.144531 L 13.472656 5.425781 L 13.195312 5.65625 L 12.960938 5.378906 Z M 13.285156 4.636719 L 13.519531 4.914062 L 13.238281 5.144531 L 13.007812 4.867188 Z M 12.816406 4.078125 L 13.050781 4.355469 L 12.773438 4.589844 L 12.539062 4.3125 Z M 12.582031 3.800781 L 12.304688 4.035156 L 12.070312 3.757812 L 12.351562 3.523438 Z M 12.683594 5.613281 L 12.449219 5.335938 L 12.730469 5.101562 L 12.960938 5.378906 Z M 13.007812 4.867188 L 12.730469 5.101562 L 12.496094 4.824219 L 12.773438 4.589844 Z M 11.894531 5.800781 L 12.171875 5.570312 L 12.40625 5.847656 L 12.128906 6.082031 Z M 11.339844 6.269531 L 11.617188 6.035156 L 11.851562 6.3125 L 11.574219 6.546875 Z M 11.339844 6.269531 "/></g></g></g></g></g></g></g></g></svg>