<svg xmlns="http://www.w3.org/2000/svg" xmlns:xlink="http://www.w3.org/1999/xlink" width="150" zoomAndPan="magnify" viewBox="0 0 112.5 112.499997" height="150" preserveAspectRatio="xMidYMid meet" version="1.2"><defs><clipPath id="b728236efc"><path d="M 15 11.199219 L 28.945312 11.199219 L 28.945312 25.386719 L 15 25.386719 Z M 15 11.199219 "/></clipPath><clipPath id="a251d6bfa9"><path d="M 15 11.199219 L 28 11.199219 L 28 25 L 15 25 Z M 15 11.199219 "/></clipPath><clipPath id="a1a40d4617"><path d="M 14.757812 11.199219 L 28 11.199219 L 28 25 L 14.757812 25 Z M 14.757812 11.199219 "/></clipPath><clipPath id="caf4e3bc0a"><path d="M 20 11.199219 L 23 11.199219 L 23 13 L 20 13 Z M 20 11.199219 "/></clipPath><clipPath id="942211e543"><path d="M 20 67 L 29 67 L 29 77 L 20 77 Z M 20 67 "/></clipPath><clipPath id="99d1b1c0ed"><path d="M 22.953125 65.230469 L 31.257812 68.589844 L 27.894531 76.898438 L 19.589844 73.535156 Z M 22.953125 65.230469 "/></clipPath><clipPath id="aa953fc188"><path d="M 22.953125 65.230469 L 31.257812 68.589844 L 27.894531 76.898438 L 19.589844 73.535156 Z M 22.953125 65.230469 "/></clipPath><clipPath id="44cf1e09f0"><path d="M 22.953125 65.230469 L 31.257812 68.589844 L 27.894531 76.898438 L 19.589844 73.535156 Z M 22.953125 65.230469 "/></clipPath><clipPath id="3813e37598"><path d="M 20 66 L 28 66 L 28 76 L 20 76 Z M 20 66 "/></clipPath><clipPath id="a580f55a85"><path d="M 22.953125 65.230469 L 31.257812 68.589844 L 27.894531 76.898438 L 19.589844 73.535156 Z M 22.953125 65.230469 "/></clipPath><clipPath id="a25c78e406"><path d="M 22.953125 65.230469 L 31.257812 68.589844 L 27.894531 76.898438 L 19.589844 73.535156 Z M 22.953125 65.230469 "/></clipPath><clipPath id="7266e2d83d"><path d="M 22.953125 65.230469 L 31.257812 68.589844 L 27.894531 76.898438 L 19.589844 73.535156 Z M 22.953125 65.230469 "/></clipPath><clipPath id="72fa379789"><path d="M 19 66 L 29 66 L 29 77 L 19 77 Z M 19 66 "/></clipPath><clipPath id="b9faf7c8be"><path d="M 22.953125 65.230469 L 31.257812 68.589844 L 27.894531 76.898438 L 19.589844 73.535156 Z M 22.953125 65.230469 "/></clipPath><clipPath id="48a96a67d8"><path d="M 22.953125 65.230469 L 31.257812 68.589844 L 27.894531 76.898438 L 19.589844 73.535156 Z M 22.953125 65.230469 "/></clipPath><clipPath id="a42effd48b"><path d="M 22.953125 65.230469 L 31.257812 68.589844 L 27.894531 76.898438 L 19.589844 73.535156 Z M 22.953125 65.230469 "/></clipPath><clipPath id="0f81fbfba3"><path d="M 20 67 L 28 67 L 28 76 L 20 76 Z M 20 67 "/></clipPath><clipPath id="e390e50d09"><path d="M 22.953125 65.230469 L 31.257812 68.589844 L 27.894531 76.898438 L 19.589844 73.535156 Z M 22.953125 65.230469 "/></clipPath><clipPath id="0e36944034"><path d="M 22.953125 65.230469 L 31.257812 68.589844 L 27.894531 76.898438 L 19.589844 73.535156 Z M 22.953125 65.230469 "/></clipPath><clipPath id="143ddb3931"><path d="M 22.953125 65.230469 L 31.257812 68.589844 L 27.894531 76.898438 L 19.589844 73.535156 Z M 22.953125 65.230469 "/></clipPath><clipPath id="a7ef2121d9"><path d="M 27 74 L 28 74 L 28 76 L 27 76 Z M 27 74 "/></clipPath><clipPath id="b6e330a51b"><path d="M 22.953125 65.230469 L 31.257812 68.589844 L 27.894531 76.898438 L 19.589844 73.535156 Z M 22.953125 65.230469 "/></clipPath><clipPath id="61d8b28a9f"><path d="M 22.953125 65.230469 L 31.257812 68.589844 L 27.894531 76.898438 L 19.589844 73.535156 Z M 22.953125 65.230469 "/></clipPath><clipPath id="c317a2403a"><path d="M 22.953125 65.230469 L 31.257812 68.589844 L 27.894531 76.898438 L 19.589844 73.535156 Z M 22.953125 65.230469 "/></clipPath><clipPath id="9a12178c12"><path d="M 27 73 L 28 73 L 28 75 L 27 75 Z M 27 73 "/></clipPath><clipPath id="233a20857c"><path d="M 22.953125 65.230469 L 31.257812 68.589844 L 27.894531 76.898438 L 19.589844 73.535156 Z M 22.953125 65.230469 "/></clipPath><clipPath id="b11fb2bfa3"><path d="M 22.953125 65.230469 L 31.257812 68.589844 L 27.894531 76.898438 L 19.589844 73.535156 Z M 22.953125 65.230469 "/></clipPath><clipPath id="179d9179f8"><path d="M 22.953125 65.230469 L 31.257812 68.589844 L 27.894531 76.898438 L 19.589844 73.535156 Z M 22.953125 65.230469 "/></clipPath><clipPath id="47b74390d0"><path d="M 27 73 L 28 73 L 28 74 L 27 74 Z M 27 73 "/></clipPath><clipPath id="d9e7813c1d"><path d="M 22.953125 65.230469 L 31.257812 68.589844 L 27.894531 76.898438 L 19.589844 73.535156 Z M 22.953125 65.230469 "/></clipPath><clipPath id="4e5f3e0326"><path d="M 22.953125 65.230469 L 31.257812 68.589844 L 27.894531 76.898438 L 19.589844 73.535156 Z M 22.953125 65.230469 "/></clipPath><clipPath id="1e7b0ee034"><path d="M 22.953125 65.230469 L 31.257812 68.589844 L 27.894531 76.898438 L 19.589844 73.535156 Z M 22.953125 65.230469 "/></clipPath><clipPath id="387ff9cdef"><path d="M 27 72 L 28 72 L 28 74 L 27 74 Z M 27 72 "/></clipPath><clipPath id="7cafac775e"><path d="M 22.953125 65.230469 L 31.257812 68.589844 L 27.894531 76.898438 L 19.589844 73.535156 Z M 22.953125 65.230469 "/></clipPath><clipPath id="a9c79f017a"><path d="M 22.953125 65.230469 L 31.257812 68.589844 L 27.894531 76.898438 L 19.589844 73.535156 Z M 22.953125 65.230469 "/></clipPath><clipPath id="ed8dad36c0"><path d="M 22.953125 65.230469 L 31.257812 68.589844 L 27.894531 76.898438 L 19.589844 73.535156 Z M 22.953125 65.230469 "/></clipPath><clipPath id="ffaa4498c2"><path d="M 27 71 L 28 71 L 28 73 L 27 73 Z M 27 71 "/></clipPath><clipPath id="7eaa7083e2"><path d="M 22.953125 65.230469 L 31.257812 68.589844 L 27.894531 76.898438 L 19.589844 73.535156 Z M 22.953125 65.230469 "/></clipPath><clipPath id="6d8c9c03ba"><path d="M 22.953125 65.230469 L 31.257812 68.589844 L 27.894531 76.898438 L 19.589844 73.535156 Z M 22.953125 65.230469 "/></clipPath><clipPath id="68e492a1c7"><path d="M 22.953125 65.230469 L 31.257812 68.589844 L 27.894531 76.898438 L 19.589844 73.535156 Z M 22.953125 65.230469 "/></clipPath><clipPath id="1e051a5cd8"><path d="M 27 70 L 28 70 L 28 72 L 27 72 Z M 27 70 "/></clipPath><clipPath id="453f124e70"><path d="M 22.953125 65.230469 L 31.257812 68.589844 L 27.894531 76.898438 L 19.589844 73.535156 Z M 22.953125 65.230469 "/></clipPath><clipPath id="43968bce95"><path d="M 22.953125 65.230469 L 31.257812 68.589844 L 27.894531 76.898438 L 19.589844 73.535156 Z M 22.953125 65.230469 "/></clipPath><clipPath id="f63a4c1647"><path d="M 22.953125 65.230469 L 31.257812 68.589844 L 27.894531 76.898438 L 19.589844 73.535156 Z M 22.953125 65.230469 "/></clipPath><clipPath id="a0ee201d27"><path d="M 27 70 L 28 70 L 28 71 L 27 71 Z M 27 70 "/></clipPath><clipPath id="c21f32c2e7"><path d="M 22.953125 65.230469 L 31.257812 68.589844 L 27.894531 76.898438 L 19.589844 73.535156 Z M 22.953125 65.230469 "/></clipPath><clipPath id="101b2da2eb"><path d="M 22.953125 65.230469 L 31.257812 68.589844 L 27.894531 76.898438 L 19.589844 73.535156 Z M 22.953125 65.230469 "/></clipPath><clipPath id="3557f36bdb"><path d="M 22.953125 65.230469 L 31.257812 68.589844 L 27.894531 76.898438 L 19.589844 73.535156 Z M 22.953125 65.230469 "/></clipPath><clipPath id="cc86e377a5"><path d="M 26 69 L 28 69 L 28 71 L 26 71 Z M 26 69 "/></clipPath><clipPath id="83ef52a828"><path d="M 22.953125 65.230469 L 31.257812 68.589844 L 27.894531 76.898438 L 19.589844 73.535156 Z M 22.953125 65.230469 "/></clipPath><clipPath id="11a38b4e2d"><path d="M 22.953125 65.230469 L 31.257812 68.589844 L 27.894531 76.898438 L 19.589844 73.535156 Z M 22.953125 65.230469 "/></clipPath><clipPath id="cf0e2edc26"><path d="M 22.953125 65.230469 L 31.257812 68.589844 L 27.894531 76.898438 L 19.589844 73.535156 Z M 22.953125 65.230469 "/></clipPath><clipPath id="cbbe982834"><path d="M 26 68 L 28 68 L 28 70 L 26 70 Z M 26 68 "/></clipPath><clipPath id="5e978deaf2"><path d="M 22.953125 65.230469 L 31.257812 68.589844 L 27.894531 76.898438 L 19.589844 73.535156 Z M 22.953125 65.230469 "/></clipPath><clipPath id="88adb6d256"><path d="M 22.953125 65.230469 L 31.257812 68.589844 L 27.894531 76.898438 L 19.589844 73.535156 Z M 22.953125 65.230469 "/></clipPath><clipPath id="a4b19749d6"><path d="M 22.953125 65.230469 L 31.257812 68.589844 L 27.894531 76.898438 L 19.589844 73.535156 Z M 22.953125 65.230469 "/></clipPath><clipPath id="9dbacad5f4"><path d="M 26 68 L 28 68 L 28 69 L 26 69 Z M 26 68 "/></clipPath><clipPath id="ac64b598be"><path d="M 22.953125 65.230469 L 31.257812 68.589844 L 27.894531 76.898438 L 19.589844 73.535156 Z M 22.953125 65.230469 "/></clipPath><clipPath id="3455c2c299"><path d="M 22.953125 65.230469 L 31.257812 68.589844 L 27.894531 76.898438 L 19.589844 73.535156 Z M 22.953125 65.230469 "/></clipPath><clipPath id="2864059282"><path d="M 22.953125 65.230469 L 31.257812 68.589844 L 27.894531 76.898438 L 19.589844 73.535156 Z M 22.953125 65.230469 "/></clipPath><clipPath id="383532b00d"><path d="M 26 67 L 28 67 L 28 69 L 26 69 Z M 26 67 "/></clipPath><clipPath id="5b55f1154f"><path d="M 22.953125 65.230469 L 31.257812 68.589844 L 27.894531 76.898438 L 19.589844 73.535156 Z M 22.953125 65.230469 "/></clipPath><clipPath id="166d3eb819"><path d="M 22.953125 65.230469 L 31.257812 68.589844 L 27.894531 76.898438 L 19.589844 73.535156 Z M 22.953125 65.230469 "/></clipPath><clipPath id="1204028393"><path d="M 22.953125 65.230469 L 31.257812 68.589844 L 27.894531 76.898438 L 19.589844 73.535156 Z M 22.953125 65.230469 "/></clipPath><clipPath id="a7372514c0"><path d="M 26 66 L 28 66 L 28 68 L 26 68 Z M 26 66 "/></clipPath><clipPath id="df0e37983c"><path d="M 22.953125 65.230469 L 31.257812 68.589844 L 27.894531 76.898438 L 19.589844 73.535156 Z M 22.953125 65.230469 "/></clipPath><clipPath id="9e520188bd"><path d="M 22.953125 65.230469 L 31.257812 68.589844 L 27.894531 76.898438 L 19.589844 73.535156 Z M 22.953125 65.230469 "/></clipPath><clipPath id="43a3a05ee4"><path d="M 22.953125 65.230469 L 31.257812 68.589844 L 27.894531 76.898438 L 19.589844 73.535156 Z M 22.953125 65.230469 "/></clipPath><clipPath id="73727ea98a"><path d="M 86 79 L 99 79 L 99 93 L 86 93 Z M 86 79 "/></clipPath><clipPath id="eb8d4d62e3"><path d="M 81.433594 82.742188 L 92.371094 76.300781 L 98.816406 87.234375 L 87.878906 93.679688 Z M 81.433594 82.742188 "/></clipPath><clipPath id="92fae11221"><path d="M 81.433594 82.742188 L 92.371094 76.300781 L 98.816406 87.234375 L 87.878906 93.679688 Z M 81.433594 82.742188 "/></clipPath><clipPath id="94afb5aa90"><path d="M 81.433594 82.742188 L 92.371094 76.300781 L 98.816406 87.234375 L 87.878906 93.679688 Z M 81.433594 82.742188 "/></clipPath><clipPath id="5cbe8d2089"><path d="M 86 79 L 98 79 L 98 93 L 86 93 Z M 86 79 "/></clipPath><clipPath id="0826baff47"><path d="M 81.433594 82.742188 L 92.371094 76.300781 L 98.816406 87.234375 L 87.878906 93.679688 Z M 81.433594 82.742188 "/></clipPath><clipPath id="42407c79d8"><path d="M 81.433594 82.742188 L 92.371094 76.300781 L 98.816406 87.234375 L 87.878906 93.679688 Z M 81.433594 82.742188 "/></clipPath><clipPath id="ae7b53f22a"><path d="M 81.433594 82.742188 L 92.371094 76.300781 L 98.816406 87.234375 L 87.878906 93.679688 Z M 81.433594 82.742188 "/></clipPath><clipPath id="84e0d447e8"><path d="M 85 79 L 98 79 L 98 93 L 85 93 Z M 85 79 "/></clipPath><clipPath id="d5fe4b7ee2"><path d="M 81.433594 82.742188 L 92.371094 76.300781 L 98.816406 87.234375 L 87.878906 93.679688 Z M 81.433594 82.742188 "/></clipPath><clipPath id="457e4eca1c"><path d="M 81.433594 82.742188 L 92.371094 76.300781 L 98.816406 87.234375 L 87.878906 93.679688 Z M 81.433594 82.742188 "/></clipPath><clipPath id="49a6cadc34"><path d="M 81.433594 82.742188 L 92.371094 76.300781 L 98.816406 87.234375 L 87.878906 93.679688 Z M 81.433594 82.742188 "/></clipPath><clipPath id="b40b24c1ab"><path d="M 86 80 L 97 80 L 97 93 L 86 93 Z M 86 80 "/></clipPath><clipPath id="265ac00047"><path d="M 81.433594 82.742188 L 92.371094 76.300781 L 98.816406 87.234375 L 87.878906 93.679688 Z M 81.433594 82.742188 "/></clipPath><clipPath id="f0c2110fe4"><path d="M 81.433594 82.742188 L 92.371094 76.300781 L 98.816406 87.234375 L 87.878906 93.679688 Z M 81.433594 82.742188 "/></clipPath><clipPath id="3685170fb7"><path d="M 81.433594 82.742188 L 92.371094 76.300781 L 98.816406 87.234375 L 87.878906 93.679688 Z M 81.433594 82.742188 "/></clipPath><clipPath id="1f3aad6a6f"><path d="M 95 85 L 98 85 L 98 87 L 95 87 Z M 95 85 "/></clipPath><clipPath id="4b94b30911"><path d="M 81.433594 82.742188 L 92.371094 76.300781 L 98.816406 87.234375 L 87.878906 93.679688 Z M 81.433594 82.742188 "/></clipPath><clipPath id="49ed009a91"><path d="M 81.433594 82.742188 L 92.371094 76.300781 L 98.816406 87.234375 L 87.878906 93.679688 Z M 81.433594 82.742188 "/></clipPath><clipPath id="476f3c9a5b"><path d="M 81.433594 82.742188 L 92.371094 76.300781 L 98.816406 87.234375 L 87.878906 93.679688 Z M 81.433594 82.742188 "/></clipPath><clipPath id="3c9813b1aa"><path d="M 94 84 L 96 84 L 96 86 L 94 86 Z M 94 84 "/></clipPath><clipPath id="8b0a566e44"><path d="M 81.433594 82.742188 L 92.371094 76.300781 L 98.816406 87.234375 L 87.878906 93.679688 Z M 81.433594 82.742188 "/></clipPath><clipPath id="c01043fcce"><path d="M 81.433594 82.742188 L 92.371094 76.300781 L 98.816406 87.234375 L 87.878906 93.679688 Z M 81.433594 82.742188 "/></clipPath><clipPath id="17d0a493c2"><path d="M 81.433594 82.742188 L 92.371094 76.300781 L 98.816406 87.234375 L 87.878906 93.679688 Z M 81.433594 82.742188 "/></clipPath><clipPath id="e7b7fc4b55"><path d="M 94 84 L 95 84 L 95 86 L 94 86 Z M 94 84 "/></clipPath><clipPath id="a4214c0fe1"><path d="M 81.433594 82.742188 L 92.371094 76.300781 L 98.816406 87.234375 L 87.878906 93.679688 Z M 81.433594 82.742188 "/></clipPath><clipPath id="761876d5f1"><path d="M 81.433594 82.742188 L 92.371094 76.300781 L 98.816406 87.234375 L 87.878906 93.679688 Z M 81.433594 82.742188 "/></clipPath><clipPath id="bf7d35ba4d"><path d="M 81.433594 82.742188 L 92.371094 76.300781 L 98.816406 87.234375 L 87.878906 93.679688 Z M 81.433594 82.742188 "/></clipPath><clipPath id="3e09502ba2"><path d="M 93 83 L 95 83 L 95 85 L 93 85 Z M 93 83 "/></clipPath><clipPath id="0f24bf4235"><path d="M 81.433594 82.742188 L 92.371094 76.300781 L 98.816406 87.234375 L 87.878906 93.679688 Z M 81.433594 82.742188 "/></clipPath><clipPath id="58377c83f5"><path d="M 81.433594 82.742188 L 92.371094 76.300781 L 98.816406 87.234375 L 87.878906 93.679688 Z M 81.433594 82.742188 "/></clipPath><clipPath id="b3d153d7de"><path d="M 81.433594 82.742188 L 92.371094 76.300781 L 98.816406 87.234375 L 87.878906 93.679688 Z M 81.433594 82.742188 "/></clipPath><clipPath id="4a60726917"><path d="M 92 83 L 94 83 L 94 85 L 92 85 Z M 92 83 "/></clipPath><clipPath id="a7e43ac757"><path d="M 81.433594 82.742188 L 92.371094 76.300781 L 98.816406 87.234375 L 87.878906 93.679688 Z M 81.433594 82.742188 "/></clipPath><clipPath id="ccd5e63be0"><path d="M 81.433594 82.742188 L 92.371094 76.300781 L 98.816406 87.234375 L 87.878906 93.679688 Z M 81.433594 82.742188 "/></clipPath><clipPath id="00020ed2e3"><path d="M 81.433594 82.742188 L 92.371094 76.300781 L 98.816406 87.234375 L 87.878906 93.679688 Z M 81.433594 82.742188 "/></clipPath><clipPath id="0d6f299c0c"><path d="M 91 82 L 93 82 L 93 84 L 91 84 Z M 91 82 "/></clipPath><clipPath id="a8191de702"><path d="M 81.433594 82.742188 L 92.371094 76.300781 L 98.816406 87.234375 L 87.878906 93.679688 Z M 81.433594 82.742188 "/></clipPath><clipPath id="c4f19639f2"><path d="M 81.433594 82.742188 L 92.371094 76.300781 L 98.816406 87.234375 L 87.878906 93.679688 Z M 81.433594 82.742188 "/></clipPath><clipPath id="b0a3c70f07"><path d="M 81.433594 82.742188 L 92.371094 76.300781 L 98.816406 87.234375 L 87.878906 93.679688 Z M 81.433594 82.742188 "/></clipPath><clipPath id="81180764bf"><path d="M 90 82 L 92 82 L 92 84 L 90 84 Z M 90 82 "/></clipPath><clipPath id="ad9a9676c4"><path d="M 81.433594 82.742188 L 92.371094 76.300781 L 98.816406 87.234375 L 87.878906 93.679688 Z M 81.433594 82.742188 "/></clipPath><clipPath id="d85db94bfe"><path d="M 81.433594 82.742188 L 92.371094 76.300781 L 98.816406 87.234375 L 87.878906 93.679688 Z M 81.433594 82.742188 "/></clipPath><clipPath id="d525462d95"><path d="M 81.433594 82.742188 L 92.371094 76.300781 L 98.816406 87.234375 L 87.878906 93.679688 Z M 81.433594 82.742188 "/></clipPath><clipPath id="6ab9e61f34"><path d="M 90 81 L 91 81 L 91 83 L 90 83 Z M 90 81 "/></clipPath><clipPath id="3f915e619e"><path d="M 81.433594 82.742188 L 92.371094 76.300781 L 98.816406 87.234375 L 87.878906 93.679688 Z M 81.433594 82.742188 "/></clipPath><clipPath id="1c629c64b8"><path d="M 81.433594 82.742188 L 92.371094 76.300781 L 98.816406 87.234375 L 87.878906 93.679688 Z M 81.433594 82.742188 "/></clipPath><clipPath id="7ea92f1386"><path d="M 81.433594 82.742188 L 92.371094 76.300781 L 98.816406 87.234375 L 87.878906 93.679688 Z M 81.433594 82.742188 "/></clipPath><clipPath id="7219206dcd"><path d="M 89 81 L 90 81 L 90 82 L 89 82 Z M 89 81 "/></clipPath><clipPath id="e17f396f90"><path d="M 81.433594 82.742188 L 92.371094 76.300781 L 98.816406 87.234375 L 87.878906 93.679688 Z M 81.433594 82.742188 "/></clipPath><clipPath id="fa7c354813"><path d="M 81.433594 82.742188 L 92.371094 76.300781 L 98.816406 87.234375 L 87.878906 93.679688 Z M 81.433594 82.742188 "/></clipPath><clipPath id="8740b6375b"><path d="M 81.433594 82.742188 L 92.371094 76.300781 L 98.816406 87.234375 L 87.878906 93.679688 Z M 81.433594 82.742188 "/></clipPath><clipPath id="280a2e4cd8"><path d="M 88 80 L 90 80 L 90 82 L 88 82 Z M 88 80 "/></clipPath><clipPath id="0d4abe84e6"><path d="M 81.433594 82.742188 L 92.371094 76.300781 L 98.816406 87.234375 L 87.878906 93.679688 Z M 81.433594 82.742188 "/></clipPath><clipPath id="5050dde679"><path d="M 81.433594 82.742188 L 92.371094 76.300781 L 98.816406 87.234375 L 87.878906 93.679688 Z M 81.433594 82.742188 "/></clipPath><clipPath id="10ad0b61fa"><path d="M 81.433594 82.742188 L 92.371094 76.300781 L 98.816406 87.234375 L 87.878906 93.679688 Z M 81.433594 82.742188 "/></clipPath><clipPath id="b08e912579"><path d="M 87 79 L 89 79 L 89 81 L 87 81 Z M 87 79 "/></clipPath><clipPath id="287935c36f"><path d="M 81.433594 82.742188 L 92.371094 76.300781 L 98.816406 87.234375 L 87.878906 93.679688 Z M 81.433594 82.742188 "/></clipPath><clipPath id="921d9ae257"><path d="M 81.433594 82.742188 L 92.371094 76.300781 L 98.816406 87.234375 L 87.878906 93.679688 Z M 81.433594 82.742188 "/></clipPath><clipPath id="7efa94f8c1"><path d="M 81.433594 82.742188 L 92.371094 76.300781 L 98.816406 87.234375 L 87.878906 93.679688 Z M 81.433594 82.742188 "/></clipPath><clipPath id="77d4b848b3"><path d="M 86 79 L 88 79 L 88 81 L 86 81 Z M 86 79 "/></clipPath><clipPath id="b1febb4a0e"><path d="M 81.433594 82.742188 L 92.371094 76.300781 L 98.816406 87.234375 L 87.878906 93.679688 Z M 81.433594 82.742188 "/></clipPath><clipPath id="f47a7abd8b"><path d="M 81.433594 82.742188 L 92.371094 76.300781 L 98.816406 87.234375 L 87.878906 93.679688 Z M 81.433594 82.742188 "/></clipPath><clipPath id="3ab8091f07"><path d="M 81.433594 82.742188 L 92.371094 76.300781 L 98.816406 87.234375 L 87.878906 93.679688 Z M 81.433594 82.742188 "/></clipPath><clipPath id="ff6e90fc0e"><path d="M 64 23 L 74 23 L 74 34 L 64 34 Z M 64 23 "/></clipPath><clipPath id="85bb80851c"><path d="M 61.308594 26.128906 L 69.03125 21.578125 L 73.578125 29.296875 L 65.859375 33.847656 Z M 61.308594 26.128906 "/></clipPath><clipPath id="6c531083b9"><path d="M 61.308594 26.128906 L 69.03125 21.578125 L 73.578125 29.296875 L 65.859375 33.847656 Z M 61.308594 26.128906 "/></clipPath><clipPath id="1b785afebb"><path d="M 61.308594 26.128906 L 69.03125 21.578125 L 73.578125 29.296875 L 65.859375 33.847656 Z M 61.308594 26.128906 "/></clipPath><clipPath id="dc725b4dde"><path d="M 64 24 L 73 24 L 73 33 L 64 33 Z M 64 24 "/></clipPath><clipPath id="fcd723e064"><path d="M 61.308594 26.128906 L 69.03125 21.578125 L 73.578125 29.296875 L 65.859375 33.847656 Z M 61.308594 26.128906 "/></clipPath><clipPath id="c0498cf64e"><path d="M 61.308594 26.128906 L 69.03125 21.578125 L 73.578125 29.296875 L 65.859375 33.847656 Z M 61.308594 26.128906 "/></clipPath><clipPath id="6420fa2d83"><path d="M 61.308594 26.128906 L 69.03125 21.578125 L 73.578125 29.296875 L 65.859375 33.847656 Z M 61.308594 26.128906 "/></clipPath><clipPath id="7c403aa6ca"><path d="M 64 23 L 73 23 L 73 34 L 64 34 Z M 64 23 "/></clipPath><clipPath id="637357bf82"><path d="M 61.308594 26.128906 L 69.03125 21.578125 L 73.578125 29.296875 L 65.859375 33.847656 Z M 61.308594 26.128906 "/></clipPath><clipPath id="e234d2e00e"><path d="M 61.308594 26.128906 L 69.03125 21.578125 L 73.578125 29.296875 L 65.859375 33.847656 Z M 61.308594 26.128906 "/></clipPath><clipPath id="cb80586584"><path d="M 61.308594 26.128906 L 69.03125 21.578125 L 73.578125 29.296875 L 65.859375 33.847656 Z M 61.308594 26.128906 "/></clipPath><clipPath id="c9a52b8dc9"><path d="M 64 24 L 73 24 L 73 33 L 64 33 Z M 64 24 "/></clipPath><clipPath id="7b3d26b13a"><path d="M 61.308594 26.128906 L 69.03125 21.578125 L 73.578125 29.296875 L 65.859375 33.847656 Z M 61.308594 26.128906 "/></clipPath><clipPath id="b2519356ce"><path d="M 61.308594 26.128906 L 69.03125 21.578125 L 73.578125 29.296875 L 65.859375 33.847656 Z M 61.308594 26.128906 "/></clipPath><clipPath id="b846effef3"><path d="M 61.308594 26.128906 L 69.03125 21.578125 L 73.578125 29.296875 L 65.859375 33.847656 Z M 61.308594 26.128906 "/></clipPath><clipPath id="5703366b85"><path d="M 71 27 L 73 27 L 73 30 L 71 30 Z M 71 27 "/></clipPath><clipPath id="fff235ab05"><path d="M 61.308594 26.128906 L 69.03125 21.578125 L 73.578125 29.296875 L 65.859375 33.847656 Z M 61.308594 26.128906 "/></clipPath><clipPath id="ec3b6199ff"><path d="M 61.308594 26.128906 L 69.03125 21.578125 L 73.578125 29.296875 L 65.859375 33.847656 Z M 61.308594 26.128906 "/></clipPath><clipPath id="5ad5a31c64"><path d="M 61.308594 26.128906 L 69.03125 21.578125 L 73.578125 29.296875 L 65.859375 33.847656 Z M 61.308594 26.128906 "/></clipPath><clipPath id="ad3d2c4401"><path d="M 70 27 L 72 27 L 72 29 L 70 29 Z M 70 27 "/></clipPath><clipPath id="0ec9152c68"><path d="M 61.308594 26.128906 L 69.03125 21.578125 L 73.578125 29.296875 L 65.859375 33.847656 Z M 61.308594 26.128906 "/></clipPath><clipPath id="ae24fc9054"><path d="M 61.308594 26.128906 L 69.03125 21.578125 L 73.578125 29.296875 L 65.859375 33.847656 Z M 61.308594 26.128906 "/></clipPath><clipPath id="6cb60996c0"><path d="M 61.308594 26.128906 L 69.03125 21.578125 L 73.578125 29.296875 L 65.859375 33.847656 Z M 61.308594 26.128906 "/></clipPath><clipPath id="cb2bee7309"><path d="M 70 27 L 71 27 L 71 28 L 70 28 Z M 70 27 "/></clipPath><clipPath id="4d91954dbd"><path d="M 61.308594 26.128906 L 69.03125 21.578125 L 73.578125 29.296875 L 65.859375 33.847656 Z M 61.308594 26.128906 "/></clipPath><clipPath id="bebd37afee"><path d="M 61.308594 26.128906 L 69.03125 21.578125 L 73.578125 29.296875 L 65.859375 33.847656 Z M 61.308594 26.128906 "/></clipPath><clipPath id="231fd8b0f5"><path d="M 61.308594 26.128906 L 69.03125 21.578125 L 73.578125 29.296875 L 65.859375 33.847656 Z M 61.308594 26.128906 "/></clipPath><clipPath id="f0cb1a00e8"><path d="M 69 26 L 71 26 L 71 28 L 69 28 Z M 69 26 "/></clipPath><clipPath id="8047b18fb8"><path d="M 61.308594 26.128906 L 69.03125 21.578125 L 73.578125 29.296875 L 65.859375 33.847656 Z M 61.308594 26.128906 "/></clipPath><clipPath id="c04574b4c5"><path d="M 61.308594 26.128906 L 69.03125 21.578125 L 73.578125 29.296875 L 65.859375 33.847656 Z M 61.308594 26.128906 "/></clipPath><clipPath id="5dbeba34d4"><path d="M 61.308594 26.128906 L 69.03125 21.578125 L 73.578125 29.296875 L 65.859375 33.847656 Z M 61.308594 26.128906 "/></clipPath><clipPath id="5e68a17fcd"><path d="M 69 26 L 70 26 L 70 28 L 69 28 Z M 69 26 "/></clipPath><clipPath id="18282d270e"><path d="M 61.308594 26.128906 L 69.03125 21.578125 L 73.578125 29.296875 L 65.859375 33.847656 Z M 61.308594 26.128906 "/></clipPath><clipPath id="f3aa195990"><path d="M 61.308594 26.128906 L 69.03125 21.578125 L 73.578125 29.296875 L 65.859375 33.847656 Z M 61.308594 26.128906 "/></clipPath><clipPath id="45790322d7"><path d="M 61.308594 26.128906 L 69.03125 21.578125 L 73.578125 29.296875 L 65.859375 33.847656 Z M 61.308594 26.128906 "/></clipPath><clipPath id="965a2c7072"><path d="M 68 26 L 70 26 L 70 27 L 68 27 Z M 68 26 "/></clipPath><clipPath id="0d6e34f816"><path d="M 61.308594 26.128906 L 69.03125 21.578125 L 73.578125 29.296875 L 65.859375 33.847656 Z M 61.308594 26.128906 "/></clipPath><clipPath id="faf88302c4"><path d="M 61.308594 26.128906 L 69.03125 21.578125 L 73.578125 29.296875 L 65.859375 33.847656 Z M 61.308594 26.128906 "/></clipPath><clipPath id="33e0e018fe"><path d="M 61.308594 26.128906 L 69.03125 21.578125 L 73.578125 29.296875 L 65.859375 33.847656 Z M 61.308594 26.128906 "/></clipPath><clipPath id="500f316466"><path d="M 67 25 L 69 25 L 69 27 L 67 27 Z M 67 25 "/></clipPath><clipPath id="b39cd5af58"><path d="M 61.308594 26.128906 L 69.03125 21.578125 L 73.578125 29.296875 L 65.859375 33.847656 Z M 61.308594 26.128906 "/></clipPath><clipPath id="da5a1f0dbe"><path d="M 61.308594 26.128906 L 69.03125 21.578125 L 73.578125 29.296875 L 65.859375 33.847656 Z M 61.308594 26.128906 "/></clipPath><clipPath id="d986fc5fbe"><path d="M 61.308594 26.128906 L 69.03125 21.578125 L 73.578125 29.296875 L 65.859375 33.847656 Z M 61.308594 26.128906 "/></clipPath><clipPath id="c9e2741b3b"><path d="M 67 25 L 68 25 L 68 26 L 67 26 Z M 67 25 "/></clipPath><clipPath id="82062bc4b8"><path d="M 61.308594 26.128906 L 69.03125 21.578125 L 73.578125 29.296875 L 65.859375 33.847656 Z M 61.308594 26.128906 "/></clipPath><clipPath id="e482c85bb6"><path d="M 61.308594 26.128906 L 69.03125 21.578125 L 73.578125 29.296875 L 65.859375 33.847656 Z M 61.308594 26.128906 "/></clipPath><clipPath id="a9f8bed960"><path d="M 61.308594 26.128906 L 69.03125 21.578125 L 73.578125 29.296875 L 65.859375 33.847656 Z M 61.308594 26.128906 "/></clipPath><clipPath id="a42c625ca2"><path d="M 66 24 L 68 24 L 68 26 L 66 26 Z M 66 24 "/></clipPath><clipPath id="df790fdbc3"><path d="M 61.308594 26.128906 L 69.03125 21.578125 L 73.578125 29.296875 L 65.859375 33.847656 Z M 61.308594 26.128906 "/></clipPath><clipPath id="14d44e33fd"><path d="M 61.308594 26.128906 L 69.03125 21.578125 L 73.578125 29.296875 L 65.859375 33.847656 Z M 61.308594 26.128906 "/></clipPath><clipPath id="7e059fb9cd"><path d="M 61.308594 26.128906 L 69.03125 21.578125 L 73.578125 29.296875 L 65.859375 33.847656 Z M 61.308594 26.128906 "/></clipPath><clipPath id="64b770618b"><path d="M 66 24 L 67 24 L 67 26 L 66 26 Z M 66 24 "/></clipPath><clipPath id="476afda9f8"><path d="M 61.308594 26.128906 L 69.03125 21.578125 L 73.578125 29.296875 L 65.859375 33.847656 Z M 61.308594 26.128906 "/></clipPath><clipPath id="585eb9b4c6"><path d="M 61.308594 26.128906 L 69.03125 21.578125 L 73.578125 29.296875 L 65.859375 33.847656 Z M 61.308594 26.128906 "/></clipPath><clipPath id="21cfc6f0bf"><path d="M 61.308594 26.128906 L 69.03125 21.578125 L 73.578125 29.296875 L 65.859375 33.847656 Z M 61.308594 26.128906 "/></clipPath><clipPath id="c2430ba08a"><path d="M 65 24 L 67 24 L 67 25 L 65 25 Z M 65 24 "/></clipPath><clipPath id="f069c0d579"><path d="M 61.308594 26.128906 L 69.03125 21.578125 L 73.578125 29.296875 L 65.859375 33.847656 Z M 61.308594 26.128906 "/></clipPath><clipPath id="76dc50d65b"><path d="M 61.308594 26.128906 L 69.03125 21.578125 L 73.578125 29.296875 L 65.859375 33.847656 Z M 61.308594 26.128906 "/></clipPath><clipPath id="fbfd0eb4ec"><path d="M 61.308594 26.128906 L 69.03125 21.578125 L 73.578125 29.296875 L 65.859375 33.847656 Z M 61.308594 26.128906 "/></clipPath><clipPath id="7ef217508b"><path d="M 64 24 L 66 24 L 66 25 L 64 25 Z M 64 24 "/></clipPath><clipPath id="5255aeab3d"><path d="M 61.308594 26.128906 L 69.03125 21.578125 L 73.578125 29.296875 L 65.859375 33.847656 Z M 61.308594 26.128906 "/></clipPath><clipPath id="d69cd6e104"><path d="M 61.308594 26.128906 L 69.03125 21.578125 L 73.578125 29.296875 L 65.859375 33.847656 Z M 61.308594 26.128906 "/></clipPath><clipPath id="10ec7846cf"><path d="M 61.308594 26.128906 L 69.03125 21.578125 L 73.578125 29.296875 L 65.859375 33.847656 Z M 61.308594 26.128906 "/></clipPath></defs><g id="275c64a642"><g clip-rule="nonzero" clip-path="url(#b728236efc)"><path style=" stroke:none;fill-rule:nonzero;fill:#000000;fill-opacity:0.3;" d="M 28.453125 22.453125 L 28.453125 21.472656 L 27.964844 21.472656 L 27.964844 20.496094 L 27.476562 20.496094 L 27.476562 19.515625 L 26.988281 19.515625 L 26.988281 18.539062 L 26.496094 18.539062 L 26.496094 17.558594 L 26.007812 17.558594 L 26.007812 16.582031 L 25.519531 16.582031 L 25.519531 15.601562 L 25.03125 15.601562 L 25.03125 14.625 L 24.539062 14.625 L 24.539062 13.644531 L 24.050781 13.644531 L 24.050781 12.667969 L 23.5625 12.667969 L 23.5625 12.179688 L 23.074219 12.179688 L 23.074219 11.6875 L 21.605469 11.6875 L 21.605469 12.179688 L 21.117188 12.179688 L 21.117188 12.667969 L 20.628906 12.667969 L 20.628906 13.644531 L 20.136719 13.644531 L 20.136719 14.625 L 19.648438 14.625 L 19.648438 15.601562 L 19.160156 15.601562 L 19.160156 16.582031 L 18.671875 16.582031 L 18.671875 17.558594 L 18.179688 17.558594 L 18.179688 18.539062 L 17.691406 18.539062 L 17.691406 19.515625 L 17.203125 19.515625 L 17.203125 20.496094 L 16.714844 20.496094 L 16.714844 21.472656 L 16.222656 21.472656 L 16.222656 22.453125 L 15.734375 22.453125 L 15.734375 24.410156 L 16.222656 24.410156 L 16.222656 24.898438 L 16.714844 24.898438 L 16.714844 25.386719 L 27.964844 25.386719 L 27.964844 24.898438 L 28.453125 24.898438 L 28.453125 24.410156 L 28.945312 24.410156 L 28.945312 22.453125 Z M 28.453125 22.453125 "/></g><g clip-rule="nonzero" clip-path="url(#a251d6bfa9)"><path style=" stroke:none;fill-rule:nonzero;fill:#fdff00;fill-opacity:1;" d="M 21.605469 11.6875 L 22.09375 11.6875 L 22.582031 12.179688 L 23.074219 13.15625 L 27.476562 21.960938 L 27.476562 23.917969 L 26.988281 24.410156 L 15.734375 24.410156 L 15.246094 23.917969 L 15.246094 21.960938 L 20.136719 12.179688 L 20.628906 11.6875 Z M 21.605469 11.6875 "/></g><g clip-rule="nonzero" clip-path="url(#a1a40d4617)"><path style=" stroke:none;fill-rule:nonzero;fill:#000000;fill-opacity:1;" d="M 21.117188 11.6875 L 20.628906 11.6875 L 20.628906 11.199219 L 22.09375 11.199219 L 22.09375 11.6875 Z M 20.628906 11.6875 L 20.136719 11.6875 L 20.136719 12.179688 L 20.628906 12.179688 Z M 22.582031 12.179688 L 22.582031 11.6875 L 22.09375 11.6875 L 22.09375 12.179688 Z M 20.136719 12.667969 L 20.136719 12.179688 L 19.648438 12.179688 L 19.648438 13.15625 L 20.136719 13.15625 Z M 22.582031 13.15625 L 23.074219 13.15625 L 23.074219 12.179688 L 22.582031 12.179688 Z M 19.648438 13.644531 L 19.648438 13.15625 L 19.160156 13.15625 L 19.160156 14.136719 L 19.648438 14.136719 Z M 23.074219 14.136719 L 23.5625 14.136719 L 23.5625 13.15625 L 23.074219 13.15625 Z M 19.160156 14.625 L 19.160156 14.136719 L 18.671875 14.136719 L 18.671875 15.113281 L 19.160156 15.113281 Z M 23.5625 15.113281 L 24.050781 15.113281 L 24.050781 14.136719 L 23.5625 14.136719 Z M 22.09375 15.113281 L 20.628906 15.113281 L 20.628906 15.601562 L 20.136719 15.601562 L 20.136719 18.050781 L 20.628906 18.050781 L 20.628906 19.515625 L 21.117188 19.515625 L 21.117188 20.984375 L 21.605469 20.984375 L 21.605469 19.515625 L 22.09375 19.515625 L 22.09375 18.050781 L 22.582031 18.050781 L 22.582031 15.601562 L 22.09375 15.601562 Z M 18.671875 15.601562 L 18.671875 15.113281 L 18.179688 15.113281 L 18.179688 16.09375 L 18.671875 16.09375 Z M 24.050781 16.09375 L 24.539062 16.09375 L 24.539062 15.113281 L 24.050781 15.113281 Z M 18.179688 16.582031 L 18.179688 16.09375 L 17.691406 16.09375 L 17.691406 17.070312 L 18.179688 17.070312 Z M 24.539062 17.070312 L 25.03125 17.070312 L 25.03125 16.09375 L 24.539062 16.09375 Z M 17.691406 17.558594 L 17.691406 17.070312 L 17.203125 17.070312 L 17.203125 18.050781 L 17.691406 18.050781 Z M 25.03125 18.050781 L 25.519531 18.050781 L 25.519531 17.070312 L 25.03125 17.070312 Z M 17.203125 18.539062 L 17.203125 18.050781 L 16.714844 18.050781 L 16.714844 19.027344 L 17.203125 19.027344 Z M 25.519531 19.027344 L 26.007812 19.027344 L 26.007812 18.050781 L 25.519531 18.050781 Z M 16.714844 19.515625 L 16.714844 19.027344 L 16.222656 19.027344 L 16.222656 20.007812 L 16.714844 20.007812 Z M 26.007812 20.007812 L 26.496094 20.007812 L 26.496094 19.027344 L 26.007812 19.027344 Z M 16.222656 20.496094 L 16.222656 20.007812 L 15.734375 20.007812 L 15.734375 20.984375 L 16.222656 20.984375 Z M 26.496094 20.984375 L 26.988281 20.984375 L 26.988281 20.007812 L 26.496094 20.007812 Z M 15.734375 21.472656 L 15.734375 20.984375 L 15.246094 20.984375 L 15.246094 21.960938 L 15.734375 21.960938 Z M 21.605469 21.472656 L 21.117188 21.472656 L 21.117188 21.960938 L 20.628906 21.960938 L 20.628906 22.453125 L 21.117188 22.453125 L 21.117188 22.941406 L 21.605469 22.941406 L 21.605469 22.453125 L 22.09375 22.453125 L 22.09375 21.960938 L 21.605469 21.960938 Z M 26.988281 21.960938 L 27.476562 21.960938 L 27.476562 20.984375 L 26.988281 20.984375 Z M 27.476562 21.960938 L 27.476562 23.917969 L 27.964844 23.917969 L 27.964844 21.960938 Z M 15.246094 22.941406 L 15.246094 21.960938 L 14.757812 21.960938 L 14.757812 23.917969 L 15.246094 23.917969 Z M 15.246094 23.917969 L 15.246094 24.410156 L 15.734375 24.410156 L 15.734375 23.917969 Z M 26.988281 24.410156 L 27.476562 24.410156 L 27.476562 23.917969 L 26.988281 23.917969 Z M 26.007812 24.410156 L 15.734375 24.410156 L 15.734375 24.898438 L 26.988281 24.898438 L 26.988281 24.410156 Z M 26.007812 24.410156 "/></g><path style=" stroke:none;fill-rule:nonzero;fill:#000000;fill-opacity:0.3;" d="M 21.117188 21.960938 L 20.628906 21.960938 L 20.628906 21.472656 L 21.117188 21.472656 Z M 21.117188 19.515625 L 20.628906 19.515625 L 20.628906 20.007812 L 21.117188 20.007812 Z M 20.628906 18.050781 L 20.136719 18.050781 L 20.136719 18.539062 L 20.628906 18.539062 Z M 22.09375 19.515625 L 21.605469 19.515625 L 21.605469 20.007812 L 22.09375 20.007812 Z M 22.582031 18.050781 L 22.09375 18.050781 L 22.09375 18.539062 L 22.582031 18.539062 Z M 21.117188 22.453125 L 20.628906 22.453125 L 20.628906 22.941406 L 21.117188 22.941406 Z M 22.09375 21.472656 L 21.605469 21.472656 L 21.605469 21.960938 L 22.09375 21.960938 Z M 22.09375 22.453125 L 21.605469 22.453125 L 21.605469 22.941406 L 22.09375 22.941406 Z M 15.734375 23.917969 L 15.734375 24.410156 L 26.988281 24.410156 L 26.988281 23.917969 Z M 15.246094 21.960938 L 15.246094 23.917969 L 15.734375 23.917969 L 15.734375 21.960938 Z M 16.222656 20.984375 L 15.734375 20.984375 L 15.734375 21.960938 L 16.222656 21.960938 Z M 16.714844 20.007812 L 16.222656 20.007812 L 16.222656 20.984375 L 16.714844 20.984375 Z M 17.203125 19.027344 L 16.714844 19.027344 L 16.714844 20.007812 L 17.203125 20.007812 Z M 17.691406 18.050781 L 17.203125 18.050781 L 17.203125 19.027344 L 17.691406 19.027344 Z M 18.179688 17.070312 L 17.691406 17.070312 L 17.691406 18.050781 L 18.179688 18.050781 Z M 18.671875 16.09375 L 18.179688 16.09375 L 18.179688 17.070312 L 18.671875 17.070312 Z M 19.160156 15.113281 L 18.671875 15.113281 L 18.671875 16.09375 L 19.160156 16.09375 Z M 19.648438 14.136719 L 19.160156 14.136719 L 19.160156 15.113281 L 19.648438 15.113281 Z M 20.136719 13.15625 L 19.648438 13.15625 L 19.648438 14.136719 L 20.136719 14.136719 Z M 20.628906 12.179688 L 20.136719 12.179688 L 20.136719 13.15625 L 20.628906 13.15625 Z M 20.628906 12.179688 "/><path style=" stroke:none;fill-rule:nonzero;fill:#ffffff;fill-opacity:0.5;" d="M 26.988281 21.960938 L 27.476562 21.960938 L 27.476562 23.917969 L 26.988281 23.917969 Z M 26.988281 21.960938 "/><path style=" stroke:none;fill-rule:nonzero;fill:#ffffff;fill-opacity:0.5;" d="M 26.496094 20.984375 L 26.988281 20.984375 L 26.988281 21.960938 L 26.496094 21.960938 Z M 26.496094 20.984375 "/><path style=" stroke:none;fill-rule:nonzero;fill:#ffffff;fill-opacity:0.5;" d="M 26.007812 20.007812 L 26.496094 20.007812 L 26.496094 20.984375 L 26.007812 20.984375 Z M 26.007812 20.007812 "/><path style=" stroke:none;fill-rule:nonzero;fill:#ffffff;fill-opacity:0.5;" d="M 25.519531 19.027344 L 26.007812 19.027344 L 26.007812 20.007812 L 25.519531 20.007812 Z M 25.519531 19.027344 "/><path style=" stroke:none;fill-rule:nonzero;fill:#ffffff;fill-opacity:0.5;" d="M 25.03125 18.050781 L 25.519531 18.050781 L 25.519531 19.027344 L 25.03125 19.027344 Z M 25.03125 18.050781 "/><path style=" stroke:none;fill-rule:nonzero;fill:#ffffff;fill-opacity:0.5;" d="M 24.539062 17.070312 L 25.03125 17.070312 L 25.03125 18.050781 L 24.539062 18.050781 Z M 24.539062 17.070312 "/><path style=" stroke:none;fill-rule:nonzero;fill:#ffffff;fill-opacity:0.5;" d="M 24.050781 16.09375 L 24.539062 16.09375 L 24.539062 17.070312 L 24.050781 17.070312 Z M 24.050781 16.09375 "/><path style=" stroke:none;fill-rule:nonzero;fill:#ffffff;fill-opacity:0.5;" d="M 23.5625 15.113281 L 24.050781 15.113281 L 24.050781 16.09375 L 23.5625 16.09375 Z M 23.5625 15.113281 "/><path style=" stroke:none;fill-rule:nonzero;fill:#ffffff;fill-opacity:0.5;" d="M 23.074219 14.136719 L 23.5625 14.136719 L 23.5625 15.113281 L 23.074219 15.113281 Z M 23.074219 14.136719 "/><path style=" stroke:none;fill-rule:nonzero;fill:#ffffff;fill-opacity:0.5;" d="M 22.582031 13.15625 L 23.074219 13.15625 L 23.074219 14.136719 L 22.582031 14.136719 Z M 22.582031 13.15625 "/><path style=" stroke:none;fill-rule:nonzero;fill:#ffffff;fill-opacity:0.5;" d="M 22.09375 12.179688 L 22.582031 12.179688 L 22.582031 13.15625 L 22.09375 13.15625 Z M 22.09375 12.179688 "/><g clip-rule="nonzero" clip-path="url(#caf4e3bc0a)"><path style=" stroke:none;fill-rule:nonzero;fill:#ffffff;fill-opacity:0.5;" d="M 20.628906 11.6875 L 22.09375 11.6875 L 22.09375 12.179688 L 20.628906 12.179688 Z M 20.628906 11.6875 "/></g><g clip-rule="nonzero" clip-path="url(#942211e543)"><g clip-rule="nonzero" clip-path="url(#99d1b1c0ed)"><g clip-rule="nonzero" clip-path="url(#aa953fc188)"><g clip-rule="nonzero" clip-path="url(#44cf1e09f0)"><path style=" stroke:none;fill-rule:nonzero;fill:#000000;fill-opacity:0.3;" d="M 28.304688 75.0625 L 28.421875 74.777344 L 28.535156 74.488281 L 28.25 74.375 L 28.367188 74.085938 L 28.484375 73.800781 L 28.195312 73.683594 L 28.429688 73.113281 L 28.140625 72.996094 L 28.257812 72.710938 L 28.375 72.421875 L 28.085938 72.308594 L 28.203125 72.019531 L 28.320312 71.734375 L 28.03125 71.617188 L 28.265625 71.046875 L 27.976562 70.929688 L 28.09375 70.644531 L 28.210938 70.355469 L 27.925781 70.242188 L 28.039062 69.953125 L 28.15625 69.667969 L 27.871094 69.550781 L 27.984375 69.265625 L 28.101562 68.980469 L 27.816406 68.863281 L 27.929688 68.578125 L 28.046875 68.292969 L 27.761719 68.175781 L 27.875 67.890625 L 27.589844 67.773438 L 27.707031 67.488281 L 27.417969 67.371094 L 26.847656 67.136719 L 26.730469 67.425781 L 26.445312 67.308594 L 26.328125 67.59375 L 26.042969 67.480469 L 25.808594 68.050781 L 25.523438 67.9375 L 25.40625 68.222656 L 25.292969 68.507812 L 25.003906 68.394531 L 24.890625 68.679688 L 24.773438 68.964844 L 24.488281 68.851562 L 24.253906 69.421875 L 23.96875 69.304688 L 23.851562 69.59375 L 23.738281 69.878906 L 23.449219 69.761719 L 23.335938 70.050781 L 23.21875 70.335938 L 22.933594 70.21875 L 22.816406 70.507812 L 22.699219 70.792969 L 22.414062 70.675781 L 22.296875 70.964844 L 22.183594 71.25 L 21.894531 71.132812 L 21.78125 71.421875 L 21.664062 71.707031 L 21.378906 71.589844 L 21.261719 71.875 L 21.144531 72.164062 L 20.859375 72.046875 L 20.742188 72.332031 L 20.628906 72.621094 L 20.394531 73.191406 L 20.683594 73.308594 L 20.566406 73.59375 L 20.851562 73.710938 L 20.734375 73.996094 L 21.023438 74.113281 L 21.308594 74.230469 L 21.59375 74.34375 L 21.882812 74.460938 L 22.167969 74.578125 L 22.453125 74.691406 L 22.742188 74.808594 L 23.3125 75.042969 L 23.601562 75.15625 L 24.171875 75.390625 L 24.460938 75.503906 L 25.03125 75.738281 L 25.316406 75.851562 L 25.605469 75.96875 L 25.890625 76.085938 L 26.175781 76.199219 L 26.464844 76.316406 L 26.75 76.433594 L 27.035156 76.546875 L 27.324219 76.664062 L 27.4375 76.378906 L 27.726562 76.496094 L 27.839844 76.207031 L 28.128906 76.324219 L 28.242188 76.039062 L 28.359375 75.75 L 28.476562 75.464844 L 28.589844 75.179688 Z M 28.304688 75.0625 "/></g></g></g></g><g clip-rule="nonzero" clip-path="url(#3813e37598)"><g clip-rule="nonzero" clip-path="url(#a580f55a85)"><g clip-rule="nonzero" clip-path="url(#a25c78e406)"><g clip-rule="nonzero" clip-path="url(#7266e2d83d)"><path style=" stroke:none;fill-rule:nonzero;fill:#fdff00;fill-opacity:1;" d="M 26.847656 67.136719 L 27.132812 67.253906 L 27.304688 67.65625 L 27.359375 68.34375 L 27.847656 74.542969 L 27.382812 75.691406 L 26.980469 75.859375 L 20.394531 73.191406 L 20.226562 72.789062 L 20.6875 71.644531 L 25.871094 67.078125 L 26.273438 66.90625 Z M 26.847656 67.136719 "/></g></g></g></g><g clip-rule="nonzero" clip-path="url(#72fa379789)"><g clip-rule="nonzero" clip-path="url(#b9faf7c8be)"><g clip-rule="nonzero" clip-path="url(#48a96a67d8)"><g clip-rule="nonzero" clip-path="url(#a42effd48b)"><path style=" stroke:none;fill-rule:nonzero;fill:#000000;fill-opacity:1;" d="M 26.5625 67.023438 L 26.273438 66.90625 L 26.390625 66.621094 L 26.675781 66.734375 L 26.964844 66.851562 L 27.25 66.96875 L 27.132812 67.253906 L 26.847656 67.136719 Z M 26.273438 66.90625 L 25.988281 66.789062 L 25.871094 67.078125 L 26.160156 67.191406 Z M 27.304688 67.65625 L 27.417969 67.371094 L 27.132812 67.253906 L 27.015625 67.539062 Z M 25.757812 67.363281 L 25.871094 67.078125 L 25.585938 66.960938 L 25.46875 67.246094 L 25.355469 67.535156 L 25.640625 67.648438 Z M 27.070312 68.230469 L 27.359375 68.34375 L 27.472656 68.058594 L 27.589844 67.773438 L 27.304688 67.65625 L 27.1875 67.941406 Z M 25.238281 67.820312 L 25.355469 67.535156 L 25.066406 67.417969 L 24.953125 67.703125 L 24.835938 67.992188 L 25.121094 68.105469 Z M 27.125 68.917969 L 27.414062 69.035156 L 27.527344 68.746094 L 27.644531 68.460938 L 27.359375 68.34375 L 27.242188 68.632812 Z M 24.71875 68.277344 L 24.835938 67.992188 L 24.550781 67.875 L 24.433594 68.160156 L 24.316406 68.449219 L 24.601562 68.5625 Z M 27.179688 69.605469 L 27.46875 69.722656 L 27.582031 69.4375 L 27.699219 69.148438 L 27.414062 69.035156 Z M 26.320312 69.257812 L 26.035156 69.144531 L 25.75 69.027344 L 25.460938 68.910156 L 25.347656 69.199219 L 25.058594 69.082031 L 24.945312 69.367188 L 24.828125 69.65625 L 24.710938 69.941406 L 24.597656 70.226562 L 24.480469 70.511719 L 24.765625 70.628906 L 24.652344 70.914062 L 24.535156 71.203125 L 24.417969 71.488281 L 24.707031 71.605469 L 24.472656 72.175781 L 24.355469 72.464844 L 24.644531 72.578125 L 24.757812 72.292969 L 24.875 72.007812 L 24.992188 71.71875 L 25.277344 71.835938 L 25.511719 71.265625 L 25.625 70.976562 L 25.914062 71.09375 L 26.027344 70.808594 L 26.144531 70.519531 L 26.261719 70.234375 L 26.375 69.949219 L 26.492188 69.660156 L 26.207031 69.546875 Z M 24.199219 68.734375 L 24.316406 68.449219 L 24.03125 68.332031 L 23.796875 68.902344 L 24.085938 69.019531 Z M 27.234375 70.296875 L 27.523438 70.410156 L 27.636719 70.125 L 27.753906 69.839844 L 27.46875 69.722656 L 27.351562 70.007812 Z M 23.683594 69.191406 L 23.796875 68.902344 L 23.511719 68.789062 L 23.394531 69.074219 L 23.28125 69.359375 L 23.566406 69.476562 Z M 27.289062 70.984375 L 27.574219 71.101562 L 27.691406 70.8125 L 27.808594 70.527344 L 27.523438 70.410156 L 27.40625 70.699219 Z M 23.164062 69.648438 L 23.28125 69.359375 L 22.992188 69.246094 L 22.878906 69.53125 L 22.761719 69.816406 L 23.046875 69.933594 Z M 27.34375 71.671875 L 27.628906 71.789062 L 27.746094 71.503906 L 27.863281 71.214844 L 27.574219 71.101562 L 27.460938 71.386719 Z M 22.644531 70.105469 L 22.761719 69.816406 L 22.476562 69.703125 L 22.242188 70.273438 L 22.53125 70.390625 Z M 27.398438 72.363281 L 27.683594 72.476562 L 27.917969 71.90625 L 27.628906 71.789062 L 27.515625 72.074219 Z M 22.128906 70.5625 L 22.242188 70.273438 L 21.957031 70.160156 L 21.839844 70.445312 L 21.726562 70.730469 L 22.011719 70.847656 Z M 27.453125 73.050781 L 27.738281 73.167969 L 27.855469 72.878906 L 27.972656 72.59375 L 27.683594 72.476562 L 27.570312 72.765625 Z M 21.609375 71.019531 L 21.726562 70.730469 L 21.4375 70.617188 L 21.324219 70.902344 L 21.207031 71.1875 L 21.492188 71.304688 Z M 27.507812 73.738281 L 27.792969 73.855469 L 27.910156 73.570312 L 28.027344 73.28125 L 27.738281 73.167969 L 27.625 73.453125 Z M 21.089844 71.472656 L 21.207031 71.1875 L 20.921875 71.070312 L 20.804688 71.359375 L 20.6875 71.644531 L 20.976562 71.761719 Z M 24.527344 72.867188 L 24.242188 72.75 L 24.125 73.035156 L 23.839844 72.921875 L 23.722656 73.207031 L 24.007812 73.324219 L 23.894531 73.609375 L 24.179688 73.726562 L 24.296875 73.4375 L 24.582031 73.554688 L 24.699219 73.269531 L 24.410156 73.152344 Z M 27.5625 74.429688 L 27.847656 74.542969 L 28.082031 73.972656 L 27.792969 73.855469 L 27.679688 74.140625 Z M 27.847656 74.542969 L 27.730469 74.832031 L 27.617188 75.117188 L 27.5 75.402344 L 27.382812 75.691406 L 27.671875 75.804688 L 27.785156 75.519531 L 27.902344 75.234375 L 28.019531 74.945312 L 28.132812 74.660156 Z M 20.457031 72.21875 L 20.574219 71.929688 L 20.6875 71.644531 L 20.402344 71.527344 L 20.285156 71.816406 L 20.171875 72.101562 L 20.054688 72.386719 L 19.9375 72.675781 L 20.226562 72.789062 L 20.339844 72.503906 Z M 20.226562 72.789062 L 20.109375 73.078125 L 20.394531 73.191406 L 20.511719 72.90625 Z M 26.980469 75.859375 L 27.269531 75.976562 L 27.382812 75.691406 L 27.097656 75.574219 Z M 26.410156 75.628906 L 26.121094 75.511719 L 25.835938 75.394531 L 25.550781 75.28125 L 25.265625 75.164062 L 24.976562 75.046875 L 24.691406 74.933594 L 24.40625 74.816406 L 24.117188 74.699219 L 23.832031 74.585938 L 23.546875 74.46875 L 23.257812 74.351562 L 22.972656 74.238281 L 22.6875 74.121094 L 22.398438 74.003906 L 22.113281 73.886719 L 21.828125 73.773438 L 21.539062 73.65625 L 21.253906 73.539062 L 20.96875 73.425781 L 20.683594 73.308594 L 20.394531 73.191406 L 20.28125 73.480469 L 20.566406 73.59375 L 21.136719 73.828125 L 21.425781 73.941406 L 21.996094 74.175781 L 22.285156 74.289062 L 22.855469 74.523438 L 23.144531 74.640625 L 23.429688 74.753906 L 23.714844 74.871094 L 24.003906 74.988281 L 24.289062 75.101562 L 24.574219 75.21875 L 24.863281 75.335938 L 25.148438 75.449219 L 25.71875 75.683594 L 26.007812 75.796875 L 26.578125 76.03125 L 26.867188 76.144531 L 26.980469 75.859375 L 26.695312 75.742188 Z M 26.410156 75.628906 "/></g></g></g></g><g clip-rule="nonzero" clip-path="url(#0f81fbfba3)"><g clip-rule="nonzero" clip-path="url(#e390e50d09)"><g clip-rule="nonzero" clip-path="url(#0e36944034)"><g clip-rule="nonzero" clip-path="url(#143ddb3931)"><path style=" stroke:none;fill-rule:nonzero;fill:#000000;fill-opacity:0.3;" d="M 24.125 73.035156 L 23.839844 72.921875 L 23.953125 72.632812 L 24.242188 72.75 Z M 24.707031 71.605469 L 24.417969 71.488281 L 24.304688 71.773438 L 24.589844 71.890625 Z M 24.765625 70.628906 L 24.480469 70.511719 L 24.363281 70.800781 L 24.652344 70.914062 Z M 25.277344 71.835938 L 24.992188 71.71875 L 24.875 72.007812 L 25.160156 72.121094 Z M 25.914062 71.09375 L 25.625 70.976562 L 25.511719 71.265625 L 25.796875 71.378906 Z M 24.007812 73.324219 L 23.722656 73.207031 L 23.605469 73.492188 L 23.894531 73.609375 Z M 24.8125 72.980469 L 24.527344 72.867188 L 24.410156 73.152344 L 24.699219 73.269531 Z M 24.582031 73.554688 L 24.296875 73.4375 L 24.179688 73.726562 L 24.464844 73.839844 Z M 20.511719 72.90625 L 20.394531 73.191406 L 26.980469 75.859375 L 27.097656 75.574219 Z M 20.6875 71.644531 L 20.226562 72.789062 L 20.511719 72.90625 L 20.976562 71.761719 Z M 21.492188 71.304688 L 21.207031 71.1875 L 20.976562 71.761719 L 21.261719 71.875 Z M 22.011719 70.847656 L 21.726562 70.730469 L 21.492188 71.304688 L 21.78125 71.421875 Z M 22.53125 70.390625 L 22.242188 70.273438 L 22.011719 70.847656 L 22.296875 70.964844 Z M 23.046875 69.933594 L 22.761719 69.816406 L 22.53125 70.390625 L 22.816406 70.507812 Z M 23.566406 69.476562 L 23.28125 69.359375 L 23.046875 69.933594 L 23.335938 70.050781 Z M 24.085938 69.019531 L 23.796875 68.902344 L 23.566406 69.476562 L 23.851562 69.59375 Z M 24.601562 68.5625 L 24.316406 68.449219 L 24.085938 69.019531 L 24.371094 69.136719 Z M 25.121094 68.105469 L 24.835938 67.992188 L 24.601562 68.5625 L 24.890625 68.679688 Z M 25.640625 67.648438 L 25.355469 67.535156 L 25.121094 68.105469 L 25.40625 68.222656 Z M 26.160156 67.191406 L 25.871094 67.078125 L 25.640625 67.648438 L 25.925781 67.765625 Z M 26.160156 67.191406 "/></g></g></g></g><g clip-rule="nonzero" clip-path="url(#a7ef2121d9)"><g clip-rule="nonzero" clip-path="url(#b6e330a51b)"><g clip-rule="nonzero" clip-path="url(#61d8b28a9f)"><g clip-rule="nonzero" clip-path="url(#c317a2403a)"><path style=" stroke:none;fill-rule:nonzero;fill:#ffffff;fill-opacity:0.5;" d="M 27.5625 74.429688 L 27.847656 74.542969 L 27.382812 75.691406 L 27.097656 75.574219 Z M 27.5625 74.429688 "/></g></g></g></g><g clip-rule="nonzero" clip-path="url(#9a12178c12)"><g clip-rule="nonzero" clip-path="url(#233a20857c)"><g clip-rule="nonzero" clip-path="url(#b11fb2bfa3)"><g clip-rule="nonzero" clip-path="url(#179d9179f8)"><path style=" stroke:none;fill-rule:nonzero;fill:#ffffff;fill-opacity:0.5;" d="M 27.507812 73.738281 L 27.792969 73.855469 L 27.5625 74.429688 L 27.277344 74.3125 Z M 27.507812 73.738281 "/></g></g></g></g><g clip-rule="nonzero" clip-path="url(#47b74390d0)"><g clip-rule="nonzero" clip-path="url(#d9e7813c1d)"><g clip-rule="nonzero" clip-path="url(#4e5f3e0326)"><g clip-rule="nonzero" clip-path="url(#1e7b0ee034)"><path style=" stroke:none;fill-rule:nonzero;fill:#ffffff;fill-opacity:0.5;" d="M 27.453125 73.050781 L 27.738281 73.167969 L 27.507812 73.738281 L 27.222656 73.625 Z M 27.453125 73.050781 "/></g></g></g></g><g clip-rule="nonzero" clip-path="url(#387ff9cdef)"><g clip-rule="nonzero" clip-path="url(#7cafac775e)"><g clip-rule="nonzero" clip-path="url(#a9c79f017a)"><g clip-rule="nonzero" clip-path="url(#ed8dad36c0)"><path style=" stroke:none;fill-rule:nonzero;fill:#ffffff;fill-opacity:0.5;" d="M 27.398438 72.363281 L 27.683594 72.476562 L 27.453125 73.050781 L 27.167969 72.933594 Z M 27.398438 72.363281 "/></g></g></g></g><g clip-rule="nonzero" clip-path="url(#ffaa4498c2)"><g clip-rule="nonzero" clip-path="url(#7eaa7083e2)"><g clip-rule="nonzero" clip-path="url(#6d8c9c03ba)"><g clip-rule="nonzero" clip-path="url(#68e492a1c7)"><path style=" stroke:none;fill-rule:nonzero;fill:#ffffff;fill-opacity:0.5;" d="M 27.34375 71.671875 L 27.628906 71.789062 L 27.398438 72.363281 L 27.113281 72.246094 Z M 27.34375 71.671875 "/></g></g></g></g><g clip-rule="nonzero" clip-path="url(#1e051a5cd8)"><g clip-rule="nonzero" clip-path="url(#453f124e70)"><g clip-rule="nonzero" clip-path="url(#43968bce95)"><g clip-rule="nonzero" clip-path="url(#f63a4c1647)"><path style=" stroke:none;fill-rule:nonzero;fill:#ffffff;fill-opacity:0.5;" d="M 27.289062 70.984375 L 27.574219 71.101562 L 27.34375 71.671875 L 27.058594 71.558594 Z M 27.289062 70.984375 "/></g></g></g></g><g clip-rule="nonzero" clip-path="url(#a0ee201d27)"><g clip-rule="nonzero" clip-path="url(#c21f32c2e7)"><g clip-rule="nonzero" clip-path="url(#101b2da2eb)"><g clip-rule="nonzero" clip-path="url(#3557f36bdb)"><path style=" stroke:none;fill-rule:nonzero;fill:#ffffff;fill-opacity:0.5;" d="M 27.234375 70.296875 L 27.523438 70.410156 L 27.289062 70.984375 L 27.003906 70.867188 Z M 27.234375 70.296875 "/></g></g></g></g><g clip-rule="nonzero" clip-path="url(#cc86e377a5)"><g clip-rule="nonzero" clip-path="url(#83ef52a828)"><g clip-rule="nonzero" clip-path="url(#11a38b4e2d)"><g clip-rule="nonzero" clip-path="url(#cf0e2edc26)"><path style=" stroke:none;fill-rule:nonzero;fill:#ffffff;fill-opacity:0.5;" d="M 27.179688 69.605469 L 27.46875 69.722656 L 27.234375 70.296875 L 26.949219 70.179688 Z M 27.179688 69.605469 "/></g></g></g></g><g clip-rule="nonzero" clip-path="url(#cbbe982834)"><g clip-rule="nonzero" clip-path="url(#5e978deaf2)"><g clip-rule="nonzero" clip-path="url(#88adb6d256)"><g clip-rule="nonzero" clip-path="url(#a4b19749d6)"><path style=" stroke:none;fill-rule:nonzero;fill:#ffffff;fill-opacity:0.5;" d="M 27.125 68.917969 L 27.414062 69.035156 L 27.179688 69.605469 L 26.894531 69.492188 Z M 27.125 68.917969 "/></g></g></g></g><g clip-rule="nonzero" clip-path="url(#9dbacad5f4)"><g clip-rule="nonzero" clip-path="url(#ac64b598be)"><g clip-rule="nonzero" clip-path="url(#3455c2c299)"><g clip-rule="nonzero" clip-path="url(#2864059282)"><path style=" stroke:none;fill-rule:nonzero;fill:#ffffff;fill-opacity:0.5;" d="M 27.070312 68.230469 L 27.359375 68.34375 L 27.125 68.917969 L 26.839844 68.800781 Z M 27.070312 68.230469 "/></g></g></g></g><g clip-rule="nonzero" clip-path="url(#383532b00d)"><g clip-rule="nonzero" clip-path="url(#5b55f1154f)"><g clip-rule="nonzero" clip-path="url(#166d3eb819)"><g clip-rule="nonzero" clip-path="url(#1204028393)"><path style=" stroke:none;fill-rule:nonzero;fill:#ffffff;fill-opacity:0.5;" d="M 27.015625 67.539062 L 27.304688 67.65625 L 27.070312 68.230469 L 26.785156 68.113281 Z M 27.015625 67.539062 "/></g></g></g></g><g clip-rule="nonzero" clip-path="url(#a7372514c0)"><g clip-rule="nonzero" clip-path="url(#df0e37983c)"><g clip-rule="nonzero" clip-path="url(#9e520188bd)"><g clip-rule="nonzero" clip-path="url(#43a3a05ee4)"><path style=" stroke:none;fill-rule:nonzero;fill:#ffffff;fill-opacity:0.5;" d="M 26.273438 66.90625 L 27.132812 67.253906 L 27.015625 67.539062 L 26.160156 67.191406 Z M 26.273438 66.90625 "/></g></g></g></g><g clip-rule="nonzero" clip-path="url(#73727ea98a)"><g clip-rule="nonzero" clip-path="url(#eb8d4d62e3)"><g clip-rule="nonzero" clip-path="url(#92fae11221)"><g clip-rule="nonzero" clip-path="url(#94afb5aa90)"><path style=" stroke:none;fill-rule:nonzero;fill:#000000;fill-opacity:0.3;" d="M 97.105469 85.195312 L 96.882812 84.816406 L 96.660156 84.441406 L 96.285156 84.664062 L 96.0625 84.285156 L 95.839844 83.910156 L 95.460938 84.132812 L 95.238281 83.753906 L 95.019531 83.375 L 94.640625 83.597656 L 94.417969 83.222656 L 94.195312 82.84375 L 93.820312 83.066406 L 93.597656 82.691406 L 93.375 82.3125 L 92.996094 82.535156 L 92.777344 82.15625 L 92.554688 81.78125 L 92.175781 82.003906 L 91.953125 81.625 L 91.730469 81.25 L 91.355469 81.472656 L 91.132812 81.09375 L 90.910156 80.71875 L 90.53125 80.9375 L 90.3125 80.5625 L 90.089844 80.183594 L 89.710938 80.40625 L 89.488281 80.03125 L 89.265625 79.652344 L 88.890625 79.875 L 88.667969 79.496094 L 88.289062 79.71875 L 88.070312 79.34375 L 87.3125 79.789062 L 86.9375 80.007812 L 87.160156 80.386719 L 86.78125 80.609375 L 87.003906 80.984375 L 86.628906 81.207031 L 86.851562 81.585938 L 87.070312 81.960938 L 86.695312 82.183594 L 86.917969 82.5625 L 87.140625 82.9375 L 86.761719 83.160156 L 86.984375 83.539062 L 87.207031 83.914062 L 86.828125 84.136719 L 87.050781 84.515625 L 87.273438 84.890625 L 86.898438 85.113281 L 87.117188 85.492188 L 87.339844 85.867188 L 86.964844 86.089844 L 87.1875 86.46875 L 87.410156 86.84375 L 87.03125 87.066406 L 87.253906 87.445312 L 87.476562 87.820312 L 87.097656 88.042969 L 87.320312 88.421875 L 87.542969 88.796875 L 87.167969 89.019531 L 87.386719 89.398438 L 87.609375 89.773438 L 87.234375 89.996094 L 87.457031 90.375 L 87.679688 90.75 L 87.300781 90.972656 L 87.523438 91.351562 L 87.746094 91.726562 L 87.96875 92.105469 L 88.191406 92.480469 L 88.566406 92.257812 L 88.789062 92.636719 L 89.164062 92.414062 L 89.386719 92.789062 L 89.765625 92.570312 L 90.140625 92.347656 L 90.898438 91.902344 L 91.273438 91.679688 L 91.652344 91.457031 L 92.027344 91.234375 L 92.40625 91.011719 L 92.78125 90.789062 L 93.160156 90.570312 L 93.535156 90.347656 L 93.914062 90.125 L 94.289062 89.902344 L 94.667969 89.679688 L 95.042969 89.457031 L 95.800781 89.011719 L 96.175781 88.792969 L 96.554688 88.570312 L 96.929688 88.347656 L 97.308594 88.125 L 97.683594 87.902344 L 98.0625 87.679688 L 97.839844 87.304688 L 98.214844 87.082031 L 97.996094 86.703125 L 98.371094 86.480469 L 98.148438 86.105469 L 97.925781 85.726562 L 97.703125 85.351562 L 97.484375 84.972656 Z M 97.105469 85.195312 "/></g></g></g></g><g clip-rule="nonzero" clip-path="url(#5cbe8d2089)"><g clip-rule="nonzero" clip-path="url(#0826baff47)"><g clip-rule="nonzero" clip-path="url(#42407c79d8)"><g clip-rule="nonzero" clip-path="url(#ae7b53f22a)"><path style=" stroke:none;fill-rule:nonzero;fill:#fdff00;fill-opacity:1;" d="M 86.9375 80.007812 L 87.3125 79.789062 L 87.914062 79.941406 L 88.734375 80.472656 L 96.128906 85.261719 L 97.019531 86.769531 L 96.863281 87.371094 L 88.191406 92.480469 L 87.589844 92.328125 L 86.703125 90.816406 L 86.027344 81.054688 L 86.183594 80.453125 Z M 86.9375 80.007812 "/></g></g></g></g><g clip-rule="nonzero" clip-path="url(#84e0d447e8)"><g clip-rule="nonzero" clip-path="url(#d5fe4b7ee2)"><g clip-rule="nonzero" clip-path="url(#457e4eca1c)"><g clip-rule="nonzero" clip-path="url(#49a6cadc34)"><path style=" stroke:none;fill-rule:nonzero;fill:#000000;fill-opacity:1;" d="M 86.558594 80.230469 L 86.183594 80.453125 L 85.960938 80.078125 L 86.339844 79.855469 L 86.714844 79.632812 L 87.09375 79.410156 L 87.3125 79.789062 L 86.9375 80.007812 Z M 86.183594 80.453125 L 85.804688 80.675781 L 86.027344 81.054688 L 86.40625 80.832031 Z M 87.914062 79.941406 L 87.691406 79.566406 L 87.3125 79.789062 L 87.535156 80.164062 Z M 86.25 81.429688 L 86.027344 81.054688 L 85.652344 81.277344 L 85.875 81.652344 L 86.09375 82.03125 L 86.472656 81.808594 Z M 88.359375 80.695312 L 88.734375 80.472656 L 88.511719 80.097656 L 88.289062 79.71875 L 87.914062 79.941406 L 88.136719 80.320312 Z M 86.316406 82.40625 L 86.09375 82.03125 L 85.71875 82.253906 L 85.941406 82.628906 L 86.164062 83.007812 L 86.539062 82.785156 Z M 89.179688 81.230469 L 89.558594 81.007812 L 89.335938 80.628906 L 89.113281 80.253906 L 88.734375 80.472656 Z M 86.386719 83.382812 L 86.164062 83.007812 L 85.785156 83.230469 L 86.007812 83.605469 L 86.230469 83.984375 L 86.605469 83.761719 Z M 90 81.761719 L 90.378906 81.539062 L 90.15625 81.160156 L 89.933594 80.785156 L 89.558594 81.007812 L 89.777344 81.382812 Z M 88.871094 82.425781 L 88.492188 82.648438 L 88.117188 82.871094 L 87.738281 83.09375 L 87.960938 83.472656 L 87.582031 83.691406 L 88.027344 84.449219 L 88.25 84.824219 L 88.472656 85.203125 L 88.695312 85.578125 L 89.070312 85.355469 L 89.292969 85.734375 L 89.515625 86.109375 L 89.738281 86.488281 L 90.117188 86.265625 L 90.335938 86.644531 L 90.558594 87.019531 L 90.78125 87.398438 L 91.160156 87.175781 L 90.9375 86.796875 L 90.714844 86.421875 L 90.492188 86.042969 L 90.871094 85.820312 L 90.648438 85.445312 L 90.425781 85.066406 L 90.203125 84.691406 L 90.582031 84.46875 L 90.359375 84.089844 L 90.136719 83.714844 L 89.914062 83.335938 L 89.691406 82.960938 L 89.46875 82.582031 L 89.09375 82.804688 Z M 86.453125 84.359375 L 86.230469 83.984375 L 85.851562 84.203125 L 86.296875 84.960938 L 86.675781 84.738281 Z M 90.824219 82.292969 L 91.199219 82.070312 L 90.976562 81.691406 L 90.753906 81.316406 L 90.378906 81.539062 L 90.601562 81.914062 Z M 86.519531 85.335938 L 86.296875 84.960938 L 85.921875 85.179688 L 86.140625 85.558594 L 86.363281 85.9375 L 86.742188 85.714844 Z M 91.644531 82.824219 L 92.019531 82.601562 L 91.800781 82.226562 L 91.578125 81.847656 L 91.199219 82.070312 L 91.421875 82.449219 Z M 86.585938 86.3125 L 86.363281 85.9375 L 85.988281 86.15625 L 86.210938 86.535156 L 86.433594 86.910156 L 86.808594 86.691406 Z M 92.464844 83.355469 L 92.84375 83.132812 L 92.621094 82.757812 L 92.398438 82.378906 L 92.019531 82.601562 L 92.242188 82.980469 Z M 86.652344 87.289062 L 86.433594 86.910156 L 86.054688 87.132812 L 86.277344 87.511719 L 86.5 87.886719 L 86.875 87.667969 Z M 93.289062 83.886719 L 93.664062 83.667969 L 93.441406 83.289062 L 93.21875 82.914062 L 92.84375 83.132812 L 93.066406 83.511719 Z M 86.722656 88.265625 L 86.5 87.886719 L 86.121094 88.109375 L 86.34375 88.488281 L 86.566406 88.863281 L 86.945312 88.644531 Z M 94.109375 84.421875 L 94.484375 84.199219 L 94.265625 83.820312 L 94.042969 83.445312 L 93.664062 83.667969 L 93.886719 84.042969 Z M 86.789062 89.242188 L 86.566406 88.863281 L 86.191406 89.085938 L 86.410156 89.464844 L 86.632812 89.839844 L 87.011719 89.617188 Z M 94.929688 84.953125 L 95.308594 84.730469 L 95.085938 84.351562 L 94.863281 83.976562 L 94.484375 84.199219 L 94.707031 84.574219 Z M 86.855469 90.21875 L 86.632812 89.839844 L 86.257812 90.0625 L 86.480469 90.441406 L 86.703125 90.816406 L 87.078125 90.59375 Z M 91.382812 87.550781 L 91.003906 87.773438 L 91.226562 88.152344 L 90.847656 88.375 L 91.070312 88.75 L 91.449219 88.527344 L 91.671875 88.90625 L 92.046875 88.683594 L 91.824219 88.304688 L 92.203125 88.082031 L 91.980469 87.707031 L 91.605469 87.929688 Z M 95.75 85.484375 L 96.128906 85.261719 L 95.90625 84.886719 L 95.683594 84.507812 L 95.308594 84.730469 L 95.53125 85.109375 Z M 96.128906 85.261719 L 96.351562 85.640625 L 96.574219 86.015625 L 96.796875 86.394531 L 97.019531 86.769531 L 97.394531 86.546875 L 97.171875 86.171875 L 96.949219 85.792969 L 96.726562 85.417969 L 96.507812 85.039062 Z M 87.144531 91.570312 L 86.921875 91.195312 L 86.703125 90.816406 L 86.324219 91.039062 L 86.546875 91.417969 L 86.769531 91.792969 L 86.992188 92.171875 L 87.214844 92.546875 L 87.589844 92.328125 Z M 87.589844 92.328125 L 87.8125 92.703125 L 88.191406 92.480469 L 87.96875 92.105469 Z M 96.863281 87.371094 L 97.238281 87.148438 L 97.019531 86.769531 L 96.640625 86.992188 Z M 96.109375 87.816406 L 95.730469 88.035156 L 95.355469 88.257812 L 94.976562 88.480469 L 94.601562 88.703125 L 94.222656 88.925781 L 93.847656 89.148438 L 93.46875 89.371094 L 93.09375 89.59375 L 92.714844 89.816406 L 92.335938 90.035156 L 91.960938 90.257812 L 91.582031 90.480469 L 91.207031 90.703125 L 90.828125 90.925781 L 90.453125 91.148438 L 90.074219 91.371094 L 89.699219 91.59375 L 89.320312 91.8125 L 88.945312 92.035156 L 88.566406 92.257812 L 88.191406 92.480469 L 88.410156 92.859375 L 88.789062 92.636719 L 89.164062 92.414062 L 89.921875 91.96875 L 90.296875 91.746094 L 90.675781 91.523438 L 91.050781 91.300781 L 91.429688 91.082031 L 91.804688 90.859375 L 92.183594 90.636719 L 92.558594 90.414062 L 92.9375 90.191406 L 93.3125 89.96875 L 93.691406 89.746094 L 94.066406 89.523438 L 94.445312 89.304688 L 94.824219 89.082031 L 95.199219 88.859375 L 95.578125 88.636719 L 95.953125 88.414062 L 96.332031 88.191406 L 96.707031 87.96875 L 97.085938 87.746094 L 96.863281 87.371094 L 96.484375 87.59375 Z M 96.109375 87.816406 "/></g></g></g></g><g clip-rule="nonzero" clip-path="url(#b40b24c1ab)"><g clip-rule="nonzero" clip-path="url(#265ac00047)"><g clip-rule="nonzero" clip-path="url(#f0c2110fe4)"><g clip-rule="nonzero" clip-path="url(#3685170fb7)"><path style=" stroke:none;fill-rule:nonzero;fill:#000000;fill-opacity:0.3;" d="M 91.226562 88.152344 L 90.847656 88.375 L 90.628906 87.996094 L 91.003906 87.773438 Z M 90.117188 86.265625 L 89.738281 86.488281 L 89.960938 86.863281 L 90.335938 86.644531 Z M 89.070312 85.355469 L 88.695312 85.578125 L 88.917969 85.957031 L 89.292969 85.734375 Z M 90.871094 85.820312 L 90.492188 86.042969 L 90.714844 86.421875 L 91.09375 86.199219 Z M 90.582031 84.46875 L 90.203125 84.691406 L 90.425781 85.066406 L 90.800781 84.84375 Z M 91.449219 88.527344 L 91.070312 88.75 L 91.292969 89.128906 L 91.671875 88.90625 Z M 91.757812 87.328125 L 91.382812 87.550781 L 91.605469 87.929688 L 91.980469 87.707031 Z M 92.203125 88.082031 L 91.824219 88.304688 L 92.046875 88.683594 L 92.425781 88.460938 Z M 87.96875 92.105469 L 88.191406 92.480469 L 96.863281 87.371094 L 96.640625 86.992188 Z M 86.703125 90.816406 L 87.589844 92.328125 L 87.96875 92.105469 L 87.078125 90.59375 Z M 87.011719 89.617188 L 86.632812 89.839844 L 87.078125 90.59375 L 87.457031 90.375 Z M 86.945312 88.644531 L 86.566406 88.863281 L 87.011719 89.617188 L 87.386719 89.398438 Z M 86.875 87.667969 L 86.5 87.886719 L 86.945312 88.644531 L 87.320312 88.421875 Z M 86.808594 86.691406 L 86.433594 86.910156 L 86.875 87.667969 L 87.253906 87.445312 Z M 86.742188 85.714844 L 86.363281 85.9375 L 86.808594 86.691406 L 87.1875 86.46875 Z M 86.675781 84.738281 L 86.296875 84.960938 L 86.742188 85.714844 L 87.117188 85.492188 Z M 86.605469 83.761719 L 86.230469 83.984375 L 86.675781 84.738281 L 87.050781 84.515625 Z M 86.539062 82.785156 L 86.164062 83.007812 L 86.605469 83.761719 L 86.984375 83.539062 Z M 86.472656 81.808594 L 86.09375 82.03125 L 86.539062 82.785156 L 86.917969 82.5625 Z M 86.40625 80.832031 L 86.027344 81.054688 L 86.472656 81.808594 L 86.851562 81.585938 Z M 86.40625 80.832031 "/></g></g></g></g><g clip-rule="nonzero" clip-path="url(#1f3aad6a6f)"><g clip-rule="nonzero" clip-path="url(#4b94b30911)"><g clip-rule="nonzero" clip-path="url(#49ed009a91)"><g clip-rule="nonzero" clip-path="url(#476f3c9a5b)"><path style=" stroke:none;fill-rule:nonzero;fill:#ffffff;fill-opacity:0.5;" d="M 95.75 85.484375 L 96.128906 85.261719 L 97.019531 86.769531 L 96.640625 86.992188 Z M 95.75 85.484375 "/></g></g></g></g><g clip-rule="nonzero" clip-path="url(#3c9813b1aa)"><g clip-rule="nonzero" clip-path="url(#8b0a566e44)"><g clip-rule="nonzero" clip-path="url(#c01043fcce)"><g clip-rule="nonzero" clip-path="url(#17d0a493c2)"><path style=" stroke:none;fill-rule:nonzero;fill:#ffffff;fill-opacity:0.5;" d="M 94.929688 84.953125 L 95.308594 84.730469 L 95.75 85.484375 L 95.375 85.707031 Z M 94.929688 84.953125 "/></g></g></g></g><g clip-rule="nonzero" clip-path="url(#e7b7fc4b55)"><g clip-rule="nonzero" clip-path="url(#a4214c0fe1)"><g clip-rule="nonzero" clip-path="url(#761876d5f1)"><g clip-rule="nonzero" clip-path="url(#bf7d35ba4d)"><path style=" stroke:none;fill-rule:nonzero;fill:#ffffff;fill-opacity:0.5;" d="M 94.109375 84.421875 L 94.484375 84.199219 L 94.929688 84.953125 L 94.554688 85.175781 Z M 94.109375 84.421875 "/></g></g></g></g><g clip-rule="nonzero" clip-path="url(#3e09502ba2)"><g clip-rule="nonzero" clip-path="url(#0f24bf4235)"><g clip-rule="nonzero" clip-path="url(#58377c83f5)"><g clip-rule="nonzero" clip-path="url(#b3d153d7de)"><path style=" stroke:none;fill-rule:nonzero;fill:#ffffff;fill-opacity:0.5;" d="M 93.289062 83.886719 L 93.664062 83.667969 L 94.109375 84.421875 L 93.730469 84.644531 Z M 93.289062 83.886719 "/></g></g></g></g><g clip-rule="nonzero" clip-path="url(#4a60726917)"><g clip-rule="nonzero" clip-path="url(#a7e43ac757)"><g clip-rule="nonzero" clip-path="url(#ccd5e63be0)"><g clip-rule="nonzero" clip-path="url(#00020ed2e3)"><path style=" stroke:none;fill-rule:nonzero;fill:#ffffff;fill-opacity:0.5;" d="M 92.464844 83.355469 L 92.84375 83.132812 L 93.289062 83.886719 L 92.910156 84.109375 Z M 92.464844 83.355469 "/></g></g></g></g><g clip-rule="nonzero" clip-path="url(#0d6f299c0c)"><g clip-rule="nonzero" clip-path="url(#a8191de702)"><g clip-rule="nonzero" clip-path="url(#c4f19639f2)"><g clip-rule="nonzero" clip-path="url(#b0a3c70f07)"><path style=" stroke:none;fill-rule:nonzero;fill:#ffffff;fill-opacity:0.5;" d="M 91.644531 82.824219 L 92.019531 82.601562 L 92.464844 83.355469 L 92.089844 83.578125 Z M 91.644531 82.824219 "/></g></g></g></g><g clip-rule="nonzero" clip-path="url(#81180764bf)"><g clip-rule="nonzero" clip-path="url(#ad9a9676c4)"><g clip-rule="nonzero" clip-path="url(#d85db94bfe)"><g clip-rule="nonzero" clip-path="url(#d525462d95)"><path style=" stroke:none;fill-rule:nonzero;fill:#ffffff;fill-opacity:0.5;" d="M 90.824219 82.292969 L 91.199219 82.070312 L 91.644531 82.824219 L 91.265625 83.046875 Z M 90.824219 82.292969 "/></g></g></g></g><g clip-rule="nonzero" clip-path="url(#6ab9e61f34)"><g clip-rule="nonzero" clip-path="url(#3f915e619e)"><g clip-rule="nonzero" clip-path="url(#1c629c64b8)"><g clip-rule="nonzero" clip-path="url(#7ea92f1386)"><path style=" stroke:none;fill-rule:nonzero;fill:#ffffff;fill-opacity:0.5;" d="M 90 81.761719 L 90.378906 81.539062 L 90.824219 82.292969 L 90.445312 82.515625 Z M 90 81.761719 "/></g></g></g></g><g clip-rule="nonzero" clip-path="url(#7219206dcd)"><g clip-rule="nonzero" clip-path="url(#e17f396f90)"><g clip-rule="nonzero" clip-path="url(#fa7c354813)"><g clip-rule="nonzero" clip-path="url(#8740b6375b)"><path style=" stroke:none;fill-rule:nonzero;fill:#ffffff;fill-opacity:0.5;" d="M 89.179688 81.230469 L 89.558594 81.007812 L 90 81.761719 L 89.625 81.984375 Z M 89.179688 81.230469 "/></g></g></g></g><g clip-rule="nonzero" clip-path="url(#280a2e4cd8)"><g clip-rule="nonzero" clip-path="url(#0d4abe84e6)"><g clip-rule="nonzero" clip-path="url(#5050dde679)"><g clip-rule="nonzero" clip-path="url(#10ad0b61fa)"><path style=" stroke:none;fill-rule:nonzero;fill:#ffffff;fill-opacity:0.5;" d="M 88.359375 80.695312 L 88.734375 80.472656 L 89.179688 81.230469 L 88.800781 81.449219 Z M 88.359375 80.695312 "/></g></g></g></g><g clip-rule="nonzero" clip-path="url(#b08e912579)"><g clip-rule="nonzero" clip-path="url(#287935c36f)"><g clip-rule="nonzero" clip-path="url(#921d9ae257)"><g clip-rule="nonzero" clip-path="url(#7efa94f8c1)"><path style=" stroke:none;fill-rule:nonzero;fill:#ffffff;fill-opacity:0.5;" d="M 87.535156 80.164062 L 87.914062 79.941406 L 88.359375 80.695312 L 87.980469 80.917969 Z M 87.535156 80.164062 "/></g></g></g></g><g clip-rule="nonzero" clip-path="url(#77d4b848b3)"><g clip-rule="nonzero" clip-path="url(#b1febb4a0e)"><g clip-rule="nonzero" clip-path="url(#f47a7abd8b)"><g clip-rule="nonzero" clip-path="url(#3ab8091f07)"><path style=" stroke:none;fill-rule:nonzero;fill:#ffffff;fill-opacity:0.5;" d="M 86.183594 80.453125 L 87.3125 79.789062 L 87.535156 80.164062 L 86.40625 80.832031 Z M 86.183594 80.453125 "/></g></g></g></g><g clip-rule="nonzero" clip-path="url(#ff6e90fc0e)"><g clip-rule="nonzero" clip-path="url(#85bb80851c)"><g clip-rule="nonzero" clip-path="url(#6c531083b9)"><g clip-rule="nonzero" clip-path="url(#1b785afebb)"><path style=" stroke:none;fill-rule:nonzero;fill:#000000;fill-opacity:0.3;" d="M 72.371094 27.859375 L 72.214844 27.59375 L 72.058594 27.324219 L 71.792969 27.484375 L 71.632812 27.214844 L 71.476562 26.949219 L 71.210938 27.105469 L 70.898438 26.574219 L 70.632812 26.730469 L 70.476562 26.464844 L 70.316406 26.199219 L 70.050781 26.355469 L 69.738281 25.824219 L 69.472656 25.980469 L 69.160156 25.449219 L 68.890625 25.605469 L 68.578125 25.074219 L 68.3125 25.230469 L 68 24.699219 L 67.730469 24.855469 L 67.574219 24.589844 L 67.417969 24.320312 L 67.152344 24.480469 L 66.996094 24.210938 L 66.839844 23.945312 L 66.574219 24.101562 L 66.414062 23.835938 L 66.148438 23.992188 L 65.992188 23.726562 L 65.726562 23.882812 L 65.460938 24.042969 L 65.195312 24.199219 L 65.351562 24.464844 L 65.085938 24.621094 L 65.242188 24.886719 L 64.976562 25.042969 L 65.132812 25.308594 L 65.289062 25.578125 L 65.023438 25.734375 L 65.335938 26.265625 L 65.070312 26.421875 L 65.226562 26.6875 L 65.382812 26.957031 L 65.117188 27.113281 L 65.429688 27.644531 L 65.164062 27.800781 L 65.320312 28.066406 L 65.480469 28.332031 L 65.210938 28.492188 L 65.371094 28.757812 L 65.527344 29.023438 L 65.261719 29.179688 L 65.574219 29.710938 L 65.308594 29.867188 L 65.464844 30.136719 L 65.621094 30.402344 L 65.355469 30.558594 L 65.667969 31.089844 L 65.402344 31.246094 L 65.558594 31.515625 L 65.714844 31.78125 L 65.449219 31.9375 L 65.605469 32.203125 L 65.765625 32.46875 L 66.078125 33 L 66.34375 32.84375 L 66.5 33.109375 L 66.765625 32.953125 L 66.925781 33.21875 L 68.253906 32.4375 L 68.519531 32.277344 L 68.789062 32.121094 L 70.117188 31.339844 L 70.382812 31.179688 L 70.652344 31.023438 L 71.714844 30.398438 L 71.980469 30.238281 L 72.246094 30.082031 L 72.515625 29.925781 L 73.046875 29.613281 L 72.890625 29.347656 L 73.15625 29.1875 L 73 28.921875 L 73.265625 28.765625 L 72.953125 28.234375 L 72.792969 27.96875 L 72.636719 27.703125 Z M 72.371094 27.859375 "/></g></g></g></g><g clip-rule="nonzero" clip-path="url(#dc725b4dde)"><g clip-rule="nonzero" clip-path="url(#fcd723e064)"><g clip-rule="nonzero" clip-path="url(#c0498cf64e)"><g clip-rule="nonzero" clip-path="url(#6420fa2d83)"><path style=" stroke:none;fill-rule:nonzero;fill:#fdff00;fill-opacity:1;" d="M 65.195312 24.199219 L 65.460938 24.042969 L 65.882812 24.152344 L 66.464844 24.527344 L 71.683594 27.90625 L 72.308594 28.972656 L 72.199219 29.394531 L 66.078125 33 L 65.65625 32.890625 L 65.027344 31.828125 L 64.550781 24.933594 L 64.660156 24.511719 Z M 65.195312 24.199219 "/></g></g></g></g><g clip-rule="nonzero" clip-path="url(#7c403aa6ca)"><g clip-rule="nonzero" clip-path="url(#637357bf82)"><g clip-rule="nonzero" clip-path="url(#e234d2e00e)"><g clip-rule="nonzero" clip-path="url(#cb80586584)"><path style=" stroke:none;fill-rule:nonzero;fill:#000000;fill-opacity:1;" d="M 64.929688 24.355469 L 64.660156 24.511719 L 64.503906 24.246094 L 65.035156 23.933594 L 65.304688 23.773438 L 65.460938 24.042969 Z M 64.660156 24.511719 L 64.394531 24.667969 L 64.550781 24.933594 L 64.820312 24.777344 Z M 65.882812 24.152344 L 65.726562 23.882812 L 65.460938 24.042969 L 65.617188 24.308594 Z M 64.710938 25.203125 L 64.550781 24.933594 L 64.285156 25.09375 L 64.441406 25.359375 L 64.601562 25.625 L 64.867188 25.46875 Z M 66.195312 24.683594 L 66.464844 24.527344 L 66.304688 24.261719 L 66.148438 23.992188 L 65.882812 24.152344 Z M 64.757812 25.890625 L 64.601562 25.625 L 64.332031 25.78125 L 64.492188 26.046875 L 64.648438 26.3125 L 64.914062 26.15625 Z M 66.777344 25.058594 L 67.042969 24.902344 L 66.730469 24.371094 L 66.464844 24.527344 Z M 64.804688 26.578125 L 64.648438 26.3125 L 64.382812 26.46875 L 64.539062 26.738281 L 64.695312 27.003906 L 64.960938 26.847656 Z M 67.355469 25.433594 L 67.621094 25.277344 L 67.308594 24.746094 L 67.042969 24.902344 Z M 66.558594 25.90625 L 66.027344 26.21875 L 65.757812 26.375 L 65.917969 26.640625 L 65.648438 26.796875 L 65.808594 27.066406 L 66.433594 28.128906 L 66.699219 27.972656 L 66.859375 28.238281 L 67.171875 28.769531 L 67.4375 28.613281 L 67.59375 28.878906 L 67.75 29.148438 L 67.90625 29.414062 L 68.175781 29.257812 L 68.015625 28.988281 L 67.703125 28.457031 L 67.96875 28.300781 L 67.65625 27.769531 L 67.5 27.5 L 67.765625 27.34375 L 67.453125 26.8125 L 67.292969 26.546875 L 66.980469 26.015625 L 66.714844 26.171875 Z M 64.851562 27.269531 L 64.695312 27.003906 L 64.429688 27.160156 L 64.742188 27.691406 L 65.007812 27.535156 Z M 67.9375 25.808594 L 68.203125 25.652344 L 67.890625 25.121094 L 67.621094 25.277344 L 67.78125 25.542969 Z M 64.898438 27.957031 L 64.742188 27.691406 L 64.476562 27.847656 L 64.632812 28.113281 L 64.789062 28.382812 L 65.054688 28.222656 Z M 68.515625 26.183594 L 68.78125 26.027344 L 68.46875 25.496094 L 68.203125 25.652344 Z M 64.945312 28.648438 L 64.789062 28.382812 L 64.523438 28.539062 L 64.835938 29.070312 L 65.105469 28.914062 Z M 69.097656 26.5625 L 69.363281 26.402344 L 69.050781 25.871094 L 68.78125 26.027344 L 68.941406 26.292969 Z M 64.996094 29.335938 L 64.835938 29.070312 L 64.570312 29.226562 L 64.726562 29.492188 L 64.886719 29.757812 L 65.152344 29.601562 Z M 69.675781 26.9375 L 69.941406 26.78125 L 69.785156 26.511719 L 69.628906 26.246094 L 69.363281 26.402344 L 69.519531 26.671875 Z M 65.042969 30.027344 L 64.886719 29.757812 L 64.617188 29.917969 L 64.777344 30.183594 L 64.933594 30.449219 L 65.199219 30.292969 Z M 70.257812 27.3125 L 70.523438 27.15625 L 70.367188 26.890625 L 70.207031 26.621094 L 69.941406 26.78125 L 70.097656 27.046875 Z M 65.089844 30.714844 L 64.933594 30.449219 L 64.667969 30.605469 L 64.980469 31.136719 L 65.246094 30.980469 Z M 70.835938 27.6875 L 71.101562 27.53125 L 70.789062 27 L 70.523438 27.15625 Z M 65.136719 31.40625 L 64.980469 31.136719 L 64.714844 31.296875 L 65.027344 31.828125 L 65.292969 31.671875 Z M 68.332031 29.523438 L 68.066406 29.679688 L 68.222656 29.945312 L 67.957031 30.101562 L 68.113281 30.367188 L 68.378906 30.210938 L 68.535156 30.476562 L 68.800781 30.320312 L 68.644531 30.054688 L 68.910156 29.898438 L 68.753906 29.632812 L 68.488281 29.789062 Z M 71.417969 28.0625 L 71.683594 27.90625 L 71.527344 27.640625 L 71.367188 27.375 L 71.101562 27.53125 L 71.257812 27.796875 Z M 71.683594 27.90625 L 72.152344 28.703125 L 72.308594 28.972656 L 72.574219 28.8125 L 71.949219 27.75 Z M 65.339844 32.359375 L 65.027344 31.828125 L 64.761719 31.984375 L 65.230469 32.78125 L 65.386719 33.050781 L 65.65625 32.890625 L 65.496094 32.625 Z M 65.65625 32.890625 L 65.8125 33.160156 L 66.078125 33 L 65.921875 32.734375 Z M 72.199219 29.394531 L 72.464844 29.238281 L 72.308594 28.972656 L 72.042969 29.128906 Z M 71.667969 29.707031 L 71.136719 30.019531 L 70.871094 30.179688 L 70.601562 30.335938 L 69.539062 30.960938 L 69.273438 31.121094 L 69.007812 31.277344 L 68.738281 31.433594 L 67.675781 32.058594 L 67.410156 32.21875 L 67.144531 32.375 L 66.875 32.53125 L 66.078125 33 L 66.234375 33.269531 L 66.5 33.109375 L 66.765625 32.953125 L 67.035156 32.796875 L 67.832031 32.328125 L 68.097656 32.167969 L 68.628906 31.855469 L 68.898438 31.699219 L 69.695312 31.230469 L 69.960938 31.070312 L 70.492188 30.757812 L 70.761719 30.601562 L 71.292969 30.289062 L 71.558594 30.128906 L 72.355469 29.660156 L 72.199219 29.394531 Z M 71.667969 29.707031 "/></g></g></g></g><g clip-rule="nonzero" clip-path="url(#c9a52b8dc9)"><g clip-rule="nonzero" clip-path="url(#7b3d26b13a)"><g clip-rule="nonzero" clip-path="url(#b2519356ce)"><g clip-rule="nonzero" clip-path="url(#b846effef3)"><path style=" stroke:none;fill-rule:nonzero;fill:#000000;fill-opacity:0.3;" d="M 68.222656 29.945312 L 67.957031 30.101562 L 67.796875 29.835938 L 68.066406 29.679688 Z M 67.4375 28.613281 L 67.171875 28.769531 L 67.328125 29.039062 L 67.59375 28.878906 Z M 66.699219 27.972656 L 66.433594 28.128906 L 66.589844 28.394531 L 66.859375 28.238281 Z M 67.96875 28.300781 L 67.703125 28.457031 L 67.859375 28.722656 L 68.125 28.566406 Z M 67.765625 27.34375 L 67.5 27.5 L 67.65625 27.769531 L 67.921875 27.609375 Z M 68.378906 30.210938 L 68.113281 30.367188 L 68.269531 30.632812 L 68.535156 30.476562 Z M 68.597656 29.367188 L 68.332031 29.523438 L 68.488281 29.789062 L 68.753906 29.632812 Z M 68.910156 29.898438 L 68.644531 30.054688 L 68.800781 30.320312 L 69.066406 30.164062 Z M 65.921875 32.734375 L 66.078125 33 L 72.199219 29.394531 L 72.042969 29.128906 Z M 65.027344 31.828125 L 65.65625 32.890625 L 65.921875 32.734375 L 65.292969 31.671875 Z M 65.246094 30.980469 L 64.980469 31.136719 L 65.292969 31.671875 L 65.558594 31.515625 Z M 65.199219 30.292969 L 64.933594 30.449219 L 65.246094 30.980469 L 65.511719 30.824219 Z M 65.152344 29.601562 L 64.886719 29.757812 L 65.199219 30.292969 L 65.464844 30.136719 Z M 65.105469 28.914062 L 64.835938 29.070312 L 65.152344 29.601562 L 65.417969 29.445312 Z M 65.054688 28.222656 L 64.789062 28.382812 L 65.105469 28.914062 L 65.371094 28.757812 Z M 65.007812 27.535156 L 64.742188 27.691406 L 65.054688 28.222656 L 65.320312 28.066406 Z M 64.960938 26.847656 L 64.695312 27.003906 L 65.007812 27.535156 L 65.273438 27.378906 Z M 64.914062 26.15625 L 64.648438 26.3125 L 64.960938 26.847656 L 65.226562 26.6875 Z M 64.867188 25.46875 L 64.601562 25.625 L 64.914062 26.15625 L 65.179688 26 Z M 64.820312 24.777344 L 64.550781 24.933594 L 64.867188 25.46875 L 65.132812 25.308594 Z M 64.820312 24.777344 "/></g></g></g></g><g clip-rule="nonzero" clip-path="url(#5703366b85)"><g clip-rule="nonzero" clip-path="url(#fff235ab05)"><g clip-rule="nonzero" clip-path="url(#ec3b6199ff)"><g clip-rule="nonzero" clip-path="url(#5ad5a31c64)"><path style=" stroke:none;fill-rule:nonzero;fill:#ffffff;fill-opacity:0.5;" d="M 71.417969 28.0625 L 71.683594 27.90625 L 72.308594 28.972656 L 72.042969 29.128906 Z M 71.417969 28.0625 "/></g></g></g></g><g clip-rule="nonzero" clip-path="url(#ad3d2c4401)"><g clip-rule="nonzero" clip-path="url(#0ec9152c68)"><g clip-rule="nonzero" clip-path="url(#ae24fc9054)"><g clip-rule="nonzero" clip-path="url(#6cb60996c0)"><path style=" stroke:none;fill-rule:nonzero;fill:#ffffff;fill-opacity:0.5;" d="M 70.835938 27.6875 L 71.101562 27.53125 L 71.417969 28.0625 L 71.148438 28.21875 Z M 70.835938 27.6875 "/></g></g></g></g><g clip-rule="nonzero" clip-path="url(#cb2bee7309)"><g clip-rule="nonzero" clip-path="url(#4d91954dbd)"><g clip-rule="nonzero" clip-path="url(#bebd37afee)"><g clip-rule="nonzero" clip-path="url(#231fd8b0f5)"><path style=" stroke:none;fill-rule:nonzero;fill:#ffffff;fill-opacity:0.5;" d="M 70.257812 27.3125 L 70.523438 27.15625 L 70.835938 27.6875 L 70.570312 27.84375 Z M 70.257812 27.3125 "/></g></g></g></g><g clip-rule="nonzero" clip-path="url(#f0cb1a00e8)"><g clip-rule="nonzero" clip-path="url(#8047b18fb8)"><g clip-rule="nonzero" clip-path="url(#c04574b4c5)"><g clip-rule="nonzero" clip-path="url(#5dbeba34d4)"><path style=" stroke:none;fill-rule:nonzero;fill:#ffffff;fill-opacity:0.5;" d="M 69.675781 26.9375 L 69.941406 26.78125 L 70.257812 27.3125 L 69.988281 27.46875 Z M 69.675781 26.9375 "/></g></g></g></g><g clip-rule="nonzero" clip-path="url(#5e68a17fcd)"><g clip-rule="nonzero" clip-path="url(#18282d270e)"><g clip-rule="nonzero" clip-path="url(#f3aa195990)"><g clip-rule="nonzero" clip-path="url(#45790322d7)"><path style=" stroke:none;fill-rule:nonzero;fill:#ffffff;fill-opacity:0.5;" d="M 69.097656 26.5625 L 69.363281 26.402344 L 69.675781 26.9375 L 69.410156 27.09375 Z M 69.097656 26.5625 "/></g></g></g></g><g clip-rule="nonzero" clip-path="url(#965a2c7072)"><g clip-rule="nonzero" clip-path="url(#0d6e34f816)"><g clip-rule="nonzero" clip-path="url(#faf88302c4)"><g clip-rule="nonzero" clip-path="url(#33e0e018fe)"><path style=" stroke:none;fill-rule:nonzero;fill:#ffffff;fill-opacity:0.5;" d="M 68.515625 26.183594 L 68.78125 26.027344 L 69.097656 26.5625 L 68.832031 26.71875 Z M 68.515625 26.183594 "/></g></g></g></g><g clip-rule="nonzero" clip-path="url(#500f316466)"><g clip-rule="nonzero" clip-path="url(#b39cd5af58)"><g clip-rule="nonzero" clip-path="url(#da5a1f0dbe)"><g clip-rule="nonzero" clip-path="url(#d986fc5fbe)"><path style=" stroke:none;fill-rule:nonzero;fill:#ffffff;fill-opacity:0.5;" d="M 67.9375 25.808594 L 68.203125 25.652344 L 68.515625 26.183594 L 68.25 26.34375 Z M 67.9375 25.808594 "/></g></g></g></g><g clip-rule="nonzero" clip-path="url(#c9e2741b3b)"><g clip-rule="nonzero" clip-path="url(#82062bc4b8)"><g clip-rule="nonzero" clip-path="url(#e482c85bb6)"><g clip-rule="nonzero" clip-path="url(#a9f8bed960)"><path style=" stroke:none;fill-rule:nonzero;fill:#ffffff;fill-opacity:0.5;" d="M 67.355469 25.433594 L 67.621094 25.277344 L 67.9375 25.808594 L 67.671875 25.964844 Z M 67.355469 25.433594 "/></g></g></g></g><g clip-rule="nonzero" clip-path="url(#a42c625ca2)"><g clip-rule="nonzero" clip-path="url(#df790fdbc3)"><g clip-rule="nonzero" clip-path="url(#14d44e33fd)"><g clip-rule="nonzero" clip-path="url(#7e059fb9cd)"><path style=" stroke:none;fill-rule:nonzero;fill:#ffffff;fill-opacity:0.5;" d="M 66.777344 25.058594 L 67.042969 24.902344 L 67.355469 25.433594 L 67.089844 25.589844 Z M 66.777344 25.058594 "/></g></g></g></g><g clip-rule="nonzero" clip-path="url(#64b770618b)"><g clip-rule="nonzero" clip-path="url(#476afda9f8)"><g clip-rule="nonzero" clip-path="url(#585eb9b4c6)"><g clip-rule="nonzero" clip-path="url(#21cfc6f0bf)"><path style=" stroke:none;fill-rule:nonzero;fill:#ffffff;fill-opacity:0.5;" d="M 66.195312 24.683594 L 66.464844 24.527344 L 66.777344 25.058594 L 66.511719 25.214844 Z M 66.195312 24.683594 "/></g></g></g></g><g clip-rule="nonzero" clip-path="url(#c2430ba08a)"><g clip-rule="nonzero" clip-path="url(#f069c0d579)"><g clip-rule="nonzero" clip-path="url(#76dc50d65b)"><g clip-rule="nonzero" clip-path="url(#fbfd0eb4ec)"><path style=" stroke:none;fill-rule:nonzero;fill:#ffffff;fill-opacity:0.5;" d="M 65.617188 24.308594 L 65.882812 24.152344 L 66.195312 24.683594 L 65.929688 24.839844 Z M 65.617188 24.308594 "/></g></g></g></g><g clip-rule="nonzero" clip-path="url(#7ef217508b)"><g clip-rule="nonzero" clip-path="url(#5255aeab3d)"><g clip-rule="nonzero" clip-path="url(#d69cd6e104)"><g clip-rule="nonzero" clip-path="url(#10ec7846cf)"><path style=" stroke:none;fill-rule:nonzero;fill:#ffffff;fill-opacity:0.5;" d="M 64.660156 24.511719 L 65.460938 24.042969 L 65.617188 24.308594 L 64.820312 24.777344 Z M 64.660156 24.511719 "/></g></g></g></g></g></svg>