<svg xmlns="http://www.w3.org/2000/svg" xmlns:xlink="http://www.w3.org/1999/xlink" width="150" zoomAndPan="magnify" viewBox="0 0 112.5 112.499997" height="150" preserveAspectRatio="xMidYMid meet" version="1.2"><g id="94b07649ac"><path style=" stroke:none;fill-rule:nonzero;fill:#ffffff;fill-opacity:1;" d="M 1.398438 23.253906 C 1.300781 23.25 1.40625 24.25 0.804688 24.78125 C 0.453125 25.09375 0 25.121094 0.0117188 25.25 C 0.0273438 25.386719 0.53125 25.292969 0.875 25.605469 C 1.3125 25.996094 1.1875 26.761719 1.285156 26.765625 C 1.398438 26.769531 1.304688 25.808594 1.839844 25.433594 C 2.210938 25.171875 2.71875 25.3125 2.730469 25.222656 C 2.742188 25.128906 2.199219 25.128906 1.839844 24.78125 C 1.296875 24.261719 1.496094 23.257812 1.398438 23.253906 Z M 1.398438 23.253906 "/><path style=" stroke:none;fill-rule:nonzero;fill:#ffffff;fill-opacity:1;" d="M 3.101562 53.898438 C 2.90625 53.890625 3.113281 55.917969 1.898438 56.996094 C 1.183594 57.628906 0.265625 57.679688 0.292969 57.941406 C 0.320312 58.222656 1.339844 58.027344 2.039062 58.660156 C 2.921875 59.457031 2.671875 61.003906 2.871094 61.011719 C 3.097656 61.015625 2.914062 59.074219 3.992188 58.316406 C 4.742188 57.785156 5.773438 58.070312 5.796875 57.886719 C 5.820312 57.699219 4.71875 57.695312 3.992188 56.996094 C 2.894531 55.9375 3.300781 53.910156 3.101562 53.898438 Z M 3.101562 53.898438 "/><path style=" stroke:none;fill-rule:nonzero;fill:#ffffff;fill-opacity:1;" d="M 31.664062 31.191406 C 31.539062 31.183594 31.671875 32.476562 30.898438 33.164062 C 30.441406 33.566406 29.859375 33.597656 29.875 33.765625 C 29.894531 33.941406 30.542969 33.820312 30.988281 34.222656 C 31.550781 34.730469 31.390625 35.714844 31.519531 35.71875 C 31.660156 35.722656 31.542969 34.484375 32.230469 34.003906 C 32.707031 33.667969 33.367188 33.847656 33.378906 33.730469 C 33.394531 33.609375 32.691406 33.609375 32.230469 33.164062 C 31.53125 32.488281 31.789062 31.199219 31.664062 31.191406 Z M 31.664062 31.191406 "/><path style=" stroke:none;fill-rule:nonzero;fill:#ffffff;fill-opacity:1;" d="M 37.171875 45.175781 C 37 45.164062 37.183594 46.941406 36.117188 47.886719 C 35.492188 48.441406 34.6875 48.484375 34.710938 48.714844 C 34.738281 48.960938 35.632812 48.789062 36.246094 49.34375 C 37.015625 50.042969 36.796875 51.398438 36.972656 51.402344 C 37.167969 51.40625 37.007812 49.707031 37.953125 49.042969 C 38.609375 48.578125 39.515625 48.824219 39.535156 48.664062 C 39.554688 48.5 38.589844 48.5 37.953125 47.886719 C 36.992188 46.960938 37.347656 45.183594 37.175781 45.175781 Z M 37.171875 45.175781 "/><path style=" stroke:none;fill-rule:nonzero;fill:#ffffff;fill-opacity:1;" d="M 46.488281 57.757812 C 46.398438 57.753906 46.492188 58.679688 45.9375 59.167969 C 45.613281 59.457031 45.195312 59.480469 45.207031 59.601562 C 45.21875 59.726562 45.683594 59.636719 46.003906 59.925781 C 46.40625 60.289062 46.292969 60.996094 46.382812 60.996094 C 46.484375 61 46.402344 60.117188 46.890625 59.769531 C 47.234375 59.527344 47.703125 59.65625 47.714844 59.574219 C 47.726562 59.488281 47.222656 59.488281 46.890625 59.167969 C 46.390625 58.6875 46.578125 57.761719 46.488281 57.757812 Z M 46.488281 57.757812 "/><path style=" stroke:none;fill-rule:nonzero;fill:#ffffff;fill-opacity:1;" d="M 57.769531 12.601562 C 57.972656 12.589844 57.757812 14.707031 59.027344 15.832031 C 59.769531 16.492188 60.730469 16.546875 60.699219 16.820312 C 60.671875 17.109375 59.605469 16.90625 58.875 17.566406 C 57.957031 18.398438 58.21875 20.015625 58.007812 20.019531 C 57.773438 20.027344 57.964844 18 56.839844 17.207031 C 56.058594 16.65625 54.980469 16.953125 54.957031 16.757812 C 54.933594 16.566406 56.082031 16.5625 56.839844 15.832031 C 57.988281 14.726562 57.5625 12.609375 57.769531 12.601562 Z M 57.769531 12.601562 "/><path style=" stroke:none;fill-rule:nonzero;fill:#ffffff;fill-opacity:1;" d="M 53.953125 44.089844 C 54.089844 44.082031 53.945312 45.488281 54.789062 46.234375 C 55.28125 46.675781 55.917969 46.707031 55.902344 46.890625 C 55.882812 47.085938 55.171875 46.949219 54.6875 47.386719 C 54.078125 47.941406 54.25 49.015625 54.113281 49.019531 C 53.957031 49.023438 54.082031 47.675781 53.335938 47.148438 C 52.816406 46.78125 52.101562 46.976562 52.085938 46.851562 C 52.066406 46.722656 52.832031 46.71875 53.335938 46.234375 C 54.097656 45.503906 53.816406 44.09375 53.953125 44.089844 Z M 53.953125 44.089844 "/><path style=" stroke:none;fill-rule:nonzero;fill:#ffffff;fill-opacity:1;" d="M 22.140625 24.109375 C 22.261719 24.105469 22.132812 25.382812 22.898438 26.0625 C 23.347656 26.460938 23.925781 26.492188 23.910156 26.660156 C 23.894531 26.835938 23.25 26.710938 22.808594 27.113281 C 22.253906 27.613281 22.410156 28.589844 22.285156 28.59375 C 22.140625 28.597656 22.257812 27.371094 21.578125 26.894531 C 21.105469 26.5625 20.453125 26.738281 20.441406 26.625 C 20.425781 26.503906 21.121094 26.503906 21.578125 26.0625 C 22.269531 25.394531 22.015625 24.117188 22.140625 24.109375 Z M 22.140625 24.109375 "/><path style=" stroke:none;fill-rule:nonzero;fill:#ffffff;fill-opacity:1;" d="M 14.941406 37.78125 C 15.050781 37.777344 14.9375 38.898438 15.609375 39.492188 C 16.003906 39.84375 16.511719 39.871094 16.496094 40.015625 C 16.480469 40.167969 15.914062 40.0625 15.53125 40.410156 C 15.042969 40.851562 15.179688 41.707031 15.070312 41.710938 C 14.945312 41.714844 15.046875 40.640625 14.453125 40.222656 C 14.039062 39.929688 13.46875 40.085938 13.453125 39.984375 C 13.441406 39.878906 14.050781 39.878906 14.453125 39.492188 C 15.058594 38.910156 14.832031 37.789062 14.941406 37.78125 Z M 14.941406 37.78125 "/><path style=" stroke:none;fill-rule:nonzero;fill:#ffffff;fill-opacity:1;" d="M 39.882812 9.796875 C 39.996094 9.789062 39.878906 10.96875 40.582031 11.59375 C 40.996094 11.964844 41.53125 11.992188 41.515625 12.144531 C 41.5 12.304688 40.90625 12.191406 40.5 12.5625 C 39.988281 13.023438 40.132812 13.921875 40.015625 13.925781 C 39.886719 13.929688 39.992188 12.800781 39.367188 12.363281 C 38.929688 12.054688 38.332031 12.21875 38.316406 12.113281 C 38.304688 12.003906 38.945312 12.003906 39.367188 11.59375 C 40.003906 10.980469 39.769531 9.800781 39.882812 9.796875 Z M 39.882812 9.796875 "/><path style=" stroke:none;fill-rule:nonzero;fill:#ffffff;fill-opacity:1;" d="M 108.863281 37.765625 C 108.960938 37.769531 108.859375 36.765625 109.460938 36.234375 C 109.8125 35.921875 110.265625 35.898438 110.253906 35.765625 C 110.238281 35.628906 109.734375 35.726562 109.386719 35.414062 C 108.953125 35.019531 109.078125 34.253906 108.976562 34.253906 C 108.867188 34.25 108.957031 35.210938 108.425781 35.582031 C 108.054688 35.84375 107.546875 35.703125 107.535156 35.796875 C 107.519531 35.886719 108.066406 35.890625 108.425781 36.234375 C 108.96875 36.757812 108.765625 37.757812 108.863281 37.765625 Z M 108.863281 37.765625 "/><path style=" stroke:none;fill-rule:nonzero;fill:#ffffff;fill-opacity:1;" d="M 107.164062 7.117188 C 107.359375 7.128906 107.152344 5.097656 108.367188 4.019531 C 109.082031 3.386719 110 3.335938 109.972656 3.074219 C 109.945312 2.796875 108.921875 2.992188 108.222656 2.359375 C 107.34375 1.558594 107.59375 0.0117188 107.390625 0.0078125 C 107.167969 0 107.351562 1.941406 106.273438 2.703125 C 105.523438 3.230469 104.488281 2.949219 104.46875 3.132812 C 104.441406 3.320312 105.546875 3.320312 106.273438 4.019531 C 107.371094 5.078125 106.964844 7.109375 107.160156 7.117188 Z M 107.164062 7.117188 "/><path style=" stroke:none;fill-rule:nonzero;fill:#ffffff;fill-opacity:1;" d="M 78.601562 29.824219 C 78.726562 29.832031 78.59375 28.539062 79.367188 27.855469 C 79.820312 27.449219 80.40625 27.417969 80.386719 27.25 C 80.371094 27.074219 79.71875 27.199219 79.273438 26.796875 C 78.714844 26.289062 78.875 25.300781 78.746094 25.296875 C 78.601562 25.292969 78.71875 26.53125 78.035156 27.015625 C 77.554688 27.351562 76.898438 27.171875 76.882812 27.289062 C 76.867188 27.40625 77.570312 27.410156 78.035156 27.855469 C 78.734375 28.527344 78.472656 29.820312 78.601562 29.824219 Z M 78.601562 29.824219 "/><path style=" stroke:none;fill-rule:nonzero;fill:#ffffff;fill-opacity:1;" d="M 73.089844 15.84375 C 73.261719 15.851562 73.082031 14.074219 74.144531 13.132812 C 74.769531 12.578125 75.574219 12.53125 75.550781 12.300781 C 75.527344 12.058594 74.632812 12.230469 74.019531 11.675781 C 73.246094 10.976562 73.46875 9.621094 73.292969 9.613281 C 73.09375 9.609375 73.257812 11.3125 72.3125 11.976562 C 71.652344 12.4375 70.75 12.191406 70.730469 12.351562 C 70.710938 12.515625 71.675781 12.515625 72.3125 13.128906 C 73.273438 14.054688 72.917969 15.832031 73.089844 15.84375 Z M 73.089844 15.84375 "/><path style=" stroke:none;fill-rule:nonzero;fill:#ffffff;fill-opacity:1;" d="M 63.777344 3.257812 C 63.867188 3.261719 63.773438 2.339844 64.324219 1.847656 C 64.652344 1.558594 65.070312 1.535156 65.058594 1.417969 C 65.042969 1.289062 64.578125 1.378906 64.261719 1.089844 C 63.859375 0.726562 63.972656 0.0234375 63.882812 0.0195312 C 63.777344 0.015625 63.863281 0.902344 63.371094 1.246094 C 63.03125 1.488281 62.558594 1.359375 62.550781 1.445312 C 62.539062 1.527344 63.042969 1.53125 63.371094 1.847656 C 63.871094 2.328125 63.6875 3.253906 63.777344 3.257812 Z M 63.777344 3.257812 "/><path style=" stroke:none;fill-rule:nonzero;fill:#ffffff;fill-opacity:1;" d="M 103.003906 44.359375 C 103.015625 44.5625 100.894531 44.347656 99.773438 45.613281 C 99.109375 46.359375 99.058594 47.316406 98.785156 47.289062 C 98.492188 47.261719 98.699219 46.195312 98.035156 45.464844 C 97.203125 44.546875 95.589844 44.808594 95.582031 44.597656 C 95.574219 44.363281 97.605469 44.554688 98.394531 43.429688 C 98.945312 42.644531 98.652344 41.570312 98.84375 41.546875 C 99.039062 41.519531 99.042969 42.671875 99.773438 43.429688 C 100.875 44.574219 102.992188 44.152344 103.003906 44.359375 Z M 103.003906 44.359375 "/><path style=" stroke:none;fill-rule:nonzero;fill:#ffffff;fill-opacity:1;" d="M 71.515625 40.542969 C 71.523438 40.679688 70.117188 40.535156 69.367188 41.378906 C 68.929688 41.871094 68.894531 42.507812 68.710938 42.492188 C 68.519531 42.472656 68.65625 41.761719 68.214844 41.277344 C 67.664062 40.667969 66.589844 40.839844 66.585938 40.703125 C 66.582031 40.546875 67.929688 40.671875 68.453125 39.925781 C 68.820312 39.40625 68.625 38.691406 68.753906 38.675781 C 68.882812 38.65625 68.882812 39.421875 69.367188 39.925781 C 70.101562 40.6875 71.507812 40.40625 71.515625 40.542969 Z M 71.515625 40.542969 "/><path style=" stroke:none;fill-rule:nonzero;fill:#ffffff;fill-opacity:1;" d="M 91.492188 8.726562 C 91.5 8.851562 90.21875 8.722656 89.539062 9.488281 C 89.140625 9.9375 89.109375 10.515625 88.945312 10.5 C 88.769531 10.484375 88.890625 9.839844 88.492188 9.398438 C 87.988281 8.84375 87.011719 9 87.007812 8.875 C 87.003906 8.730469 88.230469 8.847656 88.710938 8.167969 C 89.042969 7.695312 88.863281 7.042969 88.980469 7.027344 C 89.097656 7.015625 89.101562 7.710938 89.542969 8.167969 C 90.207031 8.859375 91.488281 8.601562 91.492188 8.730469 Z M 91.492188 8.726562 "/><path style=" stroke:none;fill-rule:nonzero;fill:#ffffff;fill-opacity:1;" d="M 77.820312 1.53125 C 77.824219 1.640625 76.707031 1.527344 76.109375 2.199219 C 75.761719 2.59375 75.734375 3.097656 75.585938 3.085938 C 75.433594 3.070312 75.542969 2.503906 75.191406 2.117188 C 74.75 1.632812 73.894531 1.769531 73.894531 1.660156 C 73.890625 1.535156 74.960938 1.636719 75.382812 1.042969 C 75.671875 0.625 75.519531 0.0546875 75.621094 0.0429688 C 75.722656 0.03125 75.722656 0.640625 76.109375 1.042969 C 76.695312 1.648438 77.816406 1.421875 77.820312 1.53125 Z M 77.820312 1.53125 "/><path style=" stroke:none;fill-rule:nonzero;fill:#ffffff;fill-opacity:1;" d="M 105.808594 26.472656 C 105.8125 26.585938 104.632812 26.464844 104.007812 27.171875 C 103.640625 27.585938 103.613281 28.121094 103.460938 28.105469 C 103.296875 28.089844 103.410156 27.496094 103.042969 27.089844 C 102.578125 26.578125 101.679688 26.722656 101.675781 26.605469 C 101.671875 26.476562 102.800781 26.582031 103.242188 25.957031 C 103.550781 25.519531 103.386719 24.921875 103.492188 24.90625 C 103.601562 24.894531 103.601562 25.535156 104.007812 25.957031 C 104.621094 26.59375 105.800781 26.355469 105.808594 26.472656 Z M 105.808594 26.472656 "/><path style=" stroke:none;fill-rule:nonzero;fill:#ffffff;fill-opacity:1;" d="M 27.082031 72.542969 C 26.984375 72.539062 27.085938 73.542969 26.484375 74.074219 C 26.132812 74.386719 25.679688 74.410156 25.691406 74.542969 C 25.707031 74.679688 26.210938 74.582031 26.558594 74.894531 C 26.992188 75.289062 26.867188 76.054688 26.96875 76.054688 C 27.078125 76.058594 26.988281 75.097656 27.519531 74.726562 C 27.890625 74.464844 28.402344 74.605469 28.414062 74.511719 C 28.425781 74.421875 27.878906 74.417969 27.519531 74.074219 C 26.976562 73.550781 27.179688 72.550781 27.082031 72.542969 Z M 27.082031 72.542969 "/><path style=" stroke:none;fill-rule:nonzero;fill:#ffffff;fill-opacity:1;" d="M 28.78125 103.191406 C 28.585938 103.179688 28.792969 105.210938 27.578125 106.289062 C 26.863281 106.921875 25.945312 106.972656 25.972656 107.234375 C 26 107.511719 27.023438 107.316406 27.722656 107.949219 C 28.601562 108.75 28.351562 110.296875 28.554688 110.300781 C 28.777344 110.308594 28.59375 108.363281 29.671875 107.605469 C 30.421875 107.078125 31.457031 107.359375 31.476562 107.175781 C 31.5 106.988281 30.398438 106.988281 29.671875 106.289062 C 28.574219 105.230469 28.980469 103.199219 28.78125 103.191406 Z M 28.78125 103.191406 "/><path style=" stroke:none;fill-rule:nonzero;fill:#ffffff;fill-opacity:1;" d="M 57.347656 80.484375 C 57.222656 80.476562 57.351562 81.769531 56.578125 82.453125 C 56.125 82.859375 55.539062 82.890625 55.558594 83.058594 C 55.574219 83.234375 56.226562 83.109375 56.671875 83.511719 C 57.230469 84.019531 57.070312 85.007812 57.199219 85.011719 C 57.34375 85.015625 57.226562 83.777344 57.910156 83.292969 C 58.390625 82.957031 59.046875 83.136719 59.0625 83.019531 C 59.078125 82.902344 58.375 82.898438 57.910156 82.453125 C 57.214844 81.78125 57.472656 80.488281 57.347656 80.484375 Z M 57.347656 80.484375 "/><path style=" stroke:none;fill-rule:nonzero;fill:#ffffff;fill-opacity:1;" d="M 62.855469 94.464844 C 62.683594 94.457031 62.863281 96.234375 61.800781 97.175781 C 61.175781 97.730469 60.371094 97.777344 60.394531 98.007812 C 60.417969 98.25 61.3125 98.078125 61.925781 98.632812 C 62.699219 99.332031 62.476562 100.6875 62.65625 100.695312 C 62.851562 100.699219 62.691406 98.996094 63.632812 98.332031 C 64.292969 97.871094 65.195312 98.117188 65.214844 97.957031 C 65.238281 97.792969 64.269531 97.792969 63.632812 97.179688 C 62.671875 96.253906 63.027344 94.476562 62.855469 94.464844 Z M 62.855469 94.464844 "/><path style=" stroke:none;fill-rule:nonzero;fill:#ffffff;fill-opacity:1;" d="M 72.167969 107.050781 C 72.078125 107.046875 72.171875 107.96875 71.621094 108.460938 C 71.296875 108.75 70.875 108.773438 70.890625 108.890625 C 70.902344 109.019531 71.367188 108.929688 71.6875 109.21875 C 72.085938 109.582031 71.972656 110.285156 72.066406 110.289062 C 72.167969 110.292969 72.082031 109.40625 72.574219 109.0625 C 72.917969 108.820312 73.386719 108.949219 73.398438 108.863281 C 73.40625 108.78125 72.90625 108.777344 72.574219 108.460938 C 72.074219 107.980469 72.257812 107.054688 72.167969 107.050781 Z M 72.167969 107.050781 "/><path style=" stroke:none;fill-rule:nonzero;fill:#ffffff;fill-opacity:1;" d="M 40.519531 71.21875 C 40.507812 71.011719 42.625 71.226562 43.75 69.960938 C 44.410156 69.214844 44.464844 68.257812 44.738281 68.285156 C 45.027344 68.316406 44.824219 69.378906 45.484375 70.109375 C 46.316406 71.03125 47.933594 70.769531 47.941406 70.980469 C 47.945312 71.214844 45.917969 71.019531 45.128906 72.144531 C 44.574219 72.929688 44.871094 74.007812 44.679688 74.03125 C 44.484375 74.054688 44.480469 72.902344 43.75 72.144531 C 42.648438 71 40.53125 71.425781 40.519531 71.21875 Z M 40.519531 71.21875 "/><path style=" stroke:none;fill-rule:nonzero;fill:#ffffff;fill-opacity:1;" d="M 72.007812 75.035156 C 72 74.898438 73.40625 75.039062 74.152344 74.199219 C 74.59375 73.703125 74.628906 73.066406 74.808594 73.085938 C 75.003906 73.105469 74.867188 73.8125 75.308594 74.296875 C 75.859375 74.910156 76.933594 74.734375 76.9375 74.875 C 76.941406 75.03125 75.59375 74.902344 75.066406 75.648438 C 74.703125 76.171875 74.898438 76.886719 74.769531 76.902344 C 74.640625 76.917969 74.640625 76.152344 74.152344 75.648438 C 73.421875 74.890625 72.011719 75.171875 72.007812 75.035156 Z M 72.007812 75.035156 "/><path style=" stroke:none;fill-rule:nonzero;fill:#ffffff;fill-opacity:1;" d="M 52.027344 106.847656 C 52.023438 106.722656 53.300781 106.855469 53.980469 106.089844 C 54.382812 105.636719 54.414062 105.058594 54.578125 105.074219 C 54.753906 105.09375 54.632812 105.738281 55.03125 106.179688 C 55.535156 106.734375 56.507812 106.574219 56.511719 106.703125 C 56.515625 106.84375 55.292969 106.726562 54.8125 107.40625 C 54.480469 107.882812 54.65625 108.53125 54.542969 108.546875 C 54.421875 108.5625 54.421875 107.867188 53.980469 107.40625 C 53.3125 106.714844 52.035156 106.972656 52.027344 106.847656 Z M 52.027344 106.847656 "/><path style=" stroke:none;fill-rule:nonzero;fill:#ffffff;fill-opacity:1;" d="M 37.714844 89.105469 C 37.707031 88.988281 38.886719 89.109375 39.511719 88.402344 C 39.882812 87.988281 39.910156 87.457031 40.0625 87.472656 C 40.226562 87.488281 40.109375 88.082031 40.480469 88.488281 C 40.941406 89 41.84375 88.855469 41.84375 88.96875 C 41.851562 89.101562 40.71875 88.996094 40.28125 89.621094 C 39.972656 90.058594 40.136719 90.65625 40.03125 90.667969 C 39.921875 90.683594 39.921875 90.042969 39.515625 89.621094 C 38.898438 88.984375 37.71875 89.21875 37.714844 89.105469 Z M 37.714844 89.105469 "/><path style=" stroke:none;fill-rule:nonzero;fill:#ffffff;fill-opacity:1;" d="M 90.507812 79.210938 C 90.632812 79.21875 90.503906 77.925781 91.277344 77.238281 C 91.730469 76.835938 92.316406 76.804688 92.296875 76.636719 C 92.28125 76.457031 91.628906 76.582031 91.183594 76.179688 C 90.621094 75.671875 90.78125 74.6875 90.65625 74.683594 C 90.511719 74.679688 90.628906 75.917969 89.941406 76.398438 C 89.464844 76.734375 88.808594 76.554688 88.792969 76.671875 C 88.777344 76.792969 89.480469 76.792969 89.941406 77.238281 C 90.640625 77.914062 90.382812 79.203125 90.507812 79.210938 Z M 90.507812 79.210938 "/><path style=" stroke:none;fill-rule:nonzero;fill:#ffffff;fill-opacity:1;" d="M 85 65.226562 C 85.171875 65.238281 84.992188 63.460938 86.054688 62.515625 C 86.679688 61.960938 87.484375 61.917969 87.460938 61.6875 C 87.4375 61.441406 86.542969 61.613281 85.929688 61.058594 C 85.15625 60.359375 85.375 59.003906 85.199219 59 C 85.003906 58.992188 85.164062 60.695312 84.222656 61.359375 C 83.5625 61.824219 82.660156 61.574219 82.636719 61.738281 C 82.617188 61.898438 83.585938 61.902344 84.222656 62.515625 C 85.179688 63.441406 84.824219 65.21875 85 65.226562 Z M 85 65.226562 "/><path style=" stroke:none;fill-rule:nonzero;fill:#ffffff;fill-opacity:1;" d="M 75.6875 52.644531 C 75.777344 52.648438 75.679688 51.722656 76.234375 51.230469 C 76.558594 50.945312 76.980469 50.921875 76.964844 50.800781 C 76.953125 50.675781 76.488281 50.765625 76.167969 50.476562 C 75.769531 50.113281 75.882812 49.40625 75.789062 49.402344 C 75.6875 49.402344 75.773438 50.285156 75.28125 50.632812 C 74.9375 50.871094 74.46875 50.746094 74.457031 50.828125 C 74.449219 50.914062 74.949219 50.914062 75.28125 51.234375 C 75.78125 51.714844 75.597656 52.640625 75.6875 52.644531 Z M 75.6875 52.644531 "/><path style=" stroke:none;fill-rule:nonzero;fill:#ffffff;fill-opacity:1;" d="M 97.570312 94.519531 C 97.578125 94.65625 96.171875 94.511719 95.425781 95.351562 C 94.984375 95.847656 94.949219 96.484375 94.769531 96.46875 C 94.574219 96.449219 94.710938 95.738281 94.273438 95.253906 C 93.71875 94.644531 92.644531 94.816406 92.640625 94.679688 C 92.636719 94.523438 93.984375 94.648438 94.511719 93.902344 C 94.878906 93.382812 94.683594 92.667969 94.808594 92.648438 C 94.9375 92.632812 94.941406 93.398438 95.425781 93.902344 C 96.15625 94.664062 97.566406 94.382812 97.570312 94.519531 Z M 97.570312 94.519531 "/><path style=" stroke:none;fill-rule:nonzero;fill:#ffffff;fill-opacity:1;" d="M 103.878906 55.507812 C 103.882812 55.617188 102.761719 55.503906 102.167969 56.171875 C 101.816406 56.566406 101.789062 57.074219 101.644531 57.058594 C 101.492188 57.046875 101.597656 56.480469 101.25 56.09375 C 100.808594 55.609375 99.953125 55.746094 99.949219 55.636719 C 99.945312 55.511719 101.019531 55.613281 101.4375 55.015625 C 101.730469 54.601562 101.574219 54.03125 101.675781 54.019531 C 101.78125 54.007812 101.78125 54.617188 102.167969 55.015625 C 102.75 55.625 103.871094 55.398438 103.878906 55.507812 Z M 103.878906 55.507812 "/></g></svg>