<svg xmlns="http://www.w3.org/2000/svg" xmlns:xlink="http://www.w3.org/1999/xlink" width="150" zoomAndPan="magnify" viewBox="0 0 112.5 112.499997" height="150" preserveAspectRatio="xMidYMid meet" version="1.2"><g id="964b1399dc"><path style=" stroke:none;fill-rule:nonzero;fill:#f8bd49;fill-opacity:1;" d="M 1.402344 23.292969 C 1.304688 23.285156 1.40625 24.289062 0.808594 24.824219 C 0.453125 25.136719 0 25.160156 0.0117188 25.289062 C 0.0273438 25.429688 0.53125 25.332031 0.878906 25.644531 C 1.3125 26.039062 1.1875 26.804688 1.289062 26.808594 C 1.402344 26.8125 1.308594 25.851562 1.84375 25.476562 C 2.214844 25.214844 2.726562 25.351562 2.738281 25.261719 C 2.75 25.171875 2.203125 25.167969 1.84375 24.824219 C 1.300781 24.300781 1.5 23.296875 1.402344 23.292969 Z M 1.402344 23.292969 "/><path style=" stroke:none;fill-rule:nonzero;fill:#f8bd49;fill-opacity:1;" d="M 3.109375 53.988281 C 2.910156 53.976562 3.117188 56.007812 1.902344 57.089844 C 1.1875 57.722656 0.265625 57.773438 0.292969 58.035156 C 0.320312 58.316406 1.34375 58.121094 2.046875 58.753906 C 2.929688 59.554688 2.675781 61.101562 2.878906 61.109375 C 3.105469 61.117188 2.917969 59.167969 4 58.410156 C 4.753906 57.878906 5.785156 58.164062 5.808594 57.980469 C 5.832031 57.792969 4.726562 57.789062 4 57.089844 C 2.898438 56.03125 3.308594 53.996094 3.109375 53.988281 Z M 3.109375 53.988281 "/><path style=" stroke:none;fill-rule:nonzero;fill:#f8bd49;fill-opacity:1;" d="M 31.734375 31.242188 C 31.609375 31.234375 31.742188 32.53125 30.964844 33.214844 C 30.511719 33.621094 29.925781 33.652344 29.941406 33.820312 C 29.960938 33.996094 30.609375 33.875 31.058594 34.277344 C 31.621094 34.785156 31.460938 35.773438 31.589844 35.777344 C 31.730469 35.78125 31.613281 34.542969 32.300781 34.058594 C 32.78125 33.722656 33.4375 33.902344 33.453125 33.785156 C 33.46875 33.664062 32.765625 33.664062 32.300781 33.214844 C 31.601562 32.542969 31.859375 31.25 31.734375 31.242188 Z M 31.734375 31.242188 "/><path style=" stroke:none;fill-rule:nonzero;fill:#f8bd49;fill-opacity:1;" d="M 37.253906 45.246094 C 37.082031 45.238281 37.265625 47.019531 36.199219 47.964844 C 35.570312 48.519531 34.765625 48.5625 34.789062 48.792969 C 34.8125 49.039062 35.710938 48.867188 36.324219 49.421875 C 37.097656 50.121094 36.878906 51.480469 37.054688 51.484375 C 37.25 51.492188 37.089844 49.785156 38.035156 49.121094 C 38.695312 48.65625 39.601562 48.90625 39.621094 48.742188 C 39.644531 48.578125 38.675781 48.578125 38.035156 47.964844 C 37.074219 47.035156 37.429688 45.257812 37.257812 45.246094 Z M 37.253906 45.246094 "/><path style=" stroke:none;fill-rule:nonzero;fill:#f8bd49;fill-opacity:1;" d="M 46.589844 57.851562 C 46.5 57.847656 46.59375 58.773438 46.039062 59.265625 C 45.714844 59.554688 45.292969 59.578125 45.308594 59.695312 C 45.320312 59.824219 45.785156 59.734375 46.105469 60.023438 C 46.507812 60.386719 46.394531 61.09375 46.484375 61.097656 C 46.585938 61.097656 46.503906 60.210938 46.996094 59.867188 C 47.339844 59.625 47.808594 59.753906 47.820312 59.671875 C 47.832031 59.585938 47.328125 59.582031 46.996094 59.265625 C 46.496094 58.78125 46.679688 57.855469 46.589844 57.851562 Z M 46.589844 57.851562 "/><path style=" stroke:none;fill-rule:nonzero;fill:#f8bd49;fill-opacity:1;" d="M 57.898438 12.621094 C 58.101562 12.609375 57.886719 14.730469 59.15625 15.859375 C 59.902344 16.519531 60.863281 16.570312 60.835938 16.847656 C 60.804688 17.136719 59.738281 16.933594 59.007812 17.597656 C 58.085938 18.429688 58.347656 20.046875 58.136719 20.054688 C 57.902344 20.0625 58.09375 18.027344 56.96875 17.238281 C 56.179688 16.683594 55.101562 16.980469 55.078125 16.785156 C 55.054688 16.589844 56.207031 16.589844 56.96875 15.859375 C 58.113281 14.753906 57.6875 12.632812 57.898438 12.621094 Z M 57.898438 12.621094 "/><path style=" stroke:none;fill-rule:nonzero;fill:#f8bd49;fill-opacity:1;" d="M 54.070312 44.160156 C 54.207031 44.152344 54.066406 45.5625 54.910156 46.308594 C 55.40625 46.75 56.042969 46.785156 56.023438 46.96875 C 56.003906 47.160156 55.296875 47.023438 54.808594 47.464844 C 54.199219 48.019531 54.371094 49.09375 54.230469 49.097656 C 54.074219 49.101562 54.203125 47.753906 53.453125 47.226562 C 52.933594 46.859375 52.214844 47.054688 52.199219 46.925781 C 52.183594 46.796875 52.949219 46.796875 53.453125 46.308594 C 54.21875 45.574219 53.933594 44.164062 54.070312 44.160156 Z M 54.070312 44.160156 "/><path style=" stroke:none;fill-rule:nonzero;fill:#f8bd49;fill-opacity:1;" d="M 22.1875 24.148438 C 22.3125 24.144531 22.183594 25.425781 22.949219 26.105469 C 23.398438 26.503906 23.980469 26.535156 23.964844 26.703125 C 23.945312 26.878906 23.300781 26.753906 22.859375 27.15625 C 22.300781 27.660156 22.460938 28.636719 22.332031 28.640625 C 22.191406 28.644531 22.308594 27.417969 21.625 26.9375 C 21.152344 26.605469 20.5 26.78125 20.484375 26.667969 C 20.46875 26.546875 21.167969 26.546875 21.625 26.105469 C 22.320312 25.4375 22.0625 24.15625 22.1875 24.148438 Z M 22.1875 24.148438 "/><path style=" stroke:none;fill-rule:nonzero;fill:#f8bd49;fill-opacity:1;" d="M 14.976562 37.84375 C 15.085938 37.839844 14.972656 38.960938 15.644531 39.554688 C 16.039062 39.90625 16.546875 39.933594 16.53125 40.082031 C 16.515625 40.234375 15.949219 40.125 15.5625 40.476562 C 15.074219 40.917969 15.214844 41.773438 15.105469 41.777344 C 14.980469 41.78125 15.082031 40.707031 14.484375 40.285156 C 14.070312 39.992188 13.496094 40.148438 13.484375 40.046875 C 13.472656 39.945312 14.082031 39.945312 14.484375 39.554688 C 15.089844 38.972656 14.867188 37.847656 14.976562 37.84375 Z M 14.976562 37.84375 "/><path style=" stroke:none;fill-rule:nonzero;fill:#f8bd49;fill-opacity:1;" d="M 39.972656 9.8125 C 40.085938 9.804688 39.964844 10.988281 40.671875 11.613281 C 41.089844 11.984375 41.621094 12.011719 41.609375 12.164062 C 41.589844 12.328125 40.996094 12.210938 40.589844 12.582031 C 40.078125 13.046875 40.222656 13.945312 40.105469 13.949219 C 39.972656 13.953125 40.082031 12.824219 39.453125 12.382812 C 39.015625 12.074219 38.414062 12.238281 38.402344 12.132812 C 38.386719 12.023438 39.03125 12.019531 39.453125 11.613281 C 40.09375 11 39.855469 9.816406 39.972656 9.8125 Z M 39.972656 9.8125 "/><path style=" stroke:none;fill-rule:nonzero;fill:#f8bd49;fill-opacity:1;" d="M 109.105469 37.824219 C 109.203125 37.828125 109.101562 36.824219 109.703125 36.292969 C 110.054688 35.980469 110.507812 35.957031 110.496094 35.824219 C 110.480469 35.6875 109.976562 35.785156 109.628906 35.46875 C 109.195312 35.074219 109.320312 34.3125 109.21875 34.308594 C 109.109375 34.304688 109.199219 35.265625 108.664062 35.640625 C 108.292969 35.902344 107.78125 35.761719 107.769531 35.851562 C 107.757812 35.945312 108.304688 35.945312 108.664062 36.292969 C 109.207031 36.816406 109.007812 37.820312 109.105469 37.824219 Z M 109.105469 37.824219 "/><path style=" stroke:none;fill-rule:nonzero;fill:#f8bd49;fill-opacity:1;" d="M 107.398438 7.128906 C 107.597656 7.140625 107.390625 5.105469 108.605469 4.027344 C 109.324219 3.390625 110.242188 3.34375 110.214844 3.078125 C 110.1875 2.800781 109.164062 2.996094 108.464844 2.363281 C 107.578125 1.5625 107.832031 0.0117188 107.628906 0.0078125 C 107.402344 0 107.589844 1.945312 106.507812 2.707031 C 105.753906 3.234375 104.722656 2.953125 104.699219 3.136719 C 104.675781 3.324219 105.78125 3.324219 106.507812 4.027344 C 107.609375 5.085938 107.199219 7.117188 107.398438 7.128906 Z M 107.398438 7.128906 "/><path style=" stroke:none;fill-rule:nonzero;fill:#f8bd49;fill-opacity:1;" d="M 78.773438 29.875 C 78.898438 29.878906 78.765625 28.585938 79.542969 27.898438 C 79.996094 27.496094 80.582031 27.464844 80.566406 27.296875 C 80.546875 27.117188 79.898438 27.242188 79.449219 26.839844 C 78.886719 26.328125 79.046875 25.34375 78.917969 25.339844 C 78.777344 25.335938 78.894531 26.574219 78.207031 27.058594 C 77.726562 27.394531 77.070312 27.214844 77.054688 27.332031 C 77.039062 27.453125 77.742188 27.453125 78.207031 27.898438 C 78.90625 28.574219 78.648438 29.867188 78.773438 29.875 Z M 78.773438 29.875 "/><path style=" stroke:none;fill-rule:nonzero;fill:#f8bd49;fill-opacity:1;" d="M 73.253906 15.867188 C 73.425781 15.878906 73.246094 14.097656 74.308594 13.152344 C 74.9375 12.597656 75.742188 12.550781 75.71875 12.324219 C 75.695312 12.078125 74.796875 12.25 74.183594 11.695312 C 73.410156 10.992188 73.628906 9.636719 73.453125 9.628906 C 73.257812 9.625 73.417969 11.328125 72.472656 11.996094 C 71.8125 12.457031 70.90625 12.210938 70.886719 12.371094 C 70.867188 12.535156 71.835938 12.539062 72.472656 13.152344 C 73.433594 14.078125 73.078125 15.859375 73.25 15.867188 Z M 73.253906 15.867188 "/><path style=" stroke:none;fill-rule:nonzero;fill:#f8bd49;fill-opacity:1;" d="M 63.917969 3.261719 C 64.007812 3.269531 63.914062 2.34375 64.46875 1.851562 C 64.792969 1.5625 65.214844 1.539062 65.199219 1.417969 C 65.1875 1.292969 64.722656 1.382812 64.402344 1.09375 C 64 0.726562 64.113281 0.0234375 64.023438 0.0195312 C 63.921875 0.015625 64.003906 0.902344 63.511719 1.25 C 63.167969 1.492188 62.699219 1.363281 62.6875 1.445312 C 62.675781 1.53125 63.179688 1.53125 63.511719 1.851562 C 64.011719 2.332031 63.828125 3.261719 63.917969 3.265625 Z M 63.917969 3.261719 "/><path style=" stroke:none;fill-rule:nonzero;fill:#f8bd49;fill-opacity:1;" d="M 103.230469 44.429688 C 103.242188 44.636719 101.121094 44.421875 99.992188 45.6875 C 99.332031 46.433594 99.277344 47.394531 99.003906 47.367188 C 98.710938 47.335938 98.917969 46.269531 98.253906 45.539062 C 97.417969 44.617188 95.800781 44.878906 95.792969 44.667969 C 95.785156 44.433594 97.820312 44.628906 98.613281 43.5 C 99.164062 42.714844 98.871094 41.636719 99.0625 41.613281 C 99.257812 41.589844 99.261719 42.742188 99.992188 43.5 C 101.097656 44.648438 103.21875 44.222656 103.230469 44.429688 Z M 103.230469 44.429688 "/><path style=" stroke:none;fill-rule:nonzero;fill:#f8bd49;fill-opacity:1;" d="M 71.675781 40.609375 C 71.679688 40.746094 70.269531 40.601562 69.523438 41.445312 C 69.082031 41.941406 69.046875 42.578125 68.863281 42.558594 C 68.671875 42.539062 68.808594 41.832031 68.367188 41.34375 C 67.8125 40.734375 66.738281 40.90625 66.734375 40.769531 C 66.726562 40.613281 68.078125 40.738281 68.605469 39.992188 C 68.972656 39.46875 68.777344 38.753906 68.90625 38.738281 C 69.035156 38.71875 69.035156 39.488281 69.523438 39.992188 C 70.257812 40.753906 71.667969 40.46875 71.675781 40.609375 Z M 71.675781 40.609375 "/><path style=" stroke:none;fill-rule:nonzero;fill:#f8bd49;fill-opacity:1;" d="M 91.695312 8.742188 C 91.703125 8.867188 90.421875 8.734375 89.738281 9.503906 C 89.339844 9.953125 89.308594 10.535156 89.140625 10.515625 C 88.964844 10.5 89.089844 9.855469 88.6875 9.414062 C 88.183594 8.855469 87.207031 9.015625 87.203125 8.886719 C 87.199219 8.746094 88.425781 8.863281 88.90625 8.179688 C 89.238281 7.707031 89.0625 7.054688 89.175781 7.039062 C 89.296875 7.027344 89.296875 7.722656 89.738281 8.179688 C 90.40625 8.875 91.691406 8.617188 91.695312 8.742188 Z M 91.695312 8.742188 "/><path style=" stroke:none;fill-rule:nonzero;fill:#f8bd49;fill-opacity:1;" d="M 77.992188 1.535156 C 78 1.644531 76.875 1.53125 76.277344 2.199219 C 75.929688 2.597656 75.898438 3.105469 75.753906 3.089844 C 75.601562 3.074219 75.707031 2.507812 75.359375 2.121094 C 74.917969 1.632812 74.058594 1.773438 74.054688 1.660156 C 74.050781 1.539062 75.128906 1.640625 75.546875 1.042969 C 75.839844 0.628906 75.683594 0.0585938 75.785156 0.0429688 C 75.890625 0.03125 75.890625 0.640625 76.277344 1.042969 C 76.863281 1.648438 77.988281 1.425781 77.992188 1.535156 Z M 77.992188 1.535156 "/><path style=" stroke:none;fill-rule:nonzero;fill:#f8bd49;fill-opacity:1;" d="M 106.042969 26.515625 C 106.046875 26.628906 104.867188 26.507812 104.238281 27.214844 C 103.871094 27.632812 103.839844 28.164062 103.6875 28.148438 C 103.527344 28.132812 103.640625 27.539062 103.269531 27.132812 C 102.804688 26.621094 101.90625 26.765625 101.902344 26.648438 C 101.898438 26.519531 103.03125 26.625 103.472656 25.996094 C 103.777344 25.558594 103.613281 24.960938 103.722656 24.945312 C 103.828125 24.933594 103.832031 25.574219 104.238281 25.996094 C 104.855469 26.636719 106.035156 26.398438 106.042969 26.515625 Z M 106.042969 26.515625 "/><path style=" stroke:none;fill-rule:nonzero;fill:#f8bd49;fill-opacity:1;" d="M 27.140625 72.660156 C 27.042969 72.65625 27.144531 73.660156 26.542969 74.195312 C 26.191406 74.507812 25.738281 74.53125 25.75 74.660156 C 25.765625 74.800781 26.269531 74.703125 26.617188 75.015625 C 27.050781 75.410156 26.925781 76.175781 27.027344 76.179688 C 27.140625 76.183594 27.046875 75.222656 27.582031 74.847656 C 27.953125 74.585938 28.464844 74.722656 28.476562 74.632812 C 28.488281 74.542969 27.941406 74.539062 27.582031 74.195312 C 27.039062 73.671875 27.238281 72.667969 27.140625 72.660156 Z M 27.140625 72.660156 "/><path style=" stroke:none;fill-rule:nonzero;fill:#f8bd49;fill-opacity:1;" d="M 28.847656 103.355469 C 28.648438 103.347656 28.855469 105.378906 27.640625 106.460938 C 26.925781 107.09375 26.003906 107.144531 26.03125 107.40625 C 26.058594 107.6875 27.082031 107.488281 27.785156 108.125 C 28.667969 108.925781 28.414062 110.472656 28.617188 110.480469 C 28.84375 110.484375 28.65625 108.539062 29.738281 107.78125 C 30.492188 107.25 31.523438 107.53125 31.546875 107.347656 C 31.570312 107.160156 30.464844 107.160156 29.738281 106.460938 C 28.636719 105.398438 29.046875 103.367188 28.847656 103.355469 Z M 28.847656 103.355469 "/><path style=" stroke:none;fill-rule:nonzero;fill:#f8bd49;fill-opacity:1;" d="M 57.472656 80.613281 C 57.347656 80.605469 57.480469 81.902344 56.703125 82.585938 C 56.25 82.992188 55.664062 83.023438 55.679688 83.191406 C 55.699219 83.367188 56.351562 83.246094 56.796875 83.648438 C 57.359375 84.15625 57.199219 85.144531 57.328125 85.148438 C 57.46875 85.152344 57.351562 83.914062 58.039062 83.429688 C 58.519531 83.089844 59.179688 83.269531 59.191406 83.15625 C 59.207031 83.035156 58.503906 83.035156 58.039062 82.585938 C 57.339844 81.914062 57.597656 80.621094 57.472656 80.613281 Z M 57.472656 80.613281 "/><path style=" stroke:none;fill-rule:nonzero;fill:#f8bd49;fill-opacity:1;" d="M 62.992188 94.617188 C 62.820312 94.609375 63.003906 96.390625 61.9375 97.335938 C 61.308594 97.890625 60.503906 97.933594 60.527344 98.164062 C 60.550781 98.410156 61.449219 98.238281 62.0625 98.792969 C 62.835938 99.492188 62.617188 100.851562 62.792969 100.855469 C 62.988281 100.863281 62.828125 99.15625 63.773438 98.492188 C 64.433594 98.027344 65.339844 98.277344 65.359375 98.113281 C 65.382812 97.949219 64.414062 97.949219 63.773438 97.335938 C 62.8125 96.40625 63.167969 94.628906 62.996094 94.617188 Z M 62.992188 94.617188 "/><path style=" stroke:none;fill-rule:nonzero;fill:#f8bd49;fill-opacity:1;" d="M 72.328125 107.222656 C 72.238281 107.21875 72.332031 108.144531 71.777344 108.636719 C 71.453125 108.925781 71.035156 108.949219 71.046875 109.066406 C 71.058594 109.195312 71.523438 109.105469 71.84375 109.394531 C 72.246094 109.757812 72.132812 110.464844 72.222656 110.46875 C 72.328125 110.46875 72.242188 109.582031 72.734375 109.238281 C 73.078125 108.996094 73.546875 109.125 73.558594 109.042969 C 73.570312 108.957031 73.066406 108.953125 72.734375 108.636719 C 72.234375 108.152344 72.417969 107.226562 72.328125 107.222656 Z M 72.328125 107.222656 "/><path style=" stroke:none;fill-rule:nonzero;fill:#f8bd49;fill-opacity:1;" d="M 40.609375 71.332031 C 40.597656 71.128906 42.722656 71.34375 43.847656 70.074219 C 44.511719 69.328125 44.5625 68.367188 44.835938 68.394531 C 45.128906 68.425781 44.921875 69.492188 45.585938 70.222656 C 46.421875 71.144531 48.039062 70.882812 48.046875 71.09375 C 48.054688 71.328125 46.019531 71.136719 45.226562 72.261719 C 44.675781 73.046875 44.96875 74.125 44.777344 74.148438 C 44.582031 74.175781 44.578125 73.019531 43.847656 72.261719 C 42.742188 71.113281 40.621094 71.539062 40.609375 71.332031 Z M 40.609375 71.332031 "/><path style=" stroke:none;fill-rule:nonzero;fill:#f8bd49;fill-opacity:1;" d="M 72.164062 75.15625 C 72.160156 75.019531 73.570312 75.160156 74.316406 74.316406 C 74.757812 73.824219 74.792969 73.183594 74.976562 73.203125 C 75.167969 73.222656 75.035156 73.933594 75.472656 74.417969 C 76.027344 75.03125 77.101562 74.855469 77.105469 74.996094 C 77.113281 75.152344 75.761719 75.023438 75.234375 75.773438 C 74.867188 76.292969 75.0625 77.011719 74.933594 77.027344 C 74.804688 77.042969 74.804688 76.277344 74.316406 75.773438 C 73.582031 75.011719 72.171875 75.292969 72.164062 75.15625 Z M 72.164062 75.15625 "/><path style=" stroke:none;fill-rule:nonzero;fill:#f8bd49;fill-opacity:1;" d="M 52.144531 107.019531 C 52.136719 106.898438 53.417969 107.027344 54.101562 106.261719 C 54.5 105.808594 54.53125 105.230469 54.699219 105.246094 C 54.875 105.261719 54.75 105.910156 55.152344 106.351562 C 55.65625 106.90625 56.632812 106.75 56.636719 106.875 C 56.640625 107.015625 55.414062 106.902344 54.933594 107.582031 C 54.601562 108.054688 54.777344 108.707031 54.664062 108.722656 C 54.542969 108.738281 54.542969 108.039062 54.101562 107.582031 C 53.433594 106.890625 52.148438 107.144531 52.144531 107.019531 Z M 52.144531 107.019531 "/><path style=" stroke:none;fill-rule:nonzero;fill:#f8bd49;fill-opacity:1;" d="M 37.796875 89.246094 C 37.792969 89.132812 38.972656 89.253906 39.601562 88.546875 C 39.96875 88.132812 40 87.597656 40.152344 87.613281 C 40.3125 87.628906 40.199219 88.222656 40.570312 88.628906 C 41.035156 89.144531 41.933594 88.996094 41.9375 89.113281 C 41.941406 89.246094 40.808594 89.136719 40.371094 89.765625 C 40.0625 90.203125 40.226562 90.800781 40.117188 90.816406 C 40.011719 90.828125 40.007812 90.1875 39.601562 89.765625 C 38.984375 89.125 37.804688 89.363281 37.796875 89.246094 Z M 37.796875 89.246094 "/><path style=" stroke:none;fill-rule:nonzero;fill:#f8bd49;fill-opacity:1;" d="M 90.710938 79.339844 C 90.835938 79.34375 90.703125 78.050781 91.476562 77.363281 C 91.933594 76.960938 92.519531 76.929688 92.503906 76.761719 C 92.484375 76.582031 91.832031 76.707031 91.386719 76.304688 C 90.824219 75.792969 90.984375 74.808594 90.855469 74.804688 C 90.710938 74.800781 90.828125 76.039062 90.140625 76.523438 C 89.664062 76.859375 89.003906 76.679688 88.988281 76.796875 C 88.972656 76.917969 89.679688 76.917969 90.140625 77.363281 C 90.84375 78.039062 90.582031 79.332031 90.710938 79.339844 Z M 90.710938 79.339844 "/><path style=" stroke:none;fill-rule:nonzero;fill:#f8bd49;fill-opacity:1;" d="M 85.1875 65.332031 C 85.359375 65.34375 85.179688 63.5625 86.246094 62.617188 C 86.871094 62.0625 87.675781 62.015625 87.652344 61.785156 C 87.628906 61.542969 86.734375 61.714844 86.117188 61.15625 C 85.34375 60.457031 85.566406 59.101562 85.390625 59.09375 C 85.191406 59.089844 85.351562 60.792969 84.40625 61.460938 C 83.746094 61.921875 82.84375 61.675781 82.820312 61.835938 C 82.800781 62 83.769531 62 84.40625 62.617188 C 85.371094 63.542969 85.011719 65.324219 85.1875 65.332031 Z M 85.1875 65.332031 "/><path style=" stroke:none;fill-rule:nonzero;fill:#f8bd49;fill-opacity:1;" d="M 75.855469 52.726562 C 75.945312 52.734375 75.847656 51.804688 76.402344 51.316406 C 76.730469 51.027344 77.148438 51.003906 77.136719 50.882812 C 77.125 50.757812 76.65625 50.84375 76.339844 50.558594 C 75.9375 50.191406 76.050781 49.488281 75.957031 49.484375 C 75.855469 49.480469 75.941406 50.367188 75.449219 50.714844 C 75.105469 50.953125 74.632812 50.828125 74.625 50.910156 C 74.613281 50.996094 75.117188 50.996094 75.449219 51.316406 C 75.949219 51.796875 75.761719 52.722656 75.855469 52.726562 Z M 75.855469 52.726562 "/><path style=" stroke:none;fill-rule:nonzero;fill:#f8bd49;fill-opacity:1;" d="M 97.789062 94.671875 C 97.792969 94.808594 96.386719 94.664062 95.636719 95.507812 C 95.195312 96.003906 95.160156 96.640625 94.976562 96.621094 C 94.785156 96.601562 94.921875 95.894531 94.480469 95.410156 C 93.925781 94.796875 92.851562 94.96875 92.847656 94.832031 C 92.84375 94.675781 94.191406 94.800781 94.71875 94.054688 C 95.085938 93.53125 94.890625 92.816406 95.019531 92.800781 C 95.148438 92.785156 95.148438 93.550781 95.636719 94.054688 C 96.371094 94.816406 97.78125 94.535156 97.789062 94.671875 Z M 97.789062 94.671875 "/><path style=" stroke:none;fill-rule:nonzero;fill:#f8bd49;fill-opacity:1;" d="M 104.105469 55.597656 C 104.113281 55.707031 102.988281 55.59375 102.394531 56.265625 C 102.042969 56.660156 102.015625 57.167969 101.871094 57.152344 C 101.714844 57.136719 101.824219 56.570312 101.472656 56.183594 C 101.03125 55.699219 100.175781 55.835938 100.171875 55.726562 C 100.167969 55.601562 101.242188 55.703125 101.664062 55.105469 C 101.957031 54.691406 101.800781 54.121094 101.902344 54.105469 C 102.003906 54.09375 102.003906 54.703125 102.394531 55.105469 C 102.980469 55.714844 104.101562 55.488281 104.105469 55.597656 Z M 104.105469 55.597656 "/></g></svg>