<svg xmlns="http://www.w3.org/2000/svg" xmlns:xlink="http://www.w3.org/1999/xlink" width="150" zoomAndPan="magnify" viewBox="0 0 112.5 112.499997" height="150" preserveAspectRatio="xMidYMid meet" version="1.2"><defs><clipPath id="cf85540ef1"><path d="M 12 9 L 26 9 L 26 21 L 12 21 Z M 12 9 "/></clipPath><clipPath id="4ae44594a4"><path d="M 15.652344 7.832031 L 26.8125 12.105469 L 23.074219 21.867188 L 11.917969 17.597656 Z M 15.652344 7.832031 "/></clipPath><clipPath id="1053bb74e3"><path d="M 15.652344 7.832031 L 26.8125 12.105469 L 23.074219 21.867188 L 11.917969 17.597656 Z M 15.652344 7.832031 "/></clipPath><clipPath id="5094264686"><path d="M 15.652344 7.832031 L 26.8125 12.105469 L 23.074219 21.867188 L 11.917969 17.597656 Z M 15.652344 7.832031 "/></clipPath><clipPath id="20df42fe04"><path d="M 13 9 L 26 9 L 26 21 L 13 21 Z M 13 9 "/></clipPath><clipPath id="32a66a58ed"><path d="M 15.652344 7.832031 L 26.8125 12.105469 L 23.074219 21.867188 L 11.917969 17.597656 Z M 15.652344 7.832031 "/></clipPath><clipPath id="22a3e6aca8"><path d="M 15.652344 7.832031 L 26.8125 12.105469 L 23.074219 21.867188 L 11.917969 17.597656 Z M 15.652344 7.832031 "/></clipPath><clipPath id="209255ab79"><path d="M 15.652344 7.832031 L 26.8125 12.105469 L 23.074219 21.867188 L 11.917969 17.597656 Z M 15.652344 7.832031 "/></clipPath><clipPath id="2a9836ef41"><path d="M 23 14 L 25 14 L 25 16 L 23 16 Z M 23 14 "/></clipPath><clipPath id="1a2a22d55d"><path d="M 15.652344 7.832031 L 26.8125 12.105469 L 23.074219 21.867188 L 11.917969 17.597656 Z M 15.652344 7.832031 "/></clipPath><clipPath id="53fd6a1326"><path d="M 15.652344 7.832031 L 26.8125 12.105469 L 23.074219 21.867188 L 11.917969 17.597656 Z M 15.652344 7.832031 "/></clipPath><clipPath id="07705ba184"><path d="M 15.652344 7.832031 L 26.8125 12.105469 L 23.074219 21.867188 L 11.917969 17.597656 Z M 15.652344 7.832031 "/></clipPath><clipPath id="e215418405"><path d="M 14 10 L 24 10 L 24 20 L 14 20 Z M 14 10 "/></clipPath><clipPath id="19b478aab9"><path d="M 15.652344 7.832031 L 26.8125 12.105469 L 23.074219 21.867188 L 11.917969 17.597656 Z M 15.652344 7.832031 "/></clipPath><clipPath id="d085f75e3e"><path d="M 15.652344 7.832031 L 26.8125 12.105469 L 23.074219 21.867188 L 11.917969 17.597656 Z M 15.652344 7.832031 "/></clipPath><clipPath id="cc5bba9e8e"><path d="M 15.652344 7.832031 L 26.8125 12.105469 L 23.074219 21.867188 L 11.917969 17.597656 Z M 15.652344 7.832031 "/></clipPath><clipPath id="4685e7cba3"><path d="M 25 60 L 37 60 L 37 73 L 25 73 Z M 25 60 "/></clipPath><clipPath id="3ca6abde58"><path d="M 24.128906 70.304688 L 27.988281 59.792969 L 37.800781 63.394531 L 33.941406 73.910156 Z M 24.128906 70.304688 "/></clipPath><clipPath id="41a37db1c4"><path d="M 24.128906 70.304688 L 27.988281 59.792969 L 37.800781 63.394531 L 33.941406 73.910156 Z M 24.128906 70.304688 "/></clipPath><clipPath id="b53c9d6bf5"><path d="M 24.128906 70.304688 L 27.988281 59.792969 L 37.800781 63.394531 L 33.941406 73.910156 Z M 24.128906 70.304688 "/></clipPath><clipPath id="3275d0d19f"><path d="M 25 61 L 37 61 L 37 73 L 25 73 Z M 25 61 "/></clipPath><clipPath id="dba10f8a72"><path d="M 24.128906 70.304688 L 27.988281 59.792969 L 37.800781 63.394531 L 33.941406 73.910156 Z M 24.128906 70.304688 "/></clipPath><clipPath id="a3ce24ac0f"><path d="M 24.128906 70.304688 L 27.988281 59.792969 L 37.800781 63.394531 L 33.941406 73.910156 Z M 24.128906 70.304688 "/></clipPath><clipPath id="49e911c860"><path d="M 24.128906 70.304688 L 27.988281 59.792969 L 37.800781 63.394531 L 33.941406 73.910156 Z M 24.128906 70.304688 "/></clipPath><clipPath id="5aebfb266a"><path d="M 30 62 L 32 62 L 32 64 L 30 64 Z M 30 62 "/></clipPath><clipPath id="17f6c0be62"><path d="M 24.128906 70.304688 L 27.988281 59.792969 L 37.800781 63.394531 L 33.941406 73.910156 Z M 24.128906 70.304688 "/></clipPath><clipPath id="e1d1ec8a4d"><path d="M 24.128906 70.304688 L 27.988281 59.792969 L 37.800781 63.394531 L 33.941406 73.910156 Z M 24.128906 70.304688 "/></clipPath><clipPath id="6b62d61adf"><path d="M 24.128906 70.304688 L 27.988281 59.792969 L 37.800781 63.394531 L 33.941406 73.910156 Z M 24.128906 70.304688 "/></clipPath><clipPath id="2f0ba43a0d"><path d="M 27 62 L 36 62 L 36 72 L 27 72 Z M 27 62 "/></clipPath><clipPath id="082cb6aa8f"><path d="M 24.128906 70.304688 L 27.988281 59.792969 L 37.800781 63.394531 L 33.941406 73.910156 Z M 24.128906 70.304688 "/></clipPath><clipPath id="6ede4764a2"><path d="M 24.128906 70.304688 L 27.988281 59.792969 L 37.800781 63.394531 L 33.941406 73.910156 Z M 24.128906 70.304688 "/></clipPath><clipPath id="a7a462c613"><path d="M 24.128906 70.304688 L 27.988281 59.792969 L 37.800781 63.394531 L 33.941406 73.910156 Z M 24.128906 70.304688 "/></clipPath><clipPath id="11d81f2028"><path d="M 72 26 L 84 26 L 84 38 L 72 38 Z M 72 26 "/></clipPath><clipPath id="e8a567dc0c"><path d="M 72.804688 35.15625 L 75.894531 26.746094 L 83.601562 29.574219 L 80.515625 37.988281 Z M 72.804688 35.15625 "/></clipPath><clipPath id="90a1fa79b9"><path d="M 1 1 L 11.628906 1 L 11.628906 11 L 1 11 Z M 1 1 "/></clipPath><clipPath id="09915e5ce8"><path d="M 0.804688 9.15625 L 3.894531 0.746094 L 11.601562 3.574219 L 8.515625 11.988281 Z M 0.804688 9.15625 "/></clipPath><clipPath id="c543f0ce97"><path d="M 3.867188 0.808594 L 0.78125 9.222656 L 8.488281 12.050781 L 11.578125 3.640625 Z M 3.867188 0.808594 "/></clipPath><clipPath id="e8034eb531"><path d="M 3.867188 0.808594 L 0.78125 9.222656 L 8.488281 12.050781 L 11.578125 3.640625 Z M 3.867188 0.808594 "/></clipPath><clipPath id="586b3cc381"><path d="M 1 2 L 11 2 L 11 11 L 1 11 Z M 1 2 "/></clipPath><clipPath id="f6c0aa1b07"><path d="M 0.804688 9.15625 L 3.894531 0.746094 L 11.601562 3.574219 L 8.515625 11.988281 Z M 0.804688 9.15625 "/></clipPath><clipPath id="09f9766d1d"><path d="M 3.867188 0.808594 L 0.78125 9.222656 L 8.488281 12.050781 L 11.578125 3.640625 Z M 3.867188 0.808594 "/></clipPath><clipPath id="1a1f3a360c"><path d="M 3.867188 0.808594 L 0.78125 9.222656 L 8.488281 12.050781 L 11.578125 3.640625 Z M 3.867188 0.808594 "/></clipPath><clipPath id="ed326c22b7"><path d="M 3 8 L 5 8 L 5 10 L 3 10 Z M 3 8 "/></clipPath><clipPath id="2744ec829b"><path d="M 0.804688 9.15625 L 3.894531 0.746094 L 11.601562 3.574219 L 8.515625 11.988281 Z M 0.804688 9.15625 "/></clipPath><clipPath id="2ec9946d15"><path d="M 3.867188 0.808594 L 0.78125 9.222656 L 8.488281 12.050781 L 11.578125 3.640625 Z M 3.867188 0.808594 "/></clipPath><clipPath id="d20d6a040a"><path d="M 3.867188 0.808594 L 0.78125 9.222656 L 8.488281 12.050781 L 11.578125 3.640625 Z M 3.867188 0.808594 "/></clipPath><clipPath id="31d3523650"><path d="M 2 2 L 11 2 L 11 10 L 2 10 Z M 2 2 "/></clipPath><clipPath id="ac5c77060d"><path d="M 0.804688 9.15625 L 3.894531 0.746094 L 11.601562 3.574219 L 8.515625 11.988281 Z M 0.804688 9.15625 "/></clipPath><clipPath id="46e44155e0"><path d="M 3.867188 0.808594 L 0.78125 9.222656 L 8.488281 12.050781 L 11.578125 3.640625 Z M 3.867188 0.808594 "/></clipPath><clipPath id="8009030b5a"><path d="M 3.867188 0.808594 L 0.78125 9.222656 L 8.488281 12.050781 L 11.578125 3.640625 Z M 3.867188 0.808594 "/></clipPath><clipPath id="e69b6c0b13"><rect x="0" width="12" y="0" height="12"/></clipPath><clipPath id="d6e709aef7"><path d="M 89 94 L 97 94 L 97 104 L 89 104 Z M 89 94 "/></clipPath><clipPath id="02a3184e9a"><path d="M 98.46875 98.171875 L 93.769531 104.90625 L 87.644531 100.632812 L 92.347656 93.898438 Z M 98.46875 98.171875 "/></clipPath><clipPath id="d8b94a6281"><path d="M 98.46875 98.171875 L 93.769531 104.90625 L 87.644531 100.632812 L 92.347656 93.898438 Z M 98.46875 98.171875 "/></clipPath><clipPath id="b5a782ba5a"><path d="M 98.46875 98.171875 L 93.769531 104.90625 L 87.644531 100.632812 L 92.347656 93.898438 Z M 98.46875 98.171875 "/></clipPath><clipPath id="101a81c9ee"><path d="M 89 95 L 97 95 L 97 104 L 89 104 Z M 89 95 "/></clipPath><clipPath id="0e21a31c76"><path d="M 98.46875 98.171875 L 93.769531 104.90625 L 87.644531 100.632812 L 92.347656 93.898438 Z M 98.46875 98.171875 "/></clipPath><clipPath id="e8b43cc1e9"><path d="M 98.46875 98.171875 L 93.769531 104.90625 L 87.644531 100.632812 L 92.347656 93.898438 Z M 98.46875 98.171875 "/></clipPath><clipPath id="f15ddfc266"><path d="M 98.46875 98.171875 L 93.769531 104.90625 L 87.644531 100.632812 L 92.347656 93.898438 Z M 98.46875 98.171875 "/></clipPath><clipPath id="5cd9cc3ee6"><path d="M 91 101 L 93 101 L 93 103 L 91 103 Z M 91 101 "/></clipPath><clipPath id="3690288a62"><path d="M 98.46875 98.171875 L 93.769531 104.90625 L 87.644531 100.632812 L 92.347656 93.898438 Z M 98.46875 98.171875 "/></clipPath><clipPath id="9988d20021"><path d="M 98.46875 98.171875 L 93.769531 104.90625 L 87.644531 100.632812 L 92.347656 93.898438 Z M 98.46875 98.171875 "/></clipPath><clipPath id="54b14b84f8"><path d="M 98.46875 98.171875 L 93.769531 104.90625 L 87.644531 100.632812 L 92.347656 93.898438 Z M 98.46875 98.171875 "/></clipPath><clipPath id="88fee89cdc"><path d="M 89 95 L 96 95 L 96 103 L 89 103 Z M 89 95 "/></clipPath><clipPath id="87ebc9a495"><path d="M 98.46875 98.171875 L 93.769531 104.90625 L 87.644531 100.632812 L 92.347656 93.898438 Z M 98.46875 98.171875 "/></clipPath><clipPath id="6b20c6ad8a"><path d="M 98.46875 98.171875 L 93.769531 104.90625 L 87.644531 100.632812 L 92.347656 93.898438 Z M 98.46875 98.171875 "/></clipPath><clipPath id="aea68b0a6c"><path d="M 98.46875 98.171875 L 93.769531 104.90625 L 87.644531 100.632812 L 92.347656 93.898438 Z M 98.46875 98.171875 "/></clipPath></defs><g id="1e7121b9f3"><g clip-rule="nonzero" clip-path="url(#cf85540ef1)"><g clip-rule="nonzero" clip-path="url(#4ae44594a4)"><g clip-rule="nonzero" clip-path="url(#1053bb74e3)"><g clip-rule="nonzero" clip-path="url(#5094264686)"><path style=" stroke:none;fill-rule:nonzero;fill:#ffffff;fill-opacity:1;" d="M 13.851562 18.332031 L 14.207031 17.40625 L 13.242188 17.035156 L 13.597656 16.109375 L 13.113281 15.925781 L 13.464844 15 L 12.980469 14.8125 L 14.234375 11.542969 L 14.71875 11.730469 L 15.070312 10.800781 L 17.035156 11.554688 L 16.679688 12.480469 L 17.621094 12.839844 L 18.332031 10.984375 L 18.8125 11.171875 L 19.167969 10.246094 L 19.652344 10.429688 L 20.003906 9.503906 L 24.390625 11.179688 L 24.035156 12.109375 L 25.003906 12.480469 L 24.648438 13.402344 L 25.132812 13.589844 L 24.777344 14.515625 L 25.746094 14.886719 L 25.203125 16.304688 L 24.71875 16.121094 L 24.363281 17.046875 L 23.398438 16.675781 L 22.6875 18.527344 L 22.203125 18.34375 L 21.851562 19.269531 L 21.367188 19.082031 L 21.011719 20.011719 L 20.042969 19.640625 L 19.6875 20.566406 Z M 13.851562 18.332031 "/></g></g></g></g><g clip-rule="nonzero" clip-path="url(#20df42fe04)"><g clip-rule="nonzero" clip-path="url(#32a66a58ed)"><g clip-rule="nonzero" clip-path="url(#22a3e6aca8)"><g clip-rule="nonzero" clip-path="url(#209255ab79)"><path style=" stroke:none;fill-rule:nonzero;fill:#000000;fill-opacity:1;" d="M 25.394531 15.035156 L 25.039062 15.960938 L 24.554688 15.777344 L 24.199219 16.703125 L 23.71875 16.519531 L 23.71875 16.515625 L 23.234375 16.332031 L 22.878906 17.257812 L 22.878906 17.261719 L 22.527344 18.183594 L 22.042969 18 L 21.6875 18.925781 L 21.203125 18.738281 L 21.203125 18.742188 L 20.847656 19.667969 L 20.363281 19.480469 L 19.878906 19.296875 L 19.523438 20.222656 L 19.042969 20.039062 L 18.558594 19.851562 L 17.589844 19.484375 L 17.105469 19.296875 L 16.621094 19.113281 L 16.136719 18.925781 L 15.65625 18.742188 L 15.171875 18.558594 L 14.6875 18.371094 L 14.203125 18.1875 L 14.558594 17.257812 L 13.589844 16.890625 L 13.945312 15.964844 L 13.460938 15.777344 L 13.816406 14.851562 L 13.332031 14.667969 L 13.332031 14.664062 L 13.6875 13.742188 L 13.6875 13.738281 L 14.039062 12.8125 L 14.394531 11.886719 L 14.878906 12.074219 L 15.234375 11.144531 L 15.71875 11.332031 L 16.199219 11.515625 L 16.203125 11.515625 L 16.683594 11.699219 L 16.332031 12.628906 L 16.816406 12.8125 L 17.300781 13 L 17.785156 13.183594 L 18.136719 12.257812 L 18.492188 11.328125 L 18.976562 11.515625 L 19.328125 10.589844 L 19.8125 10.773438 L 20.167969 9.847656 L 20.652344 10.03125 L 21.136719 10.21875 L 21.621094 10.402344 L 22.105469 10.589844 L 22.585938 10.773438 L 22.589844 10.773438 L 23.070312 10.957031 L 23.554688 11.144531 L 24.039062 11.328125 L 23.683594 12.257812 L 24.652344 12.625 L 24.300781 13.550781 L 24.78125 13.734375 L 24.785156 13.738281 L 24.429688 14.664062 L 24.910156 14.847656 Z M 25.394531 15.035156 "/></g></g></g></g><g clip-rule="nonzero" clip-path="url(#2a9836ef41)"><g clip-rule="nonzero" clip-path="url(#1a2a22d55d)"><g clip-rule="nonzero" clip-path="url(#53fd6a1326)"><g clip-rule="nonzero" clip-path="url(#07705ba184)"><path style=" stroke:none;fill-rule:nonzero;fill:#f77339;fill-opacity:1;" d="M 23.460938 14.292969 L 24.429688 14.664062 L 24.074219 15.589844 L 23.105469 15.21875 Z M 23.460938 14.292969 "/></g></g></g></g><g clip-rule="nonzero" clip-path="url(#e215418405)"><g clip-rule="nonzero" clip-path="url(#19b478aab9)"><g clip-rule="nonzero" clip-path="url(#d085f75e3e)"><g clip-rule="nonzero" clip-path="url(#cc5bba9e8e)"><path style=" stroke:none;fill-rule:nonzero;fill:#fbd502;fill-opacity:1;" d="M 23.332031 13.179688 L 23.683594 12.257812 L 23.199219 12.070312 L 22.714844 11.886719 L 22.234375 11.699219 L 22.230469 11.699219 L 21.75 11.515625 L 21.265625 11.332031 L 20.78125 11.144531 L 20.296875 10.960938 L 19.945312 11.882812 L 19.460938 11.699219 L 19.105469 12.625 L 18.75 13.554688 L 19.234375 13.738281 L 18.878906 14.664062 L 18.394531 14.480469 L 17.914062 14.296875 L 17.429688 14.109375 L 16.945312 13.925781 L 16.460938 13.738281 L 15.976562 13.554688 L 16.332031 12.628906 L 15.847656 12.441406 L 15.363281 12.257812 L 15.007812 13.183594 L 14.65625 14.109375 L 14.65625 14.113281 L 14.300781 15.035156 L 14.785156 15.21875 L 14.785156 15.222656 L 14.78125 15.222656 L 14.429688 16.148438 L 14.910156 16.335938 L 14.558594 17.257812 L 15.042969 17.445312 L 15.527344 17.628906 L 16.011719 17.816406 L 16.492188 18 L 16.496094 18 L 16.976562 18.183594 L 17.460938 18.371094 L 17.945312 18.554688 L 18.429688 18.742188 L 18.914062 18.925781 L 19.394531 19.109375 L 19.398438 19.113281 L 19.878906 19.296875 L 20.214844 18.425781 L 20.261719 18.382812 L 20.71875 18.554688 L 21.074219 17.628906 L 21.558594 17.8125 L 21.914062 16.886719 L 22.265625 15.960938 L 21.78125 15.777344 L 22.136719 14.851562 L 23.105469 15.21875 L 23.816406 13.367188 Z M 22.492188 13.921875 L 22.007812 13.738281 L 22.363281 12.8125 L 22.847656 12.996094 Z M 22.492188 13.921875 "/></g></g></g></g><g clip-rule="nonzero" clip-path="url(#4685e7cba3)"><g clip-rule="nonzero" clip-path="url(#3ca6abde58)"><g clip-rule="nonzero" clip-path="url(#41a37db1c4)"><g clip-rule="nonzero" clip-path="url(#b53c9d6bf5)"><path style=" stroke:none;fill-rule:nonzero;fill:#ffffff;fill-opacity:1;" d="M 34.601562 72.082031 L 33.671875 71.742188 L 33.335938 72.652344 L 32.40625 72.308594 L 32.238281 72.765625 L 31.308594 72.425781 L 31.140625 72.882812 L 27.859375 71.675781 L 28.027344 71.21875 L 27.09375 70.878906 L 27.773438 69.027344 L 28.707031 69.371094 L 29.03125 68.484375 L 27.167969 67.800781 L 27.335938 67.347656 L 26.40625 67.003906 L 26.574219 66.546875 L 25.644531 66.207031 L 27.160156 62.074219 L 28.09375 62.417969 L 28.425781 61.503906 L 29.355469 61.84375 L 29.523438 61.390625 L 30.453125 61.734375 L 30.789062 60.820312 L 32.210938 61.34375 L 32.046875 61.800781 L 32.976562 62.140625 L 32.640625 63.050781 L 34.5 63.734375 L 34.332031 64.191406 L 35.261719 64.53125 L 35.09375 64.988281 L 36.027344 65.332031 L 35.691406 66.242188 L 36.621094 66.585938 Z M 34.601562 72.082031 "/></g></g></g></g><g clip-rule="nonzero" clip-path="url(#3275d0d19f)"><g clip-rule="nonzero" clip-path="url(#dba10f8a72)"><g clip-rule="nonzero" clip-path="url(#a3ce24ac0f)"><g clip-rule="nonzero" clip-path="url(#49e911c860)"><path style=" stroke:none;fill-rule:nonzero;fill:#000000;fill-opacity:1;" d="M 30.945312 61.152344 L 31.878906 61.496094 L 31.710938 61.949219 L 32.640625 62.292969 L 32.472656 62.746094 L 32.472656 62.75 L 32.304688 63.203125 L 33.234375 63.542969 L 33.238281 63.546875 L 34.164062 63.886719 L 34 64.34375 L 34.925781 64.683594 L 34.757812 65.140625 L 34.761719 65.140625 L 35.691406 65.480469 L 35.355469 66.394531 L 36.285156 66.734375 L 36.117188 67.191406 L 35.953125 67.648438 L 35.785156 68.101562 L 35.113281 69.929688 L 34.945312 70.382812 L 34.78125 70.839844 L 34.613281 71.292969 L 34.445312 71.75 L 33.511719 71.410156 L 33.347656 71.863281 L 33.347656 71.867188 L 33.179688 72.320312 L 32.25 71.980469 L 32.082031 72.433594 L 31.152344 72.09375 L 30.984375 72.550781 L 30.980469 72.546875 L 30.054688 72.207031 L 29.125 71.867188 L 28.195312 71.523438 L 28.363281 71.070312 L 27.429688 70.726562 L 27.597656 70.269531 L 27.765625 69.816406 L 27.765625 69.8125 L 27.933594 69.359375 L 28.863281 69.703125 L 29.367188 68.332031 L 28.433594 67.992188 L 27.503906 67.648438 L 27.671875 67.195312 L 26.742188 66.855469 L 26.910156 66.398438 L 25.980469 66.054688 L 26.148438 65.597656 L 26.3125 65.144531 L 26.648438 64.230469 L 26.816406 63.777344 L 26.816406 63.773438 L 26.984375 63.320312 L 27.320312 62.40625 L 28.25 62.75 L 28.585938 61.835938 L 29.515625 62.179688 L 29.679688 61.722656 L 30.613281 62.0625 L 30.777344 61.609375 Z M 30.945312 61.152344 "/></g></g></g></g><g clip-rule="nonzero" clip-path="url(#5aebfb266a)"><g clip-rule="nonzero" clip-path="url(#17f6c0be62)"><g clip-rule="nonzero" clip-path="url(#e1d1ec8a4d)"><g clip-rule="nonzero" clip-path="url(#6b62d61adf)"><path style=" stroke:none;fill-rule:nonzero;fill:#f77339;fill-opacity:1;" d="M 30.277344 62.976562 L 30.613281 62.0625 L 31.542969 62.40625 L 31.207031 63.316406 Z M 30.277344 62.976562 "/></g></g></g></g><g clip-rule="nonzero" clip-path="url(#2f0ba43a0d)"><g clip-rule="nonzero" clip-path="url(#082cb6aa8f)"><g clip-rule="nonzero" clip-path="url(#6ede4764a2)"><g clip-rule="nonzero" clip-path="url(#a7a462c613)"><path style=" stroke:none;fill-rule:nonzero;fill:#fbd502;fill-opacity:1;" d="M 29.179688 63.089844 L 28.25 62.75 L 28.082031 63.207031 L 27.914062 63.660156 L 27.746094 64.117188 L 27.582031 64.574219 L 27.414062 65.027344 L 27.078125 65.941406 L 28.007812 66.28125 L 27.839844 66.738281 L 28.769531 67.082031 L 29.699219 67.421875 L 29.867188 66.964844 L 30.800781 67.308594 L 30.632812 67.765625 L 30.464844 68.21875 L 30.128906 69.132812 L 29.960938 69.585938 L 29.792969 70.042969 L 28.863281 69.703125 L 28.695312 70.15625 L 28.527344 70.613281 L 29.460938 70.953125 L 30.390625 71.296875 L 31.316406 71.636719 L 31.484375 71.183594 L 31.484375 71.179688 L 31.488281 71.179688 L 31.488281 71.183594 L 32.417969 71.523438 L 32.585938 71.066406 L 33.511719 71.410156 L 34.015625 70.039062 L 34.183594 69.585938 L 34.519531 68.671875 L 34.6875 68.21875 L 34.851562 67.761719 L 35.019531 67.304688 L 35.1875 66.851562 L 35.1875 66.847656 L 35.355469 66.394531 L 34.480469 66.074219 L 34.4375 66.027344 L 34.59375 65.597656 L 33.664062 65.253906 L 33.660156 65.253906 L 33.828125 64.796875 L 32.898438 64.457031 L 31.972656 64.117188 L 31.804688 64.570312 L 30.871094 64.230469 L 31.207031 63.316406 L 30.277344 62.976562 L 29.347656 62.632812 Z M 29.941406 63.886719 L 29.773438 64.34375 L 28.84375 64.003906 L 29.011719 63.546875 Z M 29.941406 63.886719 "/></g></g></g></g><g clip-rule="nonzero" clip-path="url(#11d81f2028)"><g clip-rule="nonzero" clip-path="url(#e8a567dc0c)"><g transform="matrix(1,0,0,1,72,26)"><g clip-path="url(#e69b6c0b13)"><g clip-rule="nonzero" clip-path="url(#90a1fa79b9)"><g clip-rule="nonzero" clip-path="url(#09915e5ce8)"><g clip-rule="nonzero" clip-path="url(#c543f0ce97)"><g clip-rule="nonzero" clip-path="url(#e8034eb531)"><path style=" stroke:none;fill-rule:nonzero;fill:#ffffff;fill-opacity:1;" d="M 11.039062 5.097656 L 10.304688 4.828125 L 10.574219 4.101562 L 9.84375 3.832031 L 9.976562 3.46875 L 9.246094 3.199219 L 9.378906 2.835938 L 6.800781 1.886719 L 6.664062 2.25 L 5.933594 1.984375 L 5.390625 3.464844 L 6.121094 3.730469 L 5.863281 4.441406 L 4.398438 3.902344 L 4.265625 4.265625 L 3.535156 3.996094 L 3.402344 4.363281 L 2.667969 4.09375 L 1.457031 7.398438 L 2.1875 7.667969 L 1.917969 8.398438 L 2.648438 8.667969 L 2.515625 9.03125 L 3.246094 9.296875 L 2.980469 10.027344 L 4.097656 10.441406 L 4.230469 10.074219 L 4.964844 10.34375 L 5.230469 9.613281 L 6.691406 10.152344 L 6.828125 9.785156 L 7.558594 10.054688 L 7.691406 9.691406 L 8.421875 9.957031 L 8.691406 9.226562 L 9.421875 9.496094 Z M 11.039062 5.097656 "/></g></g></g></g><g clip-rule="nonzero" clip-path="url(#586b3cc381)"><g clip-rule="nonzero" clip-path="url(#f6c0aa1b07)"><g clip-rule="nonzero" clip-path="url(#09f9766d1d)"><g clip-rule="nonzero" clip-path="url(#1a1f3a360c)"><path style=" stroke:none;fill-rule:nonzero;fill:#000000;fill-opacity:1;" d="M 3.242188 9.90625 L 3.976562 10.175781 L 4.109375 9.808594 L 4.839844 10.078125 L 4.972656 9.714844 L 4.976562 9.714844 L 5.109375 9.351562 L 5.839844 9.617188 L 6.570312 9.886719 L 6.703125 9.523438 L 7.433594 9.789062 L 7.566406 9.425781 L 7.570312 9.425781 L 8.300781 9.695312 L 8.433594 9.328125 L 8.566406 8.964844 L 9.300781 9.230469 L 9.699219 8.140625 L 9.835938 7.773438 L 9.96875 7.410156 L 10.101562 7.042969 L 10.238281 6.679688 L 10.371094 6.316406 L 10.503906 5.949219 L 10.640625 5.585938 L 10.773438 5.21875 L 10.042969 4.953125 L 10.175781 4.589844 L 10.175781 4.585938 L 10.308594 4.222656 L 9.578125 3.957031 L 9.714844 3.589844 L 9.710938 3.589844 L 8.980469 3.320312 L 9.117188 2.957031 L 9.113281 2.957031 L 8.386719 2.6875 L 8.382812 2.6875 L 7.652344 2.417969 L 6.921875 2.152344 L 6.789062 2.515625 L 6.054688 2.246094 L 5.921875 2.613281 L 5.65625 3.339844 L 6.386719 3.609375 L 6.253906 3.972656 L 6.117188 4.339844 L 5.984375 4.703125 L 5.253906 4.4375 L 4.519531 4.167969 L 4.386719 4.53125 L 3.65625 4.261719 L 3.523438 4.628906 L 2.792969 4.359375 L 2.65625 4.722656 L 2.523438 5.089844 L 2.390625 5.453125 L 2.253906 5.820312 L 1.988281 6.546875 L 1.855469 6.914062 L 1.71875 7.277344 L 2.453125 7.546875 L 2.316406 7.910156 L 2.183594 8.277344 L 2.914062 8.542969 L 2.78125 8.90625 L 2.78125 8.910156 L 3.511719 9.179688 L 3.378906 9.542969 Z M 3.242188 9.90625 "/></g></g></g></g><g clip-rule="nonzero" clip-path="url(#ed326c22b7)"><g clip-rule="nonzero" clip-path="url(#2744ec829b)"><g clip-rule="nonzero" clip-path="url(#2ec9946d15)"><g clip-rule="nonzero" clip-path="url(#d20d6a040a)"><path style=" stroke:none;fill-rule:nonzero;fill:#f77339;fill-opacity:1;" d="M 3.78125 8.449219 L 3.511719 9.179688 L 4.242188 9.445312 L 4.511719 8.714844 Z M 3.78125 8.449219 "/></g></g></g></g><g clip-rule="nonzero" clip-path="url(#31d3523650)"><g clip-rule="nonzero" clip-path="url(#ac5c77060d)"><g clip-rule="nonzero" clip-path="url(#46e44155e0)"><g clip-rule="nonzero" clip-path="url(#8009030b5a)"><path style=" stroke:none;fill-rule:nonzero;fill:#fbd502;fill-opacity:1;" d="M 3.183594 7.8125 L 2.453125 7.546875 L 2.585938 7.179688 L 2.851562 6.453125 L 2.855469 6.449219 L 3.253906 5.359375 L 3.390625 4.992188 L 4.121094 5.261719 L 4.253906 4.894531 L 4.984375 5.164062 L 5.71875 5.433594 L 5.582031 5.796875 L 6.3125 6.066406 L 6.449219 5.703125 L 6.582031 5.339844 L 6.714844 4.972656 L 6.851562 4.609375 L 6.984375 4.242188 L 7.117188 3.878906 L 6.386719 3.609375 L 6.652344 2.882812 L 7.386719 3.148438 L 8.117188 3.417969 L 8.84375 3.6875 L 8.710938 4.050781 L 8.710938 4.054688 L 8.714844 4.050781 L 9.445312 4.320312 L 9.3125 4.683594 L 10.042969 4.953125 L 9.90625 5.316406 L 9.773438 5.683594 L 9.640625 6.046875 L 9.503906 6.410156 L 9.371094 6.773438 L 9.238281 7.140625 L 9.105469 7.503906 L 8.96875 7.871094 L 8.703125 8.597656 L 8.703125 8.601562 L 8.566406 8.964844 L 7.882812 8.710938 L 7.832031 8.714844 L 7.703125 9.0625 L 6.972656 8.792969 L 6.96875 8.792969 L 6.835938 9.15625 L 6.105469 8.886719 L 5.375 8.621094 L 5.511719 8.253906 L 4.777344 7.988281 L 4.511719 8.714844 L 3.78125 8.449219 L 3.046875 8.179688 Z M 4.046875 7.71875 L 4.179688 7.351562 L 3.453125 7.085938 L 3.316406 7.449219 Z M 4.046875 7.71875 "/></g></g></g></g></g></g></g></g><g clip-rule="nonzero" clip-path="url(#d6e709aef7)"><g clip-rule="nonzero" clip-path="url(#02a3184e9a)"><g clip-rule="nonzero" clip-path="url(#d8b94a6281)"><g clip-rule="nonzero" clip-path="url(#b5a782ba5a)"><path style=" stroke:none;fill-rule:nonzero;fill:#ffffff;fill-opacity:1;" d="M 91.539062 95.070312 L 92.117188 95.472656 L 92.527344 94.890625 L 93.105469 95.296875 L 93.308594 95.003906 L 93.890625 95.410156 L 94.09375 95.117188 L 96.144531 96.546875 L 95.9375 96.839844 L 96.519531 97.246094 L 95.691406 98.429688 L 95.109375 98.023438 L 94.714844 98.589844 L 95.875 99.402344 L 95.671875 99.695312 L 96.253906 100.097656 L 96.050781 100.390625 L 96.628906 100.796875 L 94.78125 103.441406 L 94.203125 103.035156 L 93.792969 103.621094 L 93.214844 103.21875 L 93.011719 103.507812 L 92.429688 103.101562 L 92.023438 103.6875 L 91.132812 103.066406 L 91.335938 102.773438 L 90.757812 102.367188 L 91.164062 101.785156 L 90.003906 100.976562 L 90.207031 100.683594 L 89.628906 100.277344 L 89.832031 99.988281 L 89.25 99.582031 L 89.660156 98.996094 L 89.078125 98.589844 Z M 91.539062 95.070312 "/></g></g></g></g><g clip-rule="nonzero" clip-path="url(#101a81c9ee)"><g clip-rule="nonzero" clip-path="url(#0e21a31c76)"><g clip-rule="nonzero" clip-path="url(#e8b43cc1e9)"><g clip-rule="nonzero" clip-path="url(#f15ddfc266)"><path style=" stroke:none;fill-rule:nonzero;fill:#000000;fill-opacity:1;" d="M 91.976562 103.425781 L 91.394531 103.019531 L 91.597656 102.726562 L 91.019531 102.320312 L 91.222656 102.03125 L 91.222656 102.027344 L 91.425781 101.738281 L 90.847656 101.332031 L 90.84375 101.332031 L 90.265625 100.929688 L 90.46875 100.636719 L 89.890625 100.230469 L 90.09375 99.9375 L 89.511719 99.535156 L 89.71875 99.242188 L 89.921875 98.949219 L 89.339844 98.542969 L 89.542969 98.25 L 89.746094 97.960938 L 89.953125 97.667969 L 90.359375 97.082031 L 90.5625 96.792969 L 90.769531 96.5 L 91.175781 95.914062 L 91.378906 95.625 L 91.582031 95.332031 L 92.164062 95.738281 L 92.570312 95.152344 L 93.152344 95.558594 L 93.355469 95.265625 L 93.9375 95.671875 L 94.140625 95.378906 L 94.71875 95.785156 L 95.300781 96.1875 L 95.878906 96.59375 L 95.675781 96.886719 L 96.257812 97.292969 L 96.054688 97.585938 L 95.851562 97.875 L 95.847656 97.875 L 95.644531 98.167969 L 95.066406 97.761719 L 94.863281 98.054688 L 94.65625 98.347656 L 94.453125 98.640625 L 95.035156 99.042969 L 95.613281 99.449219 L 95.410156 99.742188 L 95.992188 100.144531 L 95.789062 100.4375 L 96.367188 100.84375 L 96.164062 101.136719 L 95.960938 101.425781 L 95.753906 101.71875 L 95.347656 102.304688 L 95.144531 102.59375 L 94.738281 103.179688 L 94.15625 102.773438 L 93.953125 103.066406 L 93.746094 103.359375 L 93.167969 102.953125 L 92.964844 103.246094 L 92.382812 102.839844 Z M 91.976562 103.425781 "/></g></g></g></g><g clip-rule="nonzero" clip-path="url(#5cd9cc3ee6)"><g clip-rule="nonzero" clip-path="url(#3690288a62)"><g clip-rule="nonzero" clip-path="url(#9988d20021)"><g clip-rule="nonzero" clip-path="url(#54b14b84f8)"><path style=" stroke:none;fill-rule:nonzero;fill:#f77339;fill-opacity:1;" d="M 92.792969 102.257812 L 92.382812 102.839844 L 91.800781 102.4375 L 92.210938 101.851562 Z M 92.792969 102.257812 "/></g></g></g></g><g clip-rule="nonzero" clip-path="url(#88fee89cdc)"><g clip-rule="nonzero" clip-path="url(#87ebc9a495)"><g clip-rule="nonzero" clip-path="url(#6b20c6ad8a)"><g clip-rule="nonzero" clip-path="url(#aea68b0a6c)"><path style=" stroke:none;fill-rule:nonzero;fill:#fbd502;fill-opacity:1;" d="M 93.578125 102.371094 L 94.15625 102.773438 L 94.359375 102.480469 L 94.5625 102.191406 L 94.765625 101.898438 L 94.769531 101.898438 L 94.972656 101.605469 L 95.175781 101.316406 L 95.582031 100.730469 L 95.003906 100.324219 L 95.207031 100.03125 L 94.625 99.628906 L 94.046875 99.222656 L 93.84375 99.515625 L 93.261719 99.109375 L 93.464844 98.816406 L 93.667969 98.527344 L 93.871094 98.234375 L 94.078125 97.941406 L 94.484375 97.355469 L 95.066406 97.761719 L 95.269531 97.472656 L 95.269531 97.46875 L 95.472656 97.179688 L 94.890625 96.773438 L 94.3125 96.367188 L 93.734375 95.964844 L 93.53125 96.253906 L 93.527344 96.257812 L 93.527344 96.253906 L 92.949219 95.847656 L 92.742188 96.140625 L 92.164062 95.738281 L 91.960938 96.027344 L 91.757812 96.320312 L 91.550781 96.613281 L 91.347656 96.90625 L 91.144531 97.195312 L 90.738281 97.78125 L 90.53125 98.074219 L 90.328125 98.367188 L 90.125 98.65625 L 90.125 98.660156 L 89.921875 98.949219 L 90.464844 99.328125 L 90.488281 99.371094 L 90.296875 99.644531 L 90.878906 100.050781 L 90.675781 100.34375 L 91.253906 100.75 L 91.832031 101.152344 L 92.039062 100.863281 L 92.617188 101.265625 L 92.210938 101.851562 L 92.792969 102.257812 L 93.371094 102.664062 Z M 93.199219 101.671875 L 93.402344 101.378906 L 93.984375 101.785156 L 93.777344 102.078125 Z M 93.199219 101.671875 "/></g></g></g></g></g></svg>