<svg xmlns="http://www.w3.org/2000/svg" xmlns:xlink="http://www.w3.org/1999/xlink" width="150" zoomAndPan="magnify" viewBox="0 0 112.5 112.499997" height="150" preserveAspectRatio="xMidYMid meet" version="1.2"><defs><clipPath id="b36689f2e3"><path d="M 5 5 L 21 5 L 21 20 L 5 20 Z M 5 5 "/></clipPath><clipPath id="d2c72e0e7a"><path d="M 10.773438 1.730469 L 22.792969 9.273438 L 15.644531 20.65625 L 3.628906 13.113281 Z M 10.773438 1.730469 "/></clipPath><clipPath id="d2481f4eda"><path d="M 10.773438 1.730469 L 22.792969 9.273438 L 15.644531 20.65625 L 3.628906 13.113281 Z M 10.773438 1.730469 "/></clipPath><clipPath id="aa4c77eaf3"><path d="M 70 67 L 83 67 L 83 80 L 70 80 Z M 70 67 "/></clipPath><clipPath id="8f74d39398"><path d="M 74.515625 63.707031 L 85.269531 70.453125 L 78.917969 80.574219 L 68.164062 73.824219 Z M 74.515625 63.707031 "/></clipPath><clipPath id="b8c538e046"><path d="M 74.515625 63.707031 L 85.269531 70.453125 L 78.917969 80.574219 L 68.164062 73.824219 Z M 74.515625 63.707031 "/></clipPath><clipPath id="bfe2d10909"><path d="M 8 66 L 41 66 L 41 98 L 8 98 Z M 8 66 "/></clipPath><clipPath id="cb679ddcdd"><path d="M 19.726562 58.09375 L 46.921875 75.164062 L 30.644531 101.09375 L 3.453125 84.023438 Z M 19.726562 58.09375 "/></clipPath><clipPath id="2e9daea581"><path d="M 19.726562 58.09375 L 46.921875 75.164062 L 30.644531 101.09375 L 3.453125 84.023438 Z M 19.726562 58.09375 "/></clipPath><clipPath id="bc932d9e4e"><path d="M 72 12 L 103 12 L 103 42 L 72 42 Z M 72 12 "/></clipPath><clipPath id="cfe204b40c"><path d="M 68.203125 19.742188 L 94.117188 6.457031 L 106.722656 31.042969 L 80.808594 44.328125 Z M 68.203125 19.742188 "/></clipPath><clipPath id="1a1f81f731"><path d="M 68.203125 19.742188 L 94.117188 6.457031 L 106.722656 31.042969 L 80.808594 44.328125 Z M 68.203125 19.742188 "/></clipPath></defs><g id="8fcfccb590"><g clip-rule="nonzero" clip-path="url(#b36689f2e3)"><g clip-rule="nonzero" clip-path="url(#d2c72e0e7a)"><g clip-rule="nonzero" clip-path="url(#d2481f4eda)"><path style=" stroke:none;fill-rule:nonzero;fill:#7fff00;fill-opacity:1;" d="M 18.476562 12.484375 L 18.582031 12.316406 L 16.546875 11.039062 L 16.652344 10.867188 L 15.972656 10.441406 L 16.183594 10.101562 L 16.015625 9.996094 L 16.230469 9.65625 L 16.058594 9.550781 L 16.378906 9.039062 L 16.210938 8.933594 L 16.425781 8.59375 L 16.257812 8.488281 L 16.578125 7.976562 L 16.40625 7.871094 L 16.621094 7.53125 L 16.453125 7.425781 L 16.773438 6.917969 L 16.601562 6.8125 L 16.816406 6.46875 L 16.648438 6.363281 L 16.96875 5.851562 L 16.800781 5.746094 L 16.90625 5.578125 L 16.738281 5.472656 L 16.628906 5.640625 L 16.460938 5.535156 L 16.144531 6.042969 L 15.972656 5.9375 L 15.761719 6.277344 L 15.589844 6.171875 L 15.273438 6.679688 L 15.101562 6.574219 L 14.890625 6.914062 L 14.722656 6.808594 L 14.402344 7.320312 L 14.234375 7.210938 L 14.019531 7.550781 L 13.851562 7.445312 L 13.53125 7.957031 L 13.363281 7.847656 L 13.148438 8.191406 L 12.980469 8.082031 L 12.765625 8.425781 L 12.238281 8.09375 L 12.132812 8.261719 L 9.753906 6.769531 L 9.648438 6.941406 L 8.117188 5.980469 L 8.011719 6.148438 L 8.179688 6.253906 L 8.074219 6.421875 L 8.242188 6.53125 L 8.136719 6.699219 L 8.308594 6.804688 L 8.199219 6.972656 L 8.371094 7.078125 L 8.261719 7.246094 L 8.433594 7.355469 L 8.328125 7.523438 L 8.667969 7.734375 L 8.5625 7.90625 L 8.730469 8.011719 L 8.625 8.179688 L 8.792969 8.285156 L 8.6875 8.453125 L 8.855469 8.558594 L 8.75 8.730469 L 9.089844 8.941406 L 8.984375 9.113281 L 9.152344 9.21875 L 9.046875 9.386719 L 9.214844 9.492188 L 9.109375 9.660156 L 9.277344 9.765625 L 9.171875 9.9375 L 9.339844 10.042969 L 9.234375 10.210938 L 9.574219 10.425781 L 9.46875 10.59375 L 9.636719 10.699219 L 9.105469 11.546875 L 8.9375 11.441406 L 8.507812 12.121094 L 8.339844 12.015625 L 7.914062 12.695312 L 7.746094 12.589844 L 7.316406 13.269531 L 7.148438 13.164062 L 6.722656 13.84375 L 6.554688 13.738281 L 6.125 14.417969 L 5.957031 14.3125 L 5.851562 14.480469 L 6.191406 14.695312 L 6.296875 14.527344 L 6.636719 14.738281 L 6.742188 14.570312 L 7.082031 14.785156 L 7.191406 14.613281 L 7.359375 14.722656 L 7.464844 14.550781 L 7.804688 14.765625 L 7.910156 14.597656 L 8.078125 14.703125 L 8.183594 14.535156 L 8.523438 14.746094 L 8.632812 14.578125 L 8.800781 14.683594 L 8.90625 14.515625 L 9.246094 14.730469 L 9.351562 14.558594 L 9.519531 14.667969 L 9.625 14.496094 L 9.964844 14.710938 L 10.074219 14.542969 L 10.414062 14.753906 L 10.519531 14.585938 L 10.6875 14.691406 L 10.792969 14.523438 L 11.300781 14.84375 L 11.195312 15.011719 L 11.367188 15.117188 L 11.257812 15.285156 L 11.597656 15.5 L 11.492188 15.667969 L 11.664062 15.773438 L 11.554688 15.945312 L 11.894531 16.15625 L 11.789062 16.328125 L 12.128906 16.539062 L 12.023438 16.707031 L 12.191406 16.816406 L 12.085938 16.984375 L 12.4375 17.203125 L 12.332031 17.371094 L 12.5 17.476562 L 12.394531 17.644531 L 12.734375 17.859375 L 12.628906 18.027344 L 12.796875 18.132812 L 12.691406 18.304688 L 13.03125 18.515625 L 12.925781 18.6875 L 13.265625 18.898438 L 13.160156 19.066406 L 13.5 19.28125 L 13.605469 19.113281 L 13.4375 19.007812 L 13.863281 18.328125 L 13.695312 18.21875 L 14.121094 17.539062 L 13.953125 17.433594 L 14.378906 16.753906 L 14.210938 16.648438 L 14.636719 15.96875 L 14.46875 15.863281 L 14.894531 15.183594 L 14.726562 15.078125 L 15.257812 14.226562 L 15.429688 14.332031 L 15.535156 14.164062 L 15.875 14.378906 L 15.980469 14.210938 L 16.148438 14.316406 L 16.253906 14.144531 L 16.421875 14.253906 L 16.53125 14.082031 L 16.699219 14.1875 L 16.804688 14.019531 L 16.972656 14.125 L 17.078125 13.957031 L 17.246094 14.0625 L 17.355469 13.894531 L 17.695312 14.109375 L 17.800781 13.9375 L 17.96875 14.046875 L 18.074219 13.875 L 18.242188 13.984375 L 18.347656 13.8125 L 18.691406 14.027344 L 18.796875 13.859375 L 18.964844 13.964844 L 19.070312 13.796875 L 19.238281 13.902344 L 19.34375 13.734375 L 19.515625 13.839844 L 19.621094 13.667969 L 19.789062 13.777344 L 19.894531 13.605469 L 20.0625 13.710938 L 20.167969 13.542969 L 18.480469 12.484375 Z M 16.988281 12.96875 L 16.820312 12.863281 L 16.714844 13.03125 L 16.546875 12.925781 L 16.441406 13.097656 L 16.101562 12.882812 L 15.992188 13.050781 L 15.824219 12.945312 L 15.71875 13.113281 L 15.550781 13.007812 L 15.445312 13.175781 L 15.277344 13.070312 L 15.167969 13.238281 L 14.824219 13.023438 L 14.71875 13.191406 L 14.550781 13.085938 L 14.445312 13.253906 L 14.273438 13.148438 L 13.847656 13.828125 L 14.015625 13.933594 L 13.585938 14.621094 L 13.753906 14.726562 L 13.328125 15.410156 L 13.496094 15.515625 L 13.175781 16.023438 L 13.007812 15.917969 L 13.113281 15.75 L 12.773438 15.535156 L 12.878906 15.367188 L 12.539062 15.152344 L 12.644531 14.984375 L 12.476562 14.878906 L 12.582031 14.710938 L 12.242188 14.496094 L 12.347656 14.328125 L 12.179688 14.222656 L 12.285156 14.050781 L 11.945312 13.839844 L 12.050781 13.671875 L 11.542969 13.351562 L 11.4375 13.519531 L 11.097656 13.304688 L 10.992188 13.476562 L 10.824219 13.367188 L 10.714844 13.539062 L 10.375 13.324219 L 10.269531 13.492188 L 10.101562 13.386719 L 9.996094 13.554688 L 9.65625 13.34375 L 9.550781 13.511719 L 9.382812 13.40625 L 9.273438 13.574219 L 8.933594 13.359375 L 9.253906 12.851562 L 9.421875 12.957031 L 9.953125 12.109375 L 10.121094 12.214844 L 10.441406 11.703125 L 10.609375 11.808594 L 11.039062 11.128906 L 10.867188 11.023438 L 10.976562 10.855469 L 10.804688 10.75 L 10.910156 10.582031 L 10.570312 10.367188 L 10.675781 10.199219 L 10.507812 10.09375 L 10.613281 9.921875 L 10.445312 9.816406 L 10.550781 9.648438 L 10.382812 9.542969 L 10.488281 9.375 L 10.320312 9.269531 L 10.425781 9.097656 L 10.085938 8.886719 L 10.191406 8.71875 L 10.023438 8.609375 L 10.128906 8.441406 L 11.316406 9.1875 L 11.425781 9.019531 L 12.78125 9.871094 L 12.996094 9.53125 L 13.164062 9.636719 L 13.378906 9.296875 L 13.546875 9.402344 L 13.867188 8.894531 L 14.035156 9 L 14.25 8.660156 L 14.417969 8.765625 L 14.738281 8.257812 L 14.90625 8.363281 L 15.117188 8.023438 L 15.289062 8.128906 L 15.074219 8.46875 L 15.242188 8.574219 L 14.921875 9.085938 L 15.09375 9.191406 L 14.878906 9.53125 L 15.046875 9.636719 L 14.726562 10.144531 L 14.898438 10.25 L 14.683594 10.589844 L 14.851562 10.699219 L 14.640625 11.039062 L 15.996094 11.890625 L 15.890625 12.058594 L 17.078125 12.804688 L 16.980469 12.964844 Z M 16.988281 12.96875 "/></g></g></g><g clip-rule="nonzero" clip-path="url(#aa4c77eaf3)"><g clip-rule="nonzero" clip-path="url(#8f74d39398)"><g clip-rule="nonzero" clip-path="url(#b8c538e046)"><path style=" stroke:none;fill-rule:nonzero;fill:#35acd6;fill-opacity:1;" d="M 81.335938 73.226562 L 81.429688 73.078125 L 79.625 71.945312 L 79.71875 71.796875 L 79.117188 71.417969 L 79.304688 71.117188 L 79.15625 71.023438 L 79.34375 70.722656 L 79.195312 70.628906 L 79.480469 70.175781 L 79.328125 70.082031 L 79.519531 69.78125 L 79.371094 69.6875 L 79.652344 69.234375 L 79.503906 69.140625 L 79.691406 68.839844 L 79.542969 68.746094 L 79.824219 68.296875 L 79.675781 68.203125 L 79.863281 67.902344 L 79.714844 67.808594 L 80 67.355469 L 79.851562 67.261719 L 79.945312 67.113281 L 79.792969 67.019531 L 79.699219 67.167969 L 79.550781 67.074219 L 79.269531 67.523438 L 79.121094 67.429688 L 78.929688 67.730469 L 78.78125 67.636719 L 78.5 68.089844 L 78.347656 67.996094 L 78.160156 68.296875 L 78.011719 68.203125 L 77.726562 68.652344 L 77.578125 68.558594 L 77.390625 68.859375 L 77.238281 68.765625 L 76.957031 69.214844 L 76.808594 69.121094 L 76.617188 69.425781 L 76.46875 69.332031 L 76.277344 69.632812 L 75.8125 69.339844 L 75.71875 69.488281 L 73.613281 68.167969 L 73.519531 68.316406 L 72.164062 67.46875 L 72.070312 67.617188 L 72.222656 67.710938 L 72.128906 67.859375 L 72.277344 67.953125 L 72.183594 68.105469 L 72.332031 68.199219 L 72.238281 68.347656 L 72.386719 68.441406 L 72.292969 68.589844 L 72.445312 68.683594 L 72.351562 68.832031 L 72.652344 69.023438 L 72.558594 69.171875 L 72.707031 69.265625 L 72.613281 69.414062 L 72.761719 69.507812 L 72.667969 69.660156 L 72.816406 69.753906 L 72.722656 69.902344 L 73.023438 70.089844 L 72.929688 70.238281 L 73.082031 70.332031 L 72.988281 70.484375 L 73.136719 70.578125 L 73.042969 70.726562 L 73.191406 70.820312 L 73.097656 70.96875 L 73.246094 71.0625 L 73.152344 71.214844 L 73.453125 71.402344 L 73.359375 71.550781 L 73.511719 71.644531 L 73.039062 72.398438 L 72.890625 72.304688 L 72.511719 72.90625 L 72.363281 72.8125 L 71.984375 73.414062 L 71.835938 73.320312 L 71.457031 73.921875 L 71.308594 73.828125 L 70.929688 74.429688 L 70.78125 74.335938 L 70.402344 74.9375 L 70.253906 74.84375 L 70.160156 74.992188 L 70.460938 75.183594 L 70.554688 75.03125 L 70.855469 75.222656 L 70.949219 75.074219 L 71.25 75.261719 L 71.34375 75.113281 L 71.492188 75.207031 L 71.585938 75.054688 L 71.886719 75.246094 L 71.980469 75.097656 L 72.132812 75.191406 L 72.226562 75.039062 L 72.527344 75.230469 L 72.621094 75.078125 L 72.769531 75.171875 L 72.863281 75.023438 L 73.164062 75.214844 L 73.257812 75.0625 L 73.40625 75.15625 L 73.5 75.007812 L 73.800781 75.195312 L 73.894531 75.046875 L 74.195312 75.234375 L 74.289062 75.085938 L 74.441406 75.179688 L 74.535156 75.03125 L 74.984375 75.3125 L 74.890625 75.464844 L 75.039062 75.558594 L 74.945312 75.707031 L 75.246094 75.894531 L 75.152344 76.046875 L 75.300781 76.140625 L 75.207031 76.289062 L 75.511719 76.476562 L 75.417969 76.625 L 75.71875 76.816406 L 75.625 76.964844 L 75.773438 77.058594 L 75.679688 77.207031 L 75.988281 77.402344 L 75.894531 77.550781 L 76.042969 77.644531 L 75.949219 77.796875 L 76.25 77.984375 L 76.15625 78.132812 L 76.308594 78.226562 L 76.214844 78.375 L 76.515625 78.566406 L 76.421875 78.714844 L 76.722656 78.902344 L 76.628906 79.054688 L 76.929688 79.242188 L 77.023438 79.09375 L 76.871094 79 L 77.25 78.398438 L 77.101562 78.304688 L 77.480469 77.703125 L 77.328125 77.609375 L 77.707031 77.003906 L 77.558594 76.910156 L 77.9375 76.308594 L 77.785156 76.214844 L 78.164062 75.613281 L 78.015625 75.519531 L 78.488281 74.769531 L 78.636719 74.863281 L 78.730469 74.714844 L 79.03125 74.902344 L 79.125 74.753906 L 79.273438 74.847656 L 79.367188 74.695312 L 79.519531 74.789062 L 79.613281 74.640625 L 79.761719 74.734375 L 79.855469 74.585938 L 80.003906 74.679688 L 80.097656 74.53125 L 80.246094 74.625 L 80.339844 74.472656 L 80.640625 74.664062 L 80.734375 74.515625 L 80.886719 74.609375 L 80.980469 74.457031 L 81.128906 74.550781 L 81.222656 74.402344 L 81.523438 74.589844 L 81.617188 74.441406 L 81.765625 74.535156 L 81.859375 74.386719 L 82.011719 74.480469 L 82.105469 74.332031 L 82.253906 74.425781 L 82.347656 74.273438 L 82.496094 74.367188 L 82.589844 74.21875 L 82.738281 74.3125 L 82.832031 74.164062 L 81.335938 73.222656 Z M 80.019531 73.65625 L 79.867188 73.5625 L 79.773438 73.710938 L 79.625 73.617188 L 79.53125 73.765625 L 79.230469 73.578125 L 79.136719 73.726562 L 78.988281 73.632812 L 78.894531 73.785156 L 78.746094 73.6875 L 78.652344 73.839844 L 78.5 73.746094 L 78.40625 73.894531 L 78.101562 73.703125 L 78.007812 73.851562 L 77.859375 73.757812 L 77.765625 73.90625 L 77.617188 73.8125 L 77.238281 74.417969 L 77.386719 74.511719 L 77.003906 75.117188 L 77.15625 75.210938 L 76.777344 75.8125 L 76.925781 75.90625 L 76.644531 76.359375 L 76.496094 76.265625 L 76.589844 76.117188 L 76.285156 75.925781 L 76.382812 75.777344 L 76.078125 75.589844 L 76.171875 75.4375 L 76.023438 75.34375 L 76.117188 75.195312 L 75.816406 75.007812 L 75.910156 74.855469 L 75.761719 74.761719 L 75.855469 74.613281 L 75.554688 74.425781 L 75.648438 74.273438 L 75.199219 73.992188 L 75.105469 74.140625 L 74.800781 73.953125 L 74.707031 74.101562 L 74.558594 74.007812 L 74.464844 74.160156 L 74.164062 73.96875 L 74.070312 74.117188 L 73.921875 74.023438 L 73.828125 74.175781 L 73.527344 73.984375 L 73.433594 74.136719 L 73.285156 74.042969 L 73.191406 74.191406 L 72.886719 74 L 73.167969 73.550781 L 73.320312 73.644531 L 73.789062 72.890625 L 73.941406 72.984375 L 74.222656 72.535156 L 74.371094 72.628906 L 74.75 72.027344 L 74.601562 71.933594 L 74.695312 71.785156 L 74.542969 71.691406 L 74.636719 71.539062 L 74.335938 71.351562 L 74.429688 71.203125 L 74.28125 71.109375 L 74.375 70.960938 L 74.226562 70.867188 L 74.320312 70.714844 L 74.171875 70.621094 L 74.265625 70.472656 L 74.113281 70.378906 L 74.207031 70.230469 L 73.90625 70.039062 L 74 69.890625 L 73.851562 69.796875 L 73.945312 69.648438 L 75 70.308594 L 75.09375 70.160156 L 76.292969 70.914062 L 76.484375 70.613281 L 76.632812 70.707031 L 76.820312 70.40625 L 76.972656 70.5 L 77.253906 70.046875 L 77.402344 70.140625 L 77.59375 69.839844 L 77.742188 69.933594 L 78.023438 69.484375 L 78.171875 69.578125 L 78.363281 69.277344 L 78.511719 69.371094 L 78.324219 69.671875 L 78.472656 69.765625 L 78.191406 70.214844 L 78.339844 70.308594 L 78.148438 70.609375 L 78.300781 70.703125 L 78.015625 71.15625 L 78.167969 71.25 L 77.976562 71.550781 L 78.125 71.644531 L 77.9375 71.945312 L 79.140625 72.699219 L 79.046875 72.847656 L 80.097656 73.507812 L 80.011719 73.652344 Z M 80.019531 73.65625 "/></g></g></g><g clip-rule="nonzero" clip-path="url(#bfe2d10909)"><g clip-rule="nonzero" clip-path="url(#cb679ddcdd)"><g clip-rule="nonzero" clip-path="url(#2e9daea581)"><path style=" stroke:none;fill-rule:nonzero;fill:#ffcc00;fill-opacity:1;" d="M 37.09375 82.34375 L 37.332031 81.960938 L 32.734375 79.078125 L 32.976562 78.699219 L 31.441406 77.734375 L 31.921875 76.96875 L 31.542969 76.730469 L 32.023438 75.960938 L 31.644531 75.722656 L 32.363281 74.578125 L 31.980469 74.335938 L 32.46875 73.566406 L 32.085938 73.324219 L 32.804688 72.179688 L 32.425781 71.941406 L 32.90625 71.171875 L 32.527344 70.933594 L 33.246094 69.785156 L 32.867188 69.546875 L 33.347656 68.78125 L 32.964844 68.542969 L 33.691406 67.390625 L 33.308594 67.152344 L 33.546875 66.769531 L 33.167969 66.53125 L 32.929688 66.910156 L 32.546875 66.671875 L 31.828125 67.820312 L 31.449219 67.582031 L 30.964844 68.347656 L 30.585938 68.109375 L 29.867188 69.257812 L 29.484375 69.015625 L 29.003906 69.785156 L 28.621094 69.546875 L 27.902344 70.691406 L 27.523438 70.453125 L 27.039062 71.21875 L 26.660156 70.980469 L 25.941406 72.128906 L 25.558594 71.890625 L 25.078125 72.65625 L 24.699219 72.417969 L 24.210938 73.191406 L 23.023438 72.441406 L 22.78125 72.824219 L 17.421875 69.457031 L 17.183594 69.839844 L 13.734375 67.675781 L 13.496094 68.054688 L 13.875 68.292969 L 13.636719 68.675781 L 14.019531 68.914062 L 13.777344 69.292969 L 14.160156 69.535156 L 13.921875 69.914062 L 14.300781 70.152344 L 14.0625 70.535156 L 14.441406 70.773438 L 14.203125 71.152344 L 14.972656 71.632812 L 14.730469 72.015625 L 15.113281 72.253906 L 14.875 72.632812 L 15.253906 72.875 L 15.015625 73.253906 L 15.394531 73.492188 L 15.15625 73.875 L 15.925781 74.355469 L 15.683594 74.734375 L 16.066406 74.972656 L 15.828125 75.355469 L 16.207031 75.59375 L 15.96875 75.976562 L 16.347656 76.214844 L 16.109375 76.59375 L 16.492188 76.832031 L 16.253906 77.214844 L 17.019531 77.695312 L 16.78125 78.074219 L 17.160156 78.316406 L 15.960938 80.230469 L 15.578125 79.988281 L 14.617188 81.523438 L 14.234375 81.285156 L 13.273438 82.816406 L 12.890625 82.578125 L 11.929688 84.113281 L 11.550781 83.875 L 10.585938 85.40625 L 10.207031 85.167969 L 9.242188 86.703125 L 8.863281 86.460938 L 8.625 86.84375 L 9.390625 87.324219 L 9.628906 86.945312 L 10.394531 87.425781 L 10.636719 87.042969 L 11.402344 87.527344 L 11.640625 87.144531 L 12.023438 87.382812 L 12.261719 87.003906 L 13.027344 87.484375 L 13.265625 87.105469 L 13.648438 87.34375 L 13.886719 86.960938 L 14.652344 87.445312 L 14.890625 87.0625 L 15.273438 87.300781 L 15.511719 86.921875 L 16.277344 87.402344 L 16.515625 87.023438 L 16.898438 87.261719 L 17.136719 86.878906 L 17.902344 87.359375 L 18.140625 86.980469 L 18.910156 87.460938 L 19.148438 87.082031 L 19.527344 87.320312 L 19.765625 86.941406 L 20.914062 87.660156 L 20.675781 88.039062 L 21.054688 88.277344 L 20.816406 88.660156 L 21.582031 89.140625 L 21.34375 89.523438 L 21.726562 89.761719 L 21.488281 90.140625 L 22.253906 90.621094 L 22.015625 91.003906 L 22.78125 91.484375 L 22.542969 91.863281 L 22.921875 92.105469 L 22.683594 92.484375 L 23.472656 92.980469 L 23.234375 93.359375 L 23.613281 93.597656 L 23.375 93.980469 L 24.140625 94.460938 L 23.902344 94.839844 L 24.285156 95.082031 L 24.046875 95.460938 L 24.8125 95.941406 L 24.574219 96.324219 L 25.339844 96.804688 L 25.101562 97.183594 L 25.867188 97.667969 L 26.105469 97.285156 L 25.726562 97.046875 L 26.6875 95.511719 L 26.308594 95.273438 L 27.269531 93.742188 L 26.890625 93.503906 L 27.851562 91.96875 L 27.472656 91.730469 L 28.433594 90.195312 L 28.054688 89.957031 L 29.015625 88.421875 L 28.636719 88.183594 L 29.835938 86.269531 L 30.21875 86.507812 L 30.457031 86.128906 L 31.222656 86.609375 L 31.460938 86.230469 L 31.84375 86.46875 L 32.082031 86.085938 L 32.460938 86.328125 L 32.699219 85.945312 L 33.082031 86.183594 L 33.320312 85.804688 L 33.699219 86.042969 L 33.941406 85.664062 L 34.320312 85.902344 L 34.558594 85.519531 L 35.324219 86.003906 L 35.566406 85.621094 L 35.945312 85.859375 L 36.183594 85.480469 L 36.566406 85.71875 L 36.804688 85.339844 L 37.570312 85.820312 L 37.808594 85.4375 L 38.191406 85.675781 L 38.429688 85.296875 L 38.808594 85.535156 L 39.050781 85.15625 L 39.429688 85.394531 L 39.667969 85.011719 L 40.050781 85.253906 L 40.289062 84.871094 L 40.667969 85.109375 L 40.90625 84.730469 L 37.09375 82.335938 Z M 33.738281 83.4375 L 33.355469 83.195312 L 33.117188 83.578125 L 32.738281 83.339844 L 32.5 83.71875 L 31.730469 83.238281 L 31.492188 83.617188 L 31.113281 83.378906 L 30.875 83.761719 L 30.492188 83.523438 L 30.253906 83.902344 L 29.875 83.664062 L 29.632812 84.042969 L 28.855469 83.554688 L 28.617188 83.9375 L 28.238281 83.699219 L 28 84.078125 L 27.617188 83.839844 L 26.65625 85.375 L 27.035156 85.613281 L 26.0625 87.160156 L 26.445312 87.402344 L 25.480469 88.933594 L 25.863281 89.171875 L 25.140625 90.320312 L 24.761719 90.082031 L 25 89.699219 L 24.234375 89.21875 L 24.472656 88.839844 L 23.707031 88.359375 L 23.945312 87.976562 L 23.5625 87.738281 L 23.800781 87.359375 L 23.035156 86.875 L 23.273438 86.496094 L 22.894531 86.257812 L 23.132812 85.875 L 22.367188 85.394531 L 22.605469 85.015625 L 21.457031 84.292969 L 21.21875 84.675781 L 20.453125 84.195312 L 20.214844 84.574219 L 19.832031 84.335938 L 19.59375 84.714844 L 18.828125 84.234375 L 18.589844 84.613281 L 18.207031 84.375 L 17.96875 84.757812 L 17.203125 84.277344 L 16.960938 84.65625 L 16.582031 84.417969 L 16.34375 84.796875 L 15.570312 84.3125 L 16.292969 83.167969 L 16.671875 83.40625 L 17.875 81.492188 L 18.253906 81.730469 L 18.972656 80.582031 L 19.355469 80.820312 L 20.316406 79.289062 L 19.9375 79.050781 L 20.175781 78.667969 L 19.792969 78.429688 L 20.035156 78.046875 L 19.265625 77.566406 L 19.503906 77.1875 L 19.125 76.949219 L 19.363281 76.566406 L 18.984375 76.328125 L 19.222656 75.949219 L 18.839844 75.707031 L 19.082031 75.328125 L 18.699219 75.089844 L 18.9375 74.707031 L 18.171875 74.226562 L 18.410156 73.847656 L 18.03125 73.609375 L 18.269531 73.226562 L 20.949219 74.910156 L 21.1875 74.527344 L 24.25 76.449219 L 24.730469 75.683594 L 25.113281 75.921875 L 25.59375 75.15625 L 25.972656 75.394531 L 26.695312 74.246094 L 27.074219 74.488281 L 27.554688 73.71875 L 27.9375 73.957031 L 28.65625 72.8125 L 29.039062 73.050781 L 29.519531 72.285156 L 29.898438 72.523438 L 29.417969 73.289062 L 29.800781 73.527344 L 29.078125 74.675781 L 29.460938 74.914062 L 28.980469 75.679688 L 29.359375 75.921875 L 28.640625 77.066406 L 29.019531 77.304688 L 28.539062 78.074219 L 28.917969 78.3125 L 28.4375 79.078125 L 31.5 81 L 31.261719 81.382812 L 33.941406 83.0625 L 33.714844 83.421875 Z M 33.738281 83.4375 "/></g></g></g><g clip-rule="nonzero" clip-path="url(#bc932d9e4e)"><g clip-rule="nonzero" clip-path="url(#cfe204b40c)"><g clip-rule="nonzero" clip-path="url(#1a1f81f731)"><path style=" stroke:none;fill-rule:nonzero;fill:#ff66c4;fill-opacity:1;" d="M 95.242188 17.4375 L 95.054688 17.074219 L 90.664062 19.328125 L 90.476562 18.964844 L 89.011719 19.714844 L 88.636719 18.980469 L 88.273438 19.167969 L 87.894531 18.433594 L 87.53125 18.621094 L 86.96875 17.523438 L 86.605469 17.710938 L 86.226562 16.972656 L 85.863281 17.160156 L 85.300781 16.0625 L 84.9375 16.25 L 84.5625 15.515625 L 84.199219 15.703125 L 83.636719 14.605469 L 83.273438 14.792969 L 82.894531 14.0625 L 82.53125 14.246094 L 81.96875 13.144531 L 81.605469 13.332031 L 81.417969 12.96875 L 81.054688 13.15625 L 81.238281 13.519531 L 80.875 13.703125 L 81.4375 14.800781 L 81.074219 14.988281 L 81.449219 15.722656 L 81.085938 15.90625 L 81.648438 17.003906 L 81.285156 17.191406 L 81.660156 17.921875 L 81.296875 18.109375 L 81.859375 19.207031 L 81.496094 19.394531 L 81.871094 20.125 L 81.507812 20.3125 L 82.070312 21.410156 L 81.707031 21.597656 L 82.082031 22.328125 L 81.71875 22.515625 L 82.09375 23.253906 L 80.957031 23.835938 L 81.144531 24.199219 L 76.019531 26.828125 L 76.207031 27.191406 L 72.910156 28.882812 L 73.097656 29.246094 L 73.460938 29.058594 L 73.648438 29.421875 L 74.011719 29.234375 L 74.199219 29.601562 L 74.5625 29.414062 L 74.75 29.777344 L 75.113281 29.589844 L 75.296875 29.953125 L 75.664062 29.769531 L 75.847656 30.132812 L 76.582031 29.757812 L 76.769531 30.121094 L 77.132812 29.933594 L 77.320312 30.296875 L 77.683594 30.109375 L 77.867188 30.476562 L 78.234375 30.289062 L 78.417969 30.652344 L 79.152344 30.277344 L 79.339844 30.640625 L 79.703125 30.453125 L 79.890625 30.816406 L 80.253906 30.628906 L 80.4375 30.996094 L 80.804688 30.808594 L 80.988281 31.171875 L 81.355469 30.984375 L 81.539062 31.347656 L 82.273438 30.972656 L 82.460938 31.335938 L 82.824219 31.152344 L 83.761719 32.980469 L 83.398438 33.167969 L 84.148438 34.632812 L 83.785156 34.820312 L 84.535156 36.285156 L 84.171875 36.472656 L 84.925781 37.9375 L 84.558594 38.125 L 85.3125 39.589844 L 84.949219 39.777344 L 85.699219 41.242188 L 85.335938 41.429688 L 85.523438 41.792969 L 86.253906 41.417969 L 86.070312 41.050781 L 86.800781 40.675781 L 86.613281 40.3125 L 87.347656 39.9375 L 87.160156 39.574219 L 87.523438 39.386719 L 87.339844 39.023438 L 88.070312 38.648438 L 87.886719 38.285156 L 88.25 38.097656 L 88.0625 37.734375 L 88.796875 37.355469 L 88.609375 36.992188 L 88.972656 36.808594 L 88.785156 36.441406 L 89.519531 36.066406 L 89.332031 35.703125 L 89.695312 35.515625 L 89.507812 35.152344 L 90.242188 34.777344 L 90.054688 34.414062 L 90.789062 34.039062 L 90.601562 33.675781 L 90.964844 33.488281 L 90.78125 33.125 L 91.875 32.5625 L 92.0625 32.925781 L 92.425781 32.738281 L 92.613281 33.101562 L 93.347656 32.726562 L 93.53125 33.089844 L 93.894531 32.902344 L 94.082031 33.269531 L 94.816406 32.890625 L 95.003906 33.257812 L 95.734375 32.878906 L 95.921875 33.242188 L 96.285156 33.058594 L 96.472656 33.421875 L 97.226562 33.035156 L 97.410156 33.398438 L 97.777344 33.210938 L 97.960938 33.574219 L 98.695312 33.199219 L 98.882812 33.5625 L 99.246094 33.378906 L 99.433594 33.742188 L 100.164062 33.367188 L 100.351562 33.730469 L 101.085938 33.355469 L 101.269531 33.71875 L 102.003906 33.34375 L 101.816406 32.976562 L 101.453125 33.164062 L 100.703125 31.699219 L 100.339844 31.886719 L 99.585938 30.417969 L 99.222656 30.605469 L 98.472656 29.140625 L 98.109375 29.328125 L 97.355469 27.863281 L 96.992188 28.046875 L 96.242188 26.582031 L 95.875 26.769531 L 94.9375 24.9375 L 95.300781 24.753906 L 95.117188 24.390625 L 95.847656 24.011719 L 95.664062 23.648438 L 96.027344 23.460938 L 95.839844 23.097656 L 96.203125 22.914062 L 96.015625 22.546875 L 96.382812 22.363281 L 96.195312 22 L 96.558594 21.8125 L 96.371094 21.449219 L 96.734375 21.261719 L 96.550781 20.898438 L 97.28125 20.523438 L 97.09375 20.15625 L 97.460938 19.972656 L 97.273438 19.609375 L 97.636719 19.421875 L 97.449219 19.058594 L 98.183594 18.679688 L 97.996094 18.316406 L 98.359375 18.132812 L 98.171875 17.765625 L 98.539062 17.582031 L 98.351562 17.21875 L 98.714844 17.03125 L 98.527344 16.667969 L 98.890625 16.480469 L 98.707031 16.117188 L 99.070312 15.929688 L 98.882812 15.566406 L 95.238281 17.433594 Z M 94.535156 20.570312 L 94.171875 20.757812 L 94.359375 21.121094 L 93.996094 21.308594 L 94.183594 21.671875 L 93.449219 22.046875 L 93.636719 22.410156 L 93.273438 22.597656 L 93.457031 22.960938 L 93.09375 23.148438 L 93.28125 23.511719 L 92.917969 23.699219 L 93.105469 24.0625 L 92.359375 24.441406 L 92.546875 24.804688 L 92.183594 24.992188 L 92.371094 25.355469 L 92.007812 25.542969 L 92.757812 27.007812 L 93.121094 26.824219 L 93.882812 28.304688 L 94.246094 28.117188 L 94.996094 29.582031 L 95.359375 29.398438 L 95.921875 30.492188 L 95.558594 30.679688 L 95.371094 30.316406 L 94.640625 30.691406 L 94.453125 30.328125 L 93.71875 30.703125 L 93.535156 30.339844 L 93.167969 30.527344 L 92.984375 30.164062 L 92.25 30.539062 L 92.0625 30.175781 L 91.699219 30.359375 L 91.511719 29.996094 L 90.78125 30.371094 L 90.59375 30.007812 L 89.496094 30.570312 L 89.683594 30.933594 L 88.949219 31.3125 L 89.136719 31.675781 L 88.773438 31.859375 L 88.960938 32.226562 L 88.226562 32.601562 L 88.414062 32.964844 L 88.050781 33.152344 L 88.234375 33.515625 L 87.503906 33.890625 L 87.691406 34.253906 L 87.324219 34.441406 L 87.511719 34.804688 L 86.773438 35.183594 L 86.210938 34.085938 L 86.578125 33.898438 L 85.636719 32.070312 L 86.003906 31.882812 L 85.441406 30.789062 L 85.804688 30.601562 L 85.050781 29.136719 L 84.6875 29.320312 L 84.5 28.957031 L 84.136719 29.144531 L 83.953125 28.78125 L 83.21875 29.15625 L 83.03125 28.792969 L 82.667969 28.980469 L 82.480469 28.613281 L 82.117188 28.800781 L 81.929688 28.4375 L 81.566406 28.625 L 81.382812 28.261719 L 81.015625 28.445312 L 80.832031 28.082031 L 80.097656 28.457031 L 79.910156 28.09375 L 79.546875 28.28125 L 79.359375 27.917969 L 81.921875 26.605469 L 81.738281 26.242188 L 84.664062 24.738281 L 84.289062 24.007812 L 84.652344 23.820312 L 84.273438 23.085938 L 84.640625 22.902344 L 84.078125 21.804688 L 84.441406 21.617188 L 84.066406 20.886719 L 84.429688 20.699219 L 83.867188 19.601562 L 84.230469 19.414062 L 83.855469 18.683594 L 84.21875 18.496094 L 84.59375 19.230469 L 84.957031 19.042969 L 85.519531 20.140625 L 85.882812 19.953125 L 86.261719 20.683594 L 86.625 20.5 L 87.1875 21.59375 L 87.550781 21.410156 L 87.925781 22.140625 L 88.289062 21.957031 L 88.664062 22.6875 L 91.589844 21.1875 L 91.777344 21.550781 L 94.339844 20.238281 L 94.515625 20.582031 Z M 94.535156 20.570312 "/></g></g></g></g></svg>